G04 #@! TF.GenerationSoftware,KiCad,Pcbnew,(5.1.4)-1*
G04 #@! TF.CreationDate,2019-11-08T17:49:40+09:00*
G04 #@! TF.ProjectId,gekko,67656b6b-6f2e-46b6-9963-61645f706362,rev?*
G04 #@! TF.SameCoordinates,Original*
G04 #@! TF.FileFunction,Legend,Top*
G04 #@! TF.FilePolarity,Positive*
%FSLAX46Y46*%
G04 Gerber Fmt 4.6, Leading zero omitted, Abs format (unit mm)*
G04 Created by KiCad (PCBNEW (5.1.4)-1) date 2019-11-08 17:49:40*
%MOMM*%
%LPD*%
G04 APERTURE LIST*
%ADD10C,0.120000*%
%ADD11C,0.100000*%
%ADD12C,0.150000*%
%ADD13C,0.152400*%
%ADD14C,0.125000*%
G04 APERTURE END LIST*
D10*
X164840000Y-145490000D02*
X164840000Y-140610000D01*
X167960000Y-139440000D02*
X167960000Y-140490000D01*
X166810000Y-139440000D02*
X167960000Y-139440000D01*
X167960000Y-145610000D02*
X168950000Y-145610000D01*
X167960000Y-146660000D02*
X167960000Y-145610000D01*
X166810000Y-146660000D02*
X167960000Y-146660000D01*
X167181473Y-107573214D02*
X167181473Y-107573214D01*
X167414179Y-104913374D02*
X167181473Y-107573214D01*
X164594948Y-104666723D02*
X167703075Y-104938649D01*
X168199167Y-103857773D02*
X167800689Y-103822911D01*
X168039497Y-101093338D02*
G75*
G03X164931369Y-100821412I-1554064J135963D01*
G01*
X164594948Y-104666723D02*
X164931369Y-100821412D01*
X167181473Y-107573214D02*
X167414179Y-104913374D01*
X164651138Y-107351838D02*
X164651138Y-107351838D01*
X167414179Y-104913374D02*
X167414179Y-104913374D01*
X167800689Y-103822911D02*
X167703075Y-104938649D01*
X167703075Y-104938649D02*
X168039496Y-101093338D01*
X164651138Y-107351838D02*
X164883844Y-104691998D01*
X168101553Y-104973511D02*
X168199167Y-103857773D01*
X164883844Y-104691998D02*
X164883844Y-104691998D01*
X167703075Y-104938649D02*
X168101553Y-104973511D01*
X164883844Y-104691998D02*
X164651138Y-107351838D01*
X155654841Y-97611182D02*
X155654841Y-97611182D01*
X157700180Y-95894939D02*
X155654841Y-97611182D01*
X155881091Y-93727033D02*
X157886588Y-96117092D01*
X159001673Y-95703587D02*
X158744558Y-95397170D01*
X160843520Y-93635931D02*
G75*
G03X158838022Y-91245873I-1002749J1195029D01*
G01*
X155881091Y-93727033D02*
X158838022Y-91245873D01*
X155654841Y-97611182D02*
X157700180Y-95894939D01*
X154022161Y-95665429D02*
X154022161Y-95665429D01*
X157700180Y-95894939D02*
X157700180Y-95894939D01*
X158744558Y-95397170D02*
X157886588Y-96117092D01*
X157886588Y-96117092D02*
X160843520Y-93635932D01*
X154022161Y-95665429D02*
X156067499Y-93949186D01*
X158143703Y-96423510D02*
X159001673Y-95703587D01*
X156067499Y-93949186D02*
X156067499Y-93949186D01*
X157886588Y-96117092D02*
X158143703Y-96423510D01*
X156067499Y-93949186D02*
X154022161Y-95665429D01*
X143895678Y-93720048D02*
X141890181Y-96110106D01*
X144121928Y-97604196D02*
X144121928Y-97604196D01*
X141633066Y-96416524D02*
X140775096Y-95696602D01*
X144121928Y-97604196D02*
X142076589Y-95887953D01*
X143895678Y-93720048D02*
X140938746Y-91238888D01*
X145754608Y-95658443D02*
X145754608Y-95658443D01*
X141890181Y-96110106D02*
X141633066Y-96416524D01*
X143709270Y-93942201D02*
X143709270Y-93942201D01*
X145754608Y-95658443D02*
X143709270Y-93942201D01*
X141890181Y-96110106D02*
X138933249Y-93628946D01*
X140775096Y-95696602D02*
X141032211Y-95390184D01*
X141032211Y-95390184D02*
X141890181Y-96110106D01*
X142076589Y-95887953D02*
X142076589Y-95887953D01*
X142076589Y-95887953D02*
X144121928Y-97604196D01*
X138933250Y-93628946D02*
G75*
G02X140938746Y-91238888I1002748J1195029D01*
G01*
X143709270Y-93942201D02*
X145754608Y-95658443D01*
X135426220Y-104664438D02*
X132318093Y-104936364D01*
X132839695Y-107570929D02*
X132839695Y-107570929D01*
X131919615Y-104971226D02*
X131822001Y-103855488D01*
X132839695Y-107570929D02*
X132606989Y-104911089D01*
X135426220Y-104664438D02*
X135089799Y-100819126D01*
X135370030Y-107349553D02*
X135370030Y-107349553D01*
X132318093Y-104936364D02*
X131919615Y-104971226D01*
X135137324Y-104689713D02*
X135137324Y-104689713D01*
X135370030Y-107349553D02*
X135137324Y-104689713D01*
X132318093Y-104936364D02*
X131981672Y-101091052D01*
X131822001Y-103855488D02*
X132220479Y-103820626D01*
X132220479Y-103820626D02*
X132318093Y-104936364D01*
X132606989Y-104911089D02*
X132606989Y-104911089D01*
X132606989Y-104911089D02*
X132839695Y-107570929D01*
X131981673Y-101091052D02*
G75*
G02X135089799Y-100819126I1554063J135963D01*
G01*
X135137324Y-104689713D02*
X135370030Y-107349553D01*
D11*
X138750000Y-135700000D02*
X139000000Y-135700000D01*
X138750000Y-137700000D02*
X138750000Y-135700000D01*
X138750000Y-145700000D02*
X139000000Y-145700000D01*
X138750000Y-143700000D02*
X138750000Y-145700000D01*
X144750000Y-147100000D02*
X144750000Y-134300000D01*
X141350000Y-134300000D02*
X144750000Y-134300000D01*
X141350000Y-147100000D02*
X144750000Y-147100000D01*
D12*
X146400000Y-109650000D02*
X153400000Y-109650000D01*
X146400000Y-102650000D02*
X146400000Y-109650000D01*
X153400000Y-102650000D02*
X146400000Y-102650000D01*
X153400000Y-109650000D02*
X153400000Y-102650000D01*
D13*
X142544800Y-122443597D02*
X142544800Y-122920403D01*
X145999200Y-122443597D02*
X145999200Y-122920403D01*
D11*
X162100000Y-145700000D02*
X161850000Y-145700000D01*
X162100000Y-143700000D02*
X162100000Y-145700000D01*
X162100000Y-135700000D02*
X161850000Y-135700000D01*
X162100000Y-137700000D02*
X162100000Y-135700000D01*
X156100000Y-134300000D02*
X156100000Y-147100000D01*
X159500000Y-147100000D02*
X156100000Y-147100000D01*
X159500000Y-134300000D02*
X156100000Y-134300000D01*
X141480000Y-102900000D02*
X140280000Y-102900000D01*
X141480000Y-105925000D02*
X140230000Y-105925000D01*
X142930000Y-103900000D02*
X142930000Y-102900000D01*
X142930000Y-102900000D02*
X141480000Y-102900000D01*
X141480000Y-105925000D02*
X142930000Y-105925000D01*
X142930000Y-104900000D02*
X142930000Y-105925000D01*
X140280000Y-103950000D02*
X140280000Y-104850000D01*
D10*
X160927236Y-100331002D02*
X163051097Y-98548870D01*
X158728903Y-97711130D02*
X160852764Y-95928998D01*
X139232764Y-101001002D02*
X137108903Y-99218870D01*
X141431097Y-98381130D02*
X139307236Y-96598998D01*
X151258903Y-91231130D02*
X153382764Y-89448998D01*
X153457236Y-93851002D02*
X155581097Y-92068870D01*
X146337764Y-93851002D02*
X144213903Y-92068870D01*
X148536097Y-91231130D02*
X146412236Y-89448998D01*
D11*
X150880000Y-139190000D02*
X150880000Y-139590000D01*
X150880000Y-139590000D02*
X148880000Y-139590000D01*
X148880000Y-139590000D02*
X148880000Y-139190000D01*
X150880000Y-138390000D02*
X150880000Y-137990000D01*
X150880000Y-137990000D02*
X148880000Y-137990000D01*
X148880000Y-137990000D02*
X148880000Y-138390000D01*
D10*
X163940000Y-135880000D02*
X163940000Y-137030000D01*
X163940000Y-137030000D02*
X164990000Y-137030000D01*
X164990000Y-137030000D02*
X164990000Y-138020000D01*
X169160000Y-135880000D02*
X169160000Y-137030000D01*
X169160000Y-137030000D02*
X168110000Y-137030000D01*
X165110000Y-133910000D02*
X167990000Y-133910000D01*
X158012221Y-102640000D02*
X158337779Y-102640000D01*
X158012221Y-103660000D02*
X158337779Y-103660000D01*
D13*
X149469500Y-132651200D02*
X149469500Y-132397200D01*
X149850501Y-132651200D02*
X149469500Y-132651200D01*
X149850501Y-132397200D02*
X149850501Y-132651200D01*
X149469500Y-132397200D02*
X149850501Y-132397200D01*
D12*
X148240000Y-118800000D02*
X148640000Y-118800000D01*
X148240000Y-122000000D02*
X148240000Y-121600000D01*
X151440000Y-122000000D02*
X151440000Y-121600000D01*
X151440000Y-118800000D02*
X151440000Y-119200000D01*
X151440000Y-122000000D02*
X151040000Y-122000000D01*
X148240000Y-122000000D02*
X148640000Y-122000000D01*
X151440000Y-118800000D02*
X151040000Y-118800000D01*
X148350000Y-118940000D02*
X151350000Y-118940000D01*
X151350000Y-118940000D02*
X151350000Y-121940000D01*
X151350000Y-121940000D02*
X148350000Y-121940000D01*
X148350000Y-121940000D02*
X148350000Y-118940000D01*
D11*
X158350000Y-106800000D02*
X158350000Y-104800000D01*
X157450000Y-106800000D02*
X156650000Y-106800000D01*
X157450000Y-104800000D02*
X156650000Y-104800000D01*
X155750000Y-104800000D02*
X155750000Y-106800000D01*
X167750000Y-128850000D02*
X167550000Y-128850000D01*
X167550000Y-128850000D02*
X167550000Y-131300000D01*
X167550000Y-131300000D02*
X167750000Y-131300000D01*
X169100000Y-128850000D02*
X169275000Y-128850000D01*
X169275000Y-128850000D02*
X169275000Y-131275000D01*
X169275000Y-131275000D02*
X169100000Y-131275000D01*
X148820000Y-141478000D02*
G75*
G03X148820000Y-141478000I-50000J0D01*
G01*
X164450000Y-130785000D02*
G75*
G03X164450000Y-130785000I-50000J0D01*
G01*
X148820000Y-142748000D02*
G75*
G03X148820000Y-142748000I-50000J0D01*
G01*
X164450000Y-128510000D02*
G75*
G03X164450000Y-128510000I-50000J0D01*
G01*
X148820000Y-146558000D02*
G75*
G03X148820000Y-146558000I-50000J0D01*
G01*
D13*
X136174900Y-140260861D02*
X136174900Y-139025100D01*
X131425100Y-142539139D02*
X131425100Y-143774900D01*
X131425100Y-139025100D02*
X131425100Y-140260861D01*
X136174900Y-139025100D02*
X131425100Y-139025100D01*
X136174900Y-143774900D02*
X136174900Y-142539139D01*
X131425100Y-143774900D02*
X136174900Y-143774900D01*
X129578901Y-141019000D02*
X129578901Y-141781000D01*
X129959901Y-141400000D02*
X129197901Y-141400000D01*
X133600000Y-134990099D02*
X133600000Y-135752099D01*
X133219000Y-135371099D02*
X133981000Y-135371099D01*
X135974900Y-133524900D02*
X135974900Y-128775100D01*
X135974900Y-128775100D02*
X134739139Y-128775100D01*
X131225100Y-128775100D02*
X131225100Y-133524900D01*
X131225100Y-133524900D02*
X132460861Y-133524900D01*
X134739139Y-133524900D02*
X135974900Y-133524900D01*
X132460861Y-128775100D02*
X131225100Y-128775100D01*
X133196700Y-138301000D02*
X135203300Y-138301000D01*
X135203300Y-136983261D02*
X135203300Y-136316739D01*
X135203300Y-134999000D02*
X133196700Y-134999000D01*
X157207200Y-117831597D02*
X157207200Y-118308403D01*
X153752800Y-117831597D02*
X153752800Y-118308403D01*
D11*
X134350000Y-146960000D02*
X134350000Y-145750000D01*
X131300000Y-146950000D02*
X134350000Y-146960000D01*
X131300000Y-145750000D02*
X131300000Y-146950000D01*
X131300000Y-144550000D02*
X131300000Y-145750000D01*
X134350000Y-144550000D02*
X131300000Y-144550000D01*
X134350000Y-145750000D02*
X134350000Y-144550000D01*
D12*
X163002380Y-143383333D02*
X163716666Y-143383333D01*
X163859523Y-143430952D01*
X163954761Y-143526190D01*
X164002380Y-143669047D01*
X164002380Y-143764285D01*
X163002380Y-143002380D02*
X163002380Y-142383333D01*
X163383333Y-142716666D01*
X163383333Y-142573809D01*
X163430952Y-142478571D01*
X163478571Y-142430952D01*
X163573809Y-142383333D01*
X163811904Y-142383333D01*
X163907142Y-142430952D01*
X163954761Y-142478571D01*
X164002380Y-142573809D01*
X164002380Y-142859523D01*
X163954761Y-142954761D01*
X163907142Y-143002380D01*
D11*
X154329354Y-108850318D02*
X154258800Y-109656761D01*
X154297937Y-109755787D01*
X154341224Y-109807375D01*
X154431950Y-109863114D01*
X154621701Y-109879715D01*
X154720727Y-109840578D01*
X154772315Y-109797290D01*
X154828054Y-109706565D01*
X154898608Y-108900121D01*
X155477948Y-109381015D02*
X155387222Y-109325277D01*
X155343935Y-109273689D01*
X155304797Y-109174663D01*
X155308948Y-109127225D01*
X155364686Y-109036500D01*
X155416274Y-108993212D01*
X155515300Y-108954075D01*
X155705052Y-108970676D01*
X155795777Y-109026414D01*
X155839065Y-109078002D01*
X155878202Y-109177028D01*
X155874052Y-109224466D01*
X155818313Y-109315192D01*
X155766725Y-109358479D01*
X155667699Y-109397616D01*
X155477948Y-109381015D01*
X155378922Y-109420153D01*
X155327334Y-109463440D01*
X155271595Y-109554166D01*
X155254994Y-109743917D01*
X155294132Y-109842943D01*
X155337419Y-109894531D01*
X155428144Y-109950269D01*
X155617896Y-109966871D01*
X155716922Y-109927733D01*
X155768510Y-109884446D01*
X155824248Y-109793720D01*
X155840849Y-109603969D01*
X155801712Y-109504943D01*
X155758425Y-109453355D01*
X155667699Y-109397616D01*
X145663971Y-89426411D02*
X145043840Y-89946763D01*
X145001492Y-90044459D01*
X144995623Y-90111546D01*
X145020362Y-90215112D01*
X145142798Y-90361025D01*
X145240494Y-90403373D01*
X145307582Y-90409242D01*
X145411147Y-90384502D01*
X146031278Y-89864151D01*
X146276150Y-90155977D02*
X146704675Y-90666673D01*
X145663150Y-90981156D01*
X152229659Y-96159703D02*
X152849790Y-96680055D01*
X152953356Y-96704794D01*
X153020443Y-96698925D01*
X153118139Y-96656577D01*
X153240575Y-96510664D01*
X153265315Y-96407098D01*
X153259445Y-96340011D01*
X153217097Y-96242315D01*
X152596966Y-95721963D01*
X153178536Y-95028875D02*
X153056100Y-95174788D01*
X153031361Y-95278354D01*
X153037230Y-95345441D01*
X153085447Y-95510225D01*
X153200751Y-95669139D01*
X153492578Y-95914010D01*
X153596143Y-95938750D01*
X153663231Y-95932880D01*
X153760927Y-95890533D01*
X153883363Y-95744619D01*
X153908102Y-95641054D01*
X153902233Y-95573967D01*
X153859885Y-95476270D01*
X153677494Y-95323226D01*
X153573928Y-95298486D01*
X153506841Y-95304356D01*
X153409145Y-95346703D01*
X153286709Y-95492616D01*
X153261969Y-95596182D01*
X153267839Y-95663269D01*
X153310186Y-95760965D01*
X139594138Y-112282550D02*
X139664693Y-113088993D01*
X139720431Y-113179718D01*
X139772019Y-113223006D01*
X139871045Y-113262143D01*
X140060796Y-113245542D01*
X140151522Y-113189804D01*
X140194809Y-113138216D01*
X140233947Y-113039190D01*
X140163392Y-112232746D01*
X140542895Y-112199544D02*
X141159587Y-112145591D01*
X140860724Y-112554145D01*
X141003037Y-112541694D01*
X141102063Y-112580832D01*
X141153652Y-112624119D01*
X141209390Y-112714845D01*
X141230141Y-112952034D01*
X141191004Y-113051060D01*
X141147716Y-113102648D01*
X141056991Y-113158386D01*
X140772364Y-113183288D01*
X140673338Y-113144151D01*
X140621750Y-113100863D01*
X141502380Y-137733333D02*
X142216666Y-137733333D01*
X142359523Y-137780952D01*
X142454761Y-137876190D01*
X142502380Y-138019047D01*
X142502380Y-138114285D01*
X142502380Y-136733333D02*
X142502380Y-137304761D01*
X142502380Y-137019047D02*
X141502380Y-137019047D01*
X141645238Y-137114285D01*
X141740476Y-137209523D01*
X141788095Y-137304761D01*
D14*
X149519047Y-105376190D02*
X149519047Y-105780952D01*
X149542857Y-105828571D01*
X149566666Y-105852380D01*
X149614285Y-105876190D01*
X149709523Y-105876190D01*
X149757142Y-105852380D01*
X149780952Y-105828571D01*
X149804761Y-105780952D01*
X149804761Y-105376190D01*
X150019047Y-105423809D02*
X150042857Y-105400000D01*
X150090476Y-105376190D01*
X150209523Y-105376190D01*
X150257142Y-105400000D01*
X150280952Y-105423809D01*
X150304761Y-105471428D01*
X150304761Y-105519047D01*
X150280952Y-105590476D01*
X149995238Y-105876190D01*
X150304761Y-105876190D01*
D12*
X144724380Y-123372476D02*
X144248190Y-123705809D01*
X144724380Y-123943904D02*
X143724380Y-123943904D01*
X143724380Y-123562952D01*
X143772000Y-123467714D01*
X143819619Y-123420095D01*
X143914857Y-123372476D01*
X144057714Y-123372476D01*
X144152952Y-123420095D01*
X144200571Y-123467714D01*
X144248190Y-123562952D01*
X144248190Y-123943904D01*
X144724380Y-122943904D02*
X143724380Y-122943904D01*
X144724380Y-122372476D01*
X143724380Y-122372476D01*
X143819619Y-121943904D02*
X143772000Y-121896285D01*
X143724380Y-121801047D01*
X143724380Y-121562952D01*
X143772000Y-121467714D01*
X143819619Y-121420095D01*
X143914857Y-121372476D01*
X144010095Y-121372476D01*
X144152952Y-121420095D01*
X144724380Y-121991523D01*
X144724380Y-121372476D01*
X144724380Y-127229619D02*
X144248190Y-127562952D01*
X144724380Y-127801047D02*
X143724380Y-127801047D01*
X143724380Y-127420095D01*
X143772000Y-127324857D01*
X143819619Y-127277238D01*
X143914857Y-127229619D01*
X144057714Y-127229619D01*
X144152952Y-127277238D01*
X144200571Y-127324857D01*
X144248190Y-127420095D01*
X144248190Y-127801047D01*
X144819619Y-127039142D02*
X144819619Y-126277238D01*
X144724380Y-126039142D02*
X143724380Y-126039142D01*
X143724380Y-125658190D01*
X143772000Y-125562952D01*
X143819619Y-125515333D01*
X143914857Y-125467714D01*
X144057714Y-125467714D01*
X144152952Y-125515333D01*
X144200571Y-125562952D01*
X144248190Y-125658190D01*
X144248190Y-126039142D01*
X144724380Y-124610571D02*
X144200571Y-124610571D01*
X144105333Y-124658190D01*
X144057714Y-124753428D01*
X144057714Y-124943904D01*
X144105333Y-125039142D01*
X144676761Y-124610571D02*
X144724380Y-124705809D01*
X144724380Y-124943904D01*
X144676761Y-125039142D01*
X144581523Y-125086761D01*
X144486285Y-125086761D01*
X144391047Y-125039142D01*
X144343428Y-124943904D01*
X144343428Y-124705809D01*
X144295809Y-124610571D01*
X144676761Y-123705809D02*
X144724380Y-123801047D01*
X144724380Y-123991523D01*
X144676761Y-124086761D01*
X144629142Y-124134380D01*
X144533904Y-124182000D01*
X144248190Y-124182000D01*
X144152952Y-124134380D01*
X144105333Y-124086761D01*
X144057714Y-123991523D01*
X144057714Y-123801047D01*
X144105333Y-123705809D01*
X144724380Y-123277238D02*
X143724380Y-123277238D01*
X144343428Y-123182000D02*
X144724380Y-122896285D01*
X144057714Y-122896285D02*
X144438666Y-123277238D01*
X143724380Y-122277238D02*
X143724380Y-122182000D01*
X143772000Y-122086761D01*
X143819619Y-122039142D01*
X143914857Y-121991523D01*
X144105333Y-121943904D01*
X144343428Y-121943904D01*
X144533904Y-121991523D01*
X144629142Y-122039142D01*
X144676761Y-122086761D01*
X144724380Y-122182000D01*
X144724380Y-122277238D01*
X144676761Y-122372476D01*
X144629142Y-122420095D01*
X144533904Y-122467714D01*
X144343428Y-122515333D01*
X144105333Y-122515333D01*
X143914857Y-122467714D01*
X143819619Y-122420095D01*
X143772000Y-122372476D01*
X143724380Y-122277238D01*
X144057714Y-121086761D02*
X144724380Y-121086761D01*
X143676761Y-121324857D02*
X144391047Y-121562952D01*
X144391047Y-120943904D01*
X144819619Y-120801047D02*
X144819619Y-120039142D01*
X144724380Y-119277238D02*
X144724380Y-119848666D01*
X144724380Y-119562952D02*
X143724380Y-119562952D01*
X143867238Y-119658190D01*
X143962476Y-119753428D01*
X144010095Y-119848666D01*
X143724380Y-118658190D02*
X143724380Y-118562952D01*
X143772000Y-118467714D01*
X143819619Y-118420095D01*
X143914857Y-118372476D01*
X144105333Y-118324857D01*
X144343428Y-118324857D01*
X144533904Y-118372476D01*
X144629142Y-118420095D01*
X144676761Y-118467714D01*
X144724380Y-118562952D01*
X144724380Y-118658190D01*
X144676761Y-118753428D01*
X144629142Y-118801047D01*
X144533904Y-118848666D01*
X144343428Y-118896285D01*
X144105333Y-118896285D01*
X143914857Y-118848666D01*
X143819619Y-118801047D01*
X143772000Y-118753428D01*
X143724380Y-118658190D01*
X144724380Y-117896285D02*
X143724380Y-117896285D01*
X144343428Y-117801047D02*
X144724380Y-117515333D01*
X144057714Y-117515333D02*
X144438666Y-117896285D01*
X145756380Y-121246900D02*
X145994476Y-121246900D01*
X145899238Y-121484995D02*
X145994476Y-121246900D01*
X145899238Y-121008804D01*
X146184952Y-121389757D02*
X145994476Y-121246900D01*
X146184952Y-121104042D01*
D11*
X158252380Y-144333333D02*
X158966666Y-144333333D01*
X159109523Y-144380952D01*
X159204761Y-144476190D01*
X159252380Y-144619047D01*
X159252380Y-144714285D01*
X158347619Y-143904761D02*
X158300000Y-143857142D01*
X158252380Y-143761904D01*
X158252380Y-143523809D01*
X158300000Y-143428571D01*
X158347619Y-143380952D01*
X158442857Y-143333333D01*
X158538095Y-143333333D01*
X158680952Y-143380952D01*
X159252380Y-143952380D01*
X159252380Y-143333333D01*
X139557619Y-105375238D02*
X139510000Y-105470476D01*
X139414761Y-105565714D01*
X139271904Y-105708571D01*
X139224285Y-105803809D01*
X139224285Y-105899047D01*
X139462380Y-105851428D02*
X139414761Y-105946666D01*
X139319523Y-106041904D01*
X139129047Y-106089523D01*
X138795714Y-106089523D01*
X138605238Y-106041904D01*
X138510000Y-105946666D01*
X138462380Y-105851428D01*
X138462380Y-105660952D01*
X138510000Y-105565714D01*
X138605238Y-105470476D01*
X138795714Y-105422857D01*
X139129047Y-105422857D01*
X139319523Y-105470476D01*
X139414761Y-105565714D01*
X139462380Y-105660952D01*
X139462380Y-105851428D01*
X138462380Y-104518095D02*
X138462380Y-104994285D01*
X138938571Y-105041904D01*
X138890952Y-104994285D01*
X138843333Y-104899047D01*
X138843333Y-104660952D01*
X138890952Y-104565714D01*
X138938571Y-104518095D01*
X139033809Y-104470476D01*
X139271904Y-104470476D01*
X139367142Y-104518095D01*
X139414761Y-104565714D01*
X139462380Y-104660952D01*
X139462380Y-104899047D01*
X139414761Y-104994285D01*
X139367142Y-105041904D01*
D12*
X158923722Y-96786789D02*
X158917853Y-96853877D01*
X158839027Y-96982182D01*
X158766070Y-97043400D01*
X158626027Y-97098748D01*
X158491852Y-97087009D01*
X158394156Y-97044662D01*
X158235242Y-96929357D01*
X158143415Y-96819922D01*
X158057458Y-96643400D01*
X158032718Y-96539835D01*
X158044457Y-96405660D01*
X158123283Y-96277355D01*
X158196239Y-96216137D01*
X158336283Y-96160789D01*
X158403370Y-96166658D01*
X159714506Y-96247567D02*
X159276767Y-96614875D01*
X159495637Y-96431221D02*
X158852849Y-95665177D01*
X158871719Y-95835829D01*
X158859980Y-95970004D01*
X158817633Y-96067700D01*
X160079289Y-95941478D02*
X160225203Y-95819042D01*
X160267550Y-95721346D01*
X160273420Y-95654259D01*
X160254550Y-95483606D01*
X160168592Y-95307084D01*
X159923721Y-95015257D01*
X159826024Y-94972910D01*
X159758937Y-94967040D01*
X159655372Y-94991780D01*
X159509458Y-95114216D01*
X159467111Y-95211912D01*
X159461241Y-95278999D01*
X159485981Y-95382565D01*
X159639026Y-95564956D01*
X159736722Y-95607304D01*
X159803809Y-95613173D01*
X159907375Y-95588434D01*
X160053288Y-95465998D01*
X160095635Y-95368302D01*
X160101505Y-95301215D01*
X160076765Y-95197649D01*
X136844588Y-100690384D02*
X136777501Y-100696254D01*
X136637457Y-100640905D01*
X136564501Y-100579687D01*
X136485675Y-100451382D01*
X136473936Y-100317208D01*
X136498675Y-100213642D01*
X136584633Y-100037120D01*
X136676460Y-99927685D01*
X136835374Y-99812381D01*
X136933070Y-99770033D01*
X137067244Y-99758294D01*
X137207288Y-99813643D01*
X137280245Y-99874861D01*
X137359071Y-100003166D01*
X137364940Y-100070253D01*
X137656767Y-100315124D02*
X137723854Y-100309255D01*
X137827419Y-100333995D01*
X138009811Y-100487039D01*
X138052159Y-100584735D01*
X138058028Y-100651823D01*
X138033288Y-100755388D01*
X137972071Y-100828345D01*
X137843766Y-100907171D01*
X137038719Y-100977603D01*
X137512937Y-101375519D01*
X138629942Y-101007391D02*
X138702899Y-101068609D01*
X138745247Y-101166305D01*
X138751116Y-101233392D01*
X138726376Y-101336958D01*
X138640419Y-101513480D01*
X138487374Y-101695872D01*
X138328460Y-101811176D01*
X138230764Y-101853524D01*
X138163677Y-101859393D01*
X138060111Y-101834653D01*
X137987155Y-101773436D01*
X137944807Y-101675739D01*
X137938938Y-101608652D01*
X137963677Y-101505087D01*
X138049635Y-101328565D01*
X138202679Y-101146173D01*
X138361593Y-101030869D01*
X138459289Y-100988521D01*
X138526377Y-100982652D01*
X138629942Y-101007391D01*
X151453722Y-90306789D02*
X151447853Y-90373877D01*
X151369027Y-90502182D01*
X151296070Y-90563400D01*
X151156027Y-90618748D01*
X151021852Y-90607009D01*
X150924156Y-90564662D01*
X150765242Y-90449357D01*
X150673415Y-90339922D01*
X150587458Y-90163400D01*
X150562718Y-90059835D01*
X150574457Y-89925660D01*
X150653283Y-89797355D01*
X150726239Y-89736137D01*
X150866283Y-89680789D01*
X150933370Y-89686658D01*
X151225197Y-89441787D02*
X151231066Y-89374699D01*
X151273414Y-89277003D01*
X151455806Y-89123959D01*
X151559371Y-89099219D01*
X151626458Y-89105088D01*
X151724154Y-89147436D01*
X151785372Y-89220393D01*
X151840721Y-89360437D01*
X151770288Y-90165483D01*
X152244506Y-89767567D01*
X152974073Y-89155389D02*
X152536333Y-89522696D01*
X152755203Y-89339042D02*
X152112415Y-88572998D01*
X152131285Y-88743651D01*
X152119546Y-88877825D01*
X152077199Y-88975521D01*
X143949588Y-93540384D02*
X143882501Y-93546254D01*
X143742457Y-93490905D01*
X143669501Y-93429687D01*
X143590675Y-93301382D01*
X143578936Y-93167208D01*
X143603675Y-93063642D01*
X143689633Y-92887120D01*
X143781460Y-92777685D01*
X143940374Y-92662381D01*
X144038070Y-92620033D01*
X144172244Y-92608294D01*
X144312288Y-92663643D01*
X144385245Y-92724861D01*
X144464071Y-92853166D01*
X144469940Y-92920253D01*
X144761767Y-93165124D02*
X144828854Y-93159255D01*
X144932419Y-93183995D01*
X145114811Y-93337039D01*
X145157159Y-93434735D01*
X145163028Y-93501823D01*
X145138288Y-93605388D01*
X145077071Y-93678345D01*
X144948766Y-93757171D01*
X144143719Y-93827603D01*
X144617937Y-94225519D01*
X145491333Y-93777303D02*
X145558420Y-93771434D01*
X145661986Y-93796173D01*
X145844377Y-93949218D01*
X145886725Y-94046914D01*
X145892594Y-94114001D01*
X145867855Y-94217567D01*
X145806637Y-94290524D01*
X145678332Y-94369350D01*
X144873285Y-94439782D01*
X145347503Y-94837698D01*
D11*
X148241904Y-137342380D02*
X148241904Y-136342380D01*
X148480000Y-136342380D01*
X148622857Y-136390000D01*
X148718095Y-136485238D01*
X148765714Y-136580476D01*
X148813333Y-136770952D01*
X148813333Y-136913809D01*
X148765714Y-137104285D01*
X148718095Y-137199523D01*
X148622857Y-137294761D01*
X148480000Y-137342380D01*
X148241904Y-137342380D01*
X149384761Y-136770952D02*
X149289523Y-136723333D01*
X149241904Y-136675714D01*
X149194285Y-136580476D01*
X149194285Y-136532857D01*
X149241904Y-136437619D01*
X149289523Y-136390000D01*
X149384761Y-136342380D01*
X149575238Y-136342380D01*
X149670476Y-136390000D01*
X149718095Y-136437619D01*
X149765714Y-136532857D01*
X149765714Y-136580476D01*
X149718095Y-136675714D01*
X149670476Y-136723333D01*
X149575238Y-136770952D01*
X149384761Y-136770952D01*
X149289523Y-136818571D01*
X149241904Y-136866190D01*
X149194285Y-136961428D01*
X149194285Y-137151904D01*
X149241904Y-137247142D01*
X149289523Y-137294761D01*
X149384761Y-137342380D01*
X149575238Y-137342380D01*
X149670476Y-137294761D01*
X149718095Y-137247142D01*
X149765714Y-137151904D01*
X149765714Y-136961428D01*
X149718095Y-136866190D01*
X149670476Y-136818571D01*
X149575238Y-136770952D01*
D12*
X166216666Y-132072380D02*
X166216666Y-132786666D01*
X166169047Y-132929523D01*
X166073809Y-133024761D01*
X165930952Y-133072380D01*
X165835714Y-133072380D01*
X167121428Y-132405714D02*
X167121428Y-133072380D01*
X166883333Y-132024761D02*
X166645238Y-132739047D01*
X167264285Y-132739047D01*
X158008333Y-102172380D02*
X157532142Y-102172380D01*
X157532142Y-101172380D01*
X158865476Y-102172380D02*
X158294047Y-102172380D01*
X158579761Y-102172380D02*
X158579761Y-101172380D01*
X158484523Y-101315238D01*
X158389285Y-101410476D01*
X158294047Y-101458095D01*
X149362380Y-135021904D02*
X150171904Y-135021904D01*
X150267142Y-134974285D01*
X150314761Y-134926666D01*
X150362380Y-134831428D01*
X150362380Y-134640952D01*
X150314761Y-134545714D01*
X150267142Y-134498095D01*
X150171904Y-134450476D01*
X149362380Y-134450476D01*
X150362380Y-133450476D02*
X150362380Y-134021904D01*
X150362380Y-133736190D02*
X149362380Y-133736190D01*
X149505238Y-133831428D01*
X149600476Y-133926666D01*
X149648095Y-134021904D01*
X150362380Y-137355238D02*
X149362380Y-137355238D01*
X149362380Y-137117142D01*
X149410000Y-136974285D01*
X149505238Y-136879047D01*
X149600476Y-136831428D01*
X149790952Y-136783809D01*
X149933809Y-136783809D01*
X150124285Y-136831428D01*
X150219523Y-136879047D01*
X150314761Y-136974285D01*
X150362380Y-137117142D01*
X150362380Y-137355238D01*
X150362380Y-135783809D02*
X149886190Y-136117142D01*
X150362380Y-136355238D02*
X149362380Y-136355238D01*
X149362380Y-135974285D01*
X149410000Y-135879047D01*
X149457619Y-135831428D01*
X149552857Y-135783809D01*
X149695714Y-135783809D01*
X149790952Y-135831428D01*
X149838571Y-135879047D01*
X149886190Y-135974285D01*
X149886190Y-136355238D01*
X149362380Y-135498095D02*
X150362380Y-135164761D01*
X149362380Y-134831428D01*
X149790952Y-134355238D02*
X149743333Y-134450476D01*
X149695714Y-134498095D01*
X149600476Y-134545714D01*
X149552857Y-134545714D01*
X149457619Y-134498095D01*
X149410000Y-134450476D01*
X149362380Y-134355238D01*
X149362380Y-134164761D01*
X149410000Y-134069523D01*
X149457619Y-134021904D01*
X149552857Y-133974285D01*
X149600476Y-133974285D01*
X149695714Y-134021904D01*
X149743333Y-134069523D01*
X149790952Y-134164761D01*
X149790952Y-134355238D01*
X149838571Y-134450476D01*
X149886190Y-134498095D01*
X149981428Y-134545714D01*
X150171904Y-134545714D01*
X150267142Y-134498095D01*
X150314761Y-134450476D01*
X150362380Y-134355238D01*
X150362380Y-134164761D01*
X150314761Y-134069523D01*
X150267142Y-134021904D01*
X150171904Y-133974285D01*
X149981428Y-133974285D01*
X149886190Y-134021904D01*
X149838571Y-134069523D01*
X149790952Y-134164761D01*
X149790952Y-133402857D02*
X149743333Y-133498095D01*
X149695714Y-133545714D01*
X149600476Y-133593333D01*
X149552857Y-133593333D01*
X149457619Y-133545714D01*
X149410000Y-133498095D01*
X149362380Y-133402857D01*
X149362380Y-133212380D01*
X149410000Y-133117142D01*
X149457619Y-133069523D01*
X149552857Y-133021904D01*
X149600476Y-133021904D01*
X149695714Y-133069523D01*
X149743333Y-133117142D01*
X149790952Y-133212380D01*
X149790952Y-133402857D01*
X149838571Y-133498095D01*
X149886190Y-133545714D01*
X149981428Y-133593333D01*
X150171904Y-133593333D01*
X150267142Y-133545714D01*
X150314761Y-133498095D01*
X150362380Y-133402857D01*
X150362380Y-133212380D01*
X150314761Y-133117142D01*
X150267142Y-133069523D01*
X150171904Y-133021904D01*
X149981428Y-133021904D01*
X149886190Y-133069523D01*
X149838571Y-133117142D01*
X149790952Y-133212380D01*
X149362380Y-132688571D02*
X149362380Y-132069523D01*
X149743333Y-132402857D01*
X149743333Y-132260000D01*
X149790952Y-132164761D01*
X149838571Y-132117142D01*
X149933809Y-132069523D01*
X150171904Y-132069523D01*
X150267142Y-132117142D01*
X150314761Y-132164761D01*
X150362380Y-132260000D01*
X150362380Y-132545714D01*
X150314761Y-132640952D01*
X150267142Y-132688571D01*
X149362380Y-131164761D02*
X149362380Y-131640952D01*
X149838571Y-131688571D01*
X149790952Y-131640952D01*
X149743333Y-131545714D01*
X149743333Y-131307619D01*
X149790952Y-131212380D01*
X149838571Y-131164761D01*
X149933809Y-131117142D01*
X150171904Y-131117142D01*
X150267142Y-131164761D01*
X150314761Y-131212380D01*
X150362380Y-131307619D01*
X150362380Y-131545714D01*
X150314761Y-131640952D01*
X150267142Y-131688571D01*
X146689472Y-135618737D02*
X146927568Y-135618737D01*
X146832330Y-135856832D02*
X146927568Y-135618737D01*
X146832330Y-135380641D01*
X147118044Y-135761594D02*
X146927568Y-135618737D01*
X147118044Y-135475879D01*
X149058095Y-122932380D02*
X149058095Y-123741904D01*
X149105714Y-123837142D01*
X149153333Y-123884761D01*
X149248571Y-123932380D01*
X149439047Y-123932380D01*
X149534285Y-123884761D01*
X149581904Y-123837142D01*
X149629523Y-123741904D01*
X149629523Y-122932380D01*
X150581904Y-122932380D02*
X150105714Y-122932380D01*
X150058095Y-123408571D01*
X150105714Y-123360952D01*
X150200952Y-123313333D01*
X150439047Y-123313333D01*
X150534285Y-123360952D01*
X150581904Y-123408571D01*
X150629523Y-123503809D01*
X150629523Y-123741904D01*
X150581904Y-123837142D01*
X150534285Y-123884761D01*
X150439047Y-123932380D01*
X150200952Y-123932380D01*
X150105714Y-123884761D01*
X150058095Y-123837142D01*
D11*
X156143809Y-103836190D02*
X156143809Y-104312380D01*
X155810476Y-103312380D02*
X156143809Y-103836190D01*
X156477142Y-103312380D01*
X157334285Y-104312380D02*
X156762857Y-104312380D01*
X157048571Y-104312380D02*
X157048571Y-103312380D01*
X156953333Y-103455238D01*
X156858095Y-103550476D01*
X156762857Y-103598095D01*
D12*
X136487142Y-138651666D02*
X136534761Y-138699285D01*
X136582380Y-138842142D01*
X136582380Y-138937380D01*
X136534761Y-139080238D01*
X136439523Y-139175476D01*
X136344285Y-139223095D01*
X136153809Y-139270714D01*
X136010952Y-139270714D01*
X135820476Y-139223095D01*
X135725238Y-139175476D01*
X135630000Y-139080238D01*
X135582380Y-138937380D01*
X135582380Y-138842142D01*
X135630000Y-138699285D01*
X135677619Y-138651666D01*
X136582380Y-137699285D02*
X136582380Y-138270714D01*
X136582380Y-137985000D02*
X135582380Y-137985000D01*
X135725238Y-138080238D01*
X135820476Y-138175476D01*
X135868095Y-138270714D01*
X167602142Y-129766666D02*
X167649761Y-129814285D01*
X167697380Y-129957142D01*
X167697380Y-130052380D01*
X167649761Y-130195238D01*
X167554523Y-130290476D01*
X167459285Y-130338095D01*
X167268809Y-130385714D01*
X167125952Y-130385714D01*
X166935476Y-130338095D01*
X166840238Y-130290476D01*
X166745000Y-130195238D01*
X166697380Y-130052380D01*
X166697380Y-129957142D01*
X166745000Y-129814285D01*
X166792619Y-129766666D01*
X166792619Y-129385714D02*
X166745000Y-129338095D01*
X166697380Y-129242857D01*
X166697380Y-129004761D01*
X166745000Y-128909523D01*
X166792619Y-128861904D01*
X166887857Y-128814285D01*
X166983095Y-128814285D01*
X167125952Y-128861904D01*
X167697380Y-129433333D01*
X167697380Y-128814285D01*
X146207142Y-132946666D02*
X146254761Y-132994285D01*
X146302380Y-133137142D01*
X146302380Y-133232380D01*
X146254761Y-133375238D01*
X146159523Y-133470476D01*
X146064285Y-133518095D01*
X145873809Y-133565714D01*
X145730952Y-133565714D01*
X145540476Y-133518095D01*
X145445238Y-133470476D01*
X145350000Y-133375238D01*
X145302380Y-133232380D01*
X145302380Y-133137142D01*
X145350000Y-132994285D01*
X145397619Y-132946666D01*
X145302380Y-132613333D02*
X145302380Y-131994285D01*
X145683333Y-132327619D01*
X145683333Y-132184761D01*
X145730952Y-132089523D01*
X145778571Y-132041904D01*
X145873809Y-131994285D01*
X146111904Y-131994285D01*
X146207142Y-132041904D01*
X146254761Y-132089523D01*
X146302380Y-132184761D01*
X146302380Y-132470476D01*
X146254761Y-132565714D01*
X146207142Y-132613333D01*
X148557142Y-134966666D02*
X148604761Y-135014285D01*
X148652380Y-135157142D01*
X148652380Y-135252380D01*
X148604761Y-135395238D01*
X148509523Y-135490476D01*
X148414285Y-135538095D01*
X148223809Y-135585714D01*
X148080952Y-135585714D01*
X147890476Y-135538095D01*
X147795238Y-135490476D01*
X147700000Y-135395238D01*
X147652380Y-135252380D01*
X147652380Y-135157142D01*
X147700000Y-135014285D01*
X147747619Y-134966666D01*
X147985714Y-134109523D02*
X148652380Y-134109523D01*
X147604761Y-134347619D02*
X148319047Y-134585714D01*
X148319047Y-133966666D01*
X164977142Y-142261666D02*
X165024761Y-142309285D01*
X165072380Y-142452142D01*
X165072380Y-142547380D01*
X165024761Y-142690238D01*
X164929523Y-142785476D01*
X164834285Y-142833095D01*
X164643809Y-142880714D01*
X164500952Y-142880714D01*
X164310476Y-142833095D01*
X164215238Y-142785476D01*
X164120000Y-142690238D01*
X164072380Y-142547380D01*
X164072380Y-142452142D01*
X164120000Y-142309285D01*
X164167619Y-142261666D01*
X164072380Y-141356904D02*
X164072380Y-141833095D01*
X164548571Y-141880714D01*
X164500952Y-141833095D01*
X164453333Y-141737857D01*
X164453333Y-141499761D01*
X164500952Y-141404523D01*
X164548571Y-141356904D01*
X164643809Y-141309285D01*
X164881904Y-141309285D01*
X164977142Y-141356904D01*
X165024761Y-141404523D01*
X165072380Y-141499761D01*
X165072380Y-141737857D01*
X165024761Y-141833095D01*
X164977142Y-141880714D01*
X157277142Y-103066666D02*
X157324761Y-103114285D01*
X157372380Y-103257142D01*
X157372380Y-103352380D01*
X157324761Y-103495238D01*
X157229523Y-103590476D01*
X157134285Y-103638095D01*
X156943809Y-103685714D01*
X156800952Y-103685714D01*
X156610476Y-103638095D01*
X156515238Y-103590476D01*
X156420000Y-103495238D01*
X156372380Y-103352380D01*
X156372380Y-103257142D01*
X156420000Y-103114285D01*
X156467619Y-103066666D01*
X156372380Y-102209523D02*
X156372380Y-102400000D01*
X156420000Y-102495238D01*
X156467619Y-102542857D01*
X156610476Y-102638095D01*
X156800952Y-102685714D01*
X157181904Y-102685714D01*
X157277142Y-102638095D01*
X157324761Y-102590476D01*
X157372380Y-102495238D01*
X157372380Y-102304761D01*
X157324761Y-102209523D01*
X157277142Y-102161904D01*
X157181904Y-102114285D01*
X156943809Y-102114285D01*
X156848571Y-102161904D01*
X156800952Y-102209523D01*
X156753333Y-102304761D01*
X156753333Y-102495238D01*
X156800952Y-102590476D01*
X156848571Y-102638095D01*
X156943809Y-102685714D01*
X156187142Y-109106666D02*
X156234761Y-109154285D01*
X156282380Y-109297142D01*
X156282380Y-109392380D01*
X156234761Y-109535238D01*
X156139523Y-109630476D01*
X156044285Y-109678095D01*
X155853809Y-109725714D01*
X155710952Y-109725714D01*
X155520476Y-109678095D01*
X155425238Y-109630476D01*
X155330000Y-109535238D01*
X155282380Y-109392380D01*
X155282380Y-109297142D01*
X155330000Y-109154285D01*
X155377619Y-109106666D01*
X155282380Y-108773333D02*
X155282380Y-108106666D01*
X156282380Y-108535238D01*
X155037142Y-109116666D02*
X155084761Y-109164285D01*
X155132380Y-109307142D01*
X155132380Y-109402380D01*
X155084761Y-109545238D01*
X154989523Y-109640476D01*
X154894285Y-109688095D01*
X154703809Y-109735714D01*
X154560952Y-109735714D01*
X154370476Y-109688095D01*
X154275238Y-109640476D01*
X154180000Y-109545238D01*
X154132380Y-109402380D01*
X154132380Y-109307142D01*
X154180000Y-109164285D01*
X154227619Y-109116666D01*
X154560952Y-108545238D02*
X154513333Y-108640476D01*
X154465714Y-108688095D01*
X154370476Y-108735714D01*
X154322857Y-108735714D01*
X154227619Y-108688095D01*
X154180000Y-108640476D01*
X154132380Y-108545238D01*
X154132380Y-108354761D01*
X154180000Y-108259523D01*
X154227619Y-108211904D01*
X154322857Y-108164285D01*
X154370476Y-108164285D01*
X154465714Y-108211904D01*
X154513333Y-108259523D01*
X154560952Y-108354761D01*
X154560952Y-108545238D01*
X154608571Y-108640476D01*
X154656190Y-108688095D01*
X154751428Y-108735714D01*
X154941904Y-108735714D01*
X155037142Y-108688095D01*
X155084761Y-108640476D01*
X155132380Y-108545238D01*
X155132380Y-108354761D01*
X155084761Y-108259523D01*
X155037142Y-108211904D01*
X154941904Y-108164285D01*
X154751428Y-108164285D01*
X154656190Y-108211904D01*
X154608571Y-108259523D01*
X154560952Y-108354761D01*
X149257142Y-99187142D02*
X149209523Y-99234761D01*
X149066666Y-99282380D01*
X148971428Y-99282380D01*
X148828571Y-99234761D01*
X148733333Y-99139523D01*
X148685714Y-99044285D01*
X148638095Y-98853809D01*
X148638095Y-98710952D01*
X148685714Y-98520476D01*
X148733333Y-98425238D01*
X148828571Y-98330000D01*
X148971428Y-98282380D01*
X149066666Y-98282380D01*
X149209523Y-98330000D01*
X149257142Y-98377619D01*
X150209523Y-99282380D02*
X149638095Y-99282380D01*
X149923809Y-99282380D02*
X149923809Y-98282380D01*
X149828571Y-98425238D01*
X149733333Y-98520476D01*
X149638095Y-98568095D01*
X150828571Y-98282380D02*
X150923809Y-98282380D01*
X151019047Y-98330000D01*
X151066666Y-98377619D01*
X151114285Y-98472857D01*
X151161904Y-98663333D01*
X151161904Y-98901428D01*
X151114285Y-99091904D01*
X151066666Y-99187142D01*
X151019047Y-99234761D01*
X150923809Y-99282380D01*
X150828571Y-99282380D01*
X150733333Y-99234761D01*
X150685714Y-99187142D01*
X150638095Y-99091904D01*
X150590476Y-98901428D01*
X150590476Y-98663333D01*
X150638095Y-98472857D01*
X150685714Y-98377619D01*
X150733333Y-98330000D01*
X150828571Y-98282380D01*
X143187142Y-102742857D02*
X143234761Y-102790476D01*
X143282380Y-102933333D01*
X143282380Y-103028571D01*
X143234761Y-103171428D01*
X143139523Y-103266666D01*
X143044285Y-103314285D01*
X142853809Y-103361904D01*
X142710952Y-103361904D01*
X142520476Y-103314285D01*
X142425238Y-103266666D01*
X142330000Y-103171428D01*
X142282380Y-103028571D01*
X142282380Y-102933333D01*
X142330000Y-102790476D01*
X142377619Y-102742857D01*
X143282380Y-101790476D02*
X143282380Y-102361904D01*
X143282380Y-102076190D02*
X142282380Y-102076190D01*
X142425238Y-102171428D01*
X142520476Y-102266666D01*
X142568095Y-102361904D01*
X143282380Y-100838095D02*
X143282380Y-101409523D01*
X143282380Y-101123809D02*
X142282380Y-101123809D01*
X142425238Y-101219047D01*
X142520476Y-101314285D01*
X142568095Y-101409523D01*
X143112142Y-109042857D02*
X143159761Y-109090476D01*
X143207380Y-109233333D01*
X143207380Y-109328571D01*
X143159761Y-109471428D01*
X143064523Y-109566666D01*
X142969285Y-109614285D01*
X142778809Y-109661904D01*
X142635952Y-109661904D01*
X142445476Y-109614285D01*
X142350238Y-109566666D01*
X142255000Y-109471428D01*
X142207380Y-109328571D01*
X142207380Y-109233333D01*
X142255000Y-109090476D01*
X142302619Y-109042857D01*
X143207380Y-108090476D02*
X143207380Y-108661904D01*
X143207380Y-108376190D02*
X142207380Y-108376190D01*
X142350238Y-108471428D01*
X142445476Y-108566666D01*
X142493095Y-108661904D01*
X142302619Y-107709523D02*
X142255000Y-107661904D01*
X142207380Y-107566666D01*
X142207380Y-107328571D01*
X142255000Y-107233333D01*
X142302619Y-107185714D01*
X142397857Y-107138095D01*
X142493095Y-107138095D01*
X142635952Y-107185714D01*
X143207380Y-107757142D01*
X143207380Y-107138095D01*
X158887142Y-106792857D02*
X158934761Y-106840476D01*
X158982380Y-106983333D01*
X158982380Y-107078571D01*
X158934761Y-107221428D01*
X158839523Y-107316666D01*
X158744285Y-107364285D01*
X158553809Y-107411904D01*
X158410952Y-107411904D01*
X158220476Y-107364285D01*
X158125238Y-107316666D01*
X158030000Y-107221428D01*
X157982380Y-107078571D01*
X157982380Y-106983333D01*
X158030000Y-106840476D01*
X158077619Y-106792857D01*
X158982380Y-105840476D02*
X158982380Y-106411904D01*
X158982380Y-106126190D02*
X157982380Y-106126190D01*
X158125238Y-106221428D01*
X158220476Y-106316666D01*
X158268095Y-106411904D01*
X158315714Y-104983333D02*
X158982380Y-104983333D01*
X157934761Y-105221428D02*
X158649047Y-105459523D01*
X158649047Y-104840476D01*
X154997142Y-121552857D02*
X155044761Y-121600476D01*
X155092380Y-121743333D01*
X155092380Y-121838571D01*
X155044761Y-121981428D01*
X154949523Y-122076666D01*
X154854285Y-122124285D01*
X154663809Y-122171904D01*
X154520952Y-122171904D01*
X154330476Y-122124285D01*
X154235238Y-122076666D01*
X154140000Y-121981428D01*
X154092380Y-121838571D01*
X154092380Y-121743333D01*
X154140000Y-121600476D01*
X154187619Y-121552857D01*
X155092380Y-120600476D02*
X155092380Y-121171904D01*
X155092380Y-120886190D02*
X154092380Y-120886190D01*
X154235238Y-120981428D01*
X154330476Y-121076666D01*
X154378095Y-121171904D01*
X154092380Y-119743333D02*
X154092380Y-119933809D01*
X154140000Y-120029047D01*
X154187619Y-120076666D01*
X154330476Y-120171904D01*
X154520952Y-120219523D01*
X154901904Y-120219523D01*
X154997142Y-120171904D01*
X155044761Y-120124285D01*
X155092380Y-120029047D01*
X155092380Y-119838571D01*
X155044761Y-119743333D01*
X154997142Y-119695714D01*
X154901904Y-119648095D01*
X154663809Y-119648095D01*
X154568571Y-119695714D01*
X154520952Y-119743333D01*
X154473333Y-119838571D01*
X154473333Y-120029047D01*
X154520952Y-120124285D01*
X154568571Y-120171904D01*
X154663809Y-120219523D01*
X150117142Y-125427142D02*
X150069523Y-125474761D01*
X149926666Y-125522380D01*
X149831428Y-125522380D01*
X149688571Y-125474761D01*
X149593333Y-125379523D01*
X149545714Y-125284285D01*
X149498095Y-125093809D01*
X149498095Y-124950952D01*
X149545714Y-124760476D01*
X149593333Y-124665238D01*
X149688571Y-124570000D01*
X149831428Y-124522380D01*
X149926666Y-124522380D01*
X150069523Y-124570000D01*
X150117142Y-124617619D01*
X151069523Y-125522380D02*
X150498095Y-125522380D01*
X150783809Y-125522380D02*
X150783809Y-124522380D01*
X150688571Y-124665238D01*
X150593333Y-124760476D01*
X150498095Y-124808095D01*
X151402857Y-124522380D02*
X152069523Y-124522380D01*
X151640952Y-125522380D01*
X147252142Y-123097142D02*
X147204523Y-123144761D01*
X147061666Y-123192380D01*
X146966428Y-123192380D01*
X146823571Y-123144761D01*
X146728333Y-123049523D01*
X146680714Y-122954285D01*
X146633095Y-122763809D01*
X146633095Y-122620952D01*
X146680714Y-122430476D01*
X146728333Y-122335238D01*
X146823571Y-122240000D01*
X146966428Y-122192380D01*
X147061666Y-122192380D01*
X147204523Y-122240000D01*
X147252142Y-122287619D01*
X148204523Y-123192380D02*
X147633095Y-123192380D01*
X147918809Y-123192380D02*
X147918809Y-122192380D01*
X147823571Y-122335238D01*
X147728333Y-122430476D01*
X147633095Y-122478095D01*
X148775952Y-122620952D02*
X148680714Y-122573333D01*
X148633095Y-122525714D01*
X148585476Y-122430476D01*
X148585476Y-122382857D01*
X148633095Y-122287619D01*
X148680714Y-122240000D01*
X148775952Y-122192380D01*
X148966428Y-122192380D01*
X149061666Y-122240000D01*
X149109285Y-122287619D01*
X149156904Y-122382857D01*
X149156904Y-122430476D01*
X149109285Y-122525714D01*
X149061666Y-122573333D01*
X148966428Y-122620952D01*
X148775952Y-122620952D01*
X148680714Y-122668571D01*
X148633095Y-122716190D01*
X148585476Y-122811428D01*
X148585476Y-123001904D01*
X148633095Y-123097142D01*
X148680714Y-123144761D01*
X148775952Y-123192380D01*
X148966428Y-123192380D01*
X149061666Y-123144761D01*
X149109285Y-123097142D01*
X149156904Y-123001904D01*
X149156904Y-122811428D01*
X149109285Y-122716190D01*
X149061666Y-122668571D01*
X148966428Y-122620952D01*
X130087142Y-138007857D02*
X130134761Y-138055476D01*
X130182380Y-138198333D01*
X130182380Y-138293571D01*
X130134761Y-138436428D01*
X130039523Y-138531666D01*
X129944285Y-138579285D01*
X129753809Y-138626904D01*
X129610952Y-138626904D01*
X129420476Y-138579285D01*
X129325238Y-138531666D01*
X129230000Y-138436428D01*
X129182380Y-138293571D01*
X129182380Y-138198333D01*
X129230000Y-138055476D01*
X129277619Y-138007857D01*
X129277619Y-137626904D02*
X129230000Y-137579285D01*
X129182380Y-137484047D01*
X129182380Y-137245952D01*
X129230000Y-137150714D01*
X129277619Y-137103095D01*
X129372857Y-137055476D01*
X129468095Y-137055476D01*
X129610952Y-137103095D01*
X130182380Y-137674523D01*
X130182380Y-137055476D01*
X129182380Y-136150714D02*
X129182380Y-136626904D01*
X129658571Y-136674523D01*
X129610952Y-136626904D01*
X129563333Y-136531666D01*
X129563333Y-136293571D01*
X129610952Y-136198333D01*
X129658571Y-136150714D01*
X129753809Y-136103095D01*
X129991904Y-136103095D01*
X130087142Y-136150714D01*
X130134761Y-136198333D01*
X130182380Y-136293571D01*
X130182380Y-136531666D01*
X130134761Y-136626904D01*
X130087142Y-136674523D01*
X136487142Y-135842857D02*
X136534761Y-135890476D01*
X136582380Y-136033333D01*
X136582380Y-136128571D01*
X136534761Y-136271428D01*
X136439523Y-136366666D01*
X136344285Y-136414285D01*
X136153809Y-136461904D01*
X136010952Y-136461904D01*
X135820476Y-136414285D01*
X135725238Y-136366666D01*
X135630000Y-136271428D01*
X135582380Y-136128571D01*
X135582380Y-136033333D01*
X135630000Y-135890476D01*
X135677619Y-135842857D01*
X135677619Y-135461904D02*
X135630000Y-135414285D01*
X135582380Y-135319047D01*
X135582380Y-135080952D01*
X135630000Y-134985714D01*
X135677619Y-134938095D01*
X135772857Y-134890476D01*
X135868095Y-134890476D01*
X136010952Y-134938095D01*
X136582380Y-135509523D01*
X136582380Y-134890476D01*
X135582380Y-134033333D02*
X135582380Y-134223809D01*
X135630000Y-134319047D01*
X135677619Y-134366666D01*
X135820476Y-134461904D01*
X136010952Y-134509523D01*
X136391904Y-134509523D01*
X136487142Y-134461904D01*
X136534761Y-134414285D01*
X136582380Y-134319047D01*
X136582380Y-134128571D01*
X136534761Y-134033333D01*
X136487142Y-133985714D01*
X136391904Y-133938095D01*
X136153809Y-133938095D01*
X136058571Y-133985714D01*
X136010952Y-134033333D01*
X135963333Y-134128571D01*
X135963333Y-134319047D01*
X136010952Y-134414285D01*
X136058571Y-134461904D01*
X136153809Y-134509523D01*
X165292380Y-132031666D02*
X164816190Y-132365000D01*
X165292380Y-132603095D02*
X164292380Y-132603095D01*
X164292380Y-132222142D01*
X164340000Y-132126904D01*
X164387619Y-132079285D01*
X164482857Y-132031666D01*
X164625714Y-132031666D01*
X164720952Y-132079285D01*
X164768571Y-132126904D01*
X164816190Y-132222142D01*
X164816190Y-132603095D01*
X165292380Y-131079285D02*
X165292380Y-131650714D01*
X165292380Y-131365000D02*
X164292380Y-131365000D01*
X164435238Y-131460238D01*
X164530476Y-131555476D01*
X164578095Y-131650714D01*
X136842380Y-103446666D02*
X136366190Y-103780000D01*
X136842380Y-104018095D02*
X135842380Y-104018095D01*
X135842380Y-103637142D01*
X135890000Y-103541904D01*
X135937619Y-103494285D01*
X136032857Y-103446666D01*
X136175714Y-103446666D01*
X136270952Y-103494285D01*
X136318571Y-103541904D01*
X136366190Y-103637142D01*
X136366190Y-104018095D01*
X135937619Y-103065714D02*
X135890000Y-103018095D01*
X135842380Y-102922857D01*
X135842380Y-102684761D01*
X135890000Y-102589523D01*
X135937619Y-102541904D01*
X136032857Y-102494285D01*
X136128095Y-102494285D01*
X136270952Y-102541904D01*
X136842380Y-103113333D01*
X136842380Y-102494285D01*
X141883333Y-103562380D02*
X141550000Y-103086190D01*
X141311904Y-103562380D02*
X141311904Y-102562380D01*
X141692857Y-102562380D01*
X141788095Y-102610000D01*
X141835714Y-102657619D01*
X141883333Y-102752857D01*
X141883333Y-102895714D01*
X141835714Y-102990952D01*
X141788095Y-103038571D01*
X141692857Y-103086190D01*
X141311904Y-103086190D01*
X142216666Y-102562380D02*
X142835714Y-102562380D01*
X142502380Y-102943333D01*
X142645238Y-102943333D01*
X142740476Y-102990952D01*
X142788095Y-103038571D01*
X142835714Y-103133809D01*
X142835714Y-103371904D01*
X142788095Y-103467142D01*
X142740476Y-103514761D01*
X142645238Y-103562380D01*
X142359523Y-103562380D01*
X142264285Y-103514761D01*
X142216666Y-103467142D01*
X162972380Y-102196666D02*
X162496190Y-102530000D01*
X162972380Y-102768095D02*
X161972380Y-102768095D01*
X161972380Y-102387142D01*
X162020000Y-102291904D01*
X162067619Y-102244285D01*
X162162857Y-102196666D01*
X162305714Y-102196666D01*
X162400952Y-102244285D01*
X162448571Y-102291904D01*
X162496190Y-102387142D01*
X162496190Y-102768095D01*
X162305714Y-101339523D02*
X162972380Y-101339523D01*
X161924761Y-101577619D02*
X162639047Y-101815714D01*
X162639047Y-101196666D01*
X163192380Y-105086666D02*
X162716190Y-105420000D01*
X163192380Y-105658095D02*
X162192380Y-105658095D01*
X162192380Y-105277142D01*
X162240000Y-105181904D01*
X162287619Y-105134285D01*
X162382857Y-105086666D01*
X162525714Y-105086666D01*
X162620952Y-105134285D01*
X162668571Y-105181904D01*
X162716190Y-105277142D01*
X162716190Y-105658095D01*
X162192380Y-104181904D02*
X162192380Y-104658095D01*
X162668571Y-104705714D01*
X162620952Y-104658095D01*
X162573333Y-104562857D01*
X162573333Y-104324761D01*
X162620952Y-104229523D01*
X162668571Y-104181904D01*
X162763809Y-104134285D01*
X163001904Y-104134285D01*
X163097142Y-104181904D01*
X163144761Y-104229523D01*
X163192380Y-104324761D01*
X163192380Y-104562857D01*
X163144761Y-104658095D01*
X163097142Y-104705714D01*
X151074952Y-118229345D02*
X151175967Y-117656925D01*
X150670891Y-117825284D02*
X151377997Y-117118177D01*
X151647372Y-117387551D01*
X151681043Y-117488566D01*
X151681043Y-117555910D01*
X151647372Y-117656925D01*
X151546356Y-117757940D01*
X151445341Y-117791612D01*
X151377997Y-117791612D01*
X151276982Y-117757940D01*
X151007608Y-117488566D01*
X152388150Y-118128330D02*
X152253463Y-117993643D01*
X152152448Y-117959971D01*
X152085104Y-117959971D01*
X151916746Y-117993643D01*
X151748387Y-118094658D01*
X151479013Y-118364032D01*
X151445341Y-118465047D01*
X151445341Y-118532391D01*
X151479013Y-118633406D01*
X151613700Y-118768093D01*
X151714715Y-118801765D01*
X151782059Y-118801765D01*
X151883074Y-118768093D01*
X152051433Y-118599734D01*
X152085104Y-118498719D01*
X152085104Y-118431376D01*
X152051433Y-118330360D01*
X151916746Y-118195673D01*
X151815730Y-118162002D01*
X151748387Y-118162002D01*
X151647372Y-118195673D01*
X149822380Y-89106666D02*
X149346190Y-89440000D01*
X149822380Y-89678095D02*
X148822380Y-89678095D01*
X148822380Y-89297142D01*
X148870000Y-89201904D01*
X148917619Y-89154285D01*
X149012857Y-89106666D01*
X149155714Y-89106666D01*
X149250952Y-89154285D01*
X149298571Y-89201904D01*
X149346190Y-89297142D01*
X149346190Y-89678095D01*
X148822380Y-88773333D02*
X148822380Y-88106666D01*
X149822380Y-88535238D01*
X147352380Y-89126666D02*
X146876190Y-89460000D01*
X147352380Y-89698095D02*
X146352380Y-89698095D01*
X146352380Y-89317142D01*
X146400000Y-89221904D01*
X146447619Y-89174285D01*
X146542857Y-89126666D01*
X146685714Y-89126666D01*
X146780952Y-89174285D01*
X146828571Y-89221904D01*
X146876190Y-89317142D01*
X146876190Y-89698095D01*
X146780952Y-88555238D02*
X146733333Y-88650476D01*
X146685714Y-88698095D01*
X146590476Y-88745714D01*
X146542857Y-88745714D01*
X146447619Y-88698095D01*
X146400000Y-88650476D01*
X146352380Y-88555238D01*
X146352380Y-88364761D01*
X146400000Y-88269523D01*
X146447619Y-88221904D01*
X146542857Y-88174285D01*
X146590476Y-88174285D01*
X146685714Y-88221904D01*
X146733333Y-88269523D01*
X146780952Y-88364761D01*
X146780952Y-88555238D01*
X146828571Y-88650476D01*
X146876190Y-88698095D01*
X146971428Y-88745714D01*
X147161904Y-88745714D01*
X147257142Y-88698095D01*
X147304761Y-88650476D01*
X147352380Y-88555238D01*
X147352380Y-88364761D01*
X147304761Y-88269523D01*
X147257142Y-88221904D01*
X147161904Y-88174285D01*
X146971428Y-88174285D01*
X146876190Y-88221904D01*
X146828571Y-88269523D01*
X146780952Y-88364761D01*
X149217142Y-141830380D02*
X148883809Y-141354190D01*
X148645714Y-141830380D02*
X148645714Y-140830380D01*
X149026666Y-140830380D01*
X149121904Y-140878000D01*
X149169523Y-140925619D01*
X149217142Y-141020857D01*
X149217142Y-141163714D01*
X149169523Y-141258952D01*
X149121904Y-141306571D01*
X149026666Y-141354190D01*
X148645714Y-141354190D01*
X150169523Y-141830380D02*
X149598095Y-141830380D01*
X149883809Y-141830380D02*
X149883809Y-140830380D01*
X149788571Y-140973238D01*
X149693333Y-141068476D01*
X149598095Y-141116095D01*
X150788571Y-140830380D02*
X150883809Y-140830380D01*
X150979047Y-140878000D01*
X151026666Y-140925619D01*
X151074285Y-141020857D01*
X151121904Y-141211333D01*
X151121904Y-141449428D01*
X151074285Y-141639904D01*
X151026666Y-141735142D01*
X150979047Y-141782761D01*
X150883809Y-141830380D01*
X150788571Y-141830380D01*
X150693333Y-141782761D01*
X150645714Y-141735142D01*
X150598095Y-141639904D01*
X150550476Y-141449428D01*
X150550476Y-141211333D01*
X150598095Y-141020857D01*
X150645714Y-140925619D01*
X150693333Y-140878000D01*
X150788571Y-140830380D01*
X149217142Y-143300380D02*
X148883809Y-142824190D01*
X148645714Y-143300380D02*
X148645714Y-142300380D01*
X149026666Y-142300380D01*
X149121904Y-142348000D01*
X149169523Y-142395619D01*
X149217142Y-142490857D01*
X149217142Y-142633714D01*
X149169523Y-142728952D01*
X149121904Y-142776571D01*
X149026666Y-142824190D01*
X148645714Y-142824190D01*
X150169523Y-143300380D02*
X149598095Y-143300380D01*
X149883809Y-143300380D02*
X149883809Y-142300380D01*
X149788571Y-142443238D01*
X149693333Y-142538476D01*
X149598095Y-142586095D01*
X151026666Y-142633714D02*
X151026666Y-143300380D01*
X150788571Y-142252761D02*
X150550476Y-142967047D01*
X151169523Y-142967047D01*
X156482380Y-132642857D02*
X156006190Y-132976190D01*
X156482380Y-133214285D02*
X155482380Y-133214285D01*
X155482380Y-132833333D01*
X155530000Y-132738095D01*
X155577619Y-132690476D01*
X155672857Y-132642857D01*
X155815714Y-132642857D01*
X155910952Y-132690476D01*
X155958571Y-132738095D01*
X156006190Y-132833333D01*
X156006190Y-133214285D01*
X156482380Y-131690476D02*
X156482380Y-132261904D01*
X156482380Y-131976190D02*
X155482380Y-131976190D01*
X155625238Y-132071428D01*
X155720476Y-132166666D01*
X155768095Y-132261904D01*
X155482380Y-130833333D02*
X155482380Y-131023809D01*
X155530000Y-131119047D01*
X155577619Y-131166666D01*
X155720476Y-131261904D01*
X155910952Y-131309523D01*
X156291904Y-131309523D01*
X156387142Y-131261904D01*
X156434761Y-131214285D01*
X156482380Y-131119047D01*
X156482380Y-130928571D01*
X156434761Y-130833333D01*
X156387142Y-130785714D01*
X156291904Y-130738095D01*
X156053809Y-130738095D01*
X155958571Y-130785714D01*
X155910952Y-130833333D01*
X155863333Y-130928571D01*
X155863333Y-131119047D01*
X155910952Y-131214285D01*
X155958571Y-131261904D01*
X156053809Y-131309523D01*
X149240142Y-144570380D02*
X148906809Y-144094190D01*
X148668714Y-144570380D02*
X148668714Y-143570380D01*
X149049666Y-143570380D01*
X149144904Y-143618000D01*
X149192523Y-143665619D01*
X149240142Y-143760857D01*
X149240142Y-143903714D01*
X149192523Y-143998952D01*
X149144904Y-144046571D01*
X149049666Y-144094190D01*
X148668714Y-144094190D01*
X150192523Y-144570380D02*
X149621095Y-144570380D01*
X149906809Y-144570380D02*
X149906809Y-143570380D01*
X149811571Y-143713238D01*
X149716333Y-143808476D01*
X149621095Y-143856095D01*
X150763952Y-143998952D02*
X150668714Y-143951333D01*
X150621095Y-143903714D01*
X150573476Y-143808476D01*
X150573476Y-143760857D01*
X150621095Y-143665619D01*
X150668714Y-143618000D01*
X150763952Y-143570380D01*
X150954428Y-143570380D01*
X151049666Y-143618000D01*
X151097285Y-143665619D01*
X151144904Y-143760857D01*
X151144904Y-143808476D01*
X151097285Y-143903714D01*
X151049666Y-143951333D01*
X150954428Y-143998952D01*
X150763952Y-143998952D01*
X150668714Y-144046571D01*
X150621095Y-144094190D01*
X150573476Y-144189428D01*
X150573476Y-144379904D01*
X150621095Y-144475142D01*
X150668714Y-144522761D01*
X150763952Y-144570380D01*
X150954428Y-144570380D01*
X151049666Y-144522761D01*
X151097285Y-144475142D01*
X151144904Y-144379904D01*
X151144904Y-144189428D01*
X151097285Y-144094190D01*
X151049666Y-144046571D01*
X150954428Y-143998952D01*
X155038380Y-124086857D02*
X154562190Y-124420190D01*
X155038380Y-124658285D02*
X154038380Y-124658285D01*
X154038380Y-124277333D01*
X154086000Y-124182095D01*
X154133619Y-124134476D01*
X154228857Y-124086857D01*
X154371714Y-124086857D01*
X154466952Y-124134476D01*
X154514571Y-124182095D01*
X154562190Y-124277333D01*
X154562190Y-124658285D01*
X154133619Y-123705904D02*
X154086000Y-123658285D01*
X154038380Y-123563047D01*
X154038380Y-123324952D01*
X154086000Y-123229714D01*
X154133619Y-123182095D01*
X154228857Y-123134476D01*
X154324095Y-123134476D01*
X154466952Y-123182095D01*
X155038380Y-123753523D01*
X155038380Y-123134476D01*
X154038380Y-122515428D02*
X154038380Y-122420190D01*
X154086000Y-122324952D01*
X154133619Y-122277333D01*
X154228857Y-122229714D01*
X154419333Y-122182095D01*
X154657428Y-122182095D01*
X154847904Y-122229714D01*
X154943142Y-122277333D01*
X154990761Y-122324952D01*
X155038380Y-122420190D01*
X155038380Y-122515428D01*
X154990761Y-122610666D01*
X154943142Y-122658285D01*
X154847904Y-122705904D01*
X154657428Y-122753523D01*
X154419333Y-122753523D01*
X154228857Y-122705904D01*
X154133619Y-122658285D01*
X154086000Y-122610666D01*
X154038380Y-122515428D01*
X137687142Y-106952380D02*
X137353809Y-106476190D01*
X137115714Y-106952380D02*
X137115714Y-105952380D01*
X137496666Y-105952380D01*
X137591904Y-106000000D01*
X137639523Y-106047619D01*
X137687142Y-106142857D01*
X137687142Y-106285714D01*
X137639523Y-106380952D01*
X137591904Y-106428571D01*
X137496666Y-106476190D01*
X137115714Y-106476190D01*
X138068095Y-106047619D02*
X138115714Y-106000000D01*
X138210952Y-105952380D01*
X138449047Y-105952380D01*
X138544285Y-106000000D01*
X138591904Y-106047619D01*
X138639523Y-106142857D01*
X138639523Y-106238095D01*
X138591904Y-106380952D01*
X138020476Y-106952380D01*
X138639523Y-106952380D01*
X139591904Y-106952380D02*
X139020476Y-106952380D01*
X139306190Y-106952380D02*
X139306190Y-105952380D01*
X139210952Y-106095238D01*
X139115714Y-106190476D01*
X139020476Y-106238095D01*
X150247997Y-95607135D02*
X149675578Y-95506120D01*
X149843936Y-96011196D02*
X149136830Y-95304089D01*
X149406204Y-95034715D01*
X149507219Y-95001043D01*
X149574562Y-95001043D01*
X149675578Y-95034715D01*
X149776593Y-95135730D01*
X149810265Y-95236746D01*
X149810265Y-95304089D01*
X149776593Y-95405104D01*
X149507219Y-95674478D01*
X149877608Y-94697997D02*
X149877608Y-94630654D01*
X149911280Y-94529639D01*
X150079639Y-94361280D01*
X150180654Y-94327608D01*
X150247997Y-94327608D01*
X150349013Y-94361280D01*
X150416356Y-94428623D01*
X150483700Y-94563310D01*
X150483700Y-95371433D01*
X150921433Y-94933700D01*
X150551043Y-94024562D02*
X150551043Y-93957219D01*
X150584715Y-93856204D01*
X150753074Y-93687845D01*
X150854089Y-93654173D01*
X150921433Y-93654173D01*
X151022448Y-93687845D01*
X151089791Y-93755188D01*
X151157135Y-93889875D01*
X151157135Y-94697997D01*
X151594868Y-94260265D01*
X148782864Y-94347997D02*
X148883879Y-93775578D01*
X148378803Y-93943936D02*
X149085910Y-93236830D01*
X149355284Y-93506204D01*
X149388956Y-93607219D01*
X149388956Y-93674562D01*
X149355284Y-93775578D01*
X149254269Y-93876593D01*
X149153253Y-93910265D01*
X149085910Y-93910265D01*
X148984895Y-93876593D01*
X148715521Y-93607219D01*
X149692002Y-93977608D02*
X149759345Y-93977608D01*
X149860360Y-94011280D01*
X150028719Y-94179639D01*
X150062391Y-94280654D01*
X150062391Y-94347997D01*
X150028719Y-94449013D01*
X149961376Y-94516356D01*
X149826689Y-94583700D01*
X149018566Y-94583700D01*
X149456299Y-95021433D01*
X150399108Y-94550028D02*
X150836841Y-94987761D01*
X150331765Y-95021433D01*
X150432780Y-95122448D01*
X150466452Y-95223463D01*
X150466452Y-95290807D01*
X150432780Y-95391822D01*
X150264421Y-95560181D01*
X150163406Y-95593852D01*
X150096063Y-95593852D01*
X149995047Y-95560181D01*
X149793017Y-95358150D01*
X149759345Y-95257135D01*
X149759345Y-95189791D01*
X149182380Y-88297857D02*
X148706190Y-88631190D01*
X149182380Y-88869285D02*
X148182380Y-88869285D01*
X148182380Y-88488333D01*
X148230000Y-88393095D01*
X148277619Y-88345476D01*
X148372857Y-88297857D01*
X148515714Y-88297857D01*
X148610952Y-88345476D01*
X148658571Y-88393095D01*
X148706190Y-88488333D01*
X148706190Y-88869285D01*
X148277619Y-87916904D02*
X148230000Y-87869285D01*
X148182380Y-87774047D01*
X148182380Y-87535952D01*
X148230000Y-87440714D01*
X148277619Y-87393095D01*
X148372857Y-87345476D01*
X148468095Y-87345476D01*
X148610952Y-87393095D01*
X149182380Y-87964523D01*
X149182380Y-87345476D01*
X148515714Y-86488333D02*
X149182380Y-86488333D01*
X148134761Y-86726428D02*
X148849047Y-86964523D01*
X148849047Y-86345476D01*
X150942380Y-89592857D02*
X150466190Y-89926190D01*
X150942380Y-90164285D02*
X149942380Y-90164285D01*
X149942380Y-89783333D01*
X149990000Y-89688095D01*
X150037619Y-89640476D01*
X150132857Y-89592857D01*
X150275714Y-89592857D01*
X150370952Y-89640476D01*
X150418571Y-89688095D01*
X150466190Y-89783333D01*
X150466190Y-90164285D01*
X150037619Y-89211904D02*
X149990000Y-89164285D01*
X149942380Y-89069047D01*
X149942380Y-88830952D01*
X149990000Y-88735714D01*
X150037619Y-88688095D01*
X150132857Y-88640476D01*
X150228095Y-88640476D01*
X150370952Y-88688095D01*
X150942380Y-89259523D01*
X150942380Y-88640476D01*
X149942380Y-87735714D02*
X149942380Y-88211904D01*
X150418571Y-88259523D01*
X150370952Y-88211904D01*
X150323333Y-88116666D01*
X150323333Y-87878571D01*
X150370952Y-87783333D01*
X150418571Y-87735714D01*
X150513809Y-87688095D01*
X150751904Y-87688095D01*
X150847142Y-87735714D01*
X150894761Y-87783333D01*
X150942380Y-87878571D01*
X150942380Y-88116666D01*
X150894761Y-88211904D01*
X150847142Y-88259523D01*
X137687142Y-108112380D02*
X137353809Y-107636190D01*
X137115714Y-108112380D02*
X137115714Y-107112380D01*
X137496666Y-107112380D01*
X137591904Y-107160000D01*
X137639523Y-107207619D01*
X137687142Y-107302857D01*
X137687142Y-107445714D01*
X137639523Y-107540952D01*
X137591904Y-107588571D01*
X137496666Y-107636190D01*
X137115714Y-107636190D01*
X138068095Y-107207619D02*
X138115714Y-107160000D01*
X138210952Y-107112380D01*
X138449047Y-107112380D01*
X138544285Y-107160000D01*
X138591904Y-107207619D01*
X138639523Y-107302857D01*
X138639523Y-107398095D01*
X138591904Y-107540952D01*
X138020476Y-108112380D01*
X138639523Y-108112380D01*
X139496666Y-107112380D02*
X139306190Y-107112380D01*
X139210952Y-107160000D01*
X139163333Y-107207619D01*
X139068095Y-107350476D01*
X139020476Y-107540952D01*
X139020476Y-107921904D01*
X139068095Y-108017142D01*
X139115714Y-108064761D01*
X139210952Y-108112380D01*
X139401428Y-108112380D01*
X139496666Y-108064761D01*
X139544285Y-108017142D01*
X139591904Y-107921904D01*
X139591904Y-107683809D01*
X139544285Y-107588571D01*
X139496666Y-107540952D01*
X139401428Y-107493333D01*
X139210952Y-107493333D01*
X139115714Y-107540952D01*
X139068095Y-107588571D01*
X139020476Y-107683809D01*
X150992627Y-96291765D02*
X150420208Y-96190750D01*
X150588566Y-96695826D02*
X149881460Y-95988719D01*
X150150834Y-95719345D01*
X150251849Y-95685673D01*
X150319192Y-95685673D01*
X150420208Y-95719345D01*
X150521223Y-95820360D01*
X150554895Y-95921376D01*
X150554895Y-95988719D01*
X150521223Y-96089734D01*
X150251849Y-96359108D01*
X150622238Y-95382627D02*
X150622238Y-95315284D01*
X150655910Y-95214269D01*
X150824269Y-95045910D01*
X150925284Y-95012238D01*
X150992627Y-95012238D01*
X151093643Y-95045910D01*
X151160986Y-95113253D01*
X151228330Y-95247940D01*
X151228330Y-96056063D01*
X151666063Y-95618330D01*
X151194658Y-94675521D02*
X151666063Y-94204116D01*
X152070124Y-95214269D01*
X150072627Y-95341765D02*
X149500208Y-95240750D01*
X149668566Y-95745826D02*
X148961460Y-95038719D01*
X149230834Y-94769345D01*
X149331849Y-94735673D01*
X149399192Y-94735673D01*
X149500208Y-94769345D01*
X149601223Y-94870360D01*
X149634895Y-94971376D01*
X149634895Y-95038719D01*
X149601223Y-95139734D01*
X149331849Y-95409108D01*
X149702238Y-94432627D02*
X149702238Y-94365284D01*
X149735910Y-94264269D01*
X149904269Y-94095910D01*
X150005284Y-94062238D01*
X150072627Y-94062238D01*
X150173643Y-94095910D01*
X150240986Y-94163253D01*
X150308330Y-94297940D01*
X150308330Y-95106063D01*
X150746063Y-94668330D01*
X150746063Y-93860208D02*
X150645047Y-93893879D01*
X150577704Y-93893879D01*
X150476689Y-93860208D01*
X150443017Y-93826536D01*
X150409345Y-93725521D01*
X150409345Y-93658177D01*
X150443017Y-93557162D01*
X150577704Y-93422475D01*
X150678719Y-93388803D01*
X150746063Y-93388803D01*
X150847078Y-93422475D01*
X150880750Y-93456147D01*
X150914421Y-93557162D01*
X150914421Y-93624505D01*
X150880750Y-93725521D01*
X150746063Y-93860208D01*
X150712391Y-93961223D01*
X150712391Y-94028566D01*
X150746063Y-94129582D01*
X150880750Y-94264269D01*
X150981765Y-94297940D01*
X151049108Y-94297940D01*
X151150124Y-94264269D01*
X151284811Y-94129582D01*
X151318482Y-94028566D01*
X151318482Y-93961223D01*
X151284811Y-93860208D01*
X151150124Y-93725521D01*
X151049108Y-93691849D01*
X150981765Y-93691849D01*
X150880750Y-93725521D01*
D11*
X167254761Y-132058333D02*
X167302380Y-131915476D01*
X167302380Y-131677380D01*
X167254761Y-131582142D01*
X167207142Y-131534523D01*
X167111904Y-131486904D01*
X167016666Y-131486904D01*
X166921428Y-131534523D01*
X166873809Y-131582142D01*
X166826190Y-131677380D01*
X166778571Y-131867857D01*
X166730952Y-131963095D01*
X166683333Y-132010714D01*
X166588095Y-132058333D01*
X166492857Y-132058333D01*
X166397619Y-132010714D01*
X166350000Y-131963095D01*
X166302380Y-131867857D01*
X166302380Y-131629761D01*
X166350000Y-131486904D01*
X166302380Y-131153571D02*
X167302380Y-130915476D01*
X166588095Y-130725000D01*
X167302380Y-130534523D01*
X166302380Y-130296428D01*
X167302380Y-129391666D02*
X167302380Y-129963095D01*
X167302380Y-129677380D02*
X166302380Y-129677380D01*
X166445238Y-129772619D01*
X166540476Y-129867857D01*
X166588095Y-129963095D01*
D12*
X149121904Y-140760380D02*
X149121904Y-139760380D01*
X149360000Y-139760380D01*
X149502857Y-139808000D01*
X149598095Y-139903238D01*
X149645714Y-139998476D01*
X149693333Y-140188952D01*
X149693333Y-140331809D01*
X149645714Y-140522285D01*
X149598095Y-140617523D01*
X149502857Y-140712761D01*
X149360000Y-140760380D01*
X149121904Y-140760380D01*
X150598095Y-139760380D02*
X150121904Y-139760380D01*
X150074285Y-140236571D01*
X150121904Y-140188952D01*
X150217142Y-140141333D01*
X150455238Y-140141333D01*
X150550476Y-140188952D01*
X150598095Y-140236571D01*
X150645714Y-140331809D01*
X150645714Y-140569904D01*
X150598095Y-140665142D01*
X150550476Y-140712761D01*
X150455238Y-140760380D01*
X150217142Y-140760380D01*
X150121904Y-140712761D01*
X150074285Y-140665142D01*
X166022380Y-132613095D02*
X165022380Y-132613095D01*
X165022380Y-132375000D01*
X165070000Y-132232142D01*
X165165238Y-132136904D01*
X165260476Y-132089285D01*
X165450952Y-132041666D01*
X165593809Y-132041666D01*
X165784285Y-132089285D01*
X165879523Y-132136904D01*
X165974761Y-132232142D01*
X166022380Y-132375000D01*
X166022380Y-132613095D01*
X165022380Y-131184523D02*
X165022380Y-131375000D01*
X165070000Y-131470238D01*
X165117619Y-131517857D01*
X165260476Y-131613095D01*
X165450952Y-131660714D01*
X165831904Y-131660714D01*
X165927142Y-131613095D01*
X165974761Y-131565476D01*
X166022380Y-131470238D01*
X166022380Y-131279761D01*
X165974761Y-131184523D01*
X165927142Y-131136904D01*
X165831904Y-131089285D01*
X165593809Y-131089285D01*
X165498571Y-131136904D01*
X165450952Y-131184523D01*
X165403333Y-131279761D01*
X165403333Y-131470238D01*
X165450952Y-131565476D01*
X165498571Y-131613095D01*
X165593809Y-131660714D01*
X149121904Y-142030380D02*
X149121904Y-141030380D01*
X149360000Y-141030380D01*
X149502857Y-141078000D01*
X149598095Y-141173238D01*
X149645714Y-141268476D01*
X149693333Y-141458952D01*
X149693333Y-141601809D01*
X149645714Y-141792285D01*
X149598095Y-141887523D01*
X149502857Y-141982761D01*
X149360000Y-142030380D01*
X149121904Y-142030380D01*
X150026666Y-141030380D02*
X150693333Y-141030380D01*
X150264761Y-142030380D01*
X166022380Y-130338095D02*
X165022380Y-130338095D01*
X165022380Y-130100000D01*
X165070000Y-129957142D01*
X165165238Y-129861904D01*
X165260476Y-129814285D01*
X165450952Y-129766666D01*
X165593809Y-129766666D01*
X165784285Y-129814285D01*
X165879523Y-129861904D01*
X165974761Y-129957142D01*
X166022380Y-130100000D01*
X166022380Y-130338095D01*
X166022380Y-129290476D02*
X166022380Y-129100000D01*
X165974761Y-129004761D01*
X165927142Y-128957142D01*
X165784285Y-128861904D01*
X165593809Y-128814285D01*
X165212857Y-128814285D01*
X165117619Y-128861904D01*
X165070000Y-128909523D01*
X165022380Y-129004761D01*
X165022380Y-129195238D01*
X165070000Y-129290476D01*
X165117619Y-129338095D01*
X165212857Y-129385714D01*
X165450952Y-129385714D01*
X165546190Y-129338095D01*
X165593809Y-129290476D01*
X165641428Y-129195238D01*
X165641428Y-129004761D01*
X165593809Y-128909523D01*
X165546190Y-128861904D01*
X165450952Y-128814285D01*
X148645714Y-145840380D02*
X148645714Y-144840380D01*
X148883809Y-144840380D01*
X149026666Y-144888000D01*
X149121904Y-144983238D01*
X149169523Y-145078476D01*
X149217142Y-145268952D01*
X149217142Y-145411809D01*
X149169523Y-145602285D01*
X149121904Y-145697523D01*
X149026666Y-145792761D01*
X148883809Y-145840380D01*
X148645714Y-145840380D01*
X150169523Y-145840380D02*
X149598095Y-145840380D01*
X149883809Y-145840380D02*
X149883809Y-144840380D01*
X149788571Y-144983238D01*
X149693333Y-145078476D01*
X149598095Y-145126095D01*
X150788571Y-144840380D02*
X150883809Y-144840380D01*
X150979047Y-144888000D01*
X151026666Y-144935619D01*
X151074285Y-145030857D01*
X151121904Y-145221333D01*
X151121904Y-145459428D01*
X151074285Y-145649904D01*
X151026666Y-145745142D01*
X150979047Y-145792761D01*
X150883809Y-145840380D01*
X150788571Y-145840380D01*
X150693333Y-145792761D01*
X150645714Y-145745142D01*
X150598095Y-145649904D01*
X150550476Y-145459428D01*
X150550476Y-145221333D01*
X150598095Y-145030857D01*
X150645714Y-144935619D01*
X150693333Y-144888000D01*
X150788571Y-144840380D01*
X133157142Y-141757142D02*
X133109523Y-141804761D01*
X132966666Y-141852380D01*
X132871428Y-141852380D01*
X132728571Y-141804761D01*
X132633333Y-141709523D01*
X132585714Y-141614285D01*
X132538095Y-141423809D01*
X132538095Y-141280952D01*
X132585714Y-141090476D01*
X132633333Y-140995238D01*
X132728571Y-140900000D01*
X132871428Y-140852380D01*
X132966666Y-140852380D01*
X133109523Y-140900000D01*
X133157142Y-140947619D01*
X134109523Y-141852380D02*
X133538095Y-141852380D01*
X133823809Y-141852380D02*
X133823809Y-140852380D01*
X133728571Y-140995238D01*
X133633333Y-141090476D01*
X133538095Y-141138095D01*
X134442857Y-140852380D02*
X135061904Y-140852380D01*
X134728571Y-141233333D01*
X134871428Y-141233333D01*
X134966666Y-141280952D01*
X135014285Y-141328571D01*
X135061904Y-141423809D01*
X135061904Y-141661904D01*
X135014285Y-141757142D01*
X134966666Y-141804761D01*
X134871428Y-141852380D01*
X134585714Y-141852380D01*
X134490476Y-141804761D01*
X134442857Y-141757142D01*
X132514285Y-140947619D02*
X132561904Y-140900000D01*
X132657142Y-140852380D01*
X132895238Y-140852380D01*
X132990476Y-140900000D01*
X133038095Y-140947619D01*
X133085714Y-141042857D01*
X133085714Y-141138095D01*
X133038095Y-141280952D01*
X132466666Y-141852380D01*
X133085714Y-141852380D01*
X133466666Y-140947619D02*
X133514285Y-140900000D01*
X133609523Y-140852380D01*
X133847619Y-140852380D01*
X133942857Y-140900000D01*
X133990476Y-140947619D01*
X134038095Y-141042857D01*
X134038095Y-141138095D01*
X133990476Y-141280952D01*
X133419047Y-141852380D01*
X134038095Y-141852380D01*
X134466666Y-141185714D02*
X134466666Y-142185714D01*
X134942857Y-141709523D02*
X134990476Y-141804761D01*
X135085714Y-141852380D01*
X134466666Y-141709523D02*
X134514285Y-141804761D01*
X134609523Y-141852380D01*
X134800000Y-141852380D01*
X134895238Y-141804761D01*
X134942857Y-141709523D01*
X134942857Y-141185714D01*
X133800000Y-140852380D02*
X133800000Y-141090476D01*
X133561904Y-140995238D02*
X133800000Y-141090476D01*
X134038095Y-140995238D01*
X133657142Y-141280952D02*
X133800000Y-141090476D01*
X133942857Y-141280952D01*
X133957142Y-131792857D02*
X134004761Y-131840476D01*
X134052380Y-131983333D01*
X134052380Y-132078571D01*
X134004761Y-132221428D01*
X133909523Y-132316666D01*
X133814285Y-132364285D01*
X133623809Y-132411904D01*
X133480952Y-132411904D01*
X133290476Y-132364285D01*
X133195238Y-132316666D01*
X133100000Y-132221428D01*
X133052380Y-132078571D01*
X133052380Y-131983333D01*
X133100000Y-131840476D01*
X133147619Y-131792857D01*
X134052380Y-130840476D02*
X134052380Y-131411904D01*
X134052380Y-131126190D02*
X133052380Y-131126190D01*
X133195238Y-131221428D01*
X133290476Y-131316666D01*
X133338095Y-131411904D01*
X133052380Y-129935714D02*
X133052380Y-130411904D01*
X133528571Y-130459523D01*
X133480952Y-130411904D01*
X133433333Y-130316666D01*
X133433333Y-130078571D01*
X133480952Y-129983333D01*
X133528571Y-129935714D01*
X133623809Y-129888095D01*
X133861904Y-129888095D01*
X133957142Y-129935714D01*
X134004761Y-129983333D01*
X134052380Y-130078571D01*
X134052380Y-130316666D01*
X134004761Y-130411904D01*
X133957142Y-130459523D01*
X133147619Y-132435714D02*
X133100000Y-132388095D01*
X133052380Y-132292857D01*
X133052380Y-132054761D01*
X133100000Y-131959523D01*
X133147619Y-131911904D01*
X133242857Y-131864285D01*
X133338095Y-131864285D01*
X133480952Y-131911904D01*
X134052380Y-132483333D01*
X134052380Y-131864285D01*
X133147619Y-131483333D02*
X133100000Y-131435714D01*
X133052380Y-131340476D01*
X133052380Y-131102380D01*
X133100000Y-131007142D01*
X133147619Y-130959523D01*
X133242857Y-130911904D01*
X133338095Y-130911904D01*
X133480952Y-130959523D01*
X134052380Y-131530952D01*
X134052380Y-130911904D01*
X133385714Y-130483333D02*
X134385714Y-130483333D01*
X133909523Y-130007142D02*
X134004761Y-129959523D01*
X134052380Y-129864285D01*
X133909523Y-130483333D02*
X134004761Y-130435714D01*
X134052380Y-130340476D01*
X134052380Y-130150000D01*
X134004761Y-130054761D01*
X133909523Y-130007142D01*
X133385714Y-130007142D01*
X133052380Y-131150000D02*
X133290476Y-131150000D01*
X133195238Y-131388095D02*
X133290476Y-131150000D01*
X133195238Y-130911904D01*
X133480952Y-131292857D02*
X133290476Y-131150000D01*
X133480952Y-131007142D01*
X133438095Y-136102380D02*
X133438095Y-136911904D01*
X133485714Y-137007142D01*
X133533333Y-137054761D01*
X133628571Y-137102380D01*
X133819047Y-137102380D01*
X133914285Y-137054761D01*
X133961904Y-137007142D01*
X134009523Y-136911904D01*
X134009523Y-136102380D01*
X134914285Y-136435714D02*
X134914285Y-137102380D01*
X134676190Y-136054761D02*
X134438095Y-136769047D01*
X135057142Y-136769047D01*
X130295238Y-137102380D02*
X129819047Y-137102380D01*
X129819047Y-136102380D01*
X130628571Y-137102380D02*
X130628571Y-136102380D01*
X131009523Y-136102380D01*
X131104761Y-136150000D01*
X131152380Y-136197619D01*
X131200000Y-136292857D01*
X131200000Y-136435714D01*
X131152380Y-136530952D01*
X131104761Y-136578571D01*
X131009523Y-136626190D01*
X130628571Y-136626190D01*
X132104761Y-136102380D02*
X131628571Y-136102380D01*
X131580952Y-136578571D01*
X131628571Y-136530952D01*
X131723809Y-136483333D01*
X131961904Y-136483333D01*
X132057142Y-136530952D01*
X132104761Y-136578571D01*
X132152380Y-136673809D01*
X132152380Y-136911904D01*
X132104761Y-137007142D01*
X132057142Y-137054761D01*
X131961904Y-137102380D01*
X131723809Y-137102380D01*
X131628571Y-137054761D01*
X131580952Y-137007142D01*
X132628571Y-137102380D02*
X132819047Y-137102380D01*
X132914285Y-137054761D01*
X132961904Y-137007142D01*
X133057142Y-136864285D01*
X133104761Y-136673809D01*
X133104761Y-136292857D01*
X133057142Y-136197619D01*
X133009523Y-136150000D01*
X132914285Y-136102380D01*
X132723809Y-136102380D01*
X132628571Y-136150000D01*
X132580952Y-136197619D01*
X132533333Y-136292857D01*
X132533333Y-136530952D01*
X132580952Y-136626190D01*
X132628571Y-136673809D01*
X132723809Y-136721428D01*
X132914285Y-136721428D01*
X133009523Y-136673809D01*
X133057142Y-136626190D01*
X133104761Y-136530952D01*
X133723809Y-136102380D02*
X133819047Y-136102380D01*
X133914285Y-136150000D01*
X133961904Y-136197619D01*
X134009523Y-136292857D01*
X134057142Y-136483333D01*
X134057142Y-136721428D01*
X134009523Y-136911904D01*
X133961904Y-137007142D01*
X133914285Y-137054761D01*
X133819047Y-137102380D01*
X133723809Y-137102380D01*
X133628571Y-137054761D01*
X133580952Y-137007142D01*
X133533333Y-136911904D01*
X133485714Y-136721428D01*
X133485714Y-136483333D01*
X133533333Y-136292857D01*
X133580952Y-136197619D01*
X133628571Y-136150000D01*
X133723809Y-136102380D01*
X134390476Y-136102380D02*
X135057142Y-136102380D01*
X134628571Y-137102380D01*
X135200000Y-137197619D02*
X135961904Y-137197619D01*
X136200000Y-137102380D02*
X136200000Y-136102380D01*
X136438095Y-136102380D01*
X136580952Y-136150000D01*
X136676190Y-136245238D01*
X136723809Y-136340476D01*
X136771428Y-136530952D01*
X136771428Y-136673809D01*
X136723809Y-136864285D01*
X136676190Y-136959523D01*
X136580952Y-137054761D01*
X136438095Y-137102380D01*
X136200000Y-137102380D01*
X137533333Y-136578571D02*
X137676190Y-136626190D01*
X137723809Y-136673809D01*
X137771428Y-136769047D01*
X137771428Y-136911904D01*
X137723809Y-137007142D01*
X137676190Y-137054761D01*
X137580952Y-137102380D01*
X137200000Y-137102380D01*
X137200000Y-136102380D01*
X137533333Y-136102380D01*
X137628571Y-136150000D01*
X137676190Y-136197619D01*
X137723809Y-136292857D01*
X137723809Y-136388095D01*
X137676190Y-136483333D01*
X137628571Y-136530952D01*
X137533333Y-136578571D01*
X137200000Y-136578571D01*
X138057142Y-136102380D02*
X138390476Y-137102380D01*
X138723809Y-136102380D01*
X132828400Y-133441380D02*
X132828400Y-133679476D01*
X132590304Y-133584238D02*
X132828400Y-133679476D01*
X133066495Y-133584238D01*
X132685542Y-133869952D02*
X132828400Y-133679476D01*
X132971257Y-133869952D01*
X155932380Y-118760476D02*
X155456190Y-119093809D01*
X155932380Y-119331904D02*
X154932380Y-119331904D01*
X154932380Y-118950952D01*
X154980000Y-118855714D01*
X155027619Y-118808095D01*
X155122857Y-118760476D01*
X155265714Y-118760476D01*
X155360952Y-118808095D01*
X155408571Y-118855714D01*
X155456190Y-118950952D01*
X155456190Y-119331904D01*
X155932380Y-118331904D02*
X154932380Y-118331904D01*
X155932380Y-117760476D01*
X154932380Y-117760476D01*
X155932380Y-116760476D02*
X155932380Y-117331904D01*
X155932380Y-117046190D02*
X154932380Y-117046190D01*
X155075238Y-117141428D01*
X155170476Y-117236666D01*
X155218095Y-117331904D01*
X155932380Y-122617619D02*
X155456190Y-122950952D01*
X155932380Y-123189047D02*
X154932380Y-123189047D01*
X154932380Y-122808095D01*
X154980000Y-122712857D01*
X155027619Y-122665238D01*
X155122857Y-122617619D01*
X155265714Y-122617619D01*
X155360952Y-122665238D01*
X155408571Y-122712857D01*
X155456190Y-122808095D01*
X155456190Y-123189047D01*
X156027619Y-122427142D02*
X156027619Y-121665238D01*
X155932380Y-121427142D02*
X154932380Y-121427142D01*
X154932380Y-121046190D01*
X154980000Y-120950952D01*
X155027619Y-120903333D01*
X155122857Y-120855714D01*
X155265714Y-120855714D01*
X155360952Y-120903333D01*
X155408571Y-120950952D01*
X155456190Y-121046190D01*
X155456190Y-121427142D01*
X155932380Y-119998571D02*
X155408571Y-119998571D01*
X155313333Y-120046190D01*
X155265714Y-120141428D01*
X155265714Y-120331904D01*
X155313333Y-120427142D01*
X155884761Y-119998571D02*
X155932380Y-120093809D01*
X155932380Y-120331904D01*
X155884761Y-120427142D01*
X155789523Y-120474761D01*
X155694285Y-120474761D01*
X155599047Y-120427142D01*
X155551428Y-120331904D01*
X155551428Y-120093809D01*
X155503809Y-119998571D01*
X155884761Y-119093809D02*
X155932380Y-119189047D01*
X155932380Y-119379523D01*
X155884761Y-119474761D01*
X155837142Y-119522380D01*
X155741904Y-119570000D01*
X155456190Y-119570000D01*
X155360952Y-119522380D01*
X155313333Y-119474761D01*
X155265714Y-119379523D01*
X155265714Y-119189047D01*
X155313333Y-119093809D01*
X155932380Y-118665238D02*
X154932380Y-118665238D01*
X155551428Y-118570000D02*
X155932380Y-118284285D01*
X155265714Y-118284285D02*
X155646666Y-118665238D01*
X154932380Y-117665238D02*
X154932380Y-117570000D01*
X154980000Y-117474761D01*
X155027619Y-117427142D01*
X155122857Y-117379523D01*
X155313333Y-117331904D01*
X155551428Y-117331904D01*
X155741904Y-117379523D01*
X155837142Y-117427142D01*
X155884761Y-117474761D01*
X155932380Y-117570000D01*
X155932380Y-117665238D01*
X155884761Y-117760476D01*
X155837142Y-117808095D01*
X155741904Y-117855714D01*
X155551428Y-117903333D01*
X155313333Y-117903333D01*
X155122857Y-117855714D01*
X155027619Y-117808095D01*
X154980000Y-117760476D01*
X154932380Y-117665238D01*
X155265714Y-116474761D02*
X155932380Y-116474761D01*
X154884761Y-116712857D02*
X155599047Y-116950952D01*
X155599047Y-116331904D01*
X156027619Y-116189047D02*
X156027619Y-115427142D01*
X155932380Y-114665238D02*
X155932380Y-115236666D01*
X155932380Y-114950952D02*
X154932380Y-114950952D01*
X155075238Y-115046190D01*
X155170476Y-115141428D01*
X155218095Y-115236666D01*
X154932380Y-114046190D02*
X154932380Y-113950952D01*
X154980000Y-113855714D01*
X155027619Y-113808095D01*
X155122857Y-113760476D01*
X155313333Y-113712857D01*
X155551428Y-113712857D01*
X155741904Y-113760476D01*
X155837142Y-113808095D01*
X155884761Y-113855714D01*
X155932380Y-113950952D01*
X155932380Y-114046190D01*
X155884761Y-114141428D01*
X155837142Y-114189047D01*
X155741904Y-114236666D01*
X155551428Y-114284285D01*
X155313333Y-114284285D01*
X155122857Y-114236666D01*
X155027619Y-114189047D01*
X154980000Y-114141428D01*
X154932380Y-114046190D01*
X155932380Y-113284285D02*
X154932380Y-113284285D01*
X155551428Y-113189047D02*
X155932380Y-112903333D01*
X155265714Y-112903333D02*
X155646666Y-113284285D01*
X156964380Y-116634900D02*
X157202476Y-116634900D01*
X157107238Y-116872995D02*
X157202476Y-116634900D01*
X157107238Y-116396804D01*
X157392952Y-116777757D02*
X157202476Y-116634900D01*
X157392952Y-116492042D01*
D11*
X132156666Y-143032380D02*
X132156666Y-143746666D01*
X132109047Y-143889523D01*
X132013809Y-143984761D01*
X131870952Y-144032380D01*
X131775714Y-144032380D01*
X133061428Y-143032380D02*
X132870952Y-143032380D01*
X132775714Y-143080000D01*
X132728095Y-143127619D01*
X132632857Y-143270476D01*
X132585238Y-143460952D01*
X132585238Y-143841904D01*
X132632857Y-143937142D01*
X132680476Y-143984761D01*
X132775714Y-144032380D01*
X132966190Y-144032380D01*
X133061428Y-143984761D01*
X133109047Y-143937142D01*
X133156666Y-143841904D01*
X133156666Y-143603809D01*
X133109047Y-143508571D01*
X133061428Y-143460952D01*
X132966190Y-143413333D01*
X132775714Y-143413333D01*
X132680476Y-143460952D01*
X132632857Y-143508571D01*
X132585238Y-143603809D01*
M02*
