G04 #@! TF.GenerationSoftware,KiCad,Pcbnew,(5.1.4)-1*
G04 #@! TF.CreationDate,2019-11-08T17:49:40+09:00*
G04 #@! TF.ProjectId,gekko,67656b6b-6f2e-46b6-9963-61645f706362,rev?*
G04 #@! TF.SameCoordinates,Original*
G04 #@! TF.FileFunction,Other,Fab,Top*
%FSLAX46Y46*%
G04 Gerber Fmt 4.6, Leading zero omitted, Abs format (unit mm)*
G04 Created by KiCad (PCBNEW (5.1.4)-1) date 2019-11-08 17:49:40*
%MOMM*%
%LPD*%
G04 APERTURE LIST*
%ADD10C,0.100000*%
%ADD11C,0.152400*%
%ADD12C,0.150000*%
%ADD13C,0.125000*%
%ADD14C,0.060000*%
%ADD15C,0.040000*%
G04 APERTURE END LIST*
D10*
X167142893Y-145050000D02*
X167850000Y-144550000D01*
X167850000Y-145550000D02*
X167142893Y-145050000D01*
X165300000Y-140900000D02*
X165300000Y-141200000D01*
X165900000Y-140900000D02*
X165300000Y-140900000D01*
X165900000Y-141200000D02*
X165900000Y-140900000D01*
X165300000Y-141200000D02*
X165900000Y-141200000D01*
X165300000Y-141900000D02*
X165300000Y-142200000D01*
X165900000Y-141900000D02*
X165300000Y-141900000D01*
X165900000Y-142200000D02*
X165900000Y-141900000D01*
X165300000Y-142200000D02*
X165900000Y-142200000D01*
X165300000Y-142900000D02*
X165300000Y-143200000D01*
X165900000Y-142900000D02*
X165300000Y-142900000D01*
X165900000Y-143200000D02*
X165900000Y-142900000D01*
X165300000Y-143200000D02*
X165900000Y-143200000D01*
X165300000Y-143900000D02*
X165300000Y-144200000D01*
X165900000Y-143900000D02*
X165300000Y-143900000D01*
X165900000Y-144200000D02*
X165900000Y-143900000D01*
X165300000Y-144200000D02*
X165900000Y-144200000D01*
X165300000Y-144900000D02*
X165300000Y-145200000D01*
X165900000Y-144900000D02*
X165300000Y-144900000D01*
X165900000Y-145200000D02*
X165900000Y-144900000D01*
X165300000Y-145200000D02*
X165900000Y-145200000D01*
X167850000Y-139550000D02*
X164950000Y-139550000D01*
X167850000Y-146550000D02*
X164950000Y-146550000D01*
X164950000Y-146550000D02*
X164950000Y-139550000D01*
X167850000Y-146550000D02*
X167850000Y-139550000D01*
X164659949Y-104612181D02*
X164991140Y-100826641D01*
X164557010Y-108427728D02*
X164557010Y-108427728D01*
X167087345Y-108649104D02*
X167419408Y-104853602D01*
X167419408Y-104853602D02*
X167419408Y-104853602D01*
X167979726Y-101088109D02*
G75*
G03X164991140Y-100826641I-1494293J130734D01*
G01*
X164557010Y-108427728D02*
X164889073Y-104632227D01*
X167735688Y-103877453D02*
X167648533Y-104873648D01*
X164889073Y-104632227D02*
X164557010Y-108427728D01*
X168134166Y-103912316D02*
X167735688Y-103877453D01*
X164659949Y-104612181D02*
X167648533Y-104873648D01*
X167419408Y-104853602D02*
X167087345Y-108649104D01*
X167087345Y-108649104D02*
X167087345Y-108649104D01*
X164889073Y-104632227D02*
X164889073Y-104632227D01*
X167648533Y-104873648D02*
X168047011Y-104908510D01*
X167648533Y-104873648D02*
X167979725Y-101088108D01*
X168047011Y-104908510D02*
X168134166Y-103912316D01*
X155965621Y-93734429D02*
X158876590Y-91291836D01*
X153194833Y-96359640D02*
X153194833Y-96359640D01*
X154827513Y-98305392D02*
X157746142Y-95856372D01*
X157746142Y-95856372D02*
X157746142Y-95856372D01*
X160804952Y-93589968D02*
G75*
G03X158876590Y-91291836I-964181J1149066D01*
G01*
X153194833Y-96359640D02*
X156113462Y-93910619D01*
X158660028Y-95389774D02*
X157893984Y-96032562D01*
X156113462Y-93910619D02*
X153194833Y-96359640D01*
X158917143Y-95696192D02*
X158660028Y-95389774D01*
X155965621Y-93734429D02*
X157893984Y-96032562D01*
X157746142Y-95856372D02*
X154827513Y-98305392D01*
X154827513Y-98305392D02*
X154827513Y-98305392D01*
X156113462Y-93910619D02*
X156113462Y-93910619D01*
X157893984Y-96032562D02*
X158151099Y-96338980D01*
X157893984Y-96032562D02*
X160804952Y-93589969D01*
X158151099Y-96338980D02*
X158917143Y-95696192D01*
X141116741Y-95382789D02*
X141882785Y-96025576D01*
X146581936Y-96352654D02*
X146581936Y-96352654D01*
X143811148Y-93727443D02*
X140900179Y-91284850D01*
X141882785Y-96025576D02*
X138971816Y-93582984D01*
X141882785Y-96025576D02*
X141625670Y-96331994D01*
X143811148Y-93727443D02*
X141882785Y-96025576D01*
X143663307Y-93903633D02*
X143663307Y-93903633D01*
X144949256Y-98298407D02*
X144949256Y-98298407D01*
X146581936Y-96352654D02*
X143663307Y-93903633D01*
X142030626Y-95849386D02*
X142030626Y-95849386D01*
X138971817Y-93582984D02*
G75*
G02X140900179Y-91284850I964181J1149067D01*
G01*
X141625670Y-96331994D02*
X140859626Y-95689207D01*
X143663307Y-93903633D02*
X146581936Y-96352654D01*
X140859626Y-95689207D02*
X141116741Y-95382789D01*
X144949256Y-98298407D02*
X142030626Y-95849386D01*
X142030626Y-95849386D02*
X144949256Y-98298407D01*
X132285480Y-103875168D02*
X132372635Y-104871363D01*
X135464158Y-108425443D02*
X135464158Y-108425443D01*
X135361219Y-104609896D02*
X135030028Y-100824356D01*
X132372635Y-104871363D02*
X132041443Y-101085823D01*
X132372635Y-104871363D02*
X131974157Y-104906225D01*
X135361219Y-104609896D02*
X132372635Y-104871363D01*
X135132095Y-104629941D02*
X135132095Y-104629941D01*
X132933823Y-108646819D02*
X132933823Y-108646819D01*
X135464158Y-108425443D02*
X135132095Y-104629941D01*
X132601760Y-104851317D02*
X132601760Y-104851317D01*
X132041444Y-101085822D02*
G75*
G02X135030028Y-100824356I1494292J130733D01*
G01*
X131974157Y-104906225D02*
X131887002Y-103910030D01*
X135132095Y-104629941D02*
X135464158Y-108425443D01*
X131887002Y-103910030D02*
X132285480Y-103875168D01*
X132933823Y-108646819D02*
X132601760Y-104851317D01*
X132601760Y-104851317D02*
X132933823Y-108646819D01*
D11*
X145872200Y-122135900D02*
X145618200Y-121881900D01*
X145262600Y-121881900D02*
X144907000Y-121881900D01*
X144449800Y-121881900D02*
X144094200Y-121881900D01*
X143637000Y-121881900D02*
X143281400Y-121881900D01*
X145262600Y-123482100D02*
X144907000Y-123482100D01*
X144449800Y-123482100D02*
X144094200Y-123482100D01*
X143637000Y-123482100D02*
X143281400Y-123482100D01*
X145719800Y-123482100D02*
X145872200Y-123482100D01*
X145719800Y-121881900D02*
X145872200Y-121881900D01*
X142824200Y-123482100D02*
X142671800Y-123482100D01*
X142824200Y-121881900D02*
X142671800Y-121881900D01*
X142671800Y-121881900D02*
X142671800Y-123482100D01*
X145872200Y-121881900D02*
X145872200Y-123482100D01*
X148158200Y-121881900D02*
G75*
G03X142824200Y-121881900I-2667000J0D01*
G01*
X145719800Y-121881900D02*
G75*
G03X143637000Y-121881900I-1041400J0D01*
G01*
X142824200Y-121881900D02*
G75*
G03X144907000Y-121881900I1041400J0D01*
G01*
X140385800Y-121881900D02*
G75*
G03X145719800Y-121881900I2667000J0D01*
G01*
X145262600Y-123482100D02*
G75*
G03X145719800Y-123482100I228600J0D01*
G01*
X144449800Y-123482100D02*
G75*
G03X144907000Y-123482100I228600J0D01*
G01*
X144094200Y-123482100D02*
G75*
G03X143637000Y-123482100I-228600J0D01*
G01*
X143281400Y-123482100D02*
G75*
G03X142824200Y-123482100I-228600J0D01*
G01*
D10*
X163642060Y-97909399D02*
X160194860Y-100801943D01*
X161585140Y-95458057D02*
X163642060Y-97909399D01*
X158137940Y-98350601D02*
X161585140Y-95458057D01*
X160194860Y-100801943D02*
X158137940Y-98350601D01*
X142022060Y-99020601D02*
X139965140Y-101471943D01*
X139965140Y-101471943D02*
X136517940Y-98579399D01*
X136517940Y-98579399D02*
X138574860Y-96128057D01*
X138574860Y-96128057D02*
X142022060Y-99020601D01*
X152724860Y-94321943D02*
X150667940Y-91870601D01*
X150667940Y-91870601D02*
X154115140Y-88978057D01*
X154115140Y-88978057D02*
X156172060Y-91429399D01*
X156172060Y-91429399D02*
X152724860Y-94321943D01*
X149127060Y-91870601D02*
X147070140Y-94321943D01*
X147070140Y-94321943D02*
X143622940Y-91429399D01*
X143622940Y-91429399D02*
X145679860Y-88978057D01*
X145679860Y-88978057D02*
X149127060Y-91870601D01*
X164050000Y-136920000D02*
X169050000Y-136920000D01*
X164050000Y-134020000D02*
X169050000Y-134020000D01*
X164050000Y-136920000D02*
X164050000Y-134020000D01*
X169050000Y-136920000D02*
X169050000Y-134020000D01*
X165400000Y-134370000D02*
X165400000Y-134970000D01*
X165400000Y-134970000D02*
X165700000Y-134970000D01*
X165700000Y-134970000D02*
X165700000Y-134370000D01*
X165700000Y-134370000D02*
X165400000Y-134370000D01*
X166400000Y-134370000D02*
X166400000Y-134970000D01*
X166400000Y-134970000D02*
X166700000Y-134970000D01*
X166700000Y-134970000D02*
X166700000Y-134370000D01*
X166700000Y-134370000D02*
X166400000Y-134370000D01*
X167400000Y-134370000D02*
X167400000Y-134970000D01*
X167400000Y-134970000D02*
X167700000Y-134970000D01*
X167700000Y-134970000D02*
X167700000Y-134370000D01*
X167700000Y-134370000D02*
X167400000Y-134370000D01*
X165050000Y-136920000D02*
X165550000Y-136212893D01*
X165550000Y-136212893D02*
X166050000Y-136920000D01*
X157375000Y-103550000D02*
X157375000Y-102750000D01*
X157375000Y-102750000D02*
X158975000Y-102750000D01*
X158975000Y-102750000D02*
X158975000Y-103550000D01*
X158975000Y-103550000D02*
X157375000Y-103550000D01*
D11*
X148360001Y-134564800D02*
G75*
G03X148360001Y-133955200I0J304800D01*
G01*
X148360001Y-135310000D02*
X151459999Y-135310000D01*
X148360001Y-133210000D02*
X148360001Y-135310000D01*
X151459999Y-133210000D02*
X148360001Y-133210000D01*
X151459999Y-135310000D02*
X151459999Y-133210000D01*
X148510000Y-133210000D02*
X148510000Y-133210000D01*
X148810000Y-133210000D02*
X148510000Y-133210000D01*
X148810000Y-133210000D02*
X148810000Y-133210000D01*
X148510000Y-133210000D02*
X148810000Y-133210000D01*
X149010000Y-133210000D02*
X149010000Y-133210000D01*
X149310000Y-133210000D02*
X149010000Y-133210000D01*
X149310000Y-133210000D02*
X149310000Y-133210000D01*
X149010000Y-133210000D02*
X149310000Y-133210000D01*
X149510000Y-133210000D02*
X149510000Y-133210000D01*
X149810000Y-133210000D02*
X149510000Y-133210000D01*
X149810000Y-133210000D02*
X149810000Y-133210000D01*
X149510000Y-133210000D02*
X149810000Y-133210000D01*
X150010000Y-133210000D02*
X150010000Y-133210000D01*
X150310000Y-133210000D02*
X150010000Y-133210000D01*
X150310000Y-133210000D02*
X150310000Y-133210000D01*
X150010000Y-133210000D02*
X150310000Y-133210000D01*
X150510000Y-133210000D02*
X150510000Y-133210000D01*
X150810000Y-133210000D02*
X150510000Y-133210000D01*
X150810000Y-133210000D02*
X150810000Y-133210000D01*
X150510000Y-133210000D02*
X150810000Y-133210000D01*
X151010000Y-133210000D02*
X151010000Y-133210000D01*
X151310000Y-133210000D02*
X151010000Y-133210000D01*
X151310000Y-133210000D02*
X151310000Y-133210000D01*
X151010000Y-133210000D02*
X151310000Y-133210000D01*
X151310000Y-135310000D02*
X151310000Y-135310000D01*
X151010000Y-135310000D02*
X151310000Y-135310000D01*
X151010000Y-135310000D02*
X151010000Y-135310000D01*
X151310000Y-135310000D02*
X151010000Y-135310000D01*
X150810000Y-135310000D02*
X150810000Y-135310000D01*
X150510000Y-135310000D02*
X150810000Y-135310000D01*
X150510000Y-135310000D02*
X150510000Y-135310000D01*
X150810000Y-135310000D02*
X150510000Y-135310000D01*
X150310000Y-135310000D02*
X150310000Y-135310000D01*
X150010000Y-135310000D02*
X150310000Y-135310000D01*
X150010000Y-135310000D02*
X150010000Y-135310000D01*
X150310000Y-135310000D02*
X150010000Y-135310000D01*
X149810000Y-135310000D02*
X149810000Y-135310000D01*
X149510000Y-135310000D02*
X149810000Y-135310000D01*
X149510000Y-135310000D02*
X149510000Y-135310000D01*
X149810000Y-135310000D02*
X149510000Y-135310000D01*
X149310000Y-135310000D02*
X149310000Y-135310000D01*
X149010000Y-135310000D02*
X149310000Y-135310000D01*
X149010000Y-135310000D02*
X149010000Y-135310000D01*
X149310000Y-135310000D02*
X149010000Y-135310000D01*
X148810000Y-135310000D02*
X148810000Y-135310000D01*
X148510000Y-135310000D02*
X148810000Y-135310000D01*
X148510000Y-135310000D02*
X148510000Y-135310000D01*
X148810000Y-135310000D02*
X148510000Y-135310000D01*
D12*
X151340000Y-121900000D02*
X148340000Y-121900000D01*
X148340000Y-121900000D02*
X148340000Y-119900000D01*
X148340000Y-119900000D02*
X149340000Y-118900000D01*
X151340000Y-118900000D02*
X151340000Y-121900000D01*
X149340000Y-118900000D02*
X151340000Y-118900000D01*
D10*
X137550000Y-137985000D02*
X137550000Y-138985000D01*
X137050000Y-137985000D02*
X137550000Y-137985000D01*
X137050000Y-138985000D02*
X137050000Y-137985000D01*
X137550000Y-138985000D02*
X137050000Y-138985000D01*
X165825000Y-129100000D02*
X166325000Y-129100000D01*
X166325000Y-129100000D02*
X166325000Y-130100000D01*
X166325000Y-130100000D02*
X165825000Y-130100000D01*
X165825000Y-130100000D02*
X165825000Y-129100000D01*
X147270000Y-133280000D02*
X146770000Y-133280000D01*
X146770000Y-133280000D02*
X146770000Y-132280000D01*
X146770000Y-132280000D02*
X147270000Y-132280000D01*
X147270000Y-132280000D02*
X147270000Y-133280000D01*
X146780000Y-135300000D02*
X146780000Y-134300000D01*
X147280000Y-135300000D02*
X146780000Y-135300000D01*
X147280000Y-134300000D02*
X147280000Y-135300000D01*
X146780000Y-134300000D02*
X147280000Y-134300000D01*
X163200000Y-142595000D02*
X163200000Y-141595000D01*
X163700000Y-142595000D02*
X163200000Y-142595000D01*
X163700000Y-141595000D02*
X163700000Y-142595000D01*
X163200000Y-141595000D02*
X163700000Y-141595000D01*
X155500000Y-102400000D02*
X156000000Y-102400000D01*
X156000000Y-102400000D02*
X156000000Y-103400000D01*
X156000000Y-103400000D02*
X155500000Y-103400000D01*
X155500000Y-103400000D02*
X155500000Y-102400000D01*
X157250000Y-108440000D02*
X157250000Y-109440000D01*
X156750000Y-108440000D02*
X157250000Y-108440000D01*
X156750000Y-109440000D02*
X156750000Y-108440000D01*
X157250000Y-109440000D02*
X156750000Y-109440000D01*
X156100000Y-108450000D02*
X156100000Y-109450000D01*
X155600000Y-108450000D02*
X156100000Y-108450000D01*
X155600000Y-109450000D02*
X155600000Y-108450000D01*
X156100000Y-109450000D02*
X155600000Y-109450000D01*
X150400000Y-100250000D02*
X149400000Y-100250000D01*
X150400000Y-99750000D02*
X150400000Y-100250000D01*
X149400000Y-99750000D02*
X150400000Y-99750000D01*
X149400000Y-100250000D02*
X149400000Y-99750000D01*
X144250000Y-102600000D02*
X143750000Y-102600000D01*
X143750000Y-102600000D02*
X143750000Y-101600000D01*
X143750000Y-101600000D02*
X144250000Y-101600000D01*
X144250000Y-101600000D02*
X144250000Y-102600000D01*
X144175000Y-107900000D02*
X144175000Y-108900000D01*
X143675000Y-107900000D02*
X144175000Y-107900000D01*
X143675000Y-108900000D02*
X143675000Y-107900000D01*
X144175000Y-108900000D02*
X143675000Y-108900000D01*
X159950000Y-105650000D02*
X159950000Y-106650000D01*
X159450000Y-105650000D02*
X159950000Y-105650000D01*
X159450000Y-106650000D02*
X159450000Y-105650000D01*
X159950000Y-106650000D02*
X159450000Y-106650000D01*
X153220000Y-120410000D02*
X153720000Y-120410000D01*
X153720000Y-120410000D02*
X153720000Y-121410000D01*
X153720000Y-121410000D02*
X153220000Y-121410000D01*
X153220000Y-121410000D02*
X153220000Y-120410000D01*
X150260000Y-123650000D02*
X151260000Y-123650000D01*
X150260000Y-124150000D02*
X150260000Y-123650000D01*
X151260000Y-124150000D02*
X150260000Y-124150000D01*
X151260000Y-123650000D02*
X151260000Y-124150000D01*
X147395000Y-124160000D02*
X147395000Y-123660000D01*
X147395000Y-123660000D02*
X148395000Y-123660000D01*
X148395000Y-123660000D02*
X148395000Y-124160000D01*
X148395000Y-124160000D02*
X147395000Y-124160000D01*
X131150000Y-137865000D02*
X130650000Y-137865000D01*
X130650000Y-137865000D02*
X130650000Y-136865000D01*
X130650000Y-136865000D02*
X131150000Y-136865000D01*
X131150000Y-136865000D02*
X131150000Y-137865000D01*
X137550000Y-135700000D02*
X137050000Y-135700000D01*
X137050000Y-135700000D02*
X137050000Y-134700000D01*
X137050000Y-134700000D02*
X137550000Y-134700000D01*
X137550000Y-134700000D02*
X137550000Y-135700000D01*
X166260000Y-131365000D02*
X166260000Y-132365000D01*
X165760000Y-131365000D02*
X166260000Y-131365000D01*
X165760000Y-132365000D02*
X165760000Y-131365000D01*
X166260000Y-132365000D02*
X165760000Y-132365000D01*
X137810000Y-102780000D02*
X137810000Y-103780000D01*
X137310000Y-102780000D02*
X137810000Y-102780000D01*
X137310000Y-103780000D02*
X137310000Y-102780000D01*
X137810000Y-103780000D02*
X137310000Y-103780000D01*
X142550000Y-101690000D02*
X142550000Y-102190000D01*
X142550000Y-102190000D02*
X141550000Y-102190000D01*
X141550000Y-102190000D02*
X141550000Y-101690000D01*
X141550000Y-101690000D02*
X142550000Y-101690000D01*
X161100000Y-101530000D02*
X161600000Y-101530000D01*
X161600000Y-101530000D02*
X161600000Y-102530000D01*
X161600000Y-102530000D02*
X161100000Y-102530000D01*
X161100000Y-102530000D02*
X161100000Y-101530000D01*
X161320000Y-105420000D02*
X161320000Y-104420000D01*
X161820000Y-105420000D02*
X161320000Y-105420000D01*
X161820000Y-104420000D02*
X161820000Y-105420000D01*
X161320000Y-104420000D02*
X161820000Y-104420000D01*
X152163223Y-116669670D02*
X152870330Y-117376777D01*
X151809670Y-117023223D02*
X152163223Y-116669670D01*
X152516777Y-117730330D02*
X151809670Y-117023223D01*
X152870330Y-117376777D02*
X152516777Y-117730330D01*
X150790000Y-89440000D02*
X150290000Y-89440000D01*
X150290000Y-89440000D02*
X150290000Y-88440000D01*
X150290000Y-88440000D02*
X150790000Y-88440000D01*
X150790000Y-88440000D02*
X150790000Y-89440000D01*
X148320000Y-89460000D02*
X147820000Y-89460000D01*
X147820000Y-89460000D02*
X147820000Y-88460000D01*
X147820000Y-88460000D02*
X148320000Y-88460000D01*
X148320000Y-88460000D02*
X148320000Y-89460000D01*
X149360000Y-139958000D02*
X150360000Y-139958000D01*
X149360000Y-140458000D02*
X149360000Y-139958000D01*
X150360000Y-140458000D02*
X149360000Y-140458000D01*
X150360000Y-139958000D02*
X150360000Y-140458000D01*
X149360000Y-144268000D02*
X149360000Y-143768000D01*
X149360000Y-143768000D02*
X150360000Y-143768000D01*
X150360000Y-143768000D02*
X150360000Y-144268000D01*
X150360000Y-144268000D02*
X149360000Y-144268000D01*
X157450000Y-131500000D02*
X157450000Y-132500000D01*
X156950000Y-131500000D02*
X157450000Y-131500000D01*
X156950000Y-132500000D02*
X156950000Y-131500000D01*
X157450000Y-132500000D02*
X156950000Y-132500000D01*
X149383000Y-145538000D02*
X149383000Y-145038000D01*
X149383000Y-145038000D02*
X150383000Y-145038000D01*
X150383000Y-145038000D02*
X150383000Y-145538000D01*
X150383000Y-145538000D02*
X149383000Y-145538000D01*
X153166000Y-122944000D02*
X153666000Y-122944000D01*
X153666000Y-122944000D02*
X153666000Y-123944000D01*
X153666000Y-123944000D02*
X153166000Y-123944000D01*
X153166000Y-123944000D02*
X153166000Y-122944000D01*
X137830000Y-105080000D02*
X138830000Y-105080000D01*
X137830000Y-105580000D02*
X137830000Y-105080000D01*
X138830000Y-105580000D02*
X137830000Y-105580000D01*
X138830000Y-105080000D02*
X138830000Y-105580000D01*
X151740330Y-95483223D02*
X151033223Y-96190330D01*
X151386777Y-95129670D02*
X151740330Y-95483223D01*
X150679670Y-95836777D02*
X151386777Y-95129670D01*
X151033223Y-96190330D02*
X150679670Y-95836777D01*
X148199670Y-95133223D02*
X148553223Y-94779670D01*
X148553223Y-94779670D02*
X149260330Y-95486777D01*
X149260330Y-95486777D02*
X148906777Y-95840330D01*
X148906777Y-95840330D02*
X148199670Y-95133223D01*
X149500000Y-89460000D02*
X149000000Y-89460000D01*
X149000000Y-89460000D02*
X149000000Y-88460000D01*
X149000000Y-88460000D02*
X149500000Y-88460000D01*
X149500000Y-88460000D02*
X149500000Y-89460000D01*
X151910000Y-88450000D02*
X151910000Y-89450000D01*
X151410000Y-88450000D02*
X151910000Y-88450000D01*
X151410000Y-89450000D02*
X151410000Y-88450000D01*
X151910000Y-89450000D02*
X151410000Y-89450000D01*
X137830000Y-106240000D02*
X138830000Y-106240000D01*
X137830000Y-106740000D02*
X137830000Y-106240000D01*
X138830000Y-106740000D02*
X137830000Y-106740000D01*
X138830000Y-106240000D02*
X138830000Y-106740000D01*
X150476777Y-94159670D02*
X150830330Y-94513223D01*
X150830330Y-94513223D02*
X150123223Y-95220330D01*
X150123223Y-95220330D02*
X149769670Y-94866777D01*
X149769670Y-94866777D02*
X150476777Y-94159670D01*
X148849670Y-93916777D02*
X149556777Y-93209670D01*
X149203223Y-94270330D02*
X148849670Y-93916777D01*
X149910330Y-93563223D02*
X149203223Y-94270330D01*
X149556777Y-93209670D02*
X149910330Y-93563223D01*
X149360000Y-141728000D02*
X149360000Y-141228000D01*
X149360000Y-141228000D02*
X150360000Y-141228000D01*
X150360000Y-141228000D02*
X150360000Y-141728000D01*
X150360000Y-141728000D02*
X149360000Y-141728000D01*
X149460000Y-141728000D02*
X149460000Y-141228000D01*
X149560000Y-141728000D02*
X149560000Y-141228000D01*
X164150000Y-131375000D02*
X164650000Y-131375000D01*
X164650000Y-131375000D02*
X164650000Y-132375000D01*
X164650000Y-132375000D02*
X164150000Y-132375000D01*
X164150000Y-132375000D02*
X164150000Y-131375000D01*
X164150000Y-131475000D02*
X164650000Y-131475000D01*
X164150000Y-131575000D02*
X164650000Y-131575000D01*
X149560000Y-142998000D02*
X149560000Y-142498000D01*
X149460000Y-142998000D02*
X149460000Y-142498000D01*
X150360000Y-142998000D02*
X149360000Y-142998000D01*
X150360000Y-142498000D02*
X150360000Y-142998000D01*
X149360000Y-142498000D02*
X150360000Y-142498000D01*
X149360000Y-142998000D02*
X149360000Y-142498000D01*
X164150000Y-129100000D02*
X164650000Y-129100000D01*
X164650000Y-129100000D02*
X164650000Y-130100000D01*
X164650000Y-130100000D02*
X164150000Y-130100000D01*
X164150000Y-130100000D02*
X164150000Y-129100000D01*
X164150000Y-129200000D02*
X164650000Y-129200000D01*
X164150000Y-129300000D02*
X164650000Y-129300000D01*
X149560000Y-146808000D02*
X149560000Y-146308000D01*
X149460000Y-146808000D02*
X149460000Y-146308000D01*
X150360000Y-146808000D02*
X149360000Y-146808000D01*
X150360000Y-146308000D02*
X150360000Y-146808000D01*
X149360000Y-146308000D02*
X150360000Y-146308000D01*
X149360000Y-146808000D02*
X149360000Y-146308000D01*
D11*
X131552100Y-139152100D02*
X131552100Y-143647900D01*
X136047900Y-139152100D02*
X131552100Y-139152100D01*
X136047900Y-143647900D02*
X136047900Y-139152100D01*
X131552100Y-143647900D02*
X136047900Y-143647900D01*
X131552100Y-142523950D02*
X132676050Y-143647900D01*
X131552100Y-140276050D02*
X132676050Y-139152100D01*
X129578901Y-141019000D02*
X129578901Y-141781000D01*
X129959901Y-141400000D02*
X129197901Y-141400000D01*
X133600000Y-134990099D02*
X133600000Y-135752099D01*
X133219000Y-135371099D02*
X133981000Y-135371099D01*
X132476050Y-133397900D02*
X131352100Y-132273950D01*
X134723950Y-133397900D02*
X135847900Y-132273950D01*
X135847900Y-133397900D02*
X135847900Y-128902100D01*
X135847900Y-128902100D02*
X131352100Y-128902100D01*
X131352100Y-128902100D02*
X131352100Y-133397900D01*
X131352100Y-133397900D02*
X135847900Y-133397900D01*
X133323700Y-138174000D02*
X135076300Y-138174000D01*
X135076300Y-138174000D02*
X135076300Y-135126000D01*
X135076300Y-135126000D02*
X133323700Y-135126000D01*
X133323700Y-135126000D02*
X133323700Y-138174000D01*
X133323700Y-135954000D02*
X133323700Y-135446000D01*
X133323700Y-135446000D02*
X132701400Y-135446000D01*
X132701400Y-135446000D02*
X132701400Y-135954000D01*
X132701400Y-135954000D02*
X133323700Y-135954000D01*
X133323700Y-136904000D02*
X133323700Y-136396000D01*
X133323700Y-136396000D02*
X132701400Y-136396000D01*
X132701400Y-136396000D02*
X132701400Y-136904000D01*
X132701400Y-136904000D02*
X133323700Y-136904000D01*
X133323700Y-137854000D02*
X133323700Y-137346000D01*
X133323700Y-137346000D02*
X132701400Y-137346000D01*
X132701400Y-137346000D02*
X132701400Y-137854000D01*
X132701400Y-137854000D02*
X133323700Y-137854000D01*
X135076300Y-137346000D02*
X135076300Y-137854000D01*
X135076300Y-137854000D02*
X135698600Y-137854000D01*
X135698600Y-137854000D02*
X135698600Y-137346000D01*
X135698600Y-137346000D02*
X135076300Y-137346000D01*
X135076300Y-135446000D02*
X135076300Y-135954000D01*
X135076300Y-135954000D02*
X135698600Y-135954000D01*
X135698600Y-135954000D02*
X135698600Y-135446000D01*
X135698600Y-135446000D02*
X135076300Y-135446000D01*
X133895200Y-135126000D02*
G75*
G03X134504800Y-135126000I304800J0D01*
G01*
X154489400Y-118870100D02*
G75*
G03X154032200Y-118870100I-228600J0D01*
G01*
X155302200Y-118870100D02*
G75*
G03X154845000Y-118870100I-228600J0D01*
G01*
X155657800Y-118870100D02*
G75*
G03X156115000Y-118870100I228600J0D01*
G01*
X156470600Y-118870100D02*
G75*
G03X156927800Y-118870100I228600J0D01*
G01*
X151593800Y-117269900D02*
G75*
G03X156927800Y-117269900I2667000J0D01*
G01*
X154032200Y-117269900D02*
G75*
G03X156115000Y-117269900I1041400J0D01*
G01*
X156927800Y-117269900D02*
G75*
G03X154845000Y-117269900I-1041400J0D01*
G01*
X159366200Y-117269900D02*
G75*
G03X154032200Y-117269900I-2667000J0D01*
G01*
X157080200Y-117269900D02*
X157080200Y-118870100D01*
X153879800Y-117269900D02*
X153879800Y-118870100D01*
X154032200Y-117269900D02*
X153879800Y-117269900D01*
X154032200Y-118870100D02*
X153879800Y-118870100D01*
X156927800Y-117269900D02*
X157080200Y-117269900D01*
X156927800Y-118870100D02*
X157080200Y-118870100D01*
X154845000Y-118870100D02*
X154489400Y-118870100D01*
X155657800Y-118870100D02*
X155302200Y-118870100D01*
X156470600Y-118870100D02*
X156115000Y-118870100D01*
X154845000Y-117269900D02*
X154489400Y-117269900D01*
X155657800Y-117269900D02*
X155302200Y-117269900D01*
X156470600Y-117269900D02*
X156115000Y-117269900D01*
X157080200Y-117523900D02*
X156826200Y-117269900D01*
D12*
X170507142Y-146788095D02*
X170554761Y-146835714D01*
X170602380Y-146978571D01*
X170602380Y-147073809D01*
X170554761Y-147216666D01*
X170459523Y-147311904D01*
X170364285Y-147359523D01*
X170173809Y-147407142D01*
X170030952Y-147407142D01*
X169840476Y-147359523D01*
X169745238Y-147311904D01*
X169650000Y-147216666D01*
X169602380Y-147073809D01*
X169602380Y-146978571D01*
X169650000Y-146835714D01*
X169697619Y-146788095D01*
X170602380Y-146216666D02*
X170554761Y-146311904D01*
X170507142Y-146359523D01*
X170411904Y-146407142D01*
X170126190Y-146407142D01*
X170030952Y-146359523D01*
X169983333Y-146311904D01*
X169935714Y-146216666D01*
X169935714Y-146073809D01*
X169983333Y-145978571D01*
X170030952Y-145930952D01*
X170126190Y-145883333D01*
X170411904Y-145883333D01*
X170507142Y-145930952D01*
X170554761Y-145978571D01*
X170602380Y-146073809D01*
X170602380Y-146216666D01*
X169935714Y-145454761D02*
X170602380Y-145454761D01*
X170030952Y-145454761D02*
X169983333Y-145407142D01*
X169935714Y-145311904D01*
X169935714Y-145169047D01*
X169983333Y-145073809D01*
X170078571Y-145026190D01*
X170602380Y-145026190D01*
X169935714Y-144550000D02*
X170602380Y-144550000D01*
X170030952Y-144550000D02*
X169983333Y-144502380D01*
X169935714Y-144407142D01*
X169935714Y-144264285D01*
X169983333Y-144169047D01*
X170078571Y-144121428D01*
X170602380Y-144121428D01*
X170697619Y-143883333D02*
X170697619Y-143121428D01*
X169602380Y-142692857D02*
X169602380Y-142597619D01*
X169650000Y-142502380D01*
X169697619Y-142454761D01*
X169792857Y-142407142D01*
X169983333Y-142359523D01*
X170221428Y-142359523D01*
X170411904Y-142407142D01*
X170507142Y-142454761D01*
X170554761Y-142502380D01*
X170602380Y-142597619D01*
X170602380Y-142692857D01*
X170554761Y-142788095D01*
X170507142Y-142835714D01*
X170411904Y-142883333D01*
X170221428Y-142930952D01*
X169983333Y-142930952D01*
X169792857Y-142883333D01*
X169697619Y-142835714D01*
X169650000Y-142788095D01*
X169602380Y-142692857D01*
X170602380Y-141407142D02*
X170602380Y-141978571D01*
X170602380Y-141692857D02*
X169602380Y-141692857D01*
X169745238Y-141788095D01*
X169840476Y-141883333D01*
X169888095Y-141978571D01*
X170602380Y-141073809D02*
X169935714Y-140550000D01*
X169935714Y-141073809D02*
X170602380Y-140550000D01*
X169602380Y-139978571D02*
X169602380Y-139883333D01*
X169650000Y-139788095D01*
X169697619Y-139740476D01*
X169792857Y-139692857D01*
X169983333Y-139645238D01*
X170221428Y-139645238D01*
X170411904Y-139692857D01*
X170507142Y-139740476D01*
X170554761Y-139788095D01*
X170602380Y-139883333D01*
X170602380Y-139978571D01*
X170554761Y-140073809D01*
X170507142Y-140121428D01*
X170411904Y-140169047D01*
X170221428Y-140216666D01*
X169983333Y-140216666D01*
X169792857Y-140169047D01*
X169697619Y-140121428D01*
X169650000Y-140073809D01*
X169602380Y-139978571D01*
X169602380Y-138740476D02*
X169602380Y-139216666D01*
X170078571Y-139264285D01*
X170030952Y-139216666D01*
X169983333Y-139121428D01*
X169983333Y-138883333D01*
X170030952Y-138788095D01*
X170078571Y-138740476D01*
X170173809Y-138692857D01*
X170411904Y-138692857D01*
X170507142Y-138740476D01*
X170554761Y-138788095D01*
X170602380Y-138883333D01*
X170602380Y-139121428D01*
X170554761Y-139216666D01*
X170507142Y-139264285D01*
X166052380Y-143383333D02*
X166766666Y-143383333D01*
X166909523Y-143430952D01*
X167004761Y-143526190D01*
X167052380Y-143669047D01*
X167052380Y-143764285D01*
X166052380Y-143002380D02*
X166052380Y-142383333D01*
X166433333Y-142716666D01*
X166433333Y-142573809D01*
X166480952Y-142478571D01*
X166528571Y-142430952D01*
X166623809Y-142383333D01*
X166861904Y-142383333D01*
X166957142Y-142430952D01*
X167004761Y-142478571D01*
X167052380Y-142573809D01*
X167052380Y-142859523D01*
X167004761Y-142954761D01*
X166957142Y-143002380D01*
X155472180Y-102726620D02*
X154997802Y-102685117D01*
X155084958Y-101688922D01*
X155849898Y-102233855D02*
X156181963Y-102262907D01*
X156278624Y-102797174D02*
X155804245Y-102755672D01*
X155891401Y-101759477D01*
X156365779Y-101800980D01*
X156705564Y-102834527D02*
X156792720Y-101838332D01*
X157029909Y-101859083D01*
X157168072Y-101918972D01*
X157254648Y-102022148D01*
X157293785Y-102121174D01*
X157324622Y-102315076D01*
X157312171Y-102457389D01*
X157248132Y-102642991D01*
X157192393Y-102733716D01*
X157089217Y-102820291D01*
X156942753Y-102855278D01*
X156705564Y-102834527D01*
X157456269Y-102995807D02*
X158215275Y-103062211D01*
X158838482Y-102495322D02*
X158506417Y-102466271D01*
X158460764Y-102988087D02*
X158547920Y-101991892D01*
X159022299Y-102033395D01*
X159591553Y-102083198D02*
X159781304Y-102099799D01*
X159872029Y-102155538D01*
X159958605Y-102258714D01*
X159989441Y-102452616D01*
X159960389Y-102784680D01*
X159896351Y-102970282D01*
X159793174Y-103056857D01*
X159694148Y-103095994D01*
X159504397Y-103079393D01*
X159413672Y-103023654D01*
X159327096Y-102920478D01*
X159296260Y-102726577D01*
X159325312Y-102394512D01*
X159389351Y-102208911D01*
X159492527Y-102122335D01*
X159591553Y-102083198D01*
X160303120Y-102145452D02*
X160872374Y-102195256D01*
X160500592Y-103166549D02*
X160587747Y-102170354D01*
X161686538Y-103270305D02*
X161395976Y-102766875D01*
X161117284Y-103220502D02*
X161204439Y-102224307D01*
X161583942Y-102257510D01*
X161674668Y-102313248D01*
X161717955Y-102364836D01*
X161757092Y-102463862D01*
X161744642Y-102606176D01*
X161688903Y-102696901D01*
X161637315Y-102740189D01*
X161538289Y-102779326D01*
X161158786Y-102746124D01*
X150802181Y-85904402D02*
X150496091Y-85539619D01*
X151262136Y-84896831D01*
X151417704Y-85823052D02*
X151631967Y-86078400D01*
X151322532Y-86524533D02*
X151016443Y-86159750D01*
X151782488Y-85516963D01*
X152088577Y-85881746D01*
X151598013Y-86852838D02*
X152364057Y-86210050D01*
X152517102Y-86392442D01*
X152572450Y-86532486D01*
X152560712Y-86666660D01*
X152518364Y-86764356D01*
X152403060Y-86923270D01*
X152293625Y-87015097D01*
X152117103Y-87101055D01*
X152013537Y-87125794D01*
X151879363Y-87114055D01*
X151751058Y-87035229D01*
X151598013Y-86852838D01*
X152014799Y-87497709D02*
X152504542Y-88081362D01*
X153346067Y-88121185D02*
X153131805Y-87865837D01*
X152730543Y-88202535D02*
X153496588Y-87559748D01*
X153802677Y-87924531D01*
X154169984Y-88362270D02*
X154292420Y-88508184D01*
X154317160Y-88611749D01*
X154305421Y-88745924D01*
X154190117Y-88904838D01*
X153934768Y-89119100D01*
X153758246Y-89205058D01*
X153624072Y-89193319D01*
X153526376Y-89150971D01*
X153403940Y-89005058D01*
X153379200Y-88901492D01*
X153390939Y-88767318D01*
X153506243Y-88608404D01*
X153761592Y-88394141D01*
X153938114Y-88308184D01*
X154072288Y-88319923D01*
X154169984Y-88362270D01*
X154629118Y-88909445D02*
X154996426Y-89347185D01*
X154046728Y-89771102D02*
X154812772Y-89128315D01*
X154811951Y-90683060D02*
X154962471Y-90121623D01*
X154444644Y-90245320D02*
X155210688Y-89602533D01*
X155455560Y-89894359D01*
X155480299Y-89997925D01*
X155474430Y-90065012D01*
X155432082Y-90162708D01*
X155322647Y-90254535D01*
X155219082Y-90279275D01*
X155151994Y-90273405D01*
X155054298Y-90231058D01*
X154809427Y-89939231D01*
X146256647Y-95188298D02*
X145950558Y-95553081D01*
X145184514Y-94910293D01*
X146069649Y-94596251D02*
X146283911Y-94340903D01*
X146776999Y-94568167D02*
X146470910Y-94932950D01*
X145704865Y-94290162D01*
X146010955Y-93925379D01*
X147052480Y-94239862D02*
X146286435Y-93597074D01*
X146439480Y-93414683D01*
X146567785Y-93335857D01*
X146701959Y-93324118D01*
X146805525Y-93348857D01*
X146982047Y-93434815D01*
X147091482Y-93526642D01*
X147206786Y-93685556D01*
X147249134Y-93783252D01*
X147260873Y-93917426D01*
X147205524Y-94057470D01*
X147052480Y-94239862D01*
X147615179Y-93717427D02*
X148104922Y-93133774D01*
X147998011Y-92298118D02*
X147783749Y-92553466D01*
X148185010Y-92890164D02*
X147418966Y-92247377D01*
X147725055Y-91882594D01*
X148092362Y-91444854D02*
X148214798Y-91298941D01*
X148312494Y-91256593D01*
X148446669Y-91244854D01*
X148623191Y-91330812D01*
X148878539Y-91545074D01*
X148993843Y-91703988D01*
X149005582Y-91838163D01*
X148980842Y-91941728D01*
X148858407Y-92087642D01*
X148760711Y-92129989D01*
X148626536Y-92141728D01*
X148450014Y-92055771D01*
X148194666Y-91841508D01*
X148079362Y-91682594D01*
X148067623Y-91548420D01*
X148092362Y-91444854D01*
X148551496Y-90897679D02*
X148918804Y-90459940D01*
X149501194Y-91321597D02*
X148735150Y-90678810D01*
X150266418Y-90409640D02*
X149687372Y-90358898D01*
X149899111Y-90847379D02*
X149133066Y-90204592D01*
X149377938Y-89912765D01*
X149475634Y-89870418D01*
X149542721Y-89864548D01*
X149646286Y-89889288D01*
X149755721Y-89981115D01*
X149798069Y-90078811D01*
X149803938Y-90145898D01*
X149779199Y-90249463D01*
X149534327Y-90541290D01*
X136057468Y-107372105D02*
X135583089Y-107413608D01*
X135495933Y-106417413D01*
X136343879Y-106821237D02*
X136675944Y-106792185D01*
X136863911Y-107301551D02*
X136389532Y-107343053D01*
X136302377Y-106346859D01*
X136776755Y-106305356D01*
X137290851Y-107264198D02*
X137203696Y-106268004D01*
X137440885Y-106247252D01*
X137587349Y-106282239D01*
X137690525Y-106368814D01*
X137746263Y-106459540D01*
X137810302Y-106645141D01*
X137822753Y-106787454D01*
X137791916Y-106981356D01*
X137752779Y-107080382D01*
X137666204Y-107183558D01*
X137528041Y-107243447D01*
X137290851Y-107264198D01*
X138058157Y-107292670D02*
X138817163Y-107226265D01*
X139332464Y-106559770D02*
X139000399Y-106588822D01*
X139046052Y-107110638D02*
X138958896Y-106114443D01*
X139433274Y-106072941D01*
X140002528Y-106023137D02*
X140192280Y-106006536D01*
X140291306Y-106045674D01*
X140394482Y-106132249D01*
X140458521Y-106317850D01*
X140487573Y-106649915D01*
X140456736Y-106843816D01*
X140370161Y-106946993D01*
X140279436Y-107002731D01*
X140089684Y-107019332D01*
X139990658Y-106980195D01*
X139887482Y-106893620D01*
X139823443Y-106708019D01*
X139794391Y-106375954D01*
X139825228Y-106182052D01*
X139911803Y-106078876D01*
X140002528Y-106023137D01*
X140714096Y-105960883D02*
X141283350Y-105911080D01*
X141085879Y-106932176D02*
X140998723Y-105935982D01*
X142271825Y-106828420D02*
X141898257Y-106383093D01*
X141702571Y-106878223D02*
X141615415Y-105882028D01*
X141994918Y-105848826D01*
X142093944Y-105887963D01*
X142145532Y-105931251D01*
X142201270Y-106021976D01*
X142213721Y-106164290D01*
X142174584Y-106263316D01*
X142131296Y-106314904D01*
X142040571Y-106370642D01*
X141661068Y-106403844D01*
D10*
X137107142Y-144338095D02*
X137154761Y-144385714D01*
X137202380Y-144528571D01*
X137202380Y-144623809D01*
X137154761Y-144766666D01*
X137059523Y-144861904D01*
X136964285Y-144909523D01*
X136773809Y-144957142D01*
X136630952Y-144957142D01*
X136440476Y-144909523D01*
X136345238Y-144861904D01*
X136250000Y-144766666D01*
X136202380Y-144623809D01*
X136202380Y-144528571D01*
X136250000Y-144385714D01*
X136297619Y-144338095D01*
X137202380Y-143766666D02*
X137154761Y-143861904D01*
X137107142Y-143909523D01*
X137011904Y-143957142D01*
X136726190Y-143957142D01*
X136630952Y-143909523D01*
X136583333Y-143861904D01*
X136535714Y-143766666D01*
X136535714Y-143623809D01*
X136583333Y-143528571D01*
X136630952Y-143480952D01*
X136726190Y-143433333D01*
X137011904Y-143433333D01*
X137107142Y-143480952D01*
X137154761Y-143528571D01*
X137202380Y-143623809D01*
X137202380Y-143766666D01*
X136535714Y-143004761D02*
X137202380Y-143004761D01*
X136630952Y-143004761D02*
X136583333Y-142957142D01*
X136535714Y-142861904D01*
X136535714Y-142719047D01*
X136583333Y-142623809D01*
X136678571Y-142576190D01*
X137202380Y-142576190D01*
X136535714Y-142100000D02*
X137202380Y-142100000D01*
X136630952Y-142100000D02*
X136583333Y-142052380D01*
X136535714Y-141957142D01*
X136535714Y-141814285D01*
X136583333Y-141719047D01*
X136678571Y-141671428D01*
X137202380Y-141671428D01*
X137297619Y-141433333D02*
X137297619Y-140671428D01*
X136202380Y-140242857D02*
X136202380Y-140147619D01*
X136250000Y-140052380D01*
X136297619Y-140004761D01*
X136392857Y-139957142D01*
X136583333Y-139909523D01*
X136821428Y-139909523D01*
X137011904Y-139957142D01*
X137107142Y-140004761D01*
X137154761Y-140052380D01*
X137202380Y-140147619D01*
X137202380Y-140242857D01*
X137154761Y-140338095D01*
X137107142Y-140385714D01*
X137011904Y-140433333D01*
X136821428Y-140480952D01*
X136583333Y-140480952D01*
X136392857Y-140433333D01*
X136297619Y-140385714D01*
X136250000Y-140338095D01*
X136202380Y-140242857D01*
X137202380Y-138957142D02*
X137202380Y-139528571D01*
X137202380Y-139242857D02*
X136202380Y-139242857D01*
X136345238Y-139338095D01*
X136440476Y-139433333D01*
X136488095Y-139528571D01*
X137202380Y-138623809D02*
X136535714Y-138100000D01*
X136535714Y-138623809D02*
X137202380Y-138100000D01*
X137202380Y-137195238D02*
X137202380Y-137766666D01*
X137202380Y-137480952D02*
X136202380Y-137480952D01*
X136345238Y-137576190D01*
X136440476Y-137671428D01*
X136488095Y-137766666D01*
X136297619Y-136814285D02*
X136250000Y-136766666D01*
X136202380Y-136671428D01*
X136202380Y-136433333D01*
X136250000Y-136338095D01*
X136297619Y-136290476D01*
X136392857Y-136242857D01*
X136488095Y-136242857D01*
X136630952Y-136290476D01*
X137202380Y-136861904D01*
X137202380Y-136242857D01*
D13*
X147126190Y-106852380D02*
X147197619Y-106876190D01*
X147316666Y-106876190D01*
X147364285Y-106852380D01*
X147388095Y-106828571D01*
X147411904Y-106780952D01*
X147411904Y-106733333D01*
X147388095Y-106685714D01*
X147364285Y-106661904D01*
X147316666Y-106638095D01*
X147221428Y-106614285D01*
X147173809Y-106590476D01*
X147150000Y-106566666D01*
X147126190Y-106519047D01*
X147126190Y-106471428D01*
X147150000Y-106423809D01*
X147173809Y-106400000D01*
X147221428Y-106376190D01*
X147340476Y-106376190D01*
X147411904Y-106400000D01*
X147554761Y-106376190D02*
X147840476Y-106376190D01*
X147697619Y-106876190D02*
X147697619Y-106376190D01*
X148007142Y-106876190D02*
X148007142Y-106376190D01*
X148173809Y-106733333D01*
X148340476Y-106376190D01*
X148340476Y-106876190D01*
X148530952Y-106376190D02*
X148840476Y-106376190D01*
X148673809Y-106566666D01*
X148745238Y-106566666D01*
X148792857Y-106590476D01*
X148816666Y-106614285D01*
X148840476Y-106661904D01*
X148840476Y-106780952D01*
X148816666Y-106828571D01*
X148792857Y-106852380D01*
X148745238Y-106876190D01*
X148602380Y-106876190D01*
X148554761Y-106852380D01*
X148530952Y-106828571D01*
X149030952Y-106423809D02*
X149054761Y-106400000D01*
X149102380Y-106376190D01*
X149221428Y-106376190D01*
X149269047Y-106400000D01*
X149292857Y-106423809D01*
X149316666Y-106471428D01*
X149316666Y-106519047D01*
X149292857Y-106590476D01*
X149007142Y-106876190D01*
X149316666Y-106876190D01*
X149697619Y-106614285D02*
X149530952Y-106614285D01*
X149530952Y-106876190D02*
X149530952Y-106376190D01*
X149769047Y-106376190D01*
X150173809Y-106542857D02*
X150173809Y-106876190D01*
X150054761Y-106352380D02*
X149935714Y-106709523D01*
X150245238Y-106709523D01*
X150697619Y-106876190D02*
X150411904Y-106876190D01*
X150554761Y-106876190D02*
X150554761Y-106376190D01*
X150507142Y-106447619D01*
X150459523Y-106495238D01*
X150411904Y-106519047D01*
X150864285Y-106376190D02*
X151173809Y-106376190D01*
X151007142Y-106566666D01*
X151078571Y-106566666D01*
X151126190Y-106590476D01*
X151150000Y-106614285D01*
X151173809Y-106661904D01*
X151173809Y-106780952D01*
X151150000Y-106828571D01*
X151126190Y-106852380D01*
X151078571Y-106876190D01*
X150935714Y-106876190D01*
X150888095Y-106852380D01*
X150864285Y-106828571D01*
X151673809Y-106828571D02*
X151650000Y-106852380D01*
X151578571Y-106876190D01*
X151530952Y-106876190D01*
X151459523Y-106852380D01*
X151411904Y-106804761D01*
X151388095Y-106757142D01*
X151364285Y-106661904D01*
X151364285Y-106590476D01*
X151388095Y-106495238D01*
X151411904Y-106447619D01*
X151459523Y-106400000D01*
X151530952Y-106376190D01*
X151578571Y-106376190D01*
X151650000Y-106400000D01*
X151673809Y-106423809D01*
X151888095Y-106876190D02*
X151888095Y-106376190D01*
X151888095Y-106614285D02*
X152173809Y-106614285D01*
X152173809Y-106876190D02*
X152173809Y-106376190D01*
X152626190Y-106376190D02*
X152530952Y-106376190D01*
X152483333Y-106400000D01*
X152459523Y-106423809D01*
X152411904Y-106495238D01*
X152388095Y-106590476D01*
X152388095Y-106780952D01*
X152411904Y-106828571D01*
X152435714Y-106852380D01*
X152483333Y-106876190D01*
X152578571Y-106876190D01*
X152626190Y-106852380D01*
X152650000Y-106828571D01*
X152673809Y-106780952D01*
X152673809Y-106661904D01*
X152650000Y-106614285D01*
X152626190Y-106590476D01*
X152578571Y-106566666D01*
X152483333Y-106566666D01*
X152435714Y-106590476D01*
X152411904Y-106614285D01*
X152388095Y-106661904D01*
D12*
X144816580Y-122516900D02*
X145054676Y-122516900D01*
X144959438Y-122754995D02*
X145054676Y-122516900D01*
X144959438Y-122278804D01*
X145245152Y-122659757D02*
X145054676Y-122516900D01*
X145245152Y-122374042D01*
D10*
X164457142Y-144538095D02*
X164504761Y-144585714D01*
X164552380Y-144728571D01*
X164552380Y-144823809D01*
X164504761Y-144966666D01*
X164409523Y-145061904D01*
X164314285Y-145109523D01*
X164123809Y-145157142D01*
X163980952Y-145157142D01*
X163790476Y-145109523D01*
X163695238Y-145061904D01*
X163600000Y-144966666D01*
X163552380Y-144823809D01*
X163552380Y-144728571D01*
X163600000Y-144585714D01*
X163647619Y-144538095D01*
X164552380Y-143966666D02*
X164504761Y-144061904D01*
X164457142Y-144109523D01*
X164361904Y-144157142D01*
X164076190Y-144157142D01*
X163980952Y-144109523D01*
X163933333Y-144061904D01*
X163885714Y-143966666D01*
X163885714Y-143823809D01*
X163933333Y-143728571D01*
X163980952Y-143680952D01*
X164076190Y-143633333D01*
X164361904Y-143633333D01*
X164457142Y-143680952D01*
X164504761Y-143728571D01*
X164552380Y-143823809D01*
X164552380Y-143966666D01*
X163885714Y-143204761D02*
X164552380Y-143204761D01*
X163980952Y-143204761D02*
X163933333Y-143157142D01*
X163885714Y-143061904D01*
X163885714Y-142919047D01*
X163933333Y-142823809D01*
X164028571Y-142776190D01*
X164552380Y-142776190D01*
X163885714Y-142300000D02*
X164552380Y-142300000D01*
X163980952Y-142300000D02*
X163933333Y-142252380D01*
X163885714Y-142157142D01*
X163885714Y-142014285D01*
X163933333Y-141919047D01*
X164028571Y-141871428D01*
X164552380Y-141871428D01*
X164647619Y-141633333D02*
X164647619Y-140871428D01*
X163552380Y-140442857D02*
X163552380Y-140347619D01*
X163600000Y-140252380D01*
X163647619Y-140204761D01*
X163742857Y-140157142D01*
X163933333Y-140109523D01*
X164171428Y-140109523D01*
X164361904Y-140157142D01*
X164457142Y-140204761D01*
X164504761Y-140252380D01*
X164552380Y-140347619D01*
X164552380Y-140442857D01*
X164504761Y-140538095D01*
X164457142Y-140585714D01*
X164361904Y-140633333D01*
X164171428Y-140680952D01*
X163933333Y-140680952D01*
X163742857Y-140633333D01*
X163647619Y-140585714D01*
X163600000Y-140538095D01*
X163552380Y-140442857D01*
X164552380Y-139157142D02*
X164552380Y-139728571D01*
X164552380Y-139442857D02*
X163552380Y-139442857D01*
X163695238Y-139538095D01*
X163790476Y-139633333D01*
X163838095Y-139728571D01*
X164552380Y-138823809D02*
X163885714Y-138300000D01*
X163885714Y-138823809D02*
X164552380Y-138300000D01*
X164552380Y-137395238D02*
X164552380Y-137966666D01*
X164552380Y-137680952D02*
X163552380Y-137680952D01*
X163695238Y-137776190D01*
X163790476Y-137871428D01*
X163838095Y-137966666D01*
X163647619Y-137014285D02*
X163600000Y-136966666D01*
X163552380Y-136871428D01*
X163552380Y-136633333D01*
X163600000Y-136538095D01*
X163647619Y-136490476D01*
X163742857Y-136442857D01*
X163838095Y-136442857D01*
X163980952Y-136490476D01*
X164552380Y-137061904D01*
X164552380Y-136442857D01*
X144522380Y-111516190D02*
X143522380Y-111516190D01*
X144522380Y-110468571D02*
X144046190Y-110801904D01*
X144522380Y-111040000D02*
X143522380Y-111040000D01*
X143522380Y-110659047D01*
X143570000Y-110563809D01*
X143617619Y-110516190D01*
X143712857Y-110468571D01*
X143855714Y-110468571D01*
X143950952Y-110516190D01*
X143998571Y-110563809D01*
X144046190Y-110659047D01*
X144046190Y-111040000D01*
X144522380Y-109563809D02*
X144522380Y-110040000D01*
X143522380Y-110040000D01*
X144522380Y-109230476D02*
X143522380Y-109230476D01*
X144236666Y-108897142D01*
X143522380Y-108563809D01*
X144522380Y-108563809D01*
X144522380Y-107611428D02*
X144522380Y-108087619D01*
X143522380Y-108087619D01*
X143522380Y-106849523D02*
X143522380Y-107040000D01*
X143570000Y-107135238D01*
X143617619Y-107182857D01*
X143760476Y-107278095D01*
X143950952Y-107325714D01*
X144331904Y-107325714D01*
X144427142Y-107278095D01*
X144474761Y-107230476D01*
X144522380Y-107135238D01*
X144522380Y-106944761D01*
X144474761Y-106849523D01*
X144427142Y-106801904D01*
X144331904Y-106754285D01*
X144093809Y-106754285D01*
X143998571Y-106801904D01*
X143950952Y-106849523D01*
X143903333Y-106944761D01*
X143903333Y-107135238D01*
X143950952Y-107230476D01*
X143998571Y-107278095D01*
X144093809Y-107325714D01*
X143522380Y-106420952D02*
X143522380Y-105801904D01*
X143903333Y-106135238D01*
X143903333Y-105992380D01*
X143950952Y-105897142D01*
X143998571Y-105849523D01*
X144093809Y-105801904D01*
X144331904Y-105801904D01*
X144427142Y-105849523D01*
X144474761Y-105897142D01*
X144522380Y-105992380D01*
X144522380Y-106278095D01*
X144474761Y-106373333D01*
X144427142Y-106420952D01*
X143855714Y-104944761D02*
X144522380Y-104944761D01*
X143474761Y-105182857D02*
X144189047Y-105420952D01*
X144189047Y-104801904D01*
X143855714Y-103992380D02*
X144522380Y-103992380D01*
X143474761Y-104230476D02*
X144189047Y-104468571D01*
X144189047Y-103849523D01*
X143522380Y-103611428D02*
X143522380Y-103040000D01*
X144522380Y-103325714D02*
X143522380Y-103325714D01*
X144522380Y-102135238D02*
X144046190Y-102468571D01*
X144522380Y-102706666D02*
X143522380Y-102706666D01*
X143522380Y-102325714D01*
X143570000Y-102230476D01*
X143617619Y-102182857D01*
X143712857Y-102135238D01*
X143855714Y-102135238D01*
X143950952Y-102182857D01*
X143998571Y-102230476D01*
X144046190Y-102325714D01*
X144046190Y-102706666D01*
X144522380Y-101706666D02*
X143522380Y-101706666D01*
X143522380Y-101325714D01*
X143570000Y-101230476D01*
X143617619Y-101182857D01*
X143712857Y-101135238D01*
X143855714Y-101135238D01*
X143950952Y-101182857D01*
X143998571Y-101230476D01*
X144046190Y-101325714D01*
X144046190Y-101706666D01*
X143998571Y-100373333D02*
X144046190Y-100230476D01*
X144093809Y-100182857D01*
X144189047Y-100135238D01*
X144331904Y-100135238D01*
X144427142Y-100182857D01*
X144474761Y-100230476D01*
X144522380Y-100325714D01*
X144522380Y-100706666D01*
X143522380Y-100706666D01*
X143522380Y-100373333D01*
X143570000Y-100278095D01*
X143617619Y-100230476D01*
X143712857Y-100182857D01*
X143808095Y-100182857D01*
X143903333Y-100230476D01*
X143950952Y-100278095D01*
X143998571Y-100373333D01*
X143998571Y-100706666D01*
X143998571Y-99373333D02*
X143998571Y-99706666D01*
X144522380Y-99706666D02*
X143522380Y-99706666D01*
X143522380Y-99230476D01*
X143522380Y-98992380D02*
X143522380Y-98420952D01*
X144522380Y-98706666D02*
X143522380Y-98706666D01*
X144522380Y-97516190D02*
X144046190Y-97849523D01*
X144522380Y-98087619D02*
X143522380Y-98087619D01*
X143522380Y-97706666D01*
X143570000Y-97611428D01*
X143617619Y-97563809D01*
X143712857Y-97516190D01*
X143855714Y-97516190D01*
X143950952Y-97563809D01*
X143998571Y-97611428D01*
X144046190Y-97706666D01*
X144046190Y-98087619D01*
D12*
X161470732Y-100822306D02*
X161899257Y-101333003D01*
X161043469Y-100683525D02*
X161320211Y-101383744D01*
X161794429Y-100985828D01*
X161584774Y-100291478D02*
X162095471Y-99862953D01*
X162409953Y-100904478D01*
X162533210Y-99495646D02*
X162606167Y-99434428D01*
X162709732Y-99409688D01*
X162776820Y-99415557D01*
X162874516Y-99457905D01*
X163033430Y-99573209D01*
X163186475Y-99755601D01*
X163272432Y-99932123D01*
X163297171Y-100035689D01*
X163291302Y-100102776D01*
X163248954Y-100200472D01*
X163175998Y-100261690D01*
X163072432Y-100286430D01*
X163005345Y-100280560D01*
X162907649Y-100238212D01*
X162748735Y-100122908D01*
X162595690Y-99940517D01*
X162509733Y-99763994D01*
X162484993Y-99660429D01*
X162490863Y-99593342D01*
X162533210Y-99495646D01*
X163331126Y-99261251D02*
X163973913Y-100027295D01*
X164032607Y-99356423D02*
X164130303Y-99398770D01*
X164233869Y-99374031D01*
X163667824Y-99662512D02*
X163765520Y-99704860D01*
X163869086Y-99680120D01*
X164014999Y-99557684D01*
X164057347Y-99459988D01*
X164032607Y-99356423D01*
X163695909Y-98955161D01*
X160627109Y-98816807D02*
X160621240Y-98883895D01*
X160542414Y-99012200D01*
X160469457Y-99073418D01*
X160329414Y-99128766D01*
X160195239Y-99117027D01*
X160097543Y-99074680D01*
X159938629Y-98959375D01*
X159846802Y-98849940D01*
X159760845Y-98673418D01*
X159736105Y-98569853D01*
X159747844Y-98435678D01*
X159826670Y-98307373D01*
X159899626Y-98246155D01*
X160039670Y-98190807D01*
X160106757Y-98196676D01*
X161417893Y-98277585D02*
X160980154Y-98644893D01*
X161199024Y-98461239D02*
X160556236Y-97695195D01*
X160575106Y-97865847D01*
X160563367Y-98000022D01*
X160521020Y-98097718D01*
X161782676Y-97971496D02*
X161928590Y-97849060D01*
X161970937Y-97751364D01*
X161976807Y-97684277D01*
X161957937Y-97513624D01*
X161871979Y-97337102D01*
X161627108Y-97045275D01*
X161529411Y-97002928D01*
X161462324Y-96997058D01*
X161358759Y-97021798D01*
X161212845Y-97144234D01*
X161170498Y-97241930D01*
X161164628Y-97309017D01*
X161189368Y-97412583D01*
X161342413Y-97594974D01*
X161440109Y-97637322D01*
X161507196Y-97643191D01*
X161610762Y-97618452D01*
X161756675Y-97496016D01*
X161799022Y-97398320D01*
X161804892Y-97331233D01*
X161780152Y-97227667D01*
X140126212Y-95779388D02*
X139697687Y-96290084D01*
X140188692Y-95334517D02*
X139547167Y-95728647D01*
X140021385Y-96126563D01*
X140668780Y-95799520D02*
X141179476Y-96228045D01*
X140208384Y-96718609D01*
X141617216Y-96595352D02*
X141690172Y-96656570D01*
X141732520Y-96754266D01*
X141738389Y-96821354D01*
X141713650Y-96924919D01*
X141627692Y-97101441D01*
X141474648Y-97283833D01*
X141315734Y-97399137D01*
X141218037Y-97441485D01*
X141150950Y-97447354D01*
X141047385Y-97422615D01*
X140974428Y-97361397D01*
X140932080Y-97263701D01*
X140926211Y-97196613D01*
X140950951Y-97093048D01*
X141036908Y-96916526D01*
X141189953Y-96734134D01*
X141348867Y-96618830D01*
X141446563Y-96576482D01*
X141513650Y-96570613D01*
X141617216Y-96595352D01*
X141986606Y-97340444D02*
X141343818Y-98106488D01*
X142014691Y-98047794D02*
X141989951Y-98151360D01*
X142032299Y-98249056D01*
X141649908Y-97741705D02*
X141625168Y-97845270D01*
X141667516Y-97942967D01*
X141813429Y-98065402D01*
X141916995Y-98090142D01*
X142014691Y-98047794D01*
X142351389Y-97646533D01*
X138547975Y-98660366D02*
X138480888Y-98666236D01*
X138340844Y-98610887D01*
X138267888Y-98549669D01*
X138189062Y-98421364D01*
X138177323Y-98287190D01*
X138202062Y-98183624D01*
X138288020Y-98007102D01*
X138379847Y-97897667D01*
X138538761Y-97782363D01*
X138636457Y-97740015D01*
X138770631Y-97728276D01*
X138910675Y-97783625D01*
X138983632Y-97844843D01*
X139062458Y-97973148D01*
X139068327Y-98040235D01*
X139360154Y-98285106D02*
X139427241Y-98279237D01*
X139530806Y-98303977D01*
X139713198Y-98457021D01*
X139755546Y-98554717D01*
X139761415Y-98621805D01*
X139736675Y-98725370D01*
X139675458Y-98798327D01*
X139547153Y-98877153D01*
X138742106Y-98947585D01*
X139216324Y-99345501D01*
X140333329Y-98977373D02*
X140406286Y-99038591D01*
X140448634Y-99136287D01*
X140454503Y-99203374D01*
X140429763Y-99306940D01*
X140343806Y-99483462D01*
X140190761Y-99665854D01*
X140031847Y-99781158D01*
X139934151Y-99823506D01*
X139867064Y-99829375D01*
X139763498Y-99804635D01*
X139690542Y-99743418D01*
X139648194Y-99645721D01*
X139642325Y-99578634D01*
X139667064Y-99475069D01*
X139753022Y-99298547D01*
X139906066Y-99116155D01*
X140064980Y-99000851D01*
X140162676Y-98958503D01*
X140229764Y-98952634D01*
X140333329Y-98977373D01*
X154000732Y-94342306D02*
X154429257Y-94853003D01*
X153573469Y-94203525D02*
X153850211Y-94903744D01*
X154324429Y-94505828D01*
X154114774Y-93811478D02*
X154625471Y-93382953D01*
X154939953Y-94424478D01*
X155063210Y-93015646D02*
X155136167Y-92954428D01*
X155239732Y-92929688D01*
X155306820Y-92935557D01*
X155404516Y-92977905D01*
X155563430Y-93093209D01*
X155716475Y-93275601D01*
X155802432Y-93452123D01*
X155827171Y-93555689D01*
X155821302Y-93622776D01*
X155778954Y-93720472D01*
X155705998Y-93781690D01*
X155602432Y-93806430D01*
X155535345Y-93800560D01*
X155437649Y-93758212D01*
X155278735Y-93642908D01*
X155125690Y-93460517D01*
X155039733Y-93283994D01*
X155014993Y-93180429D01*
X155020863Y-93113342D01*
X155063210Y-93015646D01*
X155861126Y-92781251D02*
X156503913Y-93547295D01*
X156562607Y-92876423D02*
X156660303Y-92918770D01*
X156763869Y-92894031D01*
X156197824Y-93182512D02*
X156295520Y-93224860D01*
X156399086Y-93200120D01*
X156544999Y-93077684D01*
X156587347Y-92979988D01*
X156562607Y-92876423D01*
X156225909Y-92475161D01*
X153157109Y-92336807D02*
X153151240Y-92403895D01*
X153072414Y-92532200D01*
X152999457Y-92593418D01*
X152859414Y-92648766D01*
X152725239Y-92637027D01*
X152627543Y-92594680D01*
X152468629Y-92479375D01*
X152376802Y-92369940D01*
X152290845Y-92193418D01*
X152266105Y-92089853D01*
X152277844Y-91955678D01*
X152356670Y-91827373D01*
X152429626Y-91766155D01*
X152569670Y-91710807D01*
X152636757Y-91716676D01*
X152928584Y-91471805D02*
X152934453Y-91404717D01*
X152976801Y-91307021D01*
X153159193Y-91153977D01*
X153262758Y-91129237D01*
X153329845Y-91135106D01*
X153427541Y-91177454D01*
X153488759Y-91250411D01*
X153544108Y-91390455D01*
X153473675Y-92195501D01*
X153947893Y-91797585D01*
X154677460Y-91185407D02*
X154239720Y-91552714D01*
X154458590Y-91369060D02*
X153815802Y-90603016D01*
X153834672Y-90773669D01*
X153822933Y-90907843D01*
X153780586Y-91005539D01*
X147231212Y-88629388D02*
X146802687Y-89140084D01*
X147293692Y-88184517D02*
X146652167Y-88578647D01*
X147126385Y-88976563D01*
X147773780Y-88649520D02*
X148284476Y-89078045D01*
X147313384Y-89568609D01*
X148722216Y-89445352D02*
X148795172Y-89506570D01*
X148837520Y-89604266D01*
X148843389Y-89671354D01*
X148818650Y-89774919D01*
X148732692Y-89951441D01*
X148579648Y-90133833D01*
X148420734Y-90249137D01*
X148323037Y-90291485D01*
X148255950Y-90297354D01*
X148152385Y-90272615D01*
X148079428Y-90211397D01*
X148037080Y-90113701D01*
X148031211Y-90046613D01*
X148055951Y-89943048D01*
X148141908Y-89766526D01*
X148294953Y-89584134D01*
X148453867Y-89468830D01*
X148551563Y-89426482D01*
X148618650Y-89420613D01*
X148722216Y-89445352D01*
X149091606Y-90190444D02*
X148448818Y-90956488D01*
X149119691Y-90897794D02*
X149094951Y-91001360D01*
X149137299Y-91099056D01*
X148754908Y-90591705D02*
X148730168Y-90695270D01*
X148772516Y-90792967D01*
X148918429Y-90915402D01*
X149021995Y-90940142D01*
X149119691Y-90897794D01*
X149456389Y-90496533D01*
X145652975Y-91510366D02*
X145585888Y-91516236D01*
X145445844Y-91460887D01*
X145372888Y-91399669D01*
X145294062Y-91271364D01*
X145282323Y-91137190D01*
X145307062Y-91033624D01*
X145393020Y-90857102D01*
X145484847Y-90747667D01*
X145643761Y-90632363D01*
X145741457Y-90590015D01*
X145875631Y-90578276D01*
X146015675Y-90633625D01*
X146088632Y-90694843D01*
X146167458Y-90823148D01*
X146173327Y-90890235D01*
X146465154Y-91135106D02*
X146532241Y-91129237D01*
X146635806Y-91153977D01*
X146818198Y-91307021D01*
X146860546Y-91404717D01*
X146866415Y-91471805D01*
X146841675Y-91575370D01*
X146780458Y-91648327D01*
X146652153Y-91727153D01*
X145847106Y-91797585D01*
X146321324Y-92195501D01*
X147194720Y-91747285D02*
X147261807Y-91741416D01*
X147365373Y-91766155D01*
X147547764Y-91919200D01*
X147590112Y-92016896D01*
X147595981Y-92083983D01*
X147571242Y-92187549D01*
X147510024Y-92260506D01*
X147381719Y-92339332D01*
X146576672Y-92409764D01*
X147050890Y-92807680D01*
D10*
X144856190Y-141442380D02*
X144284761Y-141442380D01*
X144570476Y-141442380D02*
X144570476Y-140442380D01*
X144475238Y-140585238D01*
X144380000Y-140680476D01*
X144284761Y-140728095D01*
X145237142Y-141394761D02*
X145380000Y-141442380D01*
X145618095Y-141442380D01*
X145713333Y-141394761D01*
X145760952Y-141347142D01*
X145808571Y-141251904D01*
X145808571Y-141156666D01*
X145760952Y-141061428D01*
X145713333Y-141013809D01*
X145618095Y-140966190D01*
X145427619Y-140918571D01*
X145332380Y-140870952D01*
X145284761Y-140823333D01*
X145237142Y-140728095D01*
X145237142Y-140632857D01*
X145284761Y-140537619D01*
X145332380Y-140490000D01*
X145427619Y-140442380D01*
X145665714Y-140442380D01*
X145808571Y-140490000D01*
X146237142Y-141442380D02*
X146237142Y-140442380D01*
X146570476Y-141156666D01*
X146903809Y-140442380D01*
X146903809Y-141442380D01*
X147713333Y-140918571D02*
X147856190Y-140966190D01*
X147903809Y-141013809D01*
X147951428Y-141109047D01*
X147951428Y-141251904D01*
X147903809Y-141347142D01*
X147856190Y-141394761D01*
X147760952Y-141442380D01*
X147380000Y-141442380D01*
X147380000Y-140442380D01*
X147713333Y-140442380D01*
X147808571Y-140490000D01*
X147856190Y-140537619D01*
X147903809Y-140632857D01*
X147903809Y-140728095D01*
X147856190Y-140823333D01*
X147808571Y-140870952D01*
X147713333Y-140918571D01*
X147380000Y-140918571D01*
X148856190Y-140442380D02*
X148380000Y-140442380D01*
X148332380Y-140918571D01*
X148380000Y-140870952D01*
X148475238Y-140823333D01*
X148713333Y-140823333D01*
X148808571Y-140870952D01*
X148856190Y-140918571D01*
X148903809Y-141013809D01*
X148903809Y-141251904D01*
X148856190Y-141347142D01*
X148808571Y-141394761D01*
X148713333Y-141442380D01*
X148475238Y-141442380D01*
X148380000Y-141394761D01*
X148332380Y-141347142D01*
X149380000Y-141442380D02*
X149570476Y-141442380D01*
X149665714Y-141394761D01*
X149713333Y-141347142D01*
X149808571Y-141204285D01*
X149856190Y-141013809D01*
X149856190Y-140632857D01*
X149808571Y-140537619D01*
X149760952Y-140490000D01*
X149665714Y-140442380D01*
X149475238Y-140442380D01*
X149380000Y-140490000D01*
X149332380Y-140537619D01*
X149284761Y-140632857D01*
X149284761Y-140870952D01*
X149332380Y-140966190D01*
X149380000Y-141013809D01*
X149475238Y-141061428D01*
X149665714Y-141061428D01*
X149760952Y-141013809D01*
X149808571Y-140966190D01*
X149856190Y-140870952D01*
X150237142Y-140537619D02*
X150284761Y-140490000D01*
X150380000Y-140442380D01*
X150618095Y-140442380D01*
X150713333Y-140490000D01*
X150760952Y-140537619D01*
X150808571Y-140632857D01*
X150808571Y-140728095D01*
X150760952Y-140870952D01*
X150189523Y-141442380D01*
X150808571Y-141442380D01*
X151380000Y-140870952D02*
X151284761Y-140823333D01*
X151237142Y-140775714D01*
X151189523Y-140680476D01*
X151189523Y-140632857D01*
X151237142Y-140537619D01*
X151284761Y-140490000D01*
X151380000Y-140442380D01*
X151570476Y-140442380D01*
X151665714Y-140490000D01*
X151713333Y-140537619D01*
X151760952Y-140632857D01*
X151760952Y-140680476D01*
X151713333Y-140775714D01*
X151665714Y-140823333D01*
X151570476Y-140870952D01*
X151380000Y-140870952D01*
X151284761Y-140918571D01*
X151237142Y-140966190D01*
X151189523Y-141061428D01*
X151189523Y-141251904D01*
X151237142Y-141347142D01*
X151284761Y-141394761D01*
X151380000Y-141442380D01*
X151570476Y-141442380D01*
X151665714Y-141394761D01*
X151713333Y-141347142D01*
X151760952Y-141251904D01*
X151760952Y-141061428D01*
X151713333Y-140966190D01*
X151665714Y-140918571D01*
X151570476Y-140870952D01*
X152522857Y-140918571D02*
X152665714Y-140966190D01*
X152713333Y-141013809D01*
X152760952Y-141109047D01*
X152760952Y-141251904D01*
X152713333Y-141347142D01*
X152665714Y-141394761D01*
X152570476Y-141442380D01*
X152189523Y-141442380D01*
X152189523Y-140442380D01*
X152522857Y-140442380D01*
X152618095Y-140490000D01*
X152665714Y-140537619D01*
X152713333Y-140632857D01*
X152713333Y-140728095D01*
X152665714Y-140823333D01*
X152618095Y-140870952D01*
X152522857Y-140918571D01*
X152189523Y-140918571D01*
X153046666Y-140442380D02*
X153618095Y-140442380D01*
X153332380Y-141442380D02*
X153332380Y-140442380D01*
X153856190Y-140442380D02*
X154475238Y-140442380D01*
X154141904Y-140823333D01*
X154284761Y-140823333D01*
X154380000Y-140870952D01*
X154427619Y-140918571D01*
X154475238Y-141013809D01*
X154475238Y-141251904D01*
X154427619Y-141347142D01*
X154380000Y-141394761D01*
X154284761Y-141442380D01*
X153999047Y-141442380D01*
X153903809Y-141394761D01*
X153856190Y-141347142D01*
X155427619Y-140490000D02*
X155332380Y-140442380D01*
X155189523Y-140442380D01*
X155046666Y-140490000D01*
X154951428Y-140585238D01*
X154903809Y-140680476D01*
X154856190Y-140870952D01*
X154856190Y-141013809D01*
X154903809Y-141204285D01*
X154951428Y-141299523D01*
X155046666Y-141394761D01*
X155189523Y-141442380D01*
X155284761Y-141442380D01*
X155427619Y-141394761D01*
X155475238Y-141347142D01*
X155475238Y-141013809D01*
X155284761Y-141013809D01*
D12*
X162811904Y-139577142D02*
X162764285Y-139624761D01*
X162621428Y-139672380D01*
X162526190Y-139672380D01*
X162383333Y-139624761D01*
X162288095Y-139529523D01*
X162240476Y-139434285D01*
X162192857Y-139243809D01*
X162192857Y-139100952D01*
X162240476Y-138910476D01*
X162288095Y-138815238D01*
X162383333Y-138720000D01*
X162526190Y-138672380D01*
X162621428Y-138672380D01*
X162764285Y-138720000D01*
X162811904Y-138767619D01*
X163383333Y-139672380D02*
X163288095Y-139624761D01*
X163240476Y-139577142D01*
X163192857Y-139481904D01*
X163192857Y-139196190D01*
X163240476Y-139100952D01*
X163288095Y-139053333D01*
X163383333Y-139005714D01*
X163526190Y-139005714D01*
X163621428Y-139053333D01*
X163669047Y-139100952D01*
X163716666Y-139196190D01*
X163716666Y-139481904D01*
X163669047Y-139577142D01*
X163621428Y-139624761D01*
X163526190Y-139672380D01*
X163383333Y-139672380D01*
X164145238Y-139005714D02*
X164145238Y-139672380D01*
X164145238Y-139100952D02*
X164192857Y-139053333D01*
X164288095Y-139005714D01*
X164430952Y-139005714D01*
X164526190Y-139053333D01*
X164573809Y-139148571D01*
X164573809Y-139672380D01*
X165050000Y-139005714D02*
X165050000Y-139672380D01*
X165050000Y-139100952D02*
X165097619Y-139053333D01*
X165192857Y-139005714D01*
X165335714Y-139005714D01*
X165430952Y-139053333D01*
X165478571Y-139148571D01*
X165478571Y-139672380D01*
X165716666Y-139767619D02*
X166478571Y-139767619D01*
X166907142Y-138672380D02*
X167002380Y-138672380D01*
X167097619Y-138720000D01*
X167145238Y-138767619D01*
X167192857Y-138862857D01*
X167240476Y-139053333D01*
X167240476Y-139291428D01*
X167192857Y-139481904D01*
X167145238Y-139577142D01*
X167097619Y-139624761D01*
X167002380Y-139672380D01*
X166907142Y-139672380D01*
X166811904Y-139624761D01*
X166764285Y-139577142D01*
X166716666Y-139481904D01*
X166669047Y-139291428D01*
X166669047Y-139053333D01*
X166716666Y-138862857D01*
X166764285Y-138767619D01*
X166811904Y-138720000D01*
X166907142Y-138672380D01*
X168192857Y-139672380D02*
X167621428Y-139672380D01*
X167907142Y-139672380D02*
X167907142Y-138672380D01*
X167811904Y-138815238D01*
X167716666Y-138910476D01*
X167621428Y-138958095D01*
X168526190Y-139672380D02*
X169050000Y-139005714D01*
X168526190Y-139005714D02*
X169050000Y-139672380D01*
X169621428Y-138672380D02*
X169716666Y-138672380D01*
X169811904Y-138720000D01*
X169859523Y-138767619D01*
X169907142Y-138862857D01*
X169954761Y-139053333D01*
X169954761Y-139291428D01*
X169907142Y-139481904D01*
X169859523Y-139577142D01*
X169811904Y-139624761D01*
X169716666Y-139672380D01*
X169621428Y-139672380D01*
X169526190Y-139624761D01*
X169478571Y-139577142D01*
X169430952Y-139481904D01*
X169383333Y-139291428D01*
X169383333Y-139053333D01*
X169430952Y-138862857D01*
X169478571Y-138767619D01*
X169526190Y-138720000D01*
X169621428Y-138672380D01*
X170288095Y-138672380D02*
X170907142Y-138672380D01*
X170573809Y-139053333D01*
X170716666Y-139053333D01*
X170811904Y-139100952D01*
X170859523Y-139148571D01*
X170907142Y-139243809D01*
X170907142Y-139481904D01*
X170859523Y-139577142D01*
X170811904Y-139624761D01*
X170716666Y-139672380D01*
X170430952Y-139672380D01*
X170335714Y-139624761D01*
X170288095Y-139577142D01*
X166216666Y-135122380D02*
X166216666Y-135836666D01*
X166169047Y-135979523D01*
X166073809Y-136074761D01*
X165930952Y-136122380D01*
X165835714Y-136122380D01*
X167121428Y-135455714D02*
X167121428Y-136122380D01*
X166883333Y-135074761D02*
X166645238Y-135789047D01*
X167264285Y-135789047D01*
X156889285Y-104032380D02*
X157508333Y-104032380D01*
X157175000Y-104413333D01*
X157317857Y-104413333D01*
X157413095Y-104460952D01*
X157460714Y-104508571D01*
X157508333Y-104603809D01*
X157508333Y-104841904D01*
X157460714Y-104937142D01*
X157413095Y-104984761D01*
X157317857Y-105032380D01*
X157032142Y-105032380D01*
X156936904Y-104984761D01*
X156889285Y-104937142D01*
X157841666Y-104032380D02*
X158460714Y-104032380D01*
X158127380Y-104413333D01*
X158270238Y-104413333D01*
X158365476Y-104460952D01*
X158413095Y-104508571D01*
X158460714Y-104603809D01*
X158460714Y-104841904D01*
X158413095Y-104937142D01*
X158365476Y-104984761D01*
X158270238Y-105032380D01*
X157984523Y-105032380D01*
X157889285Y-104984761D01*
X157841666Y-104937142D01*
X159079761Y-104032380D02*
X159175000Y-104032380D01*
X159270238Y-104080000D01*
X159317857Y-104127619D01*
X159365476Y-104222857D01*
X159413095Y-104413333D01*
X159413095Y-104651428D01*
X159365476Y-104841904D01*
X159317857Y-104937142D01*
X159270238Y-104984761D01*
X159175000Y-105032380D01*
X159079761Y-105032380D01*
X158984523Y-104984761D01*
X158936904Y-104937142D01*
X158889285Y-104841904D01*
X158841666Y-104651428D01*
X158841666Y-104413333D01*
X158889285Y-104222857D01*
X158936904Y-104127619D01*
X158984523Y-104080000D01*
X159079761Y-104032380D01*
D14*
X158108333Y-103330952D02*
X157917857Y-103330952D01*
X157917857Y-102930952D01*
X158451190Y-103330952D02*
X158222619Y-103330952D01*
X158336904Y-103330952D02*
X158336904Y-102930952D01*
X158298809Y-102988095D01*
X158260714Y-103026190D01*
X158222619Y-103045238D01*
D12*
X147832472Y-135056000D02*
X148070568Y-135056000D01*
X147975330Y-135294095D02*
X148070568Y-135056000D01*
X147975330Y-134817904D01*
X148261044Y-135198857D02*
X148070568Y-135056000D01*
X148261044Y-134913142D01*
X146317619Y-117712380D02*
X146317619Y-116712380D01*
X147365238Y-117617142D02*
X147317619Y-117664761D01*
X147174761Y-117712380D01*
X147079523Y-117712380D01*
X146936666Y-117664761D01*
X146841428Y-117569523D01*
X146793809Y-117474285D01*
X146746190Y-117283809D01*
X146746190Y-117140952D01*
X146793809Y-116950476D01*
X146841428Y-116855238D01*
X146936666Y-116760000D01*
X147079523Y-116712380D01*
X147174761Y-116712380D01*
X147317619Y-116760000D01*
X147365238Y-116807619D01*
X147793809Y-117712380D02*
X147793809Y-116712380D01*
X148127142Y-117426666D01*
X148460476Y-116712380D01*
X148460476Y-117712380D01*
X148889047Y-116807619D02*
X148936666Y-116760000D01*
X149031904Y-116712380D01*
X149270000Y-116712380D01*
X149365238Y-116760000D01*
X149412857Y-116807619D01*
X149460476Y-116902857D01*
X149460476Y-116998095D01*
X149412857Y-117140952D01*
X148841428Y-117712380D01*
X149460476Y-117712380D01*
X150079523Y-116712380D02*
X150174761Y-116712380D01*
X150270000Y-116760000D01*
X150317619Y-116807619D01*
X150365238Y-116902857D01*
X150412857Y-117093333D01*
X150412857Y-117331428D01*
X150365238Y-117521904D01*
X150317619Y-117617142D01*
X150270000Y-117664761D01*
X150174761Y-117712380D01*
X150079523Y-117712380D01*
X149984285Y-117664761D01*
X149936666Y-117617142D01*
X149889047Y-117521904D01*
X149841428Y-117331428D01*
X149841428Y-117093333D01*
X149889047Y-116902857D01*
X149936666Y-116807619D01*
X149984285Y-116760000D01*
X150079523Y-116712380D01*
X151270000Y-116712380D02*
X151079523Y-116712380D01*
X150984285Y-116760000D01*
X150936666Y-116807619D01*
X150841428Y-116950476D01*
X150793809Y-117140952D01*
X150793809Y-117521904D01*
X150841428Y-117617142D01*
X150889047Y-117664761D01*
X150984285Y-117712380D01*
X151174761Y-117712380D01*
X151270000Y-117664761D01*
X151317619Y-117617142D01*
X151365238Y-117521904D01*
X151365238Y-117283809D01*
X151317619Y-117188571D01*
X151270000Y-117140952D01*
X151174761Y-117093333D01*
X150984285Y-117093333D01*
X150889047Y-117140952D01*
X150841428Y-117188571D01*
X150793809Y-117283809D01*
X152222380Y-117045714D02*
X152222380Y-117712380D01*
X151984285Y-116664761D02*
X151746190Y-117379047D01*
X152365238Y-117379047D01*
X152889047Y-117140952D02*
X152793809Y-117093333D01*
X152746190Y-117045714D01*
X152698571Y-116950476D01*
X152698571Y-116902857D01*
X152746190Y-116807619D01*
X152793809Y-116760000D01*
X152889047Y-116712380D01*
X153079523Y-116712380D01*
X153174761Y-116760000D01*
X153222380Y-116807619D01*
X153270000Y-116902857D01*
X153270000Y-116950476D01*
X153222380Y-117045714D01*
X153174761Y-117093333D01*
X153079523Y-117140952D01*
X152889047Y-117140952D01*
X152793809Y-117188571D01*
X152746190Y-117236190D01*
X152698571Y-117331428D01*
X152698571Y-117521904D01*
X152746190Y-117617142D01*
X152793809Y-117664761D01*
X152889047Y-117712380D01*
X153079523Y-117712380D01*
X153174761Y-117664761D01*
X153222380Y-117617142D01*
X153270000Y-117521904D01*
X153270000Y-117331428D01*
X153222380Y-117236190D01*
X153174761Y-117188571D01*
X153079523Y-117140952D01*
D10*
X152207142Y-108367142D02*
X152159523Y-108414761D01*
X152016666Y-108462380D01*
X151921428Y-108462380D01*
X151778571Y-108414761D01*
X151683333Y-108319523D01*
X151635714Y-108224285D01*
X151588095Y-108033809D01*
X151588095Y-107890952D01*
X151635714Y-107700476D01*
X151683333Y-107605238D01*
X151778571Y-107510000D01*
X151921428Y-107462380D01*
X152016666Y-107462380D01*
X152159523Y-107510000D01*
X152207142Y-107557619D01*
X152635714Y-108462380D02*
X152635714Y-107795714D01*
X152635714Y-107986190D02*
X152683333Y-107890952D01*
X152730952Y-107843333D01*
X152826190Y-107795714D01*
X152921428Y-107795714D01*
X153159523Y-107795714D02*
X153397619Y-108462380D01*
X153635714Y-107795714D02*
X153397619Y-108462380D01*
X153302380Y-108700476D01*
X153254761Y-108748095D01*
X153159523Y-108795714D01*
X153969047Y-108414761D02*
X154064285Y-108462380D01*
X154254761Y-108462380D01*
X154350000Y-108414761D01*
X154397619Y-108319523D01*
X154397619Y-108271904D01*
X154350000Y-108176666D01*
X154254761Y-108129047D01*
X154111904Y-108129047D01*
X154016666Y-108081428D01*
X153969047Y-107986190D01*
X153969047Y-107938571D01*
X154016666Y-107843333D01*
X154111904Y-107795714D01*
X154254761Y-107795714D01*
X154350000Y-107843333D01*
X154683333Y-107795714D02*
X155064285Y-107795714D01*
X154826190Y-107462380D02*
X154826190Y-108319523D01*
X154873809Y-108414761D01*
X154969047Y-108462380D01*
X155064285Y-108462380D01*
X155826190Y-108462380D02*
X155826190Y-107938571D01*
X155778571Y-107843333D01*
X155683333Y-107795714D01*
X155492857Y-107795714D01*
X155397619Y-107843333D01*
X155826190Y-108414761D02*
X155730952Y-108462380D01*
X155492857Y-108462380D01*
X155397619Y-108414761D01*
X155350000Y-108319523D01*
X155350000Y-108224285D01*
X155397619Y-108129047D01*
X155492857Y-108081428D01*
X155730952Y-108081428D01*
X155826190Y-108033809D01*
X156445238Y-108462380D02*
X156350000Y-108414761D01*
X156302380Y-108319523D01*
X156302380Y-107462380D01*
X156588095Y-108557619D02*
X157350000Y-108557619D01*
X158111904Y-107510000D02*
X158016666Y-107462380D01*
X157873809Y-107462380D01*
X157730952Y-107510000D01*
X157635714Y-107605238D01*
X157588095Y-107700476D01*
X157540476Y-107890952D01*
X157540476Y-108033809D01*
X157588095Y-108224285D01*
X157635714Y-108319523D01*
X157730952Y-108414761D01*
X157873809Y-108462380D01*
X157969047Y-108462380D01*
X158111904Y-108414761D01*
X158159523Y-108367142D01*
X158159523Y-108033809D01*
X157969047Y-108033809D01*
X158588095Y-108462380D02*
X158588095Y-107462380D01*
X159159523Y-108462380D01*
X159159523Y-107462380D01*
X159635714Y-108462380D02*
X159635714Y-107462380D01*
X159873809Y-107462380D01*
X160016666Y-107510000D01*
X160111904Y-107605238D01*
X160159523Y-107700476D01*
X160207142Y-107890952D01*
X160207142Y-108033809D01*
X160159523Y-108224285D01*
X160111904Y-108319523D01*
X160016666Y-108414761D01*
X159873809Y-108462380D01*
X159635714Y-108462380D01*
X160588095Y-107557619D02*
X160635714Y-107510000D01*
X160730952Y-107462380D01*
X160969047Y-107462380D01*
X161064285Y-107510000D01*
X161111904Y-107557619D01*
X161159523Y-107652857D01*
X161159523Y-107748095D01*
X161111904Y-107890952D01*
X160540476Y-108462380D01*
X161159523Y-108462380D01*
X161492857Y-107462380D02*
X162111904Y-107462380D01*
X161778571Y-107843333D01*
X161921428Y-107843333D01*
X162016666Y-107890952D01*
X162064285Y-107938571D01*
X162111904Y-108033809D01*
X162111904Y-108271904D01*
X162064285Y-108367142D01*
X162016666Y-108414761D01*
X161921428Y-108462380D01*
X161635714Y-108462380D01*
X161540476Y-108414761D01*
X161492857Y-108367142D01*
D12*
X137922380Y-139770714D02*
X137922380Y-139675476D01*
X137970000Y-139580238D01*
X138017619Y-139532619D01*
X138112857Y-139485000D01*
X138303333Y-139437380D01*
X138541428Y-139437380D01*
X138731904Y-139485000D01*
X138827142Y-139532619D01*
X138874761Y-139580238D01*
X138922380Y-139675476D01*
X138922380Y-139770714D01*
X138874761Y-139865952D01*
X138827142Y-139913571D01*
X138731904Y-139961190D01*
X138541428Y-140008809D01*
X138303333Y-140008809D01*
X138112857Y-139961190D01*
X138017619Y-139913571D01*
X137970000Y-139865952D01*
X137922380Y-139770714D01*
X138827142Y-139008809D02*
X138874761Y-138961190D01*
X138922380Y-139008809D01*
X138874761Y-139056428D01*
X138827142Y-139008809D01*
X138922380Y-139008809D01*
X138922380Y-138008809D02*
X138922380Y-138580238D01*
X138922380Y-138294523D02*
X137922380Y-138294523D01*
X138065238Y-138389761D01*
X138160476Y-138485000D01*
X138208095Y-138580238D01*
X138255714Y-137580238D02*
X139255714Y-137580238D01*
X138779523Y-137104047D02*
X138874761Y-137056428D01*
X138922380Y-136961190D01*
X138779523Y-137580238D02*
X138874761Y-137532619D01*
X138922380Y-137437380D01*
X138922380Y-137246904D01*
X138874761Y-137151666D01*
X138779523Y-137104047D01*
X138255714Y-137104047D01*
D15*
X137389285Y-138526666D02*
X137401190Y-138538571D01*
X137413095Y-138574285D01*
X137413095Y-138598095D01*
X137401190Y-138633809D01*
X137377380Y-138657619D01*
X137353571Y-138669523D01*
X137305952Y-138681428D01*
X137270238Y-138681428D01*
X137222619Y-138669523D01*
X137198809Y-138657619D01*
X137175000Y-138633809D01*
X137163095Y-138598095D01*
X137163095Y-138574285D01*
X137175000Y-138538571D01*
X137186904Y-138526666D01*
X137413095Y-138288571D02*
X137413095Y-138431428D01*
X137413095Y-138360000D02*
X137163095Y-138360000D01*
X137198809Y-138383809D01*
X137222619Y-138407619D01*
X137234523Y-138431428D01*
D12*
X164357380Y-130885714D02*
X164357380Y-130790476D01*
X164405000Y-130695238D01*
X164452619Y-130647619D01*
X164547857Y-130600000D01*
X164738333Y-130552380D01*
X164976428Y-130552380D01*
X165166904Y-130600000D01*
X165262142Y-130647619D01*
X165309761Y-130695238D01*
X165357380Y-130790476D01*
X165357380Y-130885714D01*
X165309761Y-130980952D01*
X165262142Y-131028571D01*
X165166904Y-131076190D01*
X164976428Y-131123809D01*
X164738333Y-131123809D01*
X164547857Y-131076190D01*
X164452619Y-131028571D01*
X164405000Y-130980952D01*
X164357380Y-130885714D01*
X165262142Y-130123809D02*
X165309761Y-130076190D01*
X165357380Y-130123809D01*
X165309761Y-130171428D01*
X165262142Y-130123809D01*
X165357380Y-130123809D01*
X165357380Y-129123809D02*
X165357380Y-129695238D01*
X165357380Y-129409523D02*
X164357380Y-129409523D01*
X164500238Y-129504761D01*
X164595476Y-129600000D01*
X164643095Y-129695238D01*
X164690714Y-128695238D02*
X165690714Y-128695238D01*
X165214523Y-128219047D02*
X165309761Y-128171428D01*
X165357380Y-128076190D01*
X165214523Y-128695238D02*
X165309761Y-128647619D01*
X165357380Y-128552380D01*
X165357380Y-128361904D01*
X165309761Y-128266666D01*
X165214523Y-128219047D01*
X164690714Y-128219047D01*
D15*
X166164285Y-129641666D02*
X166176190Y-129653571D01*
X166188095Y-129689285D01*
X166188095Y-129713095D01*
X166176190Y-129748809D01*
X166152380Y-129772619D01*
X166128571Y-129784523D01*
X166080952Y-129796428D01*
X166045238Y-129796428D01*
X165997619Y-129784523D01*
X165973809Y-129772619D01*
X165950000Y-129748809D01*
X165938095Y-129713095D01*
X165938095Y-129689285D01*
X165950000Y-129653571D01*
X165961904Y-129641666D01*
X165961904Y-129546428D02*
X165950000Y-129534523D01*
X165938095Y-129510714D01*
X165938095Y-129451190D01*
X165950000Y-129427380D01*
X165961904Y-129415476D01*
X165985714Y-129403571D01*
X166009523Y-129403571D01*
X166045238Y-129415476D01*
X166188095Y-129558333D01*
X166188095Y-129403571D01*
D12*
X147642380Y-134065714D02*
X147642380Y-133970476D01*
X147690000Y-133875238D01*
X147737619Y-133827619D01*
X147832857Y-133780000D01*
X148023333Y-133732380D01*
X148261428Y-133732380D01*
X148451904Y-133780000D01*
X148547142Y-133827619D01*
X148594761Y-133875238D01*
X148642380Y-133970476D01*
X148642380Y-134065714D01*
X148594761Y-134160952D01*
X148547142Y-134208571D01*
X148451904Y-134256190D01*
X148261428Y-134303809D01*
X148023333Y-134303809D01*
X147832857Y-134256190D01*
X147737619Y-134208571D01*
X147690000Y-134160952D01*
X147642380Y-134065714D01*
X148547142Y-133303809D02*
X148594761Y-133256190D01*
X148642380Y-133303809D01*
X148594761Y-133351428D01*
X148547142Y-133303809D01*
X148642380Y-133303809D01*
X148642380Y-132303809D02*
X148642380Y-132875238D01*
X148642380Y-132589523D02*
X147642380Y-132589523D01*
X147785238Y-132684761D01*
X147880476Y-132780000D01*
X147928095Y-132875238D01*
X147975714Y-131875238D02*
X148975714Y-131875238D01*
X148499523Y-131399047D02*
X148594761Y-131351428D01*
X148642380Y-131256190D01*
X148499523Y-131875238D02*
X148594761Y-131827619D01*
X148642380Y-131732380D01*
X148642380Y-131541904D01*
X148594761Y-131446666D01*
X148499523Y-131399047D01*
X147975714Y-131399047D01*
D15*
X147109285Y-132821666D02*
X147121190Y-132833571D01*
X147133095Y-132869285D01*
X147133095Y-132893095D01*
X147121190Y-132928809D01*
X147097380Y-132952619D01*
X147073571Y-132964523D01*
X147025952Y-132976428D01*
X146990238Y-132976428D01*
X146942619Y-132964523D01*
X146918809Y-132952619D01*
X146895000Y-132928809D01*
X146883095Y-132893095D01*
X146883095Y-132869285D01*
X146895000Y-132833571D01*
X146906904Y-132821666D01*
X146883095Y-132738333D02*
X146883095Y-132583571D01*
X146978333Y-132666904D01*
X146978333Y-132631190D01*
X146990238Y-132607380D01*
X147002142Y-132595476D01*
X147025952Y-132583571D01*
X147085476Y-132583571D01*
X147109285Y-132595476D01*
X147121190Y-132607380D01*
X147133095Y-132631190D01*
X147133095Y-132702619D01*
X147121190Y-132726428D01*
X147109285Y-132738333D01*
D12*
X145312380Y-136085714D02*
X145312380Y-135990476D01*
X145360000Y-135895238D01*
X145407619Y-135847619D01*
X145502857Y-135800000D01*
X145693333Y-135752380D01*
X145931428Y-135752380D01*
X146121904Y-135800000D01*
X146217142Y-135847619D01*
X146264761Y-135895238D01*
X146312380Y-135990476D01*
X146312380Y-136085714D01*
X146264761Y-136180952D01*
X146217142Y-136228571D01*
X146121904Y-136276190D01*
X145931428Y-136323809D01*
X145693333Y-136323809D01*
X145502857Y-136276190D01*
X145407619Y-136228571D01*
X145360000Y-136180952D01*
X145312380Y-136085714D01*
X146217142Y-135323809D02*
X146264761Y-135276190D01*
X146312380Y-135323809D01*
X146264761Y-135371428D01*
X146217142Y-135323809D01*
X146312380Y-135323809D01*
X146312380Y-134323809D02*
X146312380Y-134895238D01*
X146312380Y-134609523D02*
X145312380Y-134609523D01*
X145455238Y-134704761D01*
X145550476Y-134800000D01*
X145598095Y-134895238D01*
X145645714Y-133895238D02*
X146645714Y-133895238D01*
X146169523Y-133419047D02*
X146264761Y-133371428D01*
X146312380Y-133276190D01*
X146169523Y-133895238D02*
X146264761Y-133847619D01*
X146312380Y-133752380D01*
X146312380Y-133561904D01*
X146264761Y-133466666D01*
X146169523Y-133419047D01*
X145645714Y-133419047D01*
D15*
X147119285Y-134841666D02*
X147131190Y-134853571D01*
X147143095Y-134889285D01*
X147143095Y-134913095D01*
X147131190Y-134948809D01*
X147107380Y-134972619D01*
X147083571Y-134984523D01*
X147035952Y-134996428D01*
X147000238Y-134996428D01*
X146952619Y-134984523D01*
X146928809Y-134972619D01*
X146905000Y-134948809D01*
X146893095Y-134913095D01*
X146893095Y-134889285D01*
X146905000Y-134853571D01*
X146916904Y-134841666D01*
X146976428Y-134627380D02*
X147143095Y-134627380D01*
X146881190Y-134686904D02*
X147059761Y-134746428D01*
X147059761Y-134591666D01*
D12*
X160994285Y-141547380D02*
X161089523Y-141547380D01*
X161184761Y-141595000D01*
X161232380Y-141642619D01*
X161280000Y-141737857D01*
X161327619Y-141928333D01*
X161327619Y-142166428D01*
X161280000Y-142356904D01*
X161232380Y-142452142D01*
X161184761Y-142499761D01*
X161089523Y-142547380D01*
X160994285Y-142547380D01*
X160899047Y-142499761D01*
X160851428Y-142452142D01*
X160803809Y-142356904D01*
X160756190Y-142166428D01*
X160756190Y-141928333D01*
X160803809Y-141737857D01*
X160851428Y-141642619D01*
X160899047Y-141595000D01*
X160994285Y-141547380D01*
X161756190Y-142452142D02*
X161803809Y-142499761D01*
X161756190Y-142547380D01*
X161708571Y-142499761D01*
X161756190Y-142452142D01*
X161756190Y-142547380D01*
X162756190Y-142547380D02*
X162184761Y-142547380D01*
X162470476Y-142547380D02*
X162470476Y-141547380D01*
X162375238Y-141690238D01*
X162280000Y-141785476D01*
X162184761Y-141833095D01*
X163184761Y-141880714D02*
X163184761Y-142880714D01*
X163660952Y-142404523D02*
X163708571Y-142499761D01*
X163803809Y-142547380D01*
X163184761Y-142404523D02*
X163232380Y-142499761D01*
X163327619Y-142547380D01*
X163518095Y-142547380D01*
X163613333Y-142499761D01*
X163660952Y-142404523D01*
X163660952Y-141880714D01*
D15*
X163539285Y-142136666D02*
X163551190Y-142148571D01*
X163563095Y-142184285D01*
X163563095Y-142208095D01*
X163551190Y-142243809D01*
X163527380Y-142267619D01*
X163503571Y-142279523D01*
X163455952Y-142291428D01*
X163420238Y-142291428D01*
X163372619Y-142279523D01*
X163348809Y-142267619D01*
X163325000Y-142243809D01*
X163313095Y-142208095D01*
X163313095Y-142184285D01*
X163325000Y-142148571D01*
X163336904Y-142136666D01*
X163313095Y-141910476D02*
X163313095Y-142029523D01*
X163432142Y-142041428D01*
X163420238Y-142029523D01*
X163408333Y-142005714D01*
X163408333Y-141946190D01*
X163420238Y-141922380D01*
X163432142Y-141910476D01*
X163455952Y-141898571D01*
X163515476Y-141898571D01*
X163539285Y-141910476D01*
X163551190Y-141922380D01*
X163563095Y-141946190D01*
X163563095Y-142005714D01*
X163551190Y-142029523D01*
X163539285Y-142041428D01*
D12*
X154032380Y-104185714D02*
X154032380Y-104090476D01*
X154080000Y-103995238D01*
X154127619Y-103947619D01*
X154222857Y-103900000D01*
X154413333Y-103852380D01*
X154651428Y-103852380D01*
X154841904Y-103900000D01*
X154937142Y-103947619D01*
X154984761Y-103995238D01*
X155032380Y-104090476D01*
X155032380Y-104185714D01*
X154984761Y-104280952D01*
X154937142Y-104328571D01*
X154841904Y-104376190D01*
X154651428Y-104423809D01*
X154413333Y-104423809D01*
X154222857Y-104376190D01*
X154127619Y-104328571D01*
X154080000Y-104280952D01*
X154032380Y-104185714D01*
X154937142Y-103423809D02*
X154984761Y-103376190D01*
X155032380Y-103423809D01*
X154984761Y-103471428D01*
X154937142Y-103423809D01*
X155032380Y-103423809D01*
X155032380Y-102423809D02*
X155032380Y-102995238D01*
X155032380Y-102709523D02*
X154032380Y-102709523D01*
X154175238Y-102804761D01*
X154270476Y-102900000D01*
X154318095Y-102995238D01*
X154365714Y-101995238D02*
X155365714Y-101995238D01*
X154889523Y-101519047D02*
X154984761Y-101471428D01*
X155032380Y-101376190D01*
X154889523Y-101995238D02*
X154984761Y-101947619D01*
X155032380Y-101852380D01*
X155032380Y-101661904D01*
X154984761Y-101566666D01*
X154889523Y-101519047D01*
X154365714Y-101519047D01*
D15*
X155839285Y-102941666D02*
X155851190Y-102953571D01*
X155863095Y-102989285D01*
X155863095Y-103013095D01*
X155851190Y-103048809D01*
X155827380Y-103072619D01*
X155803571Y-103084523D01*
X155755952Y-103096428D01*
X155720238Y-103096428D01*
X155672619Y-103084523D01*
X155648809Y-103072619D01*
X155625000Y-103048809D01*
X155613095Y-103013095D01*
X155613095Y-102989285D01*
X155625000Y-102953571D01*
X155636904Y-102941666D01*
X155613095Y-102727380D02*
X155613095Y-102775000D01*
X155625000Y-102798809D01*
X155636904Y-102810714D01*
X155672619Y-102834523D01*
X155720238Y-102846428D01*
X155815476Y-102846428D01*
X155839285Y-102834523D01*
X155851190Y-102822619D01*
X155863095Y-102798809D01*
X155863095Y-102751190D01*
X155851190Y-102727380D01*
X155839285Y-102715476D01*
X155815476Y-102703571D01*
X155755952Y-102703571D01*
X155732142Y-102715476D01*
X155720238Y-102727380D01*
X155708333Y-102751190D01*
X155708333Y-102798809D01*
X155720238Y-102822619D01*
X155732142Y-102834523D01*
X155755952Y-102846428D01*
D12*
X158622380Y-109654285D02*
X158622380Y-110225714D01*
X158622380Y-109940000D02*
X157622380Y-109940000D01*
X157765238Y-110035238D01*
X157860476Y-110130476D01*
X157908095Y-110225714D01*
X157622380Y-109035238D02*
X157622380Y-108940000D01*
X157670000Y-108844761D01*
X157717619Y-108797142D01*
X157812857Y-108749523D01*
X158003333Y-108701904D01*
X158241428Y-108701904D01*
X158431904Y-108749523D01*
X158527142Y-108797142D01*
X158574761Y-108844761D01*
X158622380Y-108940000D01*
X158622380Y-109035238D01*
X158574761Y-109130476D01*
X158527142Y-109178095D01*
X158431904Y-109225714D01*
X158241428Y-109273333D01*
X158003333Y-109273333D01*
X157812857Y-109225714D01*
X157717619Y-109178095D01*
X157670000Y-109130476D01*
X157622380Y-109035238D01*
X157955714Y-108273333D02*
X158955714Y-108273333D01*
X158479523Y-107797142D02*
X158574761Y-107749523D01*
X158622380Y-107654285D01*
X158479523Y-108273333D02*
X158574761Y-108225714D01*
X158622380Y-108130476D01*
X158622380Y-107940000D01*
X158574761Y-107844761D01*
X158479523Y-107797142D01*
X157955714Y-107797142D01*
D15*
X157089285Y-108981666D02*
X157101190Y-108993571D01*
X157113095Y-109029285D01*
X157113095Y-109053095D01*
X157101190Y-109088809D01*
X157077380Y-109112619D01*
X157053571Y-109124523D01*
X157005952Y-109136428D01*
X156970238Y-109136428D01*
X156922619Y-109124523D01*
X156898809Y-109112619D01*
X156875000Y-109088809D01*
X156863095Y-109053095D01*
X156863095Y-109029285D01*
X156875000Y-108993571D01*
X156886904Y-108981666D01*
X156863095Y-108898333D02*
X156863095Y-108731666D01*
X157113095Y-108838809D01*
D12*
X156472380Y-110235714D02*
X156472380Y-110140476D01*
X156520000Y-110045238D01*
X156567619Y-109997619D01*
X156662857Y-109950000D01*
X156853333Y-109902380D01*
X157091428Y-109902380D01*
X157281904Y-109950000D01*
X157377142Y-109997619D01*
X157424761Y-110045238D01*
X157472380Y-110140476D01*
X157472380Y-110235714D01*
X157424761Y-110330952D01*
X157377142Y-110378571D01*
X157281904Y-110426190D01*
X157091428Y-110473809D01*
X156853333Y-110473809D01*
X156662857Y-110426190D01*
X156567619Y-110378571D01*
X156520000Y-110330952D01*
X156472380Y-110235714D01*
X157377142Y-109473809D02*
X157424761Y-109426190D01*
X157472380Y-109473809D01*
X157424761Y-109521428D01*
X157377142Y-109473809D01*
X157472380Y-109473809D01*
X157472380Y-108473809D02*
X157472380Y-109045238D01*
X157472380Y-108759523D02*
X156472380Y-108759523D01*
X156615238Y-108854761D01*
X156710476Y-108950000D01*
X156758095Y-109045238D01*
X156805714Y-108045238D02*
X157805714Y-108045238D01*
X157329523Y-107569047D02*
X157424761Y-107521428D01*
X157472380Y-107426190D01*
X157329523Y-108045238D02*
X157424761Y-107997619D01*
X157472380Y-107902380D01*
X157472380Y-107711904D01*
X157424761Y-107616666D01*
X157329523Y-107569047D01*
X156805714Y-107569047D01*
D15*
X155939285Y-108991666D02*
X155951190Y-109003571D01*
X155963095Y-109039285D01*
X155963095Y-109063095D01*
X155951190Y-109098809D01*
X155927380Y-109122619D01*
X155903571Y-109134523D01*
X155855952Y-109146428D01*
X155820238Y-109146428D01*
X155772619Y-109134523D01*
X155748809Y-109122619D01*
X155725000Y-109098809D01*
X155713095Y-109063095D01*
X155713095Y-109039285D01*
X155725000Y-109003571D01*
X155736904Y-108991666D01*
X155820238Y-108848809D02*
X155808333Y-108872619D01*
X155796428Y-108884523D01*
X155772619Y-108896428D01*
X155760714Y-108896428D01*
X155736904Y-108884523D01*
X155725000Y-108872619D01*
X155713095Y-108848809D01*
X155713095Y-108801190D01*
X155725000Y-108777380D01*
X155736904Y-108765476D01*
X155760714Y-108753571D01*
X155772619Y-108753571D01*
X155796428Y-108765476D01*
X155808333Y-108777380D01*
X155820238Y-108801190D01*
X155820238Y-108848809D01*
X155832142Y-108872619D01*
X155844047Y-108884523D01*
X155867857Y-108896428D01*
X155915476Y-108896428D01*
X155939285Y-108884523D01*
X155951190Y-108872619D01*
X155963095Y-108848809D01*
X155963095Y-108801190D01*
X155951190Y-108777380D01*
X155939285Y-108765476D01*
X155915476Y-108753571D01*
X155867857Y-108753571D01*
X155844047Y-108765476D01*
X155832142Y-108777380D01*
X155820238Y-108801190D01*
D12*
X149185714Y-101622380D02*
X148614285Y-101622380D01*
X148900000Y-101622380D02*
X148900000Y-100622380D01*
X148804761Y-100765238D01*
X148709523Y-100860476D01*
X148614285Y-100908095D01*
X149804761Y-100622380D02*
X149900000Y-100622380D01*
X149995238Y-100670000D01*
X150042857Y-100717619D01*
X150090476Y-100812857D01*
X150138095Y-101003333D01*
X150138095Y-101241428D01*
X150090476Y-101431904D01*
X150042857Y-101527142D01*
X149995238Y-101574761D01*
X149900000Y-101622380D01*
X149804761Y-101622380D01*
X149709523Y-101574761D01*
X149661904Y-101527142D01*
X149614285Y-101431904D01*
X149566666Y-101241428D01*
X149566666Y-101003333D01*
X149614285Y-100812857D01*
X149661904Y-100717619D01*
X149709523Y-100670000D01*
X149804761Y-100622380D01*
X150566666Y-100955714D02*
X150566666Y-101955714D01*
X151042857Y-101479523D02*
X151090476Y-101574761D01*
X151185714Y-101622380D01*
X150566666Y-101479523D02*
X150614285Y-101574761D01*
X150709523Y-101622380D01*
X150900000Y-101622380D01*
X150995238Y-101574761D01*
X151042857Y-101479523D01*
X151042857Y-100955714D01*
D15*
X149739285Y-100089285D02*
X149727380Y-100101190D01*
X149691666Y-100113095D01*
X149667857Y-100113095D01*
X149632142Y-100101190D01*
X149608333Y-100077380D01*
X149596428Y-100053571D01*
X149584523Y-100005952D01*
X149584523Y-99970238D01*
X149596428Y-99922619D01*
X149608333Y-99898809D01*
X149632142Y-99875000D01*
X149667857Y-99863095D01*
X149691666Y-99863095D01*
X149727380Y-99875000D01*
X149739285Y-99886904D01*
X149977380Y-100113095D02*
X149834523Y-100113095D01*
X149905952Y-100113095D02*
X149905952Y-99863095D01*
X149882142Y-99898809D01*
X149858333Y-99922619D01*
X149834523Y-99934523D01*
X150132142Y-99863095D02*
X150155952Y-99863095D01*
X150179761Y-99875000D01*
X150191666Y-99886904D01*
X150203571Y-99910714D01*
X150215476Y-99958333D01*
X150215476Y-100017857D01*
X150203571Y-100065476D01*
X150191666Y-100089285D01*
X150179761Y-100101190D01*
X150155952Y-100113095D01*
X150132142Y-100113095D01*
X150108333Y-100101190D01*
X150096428Y-100089285D01*
X150084523Y-100065476D01*
X150072619Y-100017857D01*
X150072619Y-99958333D01*
X150084523Y-99910714D01*
X150096428Y-99886904D01*
X150108333Y-99875000D01*
X150132142Y-99863095D01*
D12*
X144622380Y-103385714D02*
X144622380Y-103290476D01*
X144670000Y-103195238D01*
X144717619Y-103147619D01*
X144812857Y-103100000D01*
X145003333Y-103052380D01*
X145241428Y-103052380D01*
X145431904Y-103100000D01*
X145527142Y-103147619D01*
X145574761Y-103195238D01*
X145622380Y-103290476D01*
X145622380Y-103385714D01*
X145574761Y-103480952D01*
X145527142Y-103528571D01*
X145431904Y-103576190D01*
X145241428Y-103623809D01*
X145003333Y-103623809D01*
X144812857Y-103576190D01*
X144717619Y-103528571D01*
X144670000Y-103480952D01*
X144622380Y-103385714D01*
X145527142Y-102623809D02*
X145574761Y-102576190D01*
X145622380Y-102623809D01*
X145574761Y-102671428D01*
X145527142Y-102623809D01*
X145622380Y-102623809D01*
X145622380Y-101623809D02*
X145622380Y-102195238D01*
X145622380Y-101909523D02*
X144622380Y-101909523D01*
X144765238Y-102004761D01*
X144860476Y-102100000D01*
X144908095Y-102195238D01*
X144955714Y-101195238D02*
X145955714Y-101195238D01*
X145479523Y-100719047D02*
X145574761Y-100671428D01*
X145622380Y-100576190D01*
X145479523Y-101195238D02*
X145574761Y-101147619D01*
X145622380Y-101052380D01*
X145622380Y-100861904D01*
X145574761Y-100766666D01*
X145479523Y-100719047D01*
X144955714Y-100719047D01*
D15*
X144089285Y-102260714D02*
X144101190Y-102272619D01*
X144113095Y-102308333D01*
X144113095Y-102332142D01*
X144101190Y-102367857D01*
X144077380Y-102391666D01*
X144053571Y-102403571D01*
X144005952Y-102415476D01*
X143970238Y-102415476D01*
X143922619Y-102403571D01*
X143898809Y-102391666D01*
X143875000Y-102367857D01*
X143863095Y-102332142D01*
X143863095Y-102308333D01*
X143875000Y-102272619D01*
X143886904Y-102260714D01*
X144113095Y-102022619D02*
X144113095Y-102165476D01*
X144113095Y-102094047D02*
X143863095Y-102094047D01*
X143898809Y-102117857D01*
X143922619Y-102141666D01*
X143934523Y-102165476D01*
X144113095Y-101784523D02*
X144113095Y-101927380D01*
X144113095Y-101855952D02*
X143863095Y-101855952D01*
X143898809Y-101879761D01*
X143922619Y-101903571D01*
X143934523Y-101927380D01*
D12*
X144547380Y-109685714D02*
X144547380Y-109590476D01*
X144595000Y-109495238D01*
X144642619Y-109447619D01*
X144737857Y-109400000D01*
X144928333Y-109352380D01*
X145166428Y-109352380D01*
X145356904Y-109400000D01*
X145452142Y-109447619D01*
X145499761Y-109495238D01*
X145547380Y-109590476D01*
X145547380Y-109685714D01*
X145499761Y-109780952D01*
X145452142Y-109828571D01*
X145356904Y-109876190D01*
X145166428Y-109923809D01*
X144928333Y-109923809D01*
X144737857Y-109876190D01*
X144642619Y-109828571D01*
X144595000Y-109780952D01*
X144547380Y-109685714D01*
X145452142Y-108923809D02*
X145499761Y-108876190D01*
X145547380Y-108923809D01*
X145499761Y-108971428D01*
X145452142Y-108923809D01*
X145547380Y-108923809D01*
X145547380Y-107923809D02*
X145547380Y-108495238D01*
X145547380Y-108209523D02*
X144547380Y-108209523D01*
X144690238Y-108304761D01*
X144785476Y-108400000D01*
X144833095Y-108495238D01*
X144880714Y-107495238D02*
X145880714Y-107495238D01*
X145404523Y-107019047D02*
X145499761Y-106971428D01*
X145547380Y-106876190D01*
X145404523Y-107495238D02*
X145499761Y-107447619D01*
X145547380Y-107352380D01*
X145547380Y-107161904D01*
X145499761Y-107066666D01*
X145404523Y-107019047D01*
X144880714Y-107019047D01*
D15*
X144014285Y-108560714D02*
X144026190Y-108572619D01*
X144038095Y-108608333D01*
X144038095Y-108632142D01*
X144026190Y-108667857D01*
X144002380Y-108691666D01*
X143978571Y-108703571D01*
X143930952Y-108715476D01*
X143895238Y-108715476D01*
X143847619Y-108703571D01*
X143823809Y-108691666D01*
X143800000Y-108667857D01*
X143788095Y-108632142D01*
X143788095Y-108608333D01*
X143800000Y-108572619D01*
X143811904Y-108560714D01*
X144038095Y-108322619D02*
X144038095Y-108465476D01*
X144038095Y-108394047D02*
X143788095Y-108394047D01*
X143823809Y-108417857D01*
X143847619Y-108441666D01*
X143859523Y-108465476D01*
X143811904Y-108227380D02*
X143800000Y-108215476D01*
X143788095Y-108191666D01*
X143788095Y-108132142D01*
X143800000Y-108108333D01*
X143811904Y-108096428D01*
X143835714Y-108084523D01*
X143859523Y-108084523D01*
X143895238Y-108096428D01*
X144038095Y-108239285D01*
X144038095Y-108084523D01*
D12*
X160322380Y-107435714D02*
X160322380Y-107340476D01*
X160370000Y-107245238D01*
X160417619Y-107197619D01*
X160512857Y-107150000D01*
X160703333Y-107102380D01*
X160941428Y-107102380D01*
X161131904Y-107150000D01*
X161227142Y-107197619D01*
X161274761Y-107245238D01*
X161322380Y-107340476D01*
X161322380Y-107435714D01*
X161274761Y-107530952D01*
X161227142Y-107578571D01*
X161131904Y-107626190D01*
X160941428Y-107673809D01*
X160703333Y-107673809D01*
X160512857Y-107626190D01*
X160417619Y-107578571D01*
X160370000Y-107530952D01*
X160322380Y-107435714D01*
X161227142Y-106673809D02*
X161274761Y-106626190D01*
X161322380Y-106673809D01*
X161274761Y-106721428D01*
X161227142Y-106673809D01*
X161322380Y-106673809D01*
X161322380Y-105673809D02*
X161322380Y-106245238D01*
X161322380Y-105959523D02*
X160322380Y-105959523D01*
X160465238Y-106054761D01*
X160560476Y-106150000D01*
X160608095Y-106245238D01*
X160655714Y-105245238D02*
X161655714Y-105245238D01*
X161179523Y-104769047D02*
X161274761Y-104721428D01*
X161322380Y-104626190D01*
X161179523Y-105245238D02*
X161274761Y-105197619D01*
X161322380Y-105102380D01*
X161322380Y-104911904D01*
X161274761Y-104816666D01*
X161179523Y-104769047D01*
X160655714Y-104769047D01*
D15*
X159789285Y-106310714D02*
X159801190Y-106322619D01*
X159813095Y-106358333D01*
X159813095Y-106382142D01*
X159801190Y-106417857D01*
X159777380Y-106441666D01*
X159753571Y-106453571D01*
X159705952Y-106465476D01*
X159670238Y-106465476D01*
X159622619Y-106453571D01*
X159598809Y-106441666D01*
X159575000Y-106417857D01*
X159563095Y-106382142D01*
X159563095Y-106358333D01*
X159575000Y-106322619D01*
X159586904Y-106310714D01*
X159813095Y-106072619D02*
X159813095Y-106215476D01*
X159813095Y-106144047D02*
X159563095Y-106144047D01*
X159598809Y-106167857D01*
X159622619Y-106191666D01*
X159634523Y-106215476D01*
X159646428Y-105858333D02*
X159813095Y-105858333D01*
X159551190Y-105917857D02*
X159729761Y-105977380D01*
X159729761Y-105822619D01*
D12*
X151752380Y-122195714D02*
X151752380Y-122100476D01*
X151800000Y-122005238D01*
X151847619Y-121957619D01*
X151942857Y-121910000D01*
X152133333Y-121862380D01*
X152371428Y-121862380D01*
X152561904Y-121910000D01*
X152657142Y-121957619D01*
X152704761Y-122005238D01*
X152752380Y-122100476D01*
X152752380Y-122195714D01*
X152704761Y-122290952D01*
X152657142Y-122338571D01*
X152561904Y-122386190D01*
X152371428Y-122433809D01*
X152133333Y-122433809D01*
X151942857Y-122386190D01*
X151847619Y-122338571D01*
X151800000Y-122290952D01*
X151752380Y-122195714D01*
X152657142Y-121433809D02*
X152704761Y-121386190D01*
X152752380Y-121433809D01*
X152704761Y-121481428D01*
X152657142Y-121433809D01*
X152752380Y-121433809D01*
X152752380Y-120433809D02*
X152752380Y-121005238D01*
X152752380Y-120719523D02*
X151752380Y-120719523D01*
X151895238Y-120814761D01*
X151990476Y-120910000D01*
X152038095Y-121005238D01*
X152085714Y-120005238D02*
X153085714Y-120005238D01*
X152609523Y-119529047D02*
X152704761Y-119481428D01*
X152752380Y-119386190D01*
X152609523Y-120005238D02*
X152704761Y-119957619D01*
X152752380Y-119862380D01*
X152752380Y-119671904D01*
X152704761Y-119576666D01*
X152609523Y-119529047D01*
X152085714Y-119529047D01*
D15*
X153559285Y-121070714D02*
X153571190Y-121082619D01*
X153583095Y-121118333D01*
X153583095Y-121142142D01*
X153571190Y-121177857D01*
X153547380Y-121201666D01*
X153523571Y-121213571D01*
X153475952Y-121225476D01*
X153440238Y-121225476D01*
X153392619Y-121213571D01*
X153368809Y-121201666D01*
X153345000Y-121177857D01*
X153333095Y-121142142D01*
X153333095Y-121118333D01*
X153345000Y-121082619D01*
X153356904Y-121070714D01*
X153583095Y-120832619D02*
X153583095Y-120975476D01*
X153583095Y-120904047D02*
X153333095Y-120904047D01*
X153368809Y-120927857D01*
X153392619Y-120951666D01*
X153404523Y-120975476D01*
X153333095Y-120618333D02*
X153333095Y-120665952D01*
X153345000Y-120689761D01*
X153356904Y-120701666D01*
X153392619Y-120725476D01*
X153440238Y-120737380D01*
X153535476Y-120737380D01*
X153559285Y-120725476D01*
X153571190Y-120713571D01*
X153583095Y-120689761D01*
X153583095Y-120642142D01*
X153571190Y-120618333D01*
X153559285Y-120606428D01*
X153535476Y-120594523D01*
X153475952Y-120594523D01*
X153452142Y-120606428D01*
X153440238Y-120618333D01*
X153428333Y-120642142D01*
X153428333Y-120689761D01*
X153440238Y-120713571D01*
X153452142Y-120725476D01*
X153475952Y-120737380D01*
D12*
X149474285Y-122182380D02*
X149569523Y-122182380D01*
X149664761Y-122230000D01*
X149712380Y-122277619D01*
X149760000Y-122372857D01*
X149807619Y-122563333D01*
X149807619Y-122801428D01*
X149760000Y-122991904D01*
X149712380Y-123087142D01*
X149664761Y-123134761D01*
X149569523Y-123182380D01*
X149474285Y-123182380D01*
X149379047Y-123134761D01*
X149331428Y-123087142D01*
X149283809Y-122991904D01*
X149236190Y-122801428D01*
X149236190Y-122563333D01*
X149283809Y-122372857D01*
X149331428Y-122277619D01*
X149379047Y-122230000D01*
X149474285Y-122182380D01*
X150236190Y-123087142D02*
X150283809Y-123134761D01*
X150236190Y-123182380D01*
X150188571Y-123134761D01*
X150236190Y-123087142D01*
X150236190Y-123182380D01*
X151236190Y-123182380D02*
X150664761Y-123182380D01*
X150950476Y-123182380D02*
X150950476Y-122182380D01*
X150855238Y-122325238D01*
X150760000Y-122420476D01*
X150664761Y-122468095D01*
X151664761Y-122515714D02*
X151664761Y-123515714D01*
X152140952Y-123039523D02*
X152188571Y-123134761D01*
X152283809Y-123182380D01*
X151664761Y-123039523D02*
X151712380Y-123134761D01*
X151807619Y-123182380D01*
X151998095Y-123182380D01*
X152093333Y-123134761D01*
X152140952Y-123039523D01*
X152140952Y-122515714D01*
D15*
X150599285Y-123989285D02*
X150587380Y-124001190D01*
X150551666Y-124013095D01*
X150527857Y-124013095D01*
X150492142Y-124001190D01*
X150468333Y-123977380D01*
X150456428Y-123953571D01*
X150444523Y-123905952D01*
X150444523Y-123870238D01*
X150456428Y-123822619D01*
X150468333Y-123798809D01*
X150492142Y-123775000D01*
X150527857Y-123763095D01*
X150551666Y-123763095D01*
X150587380Y-123775000D01*
X150599285Y-123786904D01*
X150837380Y-124013095D02*
X150694523Y-124013095D01*
X150765952Y-124013095D02*
X150765952Y-123763095D01*
X150742142Y-123798809D01*
X150718333Y-123822619D01*
X150694523Y-123834523D01*
X150920714Y-123763095D02*
X151087380Y-123763095D01*
X150980238Y-124013095D01*
D12*
X146609285Y-124532380D02*
X146704523Y-124532380D01*
X146799761Y-124580000D01*
X146847380Y-124627619D01*
X146895000Y-124722857D01*
X146942619Y-124913333D01*
X146942619Y-125151428D01*
X146895000Y-125341904D01*
X146847380Y-125437142D01*
X146799761Y-125484761D01*
X146704523Y-125532380D01*
X146609285Y-125532380D01*
X146514047Y-125484761D01*
X146466428Y-125437142D01*
X146418809Y-125341904D01*
X146371190Y-125151428D01*
X146371190Y-124913333D01*
X146418809Y-124722857D01*
X146466428Y-124627619D01*
X146514047Y-124580000D01*
X146609285Y-124532380D01*
X147371190Y-125437142D02*
X147418809Y-125484761D01*
X147371190Y-125532380D01*
X147323571Y-125484761D01*
X147371190Y-125437142D01*
X147371190Y-125532380D01*
X148371190Y-125532380D02*
X147799761Y-125532380D01*
X148085476Y-125532380D02*
X148085476Y-124532380D01*
X147990238Y-124675238D01*
X147895000Y-124770476D01*
X147799761Y-124818095D01*
X148799761Y-124865714D02*
X148799761Y-125865714D01*
X149275952Y-125389523D02*
X149323571Y-125484761D01*
X149418809Y-125532380D01*
X148799761Y-125389523D02*
X148847380Y-125484761D01*
X148942619Y-125532380D01*
X149133095Y-125532380D01*
X149228333Y-125484761D01*
X149275952Y-125389523D01*
X149275952Y-124865714D01*
D15*
X147734285Y-123999285D02*
X147722380Y-124011190D01*
X147686666Y-124023095D01*
X147662857Y-124023095D01*
X147627142Y-124011190D01*
X147603333Y-123987380D01*
X147591428Y-123963571D01*
X147579523Y-123915952D01*
X147579523Y-123880238D01*
X147591428Y-123832619D01*
X147603333Y-123808809D01*
X147627142Y-123785000D01*
X147662857Y-123773095D01*
X147686666Y-123773095D01*
X147722380Y-123785000D01*
X147734285Y-123796904D01*
X147972380Y-124023095D02*
X147829523Y-124023095D01*
X147900952Y-124023095D02*
X147900952Y-123773095D01*
X147877142Y-123808809D01*
X147853333Y-123832619D01*
X147829523Y-123844523D01*
X148115238Y-123880238D02*
X148091428Y-123868333D01*
X148079523Y-123856428D01*
X148067619Y-123832619D01*
X148067619Y-123820714D01*
X148079523Y-123796904D01*
X148091428Y-123785000D01*
X148115238Y-123773095D01*
X148162857Y-123773095D01*
X148186666Y-123785000D01*
X148198571Y-123796904D01*
X148210476Y-123820714D01*
X148210476Y-123832619D01*
X148198571Y-123856428D01*
X148186666Y-123868333D01*
X148162857Y-123880238D01*
X148115238Y-123880238D01*
X148091428Y-123892142D01*
X148079523Y-123904047D01*
X148067619Y-123927857D01*
X148067619Y-123975476D01*
X148079523Y-123999285D01*
X148091428Y-124011190D01*
X148115238Y-124023095D01*
X148162857Y-124023095D01*
X148186666Y-124011190D01*
X148198571Y-123999285D01*
X148210476Y-123975476D01*
X148210476Y-123927857D01*
X148198571Y-123904047D01*
X148186666Y-123892142D01*
X148162857Y-123880238D01*
D12*
X132522380Y-137603095D02*
X132522380Y-138174523D01*
X132522380Y-137888809D02*
X131522380Y-137888809D01*
X131665238Y-137984047D01*
X131760476Y-138079285D01*
X131808095Y-138174523D01*
X131855714Y-137174523D02*
X132855714Y-137174523D01*
X132379523Y-136698333D02*
X132474761Y-136650714D01*
X132522380Y-136555476D01*
X132379523Y-137174523D02*
X132474761Y-137126904D01*
X132522380Y-137031666D01*
X132522380Y-136841190D01*
X132474761Y-136745952D01*
X132379523Y-136698333D01*
X131855714Y-136698333D01*
D15*
X130989285Y-137525714D02*
X131001190Y-137537619D01*
X131013095Y-137573333D01*
X131013095Y-137597142D01*
X131001190Y-137632857D01*
X130977380Y-137656666D01*
X130953571Y-137668571D01*
X130905952Y-137680476D01*
X130870238Y-137680476D01*
X130822619Y-137668571D01*
X130798809Y-137656666D01*
X130775000Y-137632857D01*
X130763095Y-137597142D01*
X130763095Y-137573333D01*
X130775000Y-137537619D01*
X130786904Y-137525714D01*
X130786904Y-137430476D02*
X130775000Y-137418571D01*
X130763095Y-137394761D01*
X130763095Y-137335238D01*
X130775000Y-137311428D01*
X130786904Y-137299523D01*
X130810714Y-137287619D01*
X130834523Y-137287619D01*
X130870238Y-137299523D01*
X131013095Y-137442380D01*
X131013095Y-137287619D01*
X130763095Y-137061428D02*
X130763095Y-137180476D01*
X130882142Y-137192380D01*
X130870238Y-137180476D01*
X130858333Y-137156666D01*
X130858333Y-137097142D01*
X130870238Y-137073333D01*
X130882142Y-137061428D01*
X130905952Y-137049523D01*
X130965476Y-137049523D01*
X130989285Y-137061428D01*
X131001190Y-137073333D01*
X131013095Y-137097142D01*
X131013095Y-137156666D01*
X131001190Y-137180476D01*
X130989285Y-137192380D01*
D12*
X138922380Y-135438095D02*
X138922380Y-136009523D01*
X138922380Y-135723809D02*
X137922380Y-135723809D01*
X138065238Y-135819047D01*
X138160476Y-135914285D01*
X138208095Y-136009523D01*
X138255714Y-135009523D02*
X139255714Y-135009523D01*
X138779523Y-134533333D02*
X138874761Y-134485714D01*
X138922380Y-134390476D01*
X138779523Y-135009523D02*
X138874761Y-134961904D01*
X138922380Y-134866666D01*
X138922380Y-134676190D01*
X138874761Y-134580952D01*
X138779523Y-134533333D01*
X138255714Y-134533333D01*
D15*
X137389285Y-135360714D02*
X137401190Y-135372619D01*
X137413095Y-135408333D01*
X137413095Y-135432142D01*
X137401190Y-135467857D01*
X137377380Y-135491666D01*
X137353571Y-135503571D01*
X137305952Y-135515476D01*
X137270238Y-135515476D01*
X137222619Y-135503571D01*
X137198809Y-135491666D01*
X137175000Y-135467857D01*
X137163095Y-135432142D01*
X137163095Y-135408333D01*
X137175000Y-135372619D01*
X137186904Y-135360714D01*
X137186904Y-135265476D02*
X137175000Y-135253571D01*
X137163095Y-135229761D01*
X137163095Y-135170238D01*
X137175000Y-135146428D01*
X137186904Y-135134523D01*
X137210714Y-135122619D01*
X137234523Y-135122619D01*
X137270238Y-135134523D01*
X137413095Y-135277380D01*
X137413095Y-135122619D01*
X137163095Y-134908333D02*
X137163095Y-134955952D01*
X137175000Y-134979761D01*
X137186904Y-134991666D01*
X137222619Y-135015476D01*
X137270238Y-135027380D01*
X137365476Y-135027380D01*
X137389285Y-135015476D01*
X137401190Y-135003571D01*
X137413095Y-134979761D01*
X137413095Y-134932142D01*
X137401190Y-134908333D01*
X137389285Y-134896428D01*
X137365476Y-134884523D01*
X137305952Y-134884523D01*
X137282142Y-134896428D01*
X137270238Y-134908333D01*
X137258333Y-134932142D01*
X137258333Y-134979761D01*
X137270238Y-135003571D01*
X137282142Y-135015476D01*
X137305952Y-135027380D01*
D12*
X166108571Y-132317380D02*
X165537142Y-132317380D01*
X165822857Y-132317380D02*
X165822857Y-131317380D01*
X165727619Y-131460238D01*
X165632380Y-131555476D01*
X165537142Y-131603095D01*
X167013333Y-131317380D02*
X166537142Y-131317380D01*
X166489523Y-131793571D01*
X166537142Y-131745952D01*
X166632380Y-131698333D01*
X166870476Y-131698333D01*
X166965714Y-131745952D01*
X167013333Y-131793571D01*
X167060952Y-131888809D01*
X167060952Y-132126904D01*
X167013333Y-132222142D01*
X166965714Y-132269761D01*
X166870476Y-132317380D01*
X166632380Y-132317380D01*
X166537142Y-132269761D01*
X166489523Y-132222142D01*
X167680000Y-131317380D02*
X167775238Y-131317380D01*
X167870476Y-131365000D01*
X167918095Y-131412619D01*
X167965714Y-131507857D01*
X168013333Y-131698333D01*
X168013333Y-131936428D01*
X167965714Y-132126904D01*
X167918095Y-132222142D01*
X167870476Y-132269761D01*
X167775238Y-132317380D01*
X167680000Y-132317380D01*
X167584761Y-132269761D01*
X167537142Y-132222142D01*
X167489523Y-132126904D01*
X167441904Y-131936428D01*
X167441904Y-131698333D01*
X167489523Y-131507857D01*
X167537142Y-131412619D01*
X167584761Y-131365000D01*
X167680000Y-131317380D01*
X168441904Y-132317380D02*
X168441904Y-131317380D01*
X168537142Y-131936428D02*
X168822857Y-132317380D01*
X168822857Y-131650714D02*
X168441904Y-132031666D01*
D15*
X166123095Y-131906666D02*
X166004047Y-131990000D01*
X166123095Y-132049523D02*
X165873095Y-132049523D01*
X165873095Y-131954285D01*
X165885000Y-131930476D01*
X165896904Y-131918571D01*
X165920714Y-131906666D01*
X165956428Y-131906666D01*
X165980238Y-131918571D01*
X165992142Y-131930476D01*
X166004047Y-131954285D01*
X166004047Y-132049523D01*
X166123095Y-131668571D02*
X166123095Y-131811428D01*
X166123095Y-131740000D02*
X165873095Y-131740000D01*
X165908809Y-131763809D01*
X165932619Y-131787619D01*
X165944523Y-131811428D01*
D12*
X139182380Y-103708571D02*
X139182380Y-104280000D01*
X139182380Y-103994285D02*
X138182380Y-103994285D01*
X138325238Y-104089523D01*
X138420476Y-104184761D01*
X138468095Y-104280000D01*
X139087142Y-103280000D02*
X139134761Y-103232380D01*
X139182380Y-103280000D01*
X139134761Y-103327619D01*
X139087142Y-103280000D01*
X139182380Y-103280000D01*
X138182380Y-102899047D02*
X138182380Y-102232380D01*
X139182380Y-102660952D01*
D15*
X137673095Y-103321666D02*
X137554047Y-103405000D01*
X137673095Y-103464523D02*
X137423095Y-103464523D01*
X137423095Y-103369285D01*
X137435000Y-103345476D01*
X137446904Y-103333571D01*
X137470714Y-103321666D01*
X137506428Y-103321666D01*
X137530238Y-103333571D01*
X137542142Y-103345476D01*
X137554047Y-103369285D01*
X137554047Y-103464523D01*
X137446904Y-103226428D02*
X137435000Y-103214523D01*
X137423095Y-103190714D01*
X137423095Y-103131190D01*
X137435000Y-103107380D01*
X137446904Y-103095476D01*
X137470714Y-103083571D01*
X137494523Y-103083571D01*
X137530238Y-103095476D01*
X137673095Y-103238333D01*
X137673095Y-103083571D01*
D12*
X141454761Y-101222380D02*
X140883333Y-101222380D01*
X141169047Y-101222380D02*
X141169047Y-100222380D01*
X141073809Y-100365238D01*
X140978571Y-100460476D01*
X140883333Y-100508095D01*
X142073809Y-100222380D02*
X142169047Y-100222380D01*
X142264285Y-100270000D01*
X142311904Y-100317619D01*
X142359523Y-100412857D01*
X142407142Y-100603333D01*
X142407142Y-100841428D01*
X142359523Y-101031904D01*
X142311904Y-101127142D01*
X142264285Y-101174761D01*
X142169047Y-101222380D01*
X142073809Y-101222380D01*
X141978571Y-101174761D01*
X141930952Y-101127142D01*
X141883333Y-101031904D01*
X141835714Y-100841428D01*
X141835714Y-100603333D01*
X141883333Y-100412857D01*
X141930952Y-100317619D01*
X141978571Y-100270000D01*
X142073809Y-100222380D01*
X142835714Y-101222380D02*
X142835714Y-100222380D01*
X142930952Y-100841428D02*
X143216666Y-101222380D01*
X143216666Y-100555714D02*
X142835714Y-100936666D01*
D15*
X142008333Y-102053095D02*
X141925000Y-101934047D01*
X141865476Y-102053095D02*
X141865476Y-101803095D01*
X141960714Y-101803095D01*
X141984523Y-101815000D01*
X141996428Y-101826904D01*
X142008333Y-101850714D01*
X142008333Y-101886428D01*
X141996428Y-101910238D01*
X141984523Y-101922142D01*
X141960714Y-101934047D01*
X141865476Y-101934047D01*
X142091666Y-101803095D02*
X142246428Y-101803095D01*
X142163095Y-101898333D01*
X142198809Y-101898333D01*
X142222619Y-101910238D01*
X142234523Y-101922142D01*
X142246428Y-101945952D01*
X142246428Y-102005476D01*
X142234523Y-102029285D01*
X142222619Y-102041190D01*
X142198809Y-102053095D01*
X142127380Y-102053095D01*
X142103571Y-102041190D01*
X142091666Y-102029285D01*
D12*
X160632380Y-101744285D02*
X160632380Y-102315714D01*
X160632380Y-102030000D02*
X159632380Y-102030000D01*
X159775238Y-102125238D01*
X159870476Y-102220476D01*
X159918095Y-102315714D01*
D15*
X161463095Y-102071666D02*
X161344047Y-102155000D01*
X161463095Y-102214523D02*
X161213095Y-102214523D01*
X161213095Y-102119285D01*
X161225000Y-102095476D01*
X161236904Y-102083571D01*
X161260714Y-102071666D01*
X161296428Y-102071666D01*
X161320238Y-102083571D01*
X161332142Y-102095476D01*
X161344047Y-102119285D01*
X161344047Y-102214523D01*
X161296428Y-101857380D02*
X161463095Y-101857380D01*
X161201190Y-101916904D02*
X161379761Y-101976428D01*
X161379761Y-101821666D01*
D12*
X159947619Y-106396190D02*
X159900000Y-106348571D01*
X159852380Y-106253333D01*
X159852380Y-106015238D01*
X159900000Y-105920000D01*
X159947619Y-105872380D01*
X160042857Y-105824761D01*
X160138095Y-105824761D01*
X160280952Y-105872380D01*
X160852380Y-106443809D01*
X160852380Y-105824761D01*
X160757142Y-105396190D02*
X160804761Y-105348571D01*
X160852380Y-105396190D01*
X160804761Y-105443809D01*
X160757142Y-105396190D01*
X160852380Y-105396190D01*
X160185714Y-104491428D02*
X160852380Y-104491428D01*
X159804761Y-104729523D02*
X160519047Y-104967619D01*
X160519047Y-104348571D01*
X160852380Y-103920000D02*
X160852380Y-103729523D01*
X160804761Y-103634285D01*
X160757142Y-103586666D01*
X160614285Y-103491428D01*
X160423809Y-103443809D01*
X160042857Y-103443809D01*
X159947619Y-103491428D01*
X159900000Y-103539047D01*
X159852380Y-103634285D01*
X159852380Y-103824761D01*
X159900000Y-103920000D01*
X159947619Y-103967619D01*
X160042857Y-104015238D01*
X160280952Y-104015238D01*
X160376190Y-103967619D01*
X160423809Y-103920000D01*
X160471428Y-103824761D01*
X160471428Y-103634285D01*
X160423809Y-103539047D01*
X160376190Y-103491428D01*
X160280952Y-103443809D01*
D15*
X161683095Y-104961666D02*
X161564047Y-105045000D01*
X161683095Y-105104523D02*
X161433095Y-105104523D01*
X161433095Y-105009285D01*
X161445000Y-104985476D01*
X161456904Y-104973571D01*
X161480714Y-104961666D01*
X161516428Y-104961666D01*
X161540238Y-104973571D01*
X161552142Y-104985476D01*
X161564047Y-105009285D01*
X161564047Y-105104523D01*
X161433095Y-104735476D02*
X161433095Y-104854523D01*
X161552142Y-104866428D01*
X161540238Y-104854523D01*
X161528333Y-104830714D01*
X161528333Y-104771190D01*
X161540238Y-104747380D01*
X161552142Y-104735476D01*
X161575952Y-104723571D01*
X161635476Y-104723571D01*
X161659285Y-104735476D01*
X161671190Y-104747380D01*
X161683095Y-104771190D01*
X161683095Y-104830714D01*
X161671190Y-104854523D01*
X161659285Y-104866428D01*
D12*
X152426536Y-116271669D02*
X152022475Y-115867608D01*
X152224505Y-116069639D02*
X152931612Y-115362532D01*
X152763253Y-115396204D01*
X152628566Y-115396204D01*
X152527551Y-115362532D01*
X153571376Y-116002295D02*
X153638719Y-116069639D01*
X153672391Y-116170654D01*
X153672391Y-116237997D01*
X153638719Y-116339013D01*
X153537704Y-116507372D01*
X153369345Y-116675730D01*
X153200986Y-116776746D01*
X153099971Y-116810417D01*
X153032627Y-116810417D01*
X152931612Y-116776746D01*
X152864269Y-116709402D01*
X152830597Y-116608387D01*
X152830597Y-116541043D01*
X152864269Y-116440028D01*
X152965284Y-116271669D01*
X153133643Y-116103310D01*
X153302002Y-116002295D01*
X153403017Y-115968623D01*
X153470360Y-115968623D01*
X153571376Y-116002295D01*
X153403017Y-117248150D02*
X154110124Y-116541043D01*
X153739734Y-117046120D02*
X153672391Y-117517524D01*
X154143795Y-117046120D02*
X153605047Y-117046120D01*
D15*
X152230566Y-117250507D02*
X152255820Y-117107402D01*
X152129551Y-117149492D02*
X152306328Y-116972715D01*
X152373671Y-117040059D01*
X152382089Y-117065312D01*
X152382089Y-117082148D01*
X152373671Y-117107402D01*
X152348417Y-117132656D01*
X152323164Y-117141074D01*
X152306328Y-117141074D01*
X152281074Y-117132656D01*
X152213730Y-117065312D01*
X152558866Y-117225253D02*
X152525194Y-117191582D01*
X152499940Y-117183164D01*
X152483104Y-117183164D01*
X152441015Y-117191582D01*
X152398925Y-117216835D01*
X152331582Y-117284179D01*
X152323164Y-117309433D01*
X152323164Y-117326269D01*
X152331582Y-117351522D01*
X152365253Y-117385194D01*
X152390507Y-117393612D01*
X152407343Y-117393612D01*
X152432597Y-117385194D01*
X152474687Y-117343104D01*
X152483104Y-117317851D01*
X152483104Y-117301015D01*
X152474687Y-117275761D01*
X152441015Y-117242089D01*
X152415761Y-117233671D01*
X152398925Y-117233671D01*
X152373671Y-117242089D01*
D12*
X152162380Y-88654285D02*
X152162380Y-89225714D01*
X152162380Y-88940000D02*
X151162380Y-88940000D01*
X151305238Y-89035238D01*
X151400476Y-89130476D01*
X151448095Y-89225714D01*
D15*
X150653095Y-88981666D02*
X150534047Y-89065000D01*
X150653095Y-89124523D02*
X150403095Y-89124523D01*
X150403095Y-89029285D01*
X150415000Y-89005476D01*
X150426904Y-88993571D01*
X150450714Y-88981666D01*
X150486428Y-88981666D01*
X150510238Y-88993571D01*
X150522142Y-89005476D01*
X150534047Y-89029285D01*
X150534047Y-89124523D01*
X150403095Y-88898333D02*
X150403095Y-88731666D01*
X150653095Y-88838809D01*
D12*
X149692380Y-88674285D02*
X149692380Y-89245714D01*
X149692380Y-88960000D02*
X148692380Y-88960000D01*
X148835238Y-89055238D01*
X148930476Y-89150476D01*
X148978095Y-89245714D01*
D15*
X148183095Y-89001666D02*
X148064047Y-89085000D01*
X148183095Y-89144523D02*
X147933095Y-89144523D01*
X147933095Y-89049285D01*
X147945000Y-89025476D01*
X147956904Y-89013571D01*
X147980714Y-89001666D01*
X148016428Y-89001666D01*
X148040238Y-89013571D01*
X148052142Y-89025476D01*
X148064047Y-89049285D01*
X148064047Y-89144523D01*
X148040238Y-88858809D02*
X148028333Y-88882619D01*
X148016428Y-88894523D01*
X147992619Y-88906428D01*
X147980714Y-88906428D01*
X147956904Y-88894523D01*
X147945000Y-88882619D01*
X147933095Y-88858809D01*
X147933095Y-88811190D01*
X147945000Y-88787380D01*
X147956904Y-88775476D01*
X147980714Y-88763571D01*
X147992619Y-88763571D01*
X148016428Y-88775476D01*
X148028333Y-88787380D01*
X148040238Y-88811190D01*
X148040238Y-88858809D01*
X148052142Y-88882619D01*
X148064047Y-88894523D01*
X148087857Y-88906428D01*
X148135476Y-88906428D01*
X148159285Y-88894523D01*
X148171190Y-88882619D01*
X148183095Y-88858809D01*
X148183095Y-88811190D01*
X148171190Y-88787380D01*
X148159285Y-88775476D01*
X148135476Y-88763571D01*
X148087857Y-88763571D01*
X148064047Y-88775476D01*
X148052142Y-88787380D01*
X148040238Y-88811190D01*
D12*
X148574285Y-138490380D02*
X149193333Y-138490380D01*
X148860000Y-138871333D01*
X149002857Y-138871333D01*
X149098095Y-138918952D01*
X149145714Y-138966571D01*
X149193333Y-139061809D01*
X149193333Y-139299904D01*
X149145714Y-139395142D01*
X149098095Y-139442761D01*
X149002857Y-139490380D01*
X148717142Y-139490380D01*
X148621904Y-139442761D01*
X148574285Y-139395142D01*
X149526666Y-138490380D02*
X150145714Y-138490380D01*
X149812380Y-138871333D01*
X149955238Y-138871333D01*
X150050476Y-138918952D01*
X150098095Y-138966571D01*
X150145714Y-139061809D01*
X150145714Y-139299904D01*
X150098095Y-139395142D01*
X150050476Y-139442761D01*
X149955238Y-139490380D01*
X149669523Y-139490380D01*
X149574285Y-139442761D01*
X149526666Y-139395142D01*
X150764761Y-138490380D02*
X150860000Y-138490380D01*
X150955238Y-138538000D01*
X151002857Y-138585619D01*
X151050476Y-138680857D01*
X151098095Y-138871333D01*
X151098095Y-139109428D01*
X151050476Y-139299904D01*
X151002857Y-139395142D01*
X150955238Y-139442761D01*
X150860000Y-139490380D01*
X150764761Y-139490380D01*
X150669523Y-139442761D01*
X150621904Y-139395142D01*
X150574285Y-139299904D01*
X150526666Y-139109428D01*
X150526666Y-138871333D01*
X150574285Y-138680857D01*
X150621904Y-138585619D01*
X150669523Y-138538000D01*
X150764761Y-138490380D01*
D15*
X149699285Y-140321095D02*
X149615952Y-140202047D01*
X149556428Y-140321095D02*
X149556428Y-140071095D01*
X149651666Y-140071095D01*
X149675476Y-140083000D01*
X149687380Y-140094904D01*
X149699285Y-140118714D01*
X149699285Y-140154428D01*
X149687380Y-140178238D01*
X149675476Y-140190142D01*
X149651666Y-140202047D01*
X149556428Y-140202047D01*
X149937380Y-140321095D02*
X149794523Y-140321095D01*
X149865952Y-140321095D02*
X149865952Y-140071095D01*
X149842142Y-140106809D01*
X149818333Y-140130619D01*
X149794523Y-140142523D01*
X150092142Y-140071095D02*
X150115952Y-140071095D01*
X150139761Y-140083000D01*
X150151666Y-140094904D01*
X150163571Y-140118714D01*
X150175476Y-140166333D01*
X150175476Y-140225857D01*
X150163571Y-140273476D01*
X150151666Y-140297285D01*
X150139761Y-140309190D01*
X150115952Y-140321095D01*
X150092142Y-140321095D01*
X150068333Y-140309190D01*
X150056428Y-140297285D01*
X150044523Y-140273476D01*
X150032619Y-140225857D01*
X150032619Y-140166333D01*
X150044523Y-140118714D01*
X150056428Y-140094904D01*
X150068333Y-140083000D01*
X150092142Y-140071095D01*
D12*
X148574285Y-144640380D02*
X149193333Y-144640380D01*
X148860000Y-145021333D01*
X149002857Y-145021333D01*
X149098095Y-145068952D01*
X149145714Y-145116571D01*
X149193333Y-145211809D01*
X149193333Y-145449904D01*
X149145714Y-145545142D01*
X149098095Y-145592761D01*
X149002857Y-145640380D01*
X148717142Y-145640380D01*
X148621904Y-145592761D01*
X148574285Y-145545142D01*
X149526666Y-144640380D02*
X150145714Y-144640380D01*
X149812380Y-145021333D01*
X149955238Y-145021333D01*
X150050476Y-145068952D01*
X150098095Y-145116571D01*
X150145714Y-145211809D01*
X150145714Y-145449904D01*
X150098095Y-145545142D01*
X150050476Y-145592761D01*
X149955238Y-145640380D01*
X149669523Y-145640380D01*
X149574285Y-145592761D01*
X149526666Y-145545142D01*
X150764761Y-144640380D02*
X150860000Y-144640380D01*
X150955238Y-144688000D01*
X151002857Y-144735619D01*
X151050476Y-144830857D01*
X151098095Y-145021333D01*
X151098095Y-145259428D01*
X151050476Y-145449904D01*
X151002857Y-145545142D01*
X150955238Y-145592761D01*
X150860000Y-145640380D01*
X150764761Y-145640380D01*
X150669523Y-145592761D01*
X150621904Y-145545142D01*
X150574285Y-145449904D01*
X150526666Y-145259428D01*
X150526666Y-145021333D01*
X150574285Y-144830857D01*
X150621904Y-144735619D01*
X150669523Y-144688000D01*
X150764761Y-144640380D01*
D15*
X149699285Y-144131095D02*
X149615952Y-144012047D01*
X149556428Y-144131095D02*
X149556428Y-143881095D01*
X149651666Y-143881095D01*
X149675476Y-143893000D01*
X149687380Y-143904904D01*
X149699285Y-143928714D01*
X149699285Y-143964428D01*
X149687380Y-143988238D01*
X149675476Y-144000142D01*
X149651666Y-144012047D01*
X149556428Y-144012047D01*
X149937380Y-144131095D02*
X149794523Y-144131095D01*
X149865952Y-144131095D02*
X149865952Y-143881095D01*
X149842142Y-143916809D01*
X149818333Y-143940619D01*
X149794523Y-143952523D01*
X150151666Y-143964428D02*
X150151666Y-144131095D01*
X150092142Y-143869190D02*
X150032619Y-144047761D01*
X150187380Y-144047761D01*
D12*
X158822380Y-132666666D02*
X158822380Y-133238095D01*
X158822380Y-132952380D02*
X157822380Y-132952380D01*
X157965238Y-133047619D01*
X158060476Y-133142857D01*
X158108095Y-133238095D01*
X158155714Y-131809523D02*
X158822380Y-131809523D01*
X157774761Y-132047619D02*
X158489047Y-132285714D01*
X158489047Y-131666666D01*
X157822380Y-131095238D02*
X157822380Y-131000000D01*
X157870000Y-130904761D01*
X157917619Y-130857142D01*
X158012857Y-130809523D01*
X158203333Y-130761904D01*
X158441428Y-130761904D01*
X158631904Y-130809523D01*
X158727142Y-130857142D01*
X158774761Y-130904761D01*
X158822380Y-131000000D01*
X158822380Y-131095238D01*
X158774761Y-131190476D01*
X158727142Y-131238095D01*
X158631904Y-131285714D01*
X158441428Y-131333333D01*
X158203333Y-131333333D01*
X158012857Y-131285714D01*
X157917619Y-131238095D01*
X157870000Y-131190476D01*
X157822380Y-131095238D01*
D15*
X157313095Y-132160714D02*
X157194047Y-132244047D01*
X157313095Y-132303571D02*
X157063095Y-132303571D01*
X157063095Y-132208333D01*
X157075000Y-132184523D01*
X157086904Y-132172619D01*
X157110714Y-132160714D01*
X157146428Y-132160714D01*
X157170238Y-132172619D01*
X157182142Y-132184523D01*
X157194047Y-132208333D01*
X157194047Y-132303571D01*
X157313095Y-131922619D02*
X157313095Y-132065476D01*
X157313095Y-131994047D02*
X157063095Y-131994047D01*
X157098809Y-132017857D01*
X157122619Y-132041666D01*
X157134523Y-132065476D01*
X157063095Y-131708333D02*
X157063095Y-131755952D01*
X157075000Y-131779761D01*
X157086904Y-131791666D01*
X157122619Y-131815476D01*
X157170238Y-131827380D01*
X157265476Y-131827380D01*
X157289285Y-131815476D01*
X157301190Y-131803571D01*
X157313095Y-131779761D01*
X157313095Y-131732142D01*
X157301190Y-131708333D01*
X157289285Y-131696428D01*
X157265476Y-131684523D01*
X157205952Y-131684523D01*
X157182142Y-131696428D01*
X157170238Y-131708333D01*
X157158333Y-131732142D01*
X157158333Y-131779761D01*
X157170238Y-131803571D01*
X157182142Y-131815476D01*
X157205952Y-131827380D01*
D12*
X148597285Y-145910380D02*
X149216333Y-145910380D01*
X148883000Y-146291333D01*
X149025857Y-146291333D01*
X149121095Y-146338952D01*
X149168714Y-146386571D01*
X149216333Y-146481809D01*
X149216333Y-146719904D01*
X149168714Y-146815142D01*
X149121095Y-146862761D01*
X149025857Y-146910380D01*
X148740142Y-146910380D01*
X148644904Y-146862761D01*
X148597285Y-146815142D01*
X149549666Y-145910380D02*
X150168714Y-145910380D01*
X149835380Y-146291333D01*
X149978238Y-146291333D01*
X150073476Y-146338952D01*
X150121095Y-146386571D01*
X150168714Y-146481809D01*
X150168714Y-146719904D01*
X150121095Y-146815142D01*
X150073476Y-146862761D01*
X149978238Y-146910380D01*
X149692523Y-146910380D01*
X149597285Y-146862761D01*
X149549666Y-146815142D01*
X150787761Y-145910380D02*
X150883000Y-145910380D01*
X150978238Y-145958000D01*
X151025857Y-146005619D01*
X151073476Y-146100857D01*
X151121095Y-146291333D01*
X151121095Y-146529428D01*
X151073476Y-146719904D01*
X151025857Y-146815142D01*
X150978238Y-146862761D01*
X150883000Y-146910380D01*
X150787761Y-146910380D01*
X150692523Y-146862761D01*
X150644904Y-146815142D01*
X150597285Y-146719904D01*
X150549666Y-146529428D01*
X150549666Y-146291333D01*
X150597285Y-146100857D01*
X150644904Y-146005619D01*
X150692523Y-145958000D01*
X150787761Y-145910380D01*
D15*
X149722285Y-145401095D02*
X149638952Y-145282047D01*
X149579428Y-145401095D02*
X149579428Y-145151095D01*
X149674666Y-145151095D01*
X149698476Y-145163000D01*
X149710380Y-145174904D01*
X149722285Y-145198714D01*
X149722285Y-145234428D01*
X149710380Y-145258238D01*
X149698476Y-145270142D01*
X149674666Y-145282047D01*
X149579428Y-145282047D01*
X149960380Y-145401095D02*
X149817523Y-145401095D01*
X149888952Y-145401095D02*
X149888952Y-145151095D01*
X149865142Y-145186809D01*
X149841333Y-145210619D01*
X149817523Y-145222523D01*
X150103238Y-145258238D02*
X150079428Y-145246333D01*
X150067523Y-145234428D01*
X150055619Y-145210619D01*
X150055619Y-145198714D01*
X150067523Y-145174904D01*
X150079428Y-145163000D01*
X150103238Y-145151095D01*
X150150857Y-145151095D01*
X150174666Y-145163000D01*
X150186571Y-145174904D01*
X150198476Y-145198714D01*
X150198476Y-145210619D01*
X150186571Y-145234428D01*
X150174666Y-145246333D01*
X150150857Y-145258238D01*
X150103238Y-145258238D01*
X150079428Y-145270142D01*
X150067523Y-145282047D01*
X150055619Y-145305857D01*
X150055619Y-145353476D01*
X150067523Y-145377285D01*
X150079428Y-145389190D01*
X150103238Y-145401095D01*
X150150857Y-145401095D01*
X150174666Y-145389190D01*
X150186571Y-145377285D01*
X150198476Y-145353476D01*
X150198476Y-145305857D01*
X150186571Y-145282047D01*
X150174666Y-145270142D01*
X150150857Y-145258238D01*
D12*
X152698380Y-124110666D02*
X152698380Y-124682095D01*
X152698380Y-124396380D02*
X151698380Y-124396380D01*
X151841238Y-124491619D01*
X151936476Y-124586857D01*
X151984095Y-124682095D01*
X151698380Y-123253523D02*
X151698380Y-123444000D01*
X151746000Y-123539238D01*
X151793619Y-123586857D01*
X151936476Y-123682095D01*
X152126952Y-123729714D01*
X152507904Y-123729714D01*
X152603142Y-123682095D01*
X152650761Y-123634476D01*
X152698380Y-123539238D01*
X152698380Y-123348761D01*
X152650761Y-123253523D01*
X152603142Y-123205904D01*
X152507904Y-123158285D01*
X152269809Y-123158285D01*
X152174571Y-123205904D01*
X152126952Y-123253523D01*
X152079333Y-123348761D01*
X152079333Y-123539238D01*
X152126952Y-123634476D01*
X152174571Y-123682095D01*
X152269809Y-123729714D01*
X151698380Y-122253523D02*
X151698380Y-122729714D01*
X152174571Y-122777333D01*
X152126952Y-122729714D01*
X152079333Y-122634476D01*
X152079333Y-122396380D01*
X152126952Y-122301142D01*
X152174571Y-122253523D01*
X152269809Y-122205904D01*
X152507904Y-122205904D01*
X152603142Y-122253523D01*
X152650761Y-122301142D01*
X152698380Y-122396380D01*
X152698380Y-122634476D01*
X152650761Y-122729714D01*
X152603142Y-122777333D01*
D15*
X153529095Y-123604714D02*
X153410047Y-123688047D01*
X153529095Y-123747571D02*
X153279095Y-123747571D01*
X153279095Y-123652333D01*
X153291000Y-123628523D01*
X153302904Y-123616619D01*
X153326714Y-123604714D01*
X153362428Y-123604714D01*
X153386238Y-123616619D01*
X153398142Y-123628523D01*
X153410047Y-123652333D01*
X153410047Y-123747571D01*
X153302904Y-123509476D02*
X153291000Y-123497571D01*
X153279095Y-123473761D01*
X153279095Y-123414238D01*
X153291000Y-123390428D01*
X153302904Y-123378523D01*
X153326714Y-123366619D01*
X153350523Y-123366619D01*
X153386238Y-123378523D01*
X153529095Y-123521380D01*
X153529095Y-123366619D01*
X153279095Y-123211857D02*
X153279095Y-123188047D01*
X153291000Y-123164238D01*
X153302904Y-123152333D01*
X153326714Y-123140428D01*
X153374333Y-123128523D01*
X153433857Y-123128523D01*
X153481476Y-123140428D01*
X153505285Y-123152333D01*
X153517190Y-123164238D01*
X153529095Y-123188047D01*
X153529095Y-123211857D01*
X153517190Y-123235666D01*
X153505285Y-123247571D01*
X153481476Y-123259476D01*
X153433857Y-123271380D01*
X153374333Y-123271380D01*
X153326714Y-123259476D01*
X153302904Y-123247571D01*
X153291000Y-123235666D01*
X153279095Y-123211857D01*
D12*
X136853809Y-103707619D02*
X136901428Y-103660000D01*
X136996666Y-103612380D01*
X137234761Y-103612380D01*
X137330000Y-103660000D01*
X137377619Y-103707619D01*
X137425238Y-103802857D01*
X137425238Y-103898095D01*
X137377619Y-104040952D01*
X136806190Y-104612380D01*
X137425238Y-104612380D01*
X137853809Y-104517142D02*
X137901428Y-104564761D01*
X137853809Y-104612380D01*
X137806190Y-104564761D01*
X137853809Y-104517142D01*
X137853809Y-104612380D01*
X138758571Y-103945714D02*
X138758571Y-104612380D01*
X138520476Y-103564761D02*
X138282380Y-104279047D01*
X138901428Y-104279047D01*
X139330000Y-104612380D02*
X139520476Y-104612380D01*
X139615714Y-104564761D01*
X139663333Y-104517142D01*
X139758571Y-104374285D01*
X139806190Y-104183809D01*
X139806190Y-103802857D01*
X139758571Y-103707619D01*
X139710952Y-103660000D01*
X139615714Y-103612380D01*
X139425238Y-103612380D01*
X139330000Y-103660000D01*
X139282380Y-103707619D01*
X139234761Y-103802857D01*
X139234761Y-104040952D01*
X139282380Y-104136190D01*
X139330000Y-104183809D01*
X139425238Y-104231428D01*
X139615714Y-104231428D01*
X139710952Y-104183809D01*
X139758571Y-104136190D01*
X139806190Y-104040952D01*
D15*
X138169285Y-105443095D02*
X138085952Y-105324047D01*
X138026428Y-105443095D02*
X138026428Y-105193095D01*
X138121666Y-105193095D01*
X138145476Y-105205000D01*
X138157380Y-105216904D01*
X138169285Y-105240714D01*
X138169285Y-105276428D01*
X138157380Y-105300238D01*
X138145476Y-105312142D01*
X138121666Y-105324047D01*
X138026428Y-105324047D01*
X138264523Y-105216904D02*
X138276428Y-105205000D01*
X138300238Y-105193095D01*
X138359761Y-105193095D01*
X138383571Y-105205000D01*
X138395476Y-105216904D01*
X138407380Y-105240714D01*
X138407380Y-105264523D01*
X138395476Y-105300238D01*
X138252619Y-105443095D01*
X138407380Y-105443095D01*
X138645476Y-105443095D02*
X138502619Y-105443095D01*
X138574047Y-105443095D02*
X138574047Y-105193095D01*
X138550238Y-105228809D01*
X138526428Y-105252619D01*
X138502619Y-105264523D01*
D12*
X150673609Y-97211257D02*
X150673609Y-97143914D01*
X150707280Y-97042898D01*
X150875639Y-96874540D01*
X150976654Y-96840868D01*
X151043998Y-96840868D01*
X151145013Y-96874540D01*
X151212357Y-96941883D01*
X151279700Y-97076570D01*
X151279700Y-97884692D01*
X151717433Y-97446959D01*
X151953135Y-97076570D02*
X152020479Y-97076570D01*
X152020479Y-97143914D01*
X151953135Y-97143914D01*
X151953135Y-97076570D01*
X152020479Y-97143914D01*
X152188837Y-96032746D02*
X152660242Y-96504150D01*
X151751105Y-95931731D02*
X152087822Y-96605166D01*
X152525555Y-96167433D01*
X153064303Y-96100089D02*
X153198990Y-95965402D01*
X153232662Y-95864387D01*
X153232662Y-95797044D01*
X153198990Y-95628685D01*
X153097975Y-95460326D01*
X152828601Y-95190952D01*
X152727585Y-95157280D01*
X152660242Y-95157280D01*
X152559227Y-95190952D01*
X152424540Y-95325639D01*
X152390868Y-95426654D01*
X152390868Y-95493998D01*
X152424540Y-95595013D01*
X152592898Y-95763372D01*
X152693914Y-95797044D01*
X152761257Y-95797044D01*
X152862272Y-95763372D01*
X152996959Y-95628685D01*
X153030631Y-95527670D01*
X153030631Y-95460326D01*
X152996959Y-95359311D01*
D15*
X151176328Y-95853612D02*
X151033223Y-95828358D01*
X151075312Y-95954627D02*
X150898536Y-95777851D01*
X150965879Y-95710507D01*
X150991133Y-95702089D01*
X151007969Y-95702089D01*
X151033223Y-95710507D01*
X151058477Y-95735761D01*
X151066895Y-95761015D01*
X151066895Y-95777851D01*
X151058477Y-95803104D01*
X150991133Y-95870448D01*
X151083730Y-95626328D02*
X151083730Y-95609492D01*
X151092148Y-95584238D01*
X151134238Y-95542148D01*
X151159492Y-95533730D01*
X151176328Y-95533730D01*
X151201582Y-95542148D01*
X151218417Y-95558984D01*
X151235253Y-95592656D01*
X151235253Y-95794687D01*
X151344687Y-95685253D01*
X151252089Y-95457969D02*
X151252089Y-95441133D01*
X151260507Y-95415879D01*
X151302597Y-95373790D01*
X151327851Y-95365372D01*
X151344687Y-95365372D01*
X151369940Y-95373790D01*
X151386776Y-95390625D01*
X151403612Y-95424297D01*
X151403612Y-95626328D01*
X151513045Y-95516895D01*
D12*
X147178742Y-94773609D02*
X147246085Y-94773609D01*
X147347101Y-94807280D01*
X147515459Y-94975639D01*
X147549131Y-95076654D01*
X147549131Y-95143998D01*
X147515459Y-95245013D01*
X147448116Y-95312357D01*
X147313429Y-95379700D01*
X146505307Y-95379700D01*
X146943040Y-95817433D01*
X147313429Y-96053135D02*
X147313429Y-96120479D01*
X147246085Y-96120479D01*
X147246085Y-96053135D01*
X147313429Y-96053135D01*
X147246085Y-96120479D01*
X148357253Y-96288837D02*
X147885849Y-96760242D01*
X148458268Y-95851105D02*
X147784833Y-96187822D01*
X148222566Y-96625555D01*
X148289910Y-97164303D02*
X148424597Y-97298990D01*
X148525612Y-97332662D01*
X148592955Y-97332662D01*
X148761314Y-97298990D01*
X148929673Y-97197975D01*
X149199047Y-96928601D01*
X149232719Y-96827585D01*
X149232719Y-96760242D01*
X149199047Y-96659227D01*
X149064360Y-96524540D01*
X148963345Y-96490868D01*
X148896001Y-96490868D01*
X148794986Y-96524540D01*
X148626627Y-96692898D01*
X148592955Y-96793914D01*
X148592955Y-96861257D01*
X148626627Y-96962272D01*
X148761314Y-97096959D01*
X148862329Y-97130631D01*
X148929673Y-97130631D01*
X149030688Y-97096959D01*
D15*
X148536387Y-95276328D02*
X148561641Y-95133223D01*
X148435372Y-95175312D02*
X148612148Y-94998536D01*
X148679492Y-95065879D01*
X148687910Y-95091133D01*
X148687910Y-95107969D01*
X148679492Y-95133223D01*
X148654238Y-95158477D01*
X148628984Y-95166895D01*
X148612148Y-95166895D01*
X148586895Y-95158477D01*
X148519551Y-95091133D01*
X148763671Y-95183730D02*
X148780507Y-95183730D01*
X148805761Y-95192148D01*
X148847851Y-95234238D01*
X148856269Y-95259492D01*
X148856269Y-95276328D01*
X148847851Y-95301582D01*
X148831015Y-95318417D01*
X148797343Y-95335253D01*
X148595312Y-95335253D01*
X148704746Y-95444687D01*
X148940448Y-95326835D02*
X149049881Y-95436269D01*
X148923612Y-95444687D01*
X148948866Y-95469940D01*
X148957284Y-95495194D01*
X148957284Y-95512030D01*
X148948866Y-95537284D01*
X148906776Y-95579374D01*
X148881522Y-95587791D01*
X148864687Y-95587791D01*
X148839433Y-95579374D01*
X148788925Y-95528866D01*
X148780507Y-95503612D01*
X148780507Y-95486776D01*
D12*
X150872380Y-88674285D02*
X150872380Y-89245714D01*
X150872380Y-88960000D02*
X149872380Y-88960000D01*
X150015238Y-89055238D01*
X150110476Y-89150476D01*
X150158095Y-89245714D01*
D15*
X149363095Y-89120714D02*
X149244047Y-89204047D01*
X149363095Y-89263571D02*
X149113095Y-89263571D01*
X149113095Y-89168333D01*
X149125000Y-89144523D01*
X149136904Y-89132619D01*
X149160714Y-89120714D01*
X149196428Y-89120714D01*
X149220238Y-89132619D01*
X149232142Y-89144523D01*
X149244047Y-89168333D01*
X149244047Y-89263571D01*
X149136904Y-89025476D02*
X149125000Y-89013571D01*
X149113095Y-88989761D01*
X149113095Y-88930238D01*
X149125000Y-88906428D01*
X149136904Y-88894523D01*
X149160714Y-88882619D01*
X149184523Y-88882619D01*
X149220238Y-88894523D01*
X149363095Y-89037380D01*
X149363095Y-88882619D01*
X149196428Y-88668333D02*
X149363095Y-88668333D01*
X149101190Y-88727857D02*
X149279761Y-88787380D01*
X149279761Y-88632619D01*
D12*
X153282380Y-88664285D02*
X153282380Y-89235714D01*
X153282380Y-88950000D02*
X152282380Y-88950000D01*
X152425238Y-89045238D01*
X152520476Y-89140476D01*
X152568095Y-89235714D01*
D15*
X151773095Y-89110714D02*
X151654047Y-89194047D01*
X151773095Y-89253571D02*
X151523095Y-89253571D01*
X151523095Y-89158333D01*
X151535000Y-89134523D01*
X151546904Y-89122619D01*
X151570714Y-89110714D01*
X151606428Y-89110714D01*
X151630238Y-89122619D01*
X151642142Y-89134523D01*
X151654047Y-89158333D01*
X151654047Y-89253571D01*
X151546904Y-89015476D02*
X151535000Y-89003571D01*
X151523095Y-88979761D01*
X151523095Y-88920238D01*
X151535000Y-88896428D01*
X151546904Y-88884523D01*
X151570714Y-88872619D01*
X151594523Y-88872619D01*
X151630238Y-88884523D01*
X151773095Y-89027380D01*
X151773095Y-88872619D01*
X151523095Y-88646428D02*
X151523095Y-88765476D01*
X151642142Y-88777380D01*
X151630238Y-88765476D01*
X151618333Y-88741666D01*
X151618333Y-88682142D01*
X151630238Y-88658333D01*
X151642142Y-88646428D01*
X151665952Y-88634523D01*
X151725476Y-88634523D01*
X151749285Y-88646428D01*
X151761190Y-88658333D01*
X151773095Y-88682142D01*
X151773095Y-88741666D01*
X151761190Y-88765476D01*
X151749285Y-88777380D01*
D12*
X138615714Y-105772380D02*
X138044285Y-105772380D01*
X138330000Y-105772380D02*
X138330000Y-104772380D01*
X138234761Y-104915238D01*
X138139523Y-105010476D01*
X138044285Y-105058095D01*
D15*
X138169285Y-106603095D02*
X138085952Y-106484047D01*
X138026428Y-106603095D02*
X138026428Y-106353095D01*
X138121666Y-106353095D01*
X138145476Y-106365000D01*
X138157380Y-106376904D01*
X138169285Y-106400714D01*
X138169285Y-106436428D01*
X138157380Y-106460238D01*
X138145476Y-106472142D01*
X138121666Y-106484047D01*
X138026428Y-106484047D01*
X138264523Y-106376904D02*
X138276428Y-106365000D01*
X138300238Y-106353095D01*
X138359761Y-106353095D01*
X138383571Y-106365000D01*
X138395476Y-106376904D01*
X138407380Y-106400714D01*
X138407380Y-106424523D01*
X138395476Y-106460238D01*
X138252619Y-106603095D01*
X138407380Y-106603095D01*
X138621666Y-106353095D02*
X138574047Y-106353095D01*
X138550238Y-106365000D01*
X138538333Y-106376904D01*
X138514523Y-106412619D01*
X138502619Y-106460238D01*
X138502619Y-106555476D01*
X138514523Y-106579285D01*
X138526428Y-106591190D01*
X138550238Y-106603095D01*
X138597857Y-106603095D01*
X138621666Y-106591190D01*
X138633571Y-106579285D01*
X138645476Y-106555476D01*
X138645476Y-106495952D01*
X138633571Y-106472142D01*
X138621666Y-106460238D01*
X138597857Y-106448333D01*
X138550238Y-106448333D01*
X138526428Y-106460238D01*
X138514523Y-106472142D01*
X138502619Y-106495952D01*
D12*
X149994597Y-93980536D02*
X149590536Y-94384597D01*
X149792566Y-94182566D02*
X149085459Y-93475459D01*
X149119131Y-93643818D01*
X149119131Y-93778505D01*
X149085459Y-93879520D01*
D15*
X150266328Y-94883612D02*
X150123223Y-94858358D01*
X150165312Y-94984627D02*
X149988536Y-94807851D01*
X150055879Y-94740507D01*
X150081133Y-94732089D01*
X150097969Y-94732089D01*
X150123223Y-94740507D01*
X150148477Y-94765761D01*
X150156895Y-94791015D01*
X150156895Y-94807851D01*
X150148477Y-94833104D01*
X150081133Y-94900448D01*
X150173730Y-94656328D02*
X150173730Y-94639492D01*
X150182148Y-94614238D01*
X150224238Y-94572148D01*
X150249492Y-94563730D01*
X150266328Y-94563730D01*
X150291582Y-94572148D01*
X150308417Y-94588984D01*
X150325253Y-94622656D01*
X150325253Y-94824687D01*
X150434687Y-94715253D01*
X150316835Y-94479551D02*
X150434687Y-94361700D01*
X150535702Y-94614238D01*
D12*
X149074597Y-93030536D02*
X148670536Y-93434597D01*
X148872566Y-93232566D02*
X148165459Y-92525459D01*
X148199131Y-92693818D01*
X148199131Y-92828505D01*
X148165459Y-92929520D01*
D15*
X149346328Y-93933612D02*
X149203223Y-93908358D01*
X149245312Y-94034627D02*
X149068536Y-93857851D01*
X149135879Y-93790507D01*
X149161133Y-93782089D01*
X149177969Y-93782089D01*
X149203223Y-93790507D01*
X149228477Y-93815761D01*
X149236895Y-93841015D01*
X149236895Y-93857851D01*
X149228477Y-93883104D01*
X149161133Y-93950448D01*
X149253730Y-93706328D02*
X149253730Y-93689492D01*
X149262148Y-93664238D01*
X149304238Y-93622148D01*
X149329492Y-93613730D01*
X149346328Y-93613730D01*
X149371582Y-93622148D01*
X149388417Y-93638984D01*
X149405253Y-93672656D01*
X149405253Y-93874687D01*
X149514687Y-93765253D01*
X149514687Y-93563223D02*
X149489433Y-93571641D01*
X149472597Y-93571641D01*
X149447343Y-93563223D01*
X149438925Y-93554805D01*
X149430507Y-93529551D01*
X149430507Y-93512715D01*
X149438925Y-93487461D01*
X149472597Y-93453790D01*
X149497851Y-93445372D01*
X149514687Y-93445372D01*
X149539940Y-93453790D01*
X149548358Y-93462208D01*
X149556776Y-93487461D01*
X149556776Y-93504297D01*
X149548358Y-93529551D01*
X149514687Y-93563223D01*
X149506269Y-93588477D01*
X149506269Y-93605312D01*
X149514687Y-93630566D01*
X149548358Y-93664238D01*
X149573612Y-93672656D01*
X149590448Y-93672656D01*
X149615702Y-93664238D01*
X149649374Y-93630566D01*
X149657791Y-93605312D01*
X149657791Y-93588477D01*
X149649374Y-93563223D01*
X149615702Y-93529551D01*
X149590448Y-93521133D01*
X149573612Y-93521133D01*
X149548358Y-93529551D01*
D12*
X163442857Y-130554761D02*
X163585714Y-130602380D01*
X163823809Y-130602380D01*
X163919047Y-130554761D01*
X163966666Y-130507142D01*
X164014285Y-130411904D01*
X164014285Y-130316666D01*
X163966666Y-130221428D01*
X163919047Y-130173809D01*
X163823809Y-130126190D01*
X163633333Y-130078571D01*
X163538095Y-130030952D01*
X163490476Y-129983333D01*
X163442857Y-129888095D01*
X163442857Y-129792857D01*
X163490476Y-129697619D01*
X163538095Y-129650000D01*
X163633333Y-129602380D01*
X163871428Y-129602380D01*
X164014285Y-129650000D01*
X164347619Y-129602380D02*
X164585714Y-130602380D01*
X164776190Y-129888095D01*
X164966666Y-130602380D01*
X165204761Y-129602380D01*
X165347619Y-130697619D02*
X166109523Y-130697619D01*
X166347619Y-130602380D02*
X166347619Y-129602380D01*
X166728571Y-129602380D01*
X166823809Y-129650000D01*
X166871428Y-129697619D01*
X166919047Y-129792857D01*
X166919047Y-129935714D01*
X166871428Y-130030952D01*
X166823809Y-130078571D01*
X166728571Y-130126190D01*
X166347619Y-130126190D01*
X167776190Y-129935714D02*
X167776190Y-130602380D01*
X167347619Y-129935714D02*
X167347619Y-130459523D01*
X167395238Y-130554761D01*
X167490476Y-130602380D01*
X167633333Y-130602380D01*
X167728571Y-130554761D01*
X167776190Y-130507142D01*
X168204761Y-130554761D02*
X168300000Y-130602380D01*
X168490476Y-130602380D01*
X168585714Y-130554761D01*
X168633333Y-130459523D01*
X168633333Y-130411904D01*
X168585714Y-130316666D01*
X168490476Y-130269047D01*
X168347619Y-130269047D01*
X168252380Y-130221428D01*
X168204761Y-130126190D01*
X168204761Y-130078571D01*
X168252380Y-129983333D01*
X168347619Y-129935714D01*
X168490476Y-129935714D01*
X168585714Y-129983333D01*
X169061904Y-130602380D02*
X169061904Y-129602380D01*
X169490476Y-130602380D02*
X169490476Y-130078571D01*
X169442857Y-129983333D01*
X169347619Y-129935714D01*
X169204761Y-129935714D01*
X169109523Y-129983333D01*
X169061904Y-130030952D01*
X169728571Y-130697619D02*
X170490476Y-130697619D01*
X170728571Y-130602380D02*
X170728571Y-129602380D01*
X170966666Y-129602380D01*
X171109523Y-129650000D01*
X171204761Y-129745238D01*
X171252380Y-129840476D01*
X171300000Y-130030952D01*
X171300000Y-130173809D01*
X171252380Y-130364285D01*
X171204761Y-130459523D01*
X171109523Y-130554761D01*
X170966666Y-130602380D01*
X170728571Y-130602380D01*
X172157142Y-129935714D02*
X172157142Y-130602380D01*
X171728571Y-129935714D02*
X171728571Y-130459523D01*
X171776190Y-130554761D01*
X171871428Y-130602380D01*
X172014285Y-130602380D01*
X172109523Y-130554761D01*
X172157142Y-130507142D01*
X173061904Y-130602380D02*
X173061904Y-130078571D01*
X173014285Y-129983333D01*
X172919047Y-129935714D01*
X172728571Y-129935714D01*
X172633333Y-129983333D01*
X173061904Y-130554761D02*
X172966666Y-130602380D01*
X172728571Y-130602380D01*
X172633333Y-130554761D01*
X172585714Y-130459523D01*
X172585714Y-130364285D01*
X172633333Y-130269047D01*
X172728571Y-130221428D01*
X172966666Y-130221428D01*
X173061904Y-130173809D01*
X173680952Y-130602380D02*
X173585714Y-130554761D01*
X173538095Y-130459523D01*
X173538095Y-129602380D01*
X173823809Y-130697619D02*
X174585714Y-130697619D01*
X174728571Y-130602380D02*
X175252380Y-129935714D01*
X174728571Y-129935714D02*
X175252380Y-130602380D01*
X175585714Y-129697619D02*
X175633333Y-129650000D01*
X175728571Y-129602380D01*
X175966666Y-129602380D01*
X176061904Y-129650000D01*
X176109523Y-129697619D01*
X176157142Y-129792857D01*
X176157142Y-129888095D01*
X176109523Y-130030952D01*
X175538095Y-130602380D01*
X176157142Y-130602380D01*
X146955238Y-143100380D02*
X146479047Y-143100380D01*
X146479047Y-142100380D01*
X147288571Y-142576571D02*
X147621904Y-142576571D01*
X147764761Y-143100380D02*
X147288571Y-143100380D01*
X147288571Y-142100380D01*
X147764761Y-142100380D01*
X148193333Y-143100380D02*
X148193333Y-142100380D01*
X148431428Y-142100380D01*
X148574285Y-142148000D01*
X148669523Y-142243238D01*
X148717142Y-142338476D01*
X148764761Y-142528952D01*
X148764761Y-142671809D01*
X148717142Y-142862285D01*
X148669523Y-142957523D01*
X148574285Y-143052761D01*
X148431428Y-143100380D01*
X148193333Y-143100380D01*
X148955238Y-143195619D02*
X149717142Y-143195619D01*
X150288571Y-142576571D02*
X150431428Y-142624190D01*
X150479047Y-142671809D01*
X150526666Y-142767047D01*
X150526666Y-142909904D01*
X150479047Y-143005142D01*
X150431428Y-143052761D01*
X150336190Y-143100380D01*
X149955238Y-143100380D01*
X149955238Y-142100380D01*
X150288571Y-142100380D01*
X150383809Y-142148000D01*
X150431428Y-142195619D01*
X150479047Y-142290857D01*
X150479047Y-142386095D01*
X150431428Y-142481333D01*
X150383809Y-142528952D01*
X150288571Y-142576571D01*
X149955238Y-142576571D01*
X151431428Y-143100380D02*
X150955238Y-143100380D01*
X150955238Y-142100380D01*
X151764761Y-142100380D02*
X151764761Y-142909904D01*
X151812380Y-143005142D01*
X151860000Y-143052761D01*
X151955238Y-143100380D01*
X152145714Y-143100380D01*
X152240952Y-143052761D01*
X152288571Y-143005142D01*
X152336190Y-142909904D01*
X152336190Y-142100380D01*
X152812380Y-142576571D02*
X153145714Y-142576571D01*
X153288571Y-143100380D02*
X152812380Y-143100380D01*
X152812380Y-142100380D01*
X153288571Y-142100380D01*
D15*
X149675476Y-141591095D02*
X149675476Y-141341095D01*
X149735000Y-141341095D01*
X149770714Y-141353000D01*
X149794523Y-141376809D01*
X149806428Y-141400619D01*
X149818333Y-141448238D01*
X149818333Y-141483952D01*
X149806428Y-141531571D01*
X149794523Y-141555380D01*
X149770714Y-141579190D01*
X149735000Y-141591095D01*
X149675476Y-141591095D01*
X150044523Y-141341095D02*
X149925476Y-141341095D01*
X149913571Y-141460142D01*
X149925476Y-141448238D01*
X149949285Y-141436333D01*
X150008809Y-141436333D01*
X150032619Y-141448238D01*
X150044523Y-141460142D01*
X150056428Y-141483952D01*
X150056428Y-141543476D01*
X150044523Y-141567285D01*
X150032619Y-141579190D01*
X150008809Y-141591095D01*
X149949285Y-141591095D01*
X149925476Y-141579190D01*
X149913571Y-141567285D01*
D12*
X163682380Y-135327380D02*
X163682380Y-135803571D01*
X162682380Y-135803571D01*
X163158571Y-134994047D02*
X163158571Y-134660714D01*
X163682380Y-134517857D02*
X163682380Y-134994047D01*
X162682380Y-134994047D01*
X162682380Y-134517857D01*
X163682380Y-134089285D02*
X162682380Y-134089285D01*
X162682380Y-133851190D01*
X162730000Y-133708333D01*
X162825238Y-133613095D01*
X162920476Y-133565476D01*
X163110952Y-133517857D01*
X163253809Y-133517857D01*
X163444285Y-133565476D01*
X163539523Y-133613095D01*
X163634761Y-133708333D01*
X163682380Y-133851190D01*
X163682380Y-134089285D01*
X163777619Y-133327380D02*
X163777619Y-132565476D01*
X162730000Y-131803571D02*
X162682380Y-131898809D01*
X162682380Y-132041666D01*
X162730000Y-132184523D01*
X162825238Y-132279761D01*
X162920476Y-132327380D01*
X163110952Y-132375000D01*
X163253809Y-132375000D01*
X163444285Y-132327380D01*
X163539523Y-132279761D01*
X163634761Y-132184523D01*
X163682380Y-132041666D01*
X163682380Y-131946428D01*
X163634761Y-131803571D01*
X163587142Y-131755952D01*
X163253809Y-131755952D01*
X163253809Y-131946428D01*
X163682380Y-130755952D02*
X163206190Y-131089285D01*
X163682380Y-131327380D02*
X162682380Y-131327380D01*
X162682380Y-130946428D01*
X162730000Y-130851190D01*
X162777619Y-130803571D01*
X162872857Y-130755952D01*
X163015714Y-130755952D01*
X163110952Y-130803571D01*
X163158571Y-130851190D01*
X163206190Y-130946428D01*
X163206190Y-131327380D01*
X163158571Y-130327380D02*
X163158571Y-129994047D01*
X163682380Y-129851190D02*
X163682380Y-130327380D01*
X162682380Y-130327380D01*
X162682380Y-129851190D01*
X163158571Y-129422619D02*
X163158571Y-129089285D01*
X163682380Y-128946428D02*
X163682380Y-129422619D01*
X162682380Y-129422619D01*
X162682380Y-128946428D01*
X163682380Y-128517857D02*
X162682380Y-128517857D01*
X163682380Y-127946428D01*
X162682380Y-127946428D01*
D15*
X164513095Y-132059523D02*
X164263095Y-132059523D01*
X164263095Y-132000000D01*
X164275000Y-131964285D01*
X164298809Y-131940476D01*
X164322619Y-131928571D01*
X164370238Y-131916666D01*
X164405952Y-131916666D01*
X164453571Y-131928571D01*
X164477380Y-131940476D01*
X164501190Y-131964285D01*
X164513095Y-132000000D01*
X164513095Y-132059523D01*
X164263095Y-131702380D02*
X164263095Y-131750000D01*
X164275000Y-131773809D01*
X164286904Y-131785714D01*
X164322619Y-131809523D01*
X164370238Y-131821428D01*
X164465476Y-131821428D01*
X164489285Y-131809523D01*
X164501190Y-131797619D01*
X164513095Y-131773809D01*
X164513095Y-131726190D01*
X164501190Y-131702380D01*
X164489285Y-131690476D01*
X164465476Y-131678571D01*
X164405952Y-131678571D01*
X164382142Y-131690476D01*
X164370238Y-131702380D01*
X164358333Y-131726190D01*
X164358333Y-131773809D01*
X164370238Y-131797619D01*
X164382142Y-131809523D01*
X164405952Y-131821428D01*
D12*
X146955238Y-144370380D02*
X146479047Y-144370380D01*
X146479047Y-143370380D01*
X147288571Y-143846571D02*
X147621904Y-143846571D01*
X147764761Y-144370380D02*
X147288571Y-144370380D01*
X147288571Y-143370380D01*
X147764761Y-143370380D01*
X148193333Y-144370380D02*
X148193333Y-143370380D01*
X148431428Y-143370380D01*
X148574285Y-143418000D01*
X148669523Y-143513238D01*
X148717142Y-143608476D01*
X148764761Y-143798952D01*
X148764761Y-143941809D01*
X148717142Y-144132285D01*
X148669523Y-144227523D01*
X148574285Y-144322761D01*
X148431428Y-144370380D01*
X148193333Y-144370380D01*
X148955238Y-144465619D02*
X149717142Y-144465619D01*
X150288571Y-143846571D02*
X150431428Y-143894190D01*
X150479047Y-143941809D01*
X150526666Y-144037047D01*
X150526666Y-144179904D01*
X150479047Y-144275142D01*
X150431428Y-144322761D01*
X150336190Y-144370380D01*
X149955238Y-144370380D01*
X149955238Y-143370380D01*
X150288571Y-143370380D01*
X150383809Y-143418000D01*
X150431428Y-143465619D01*
X150479047Y-143560857D01*
X150479047Y-143656095D01*
X150431428Y-143751333D01*
X150383809Y-143798952D01*
X150288571Y-143846571D01*
X149955238Y-143846571D01*
X151431428Y-144370380D02*
X150955238Y-144370380D01*
X150955238Y-143370380D01*
X151764761Y-143370380D02*
X151764761Y-144179904D01*
X151812380Y-144275142D01*
X151860000Y-144322761D01*
X151955238Y-144370380D01*
X152145714Y-144370380D01*
X152240952Y-144322761D01*
X152288571Y-144275142D01*
X152336190Y-144179904D01*
X152336190Y-143370380D01*
X152812380Y-143846571D02*
X153145714Y-143846571D01*
X153288571Y-144370380D02*
X152812380Y-144370380D01*
X152812380Y-143370380D01*
X153288571Y-143370380D01*
D15*
X149675476Y-142861095D02*
X149675476Y-142611095D01*
X149735000Y-142611095D01*
X149770714Y-142623000D01*
X149794523Y-142646809D01*
X149806428Y-142670619D01*
X149818333Y-142718238D01*
X149818333Y-142753952D01*
X149806428Y-142801571D01*
X149794523Y-142825380D01*
X149770714Y-142849190D01*
X149735000Y-142861095D01*
X149675476Y-142861095D01*
X149901666Y-142611095D02*
X150068333Y-142611095D01*
X149961190Y-142861095D01*
D12*
X163682380Y-132076190D02*
X163682380Y-132552380D01*
X162682380Y-132552380D01*
X163158571Y-131742857D02*
X163158571Y-131409523D01*
X163682380Y-131266666D02*
X163682380Y-131742857D01*
X162682380Y-131742857D01*
X162682380Y-131266666D01*
X163682380Y-130838095D02*
X162682380Y-130838095D01*
X162682380Y-130600000D01*
X162730000Y-130457142D01*
X162825238Y-130361904D01*
X162920476Y-130314285D01*
X163110952Y-130266666D01*
X163253809Y-130266666D01*
X163444285Y-130314285D01*
X163539523Y-130361904D01*
X163634761Y-130457142D01*
X163682380Y-130600000D01*
X163682380Y-130838095D01*
X163777619Y-130076190D02*
X163777619Y-129314285D01*
X163682380Y-128504761D02*
X163206190Y-128838095D01*
X163682380Y-129076190D02*
X162682380Y-129076190D01*
X162682380Y-128695238D01*
X162730000Y-128600000D01*
X162777619Y-128552380D01*
X162872857Y-128504761D01*
X163015714Y-128504761D01*
X163110952Y-128552380D01*
X163158571Y-128600000D01*
X163206190Y-128695238D01*
X163206190Y-129076190D01*
X163158571Y-128076190D02*
X163158571Y-127742857D01*
X163682380Y-127600000D02*
X163682380Y-128076190D01*
X162682380Y-128076190D01*
X162682380Y-127600000D01*
X163682380Y-127171428D02*
X162682380Y-127171428D01*
X162682380Y-126933333D01*
X162730000Y-126790476D01*
X162825238Y-126695238D01*
X162920476Y-126647619D01*
X163110952Y-126600000D01*
X163253809Y-126600000D01*
X163444285Y-126647619D01*
X163539523Y-126695238D01*
X163634761Y-126790476D01*
X163682380Y-126933333D01*
X163682380Y-127171428D01*
D15*
X164513095Y-129784523D02*
X164263095Y-129784523D01*
X164263095Y-129725000D01*
X164275000Y-129689285D01*
X164298809Y-129665476D01*
X164322619Y-129653571D01*
X164370238Y-129641666D01*
X164405952Y-129641666D01*
X164453571Y-129653571D01*
X164477380Y-129665476D01*
X164501190Y-129689285D01*
X164513095Y-129725000D01*
X164513095Y-129784523D01*
X164513095Y-129522619D02*
X164513095Y-129475000D01*
X164501190Y-129451190D01*
X164489285Y-129439285D01*
X164453571Y-129415476D01*
X164405952Y-129403571D01*
X164310714Y-129403571D01*
X164286904Y-129415476D01*
X164275000Y-129427380D01*
X164263095Y-129451190D01*
X164263095Y-129498809D01*
X164275000Y-129522619D01*
X164286904Y-129534523D01*
X164310714Y-129546428D01*
X164370238Y-129546428D01*
X164394047Y-129534523D01*
X164405952Y-129522619D01*
X164417857Y-129498809D01*
X164417857Y-129451190D01*
X164405952Y-129427380D01*
X164394047Y-129415476D01*
X164370238Y-129403571D01*
D12*
X146955238Y-148180380D02*
X146479047Y-148180380D01*
X146479047Y-147180380D01*
X147288571Y-147656571D02*
X147621904Y-147656571D01*
X147764761Y-148180380D02*
X147288571Y-148180380D01*
X147288571Y-147180380D01*
X147764761Y-147180380D01*
X148193333Y-148180380D02*
X148193333Y-147180380D01*
X148431428Y-147180380D01*
X148574285Y-147228000D01*
X148669523Y-147323238D01*
X148717142Y-147418476D01*
X148764761Y-147608952D01*
X148764761Y-147751809D01*
X148717142Y-147942285D01*
X148669523Y-148037523D01*
X148574285Y-148132761D01*
X148431428Y-148180380D01*
X148193333Y-148180380D01*
X148955238Y-148275619D02*
X149717142Y-148275619D01*
X150288571Y-147656571D02*
X150431428Y-147704190D01*
X150479047Y-147751809D01*
X150526666Y-147847047D01*
X150526666Y-147989904D01*
X150479047Y-148085142D01*
X150431428Y-148132761D01*
X150336190Y-148180380D01*
X149955238Y-148180380D01*
X149955238Y-147180380D01*
X150288571Y-147180380D01*
X150383809Y-147228000D01*
X150431428Y-147275619D01*
X150479047Y-147370857D01*
X150479047Y-147466095D01*
X150431428Y-147561333D01*
X150383809Y-147608952D01*
X150288571Y-147656571D01*
X149955238Y-147656571D01*
X151431428Y-148180380D02*
X150955238Y-148180380D01*
X150955238Y-147180380D01*
X151764761Y-147180380D02*
X151764761Y-147989904D01*
X151812380Y-148085142D01*
X151860000Y-148132761D01*
X151955238Y-148180380D01*
X152145714Y-148180380D01*
X152240952Y-148132761D01*
X152288571Y-148085142D01*
X152336190Y-147989904D01*
X152336190Y-147180380D01*
X152812380Y-147656571D02*
X153145714Y-147656571D01*
X153288571Y-148180380D02*
X152812380Y-148180380D01*
X152812380Y-147180380D01*
X153288571Y-147180380D01*
D15*
X149556428Y-146671095D02*
X149556428Y-146421095D01*
X149615952Y-146421095D01*
X149651666Y-146433000D01*
X149675476Y-146456809D01*
X149687380Y-146480619D01*
X149699285Y-146528238D01*
X149699285Y-146563952D01*
X149687380Y-146611571D01*
X149675476Y-146635380D01*
X149651666Y-146659190D01*
X149615952Y-146671095D01*
X149556428Y-146671095D01*
X149937380Y-146671095D02*
X149794523Y-146671095D01*
X149865952Y-146671095D02*
X149865952Y-146421095D01*
X149842142Y-146456809D01*
X149818333Y-146480619D01*
X149794523Y-146492523D01*
X150092142Y-146421095D02*
X150115952Y-146421095D01*
X150139761Y-146433000D01*
X150151666Y-146444904D01*
X150163571Y-146468714D01*
X150175476Y-146516333D01*
X150175476Y-146575857D01*
X150163571Y-146623476D01*
X150151666Y-146647285D01*
X150139761Y-146659190D01*
X150115952Y-146671095D01*
X150092142Y-146671095D01*
X150068333Y-146659190D01*
X150056428Y-146647285D01*
X150044523Y-146623476D01*
X150032619Y-146575857D01*
X150032619Y-146516333D01*
X150044523Y-146468714D01*
X150056428Y-146444904D01*
X150068333Y-146433000D01*
X150092142Y-146421095D01*
D12*
X133800000Y-140852380D02*
X133800000Y-141090476D01*
X133561904Y-140995238D02*
X133800000Y-141090476D01*
X134038095Y-140995238D01*
X133657142Y-141280952D02*
X133800000Y-141090476D01*
X133942857Y-141280952D01*
X133052380Y-131150000D02*
X133290476Y-131150000D01*
X133195238Y-131388095D02*
X133290476Y-131150000D01*
X133195238Y-130911904D01*
X133480952Y-131292857D02*
X133290476Y-131150000D01*
X133480952Y-131007142D01*
X133577700Y-134406580D02*
X133577700Y-134644676D01*
X133339604Y-134549438D02*
X133577700Y-134644676D01*
X133815795Y-134549438D01*
X133434842Y-134835152D02*
X133577700Y-134644676D01*
X133720557Y-134835152D01*
X156024580Y-117904900D02*
X156262676Y-117904900D01*
X156167438Y-118142995D02*
X156262676Y-117904900D01*
X156167438Y-117666804D01*
X156453152Y-118047757D02*
X156262676Y-117904900D01*
X156453152Y-117762042D01*
X127761904Y-148157142D02*
X127714285Y-148204761D01*
X127571428Y-148252380D01*
X127476190Y-148252380D01*
X127333333Y-148204761D01*
X127238095Y-148109523D01*
X127190476Y-148014285D01*
X127142857Y-147823809D01*
X127142857Y-147680952D01*
X127190476Y-147490476D01*
X127238095Y-147395238D01*
X127333333Y-147300000D01*
X127476190Y-147252380D01*
X127571428Y-147252380D01*
X127714285Y-147300000D01*
X127761904Y-147347619D01*
X128333333Y-148252380D02*
X128238095Y-148204761D01*
X128190476Y-148157142D01*
X128142857Y-148061904D01*
X128142857Y-147776190D01*
X128190476Y-147680952D01*
X128238095Y-147633333D01*
X128333333Y-147585714D01*
X128476190Y-147585714D01*
X128571428Y-147633333D01*
X128619047Y-147680952D01*
X128666666Y-147776190D01*
X128666666Y-148061904D01*
X128619047Y-148157142D01*
X128571428Y-148204761D01*
X128476190Y-148252380D01*
X128333333Y-148252380D01*
X129095238Y-147585714D02*
X129095238Y-148252380D01*
X129095238Y-147680952D02*
X129142857Y-147633333D01*
X129238095Y-147585714D01*
X129380952Y-147585714D01*
X129476190Y-147633333D01*
X129523809Y-147728571D01*
X129523809Y-148252380D01*
X130000000Y-147585714D02*
X130000000Y-148252380D01*
X130000000Y-147680952D02*
X130047619Y-147633333D01*
X130142857Y-147585714D01*
X130285714Y-147585714D01*
X130380952Y-147633333D01*
X130428571Y-147728571D01*
X130428571Y-148252380D01*
X130666666Y-148347619D02*
X131428571Y-148347619D01*
X131857142Y-147252380D02*
X131952380Y-147252380D01*
X132047619Y-147300000D01*
X132095238Y-147347619D01*
X132142857Y-147442857D01*
X132190476Y-147633333D01*
X132190476Y-147871428D01*
X132142857Y-148061904D01*
X132095238Y-148157142D01*
X132047619Y-148204761D01*
X131952380Y-148252380D01*
X131857142Y-148252380D01*
X131761904Y-148204761D01*
X131714285Y-148157142D01*
X131666666Y-148061904D01*
X131619047Y-147871428D01*
X131619047Y-147633333D01*
X131666666Y-147442857D01*
X131714285Y-147347619D01*
X131761904Y-147300000D01*
X131857142Y-147252380D01*
X133142857Y-148252380D02*
X132571428Y-148252380D01*
X132857142Y-148252380D02*
X132857142Y-147252380D01*
X132761904Y-147395238D01*
X132666666Y-147490476D01*
X132571428Y-147538095D01*
X133476190Y-148252380D02*
X134000000Y-147585714D01*
X133476190Y-147585714D02*
X134000000Y-148252380D01*
X134571428Y-147252380D02*
X134666666Y-147252380D01*
X134761904Y-147300000D01*
X134809523Y-147347619D01*
X134857142Y-147442857D01*
X134904761Y-147633333D01*
X134904761Y-147871428D01*
X134857142Y-148061904D01*
X134809523Y-148157142D01*
X134761904Y-148204761D01*
X134666666Y-148252380D01*
X134571428Y-148252380D01*
X134476190Y-148204761D01*
X134428571Y-148157142D01*
X134380952Y-148061904D01*
X134333333Y-147871428D01*
X134333333Y-147633333D01*
X134380952Y-147442857D01*
X134428571Y-147347619D01*
X134476190Y-147300000D01*
X134571428Y-147252380D01*
X135285714Y-147347619D02*
X135333333Y-147300000D01*
X135428571Y-147252380D01*
X135666666Y-147252380D01*
X135761904Y-147300000D01*
X135809523Y-147347619D01*
X135857142Y-147442857D01*
X135857142Y-147538095D01*
X135809523Y-147680952D01*
X135238095Y-148252380D01*
X135857142Y-148252380D01*
M02*
