M48
; DRILL file {KiCad (5.1.4)-1} date 2019/11/07 14:35:34
; FORMAT={-:-/ absolute / metric / decimal}
; #@! TF.CreationDate,2019-11-07T14:35:34+09:00
; #@! TF.GenerationSoftware,Kicad,Pcbnew,(5.1.4)-1
; #@! TF.FileFunction,Plated,1,2,PTH
FMAT,2
METRIC
T1C0.300
T2C0.400
T3C0.762
%
G90
G05
T1
X130.9Y-131.67
X131.03Y-129.11
X132.82Y-143.1
X132.85Y-144.49
X133.2Y-128.18
X133.26Y-146.78
X133.99Y-140.83
X134.58Y-146.79
X135.3Y-128.27
X135.33Y-138.72
X136.16Y-146.82
X136.95Y-107.99
X137.46Y-140.87
X137.85Y-146.82
X138.62Y-102.8
X138.69Y-104.41
X139.312Y-107.692
X139.93Y-106.39
X140.06Y-139.66
X140.24Y-137.26
X140.41Y-104.41
X140.505Y-108.083
X140.76Y-110.275
X141.31Y-106.71
X141.911Y-103.16
X142.01Y-132.89
X142.236Y-141.305
X142.437Y-106.429
X142.445Y-139.165
X142.48Y-108.97
X142.58Y-94.41
X142.67Y-109.84
X142.89Y-135.45
X143.05Y-97.65
X143.05Y-101.16
X143.13Y-126.87
X143.182Y-106.72
X143.48Y-126.03
X143.51Y-136.13
X143.51Y-139.16
X143.62Y-132.3
X143.76Y-140.8
X143.78Y-118.97
X144.0Y-105.2
X144.43Y-115.396
X144.52Y-104.54
X144.69Y-109.549
X144.725Y-111.005
X144.95Y-131.14
X145.01Y-107.0
X145.11Y-118.36
X145.13Y-120.49
X145.153Y-103.16
X145.17Y-128.89
X145.3Y-108.29
X145.55Y-124.99
X145.74Y-100.97
X145.75Y-131.129
X145.77Y-133.01
X146.01Y-126.91
X146.02Y-120.63
X146.33Y-109.98
X146.39Y-123.94
X146.55Y-130.44
X146.77Y-131.37
X147.033Y-113.143
X147.158Y-111.778
X147.36Y-106.53
X147.66Y-136.01
X147.767Y-105.593
X147.82Y-113.51
X147.92Y-140.21
X147.97Y-107.31
X148.054Y-108.75
X148.1Y-131.691
X148.11Y-123.08
X148.35Y-117.4
X148.4Y-127.66
X148.4Y-129.76
X148.83Y-101.64
X149.136Y-104.458
X149.31Y-115.9
X149.467Y-126.305
X149.64Y-91.27
X149.65Y-130.03
X149.92Y-117.23
X149.93Y-136.75
X149.932Y-104.542
X149.98Y-134.26
X150.072Y-101.609
X150.26Y-130.62
X150.346Y-100.857
X150.431Y-125.502
X150.484Y-91.242
X150.52Y-106.69
X150.63Y-116.83
X150.82Y-114.85
X151.0Y-103.76
X151.13Y-131.75
X151.166Y-108.75
X151.184Y-107.95
X151.235Y-140.515
X151.49Y-90.68
X152.035Y-134.885
X152.05Y-101.09
X152.06Y-146.82
X152.15Y-110.74
X152.15Y-139.33
X152.25Y-142.36
X152.32Y-125.29
X152.41Y-133.03
X152.422Y-108.109
X152.45Y-107.23
X152.6Y-105.91
X152.77Y-111.87
X152.92Y-119.03
X153.006Y-122.147
X153.12Y-140.35
X153.34Y-116.82
X153.35Y-114.86
X153.44Y-146.78
X153.52Y-130.44
X154.11Y-102.7
X154.17Y-111.68
X154.17Y-131.27
X154.56Y-132.01
X154.592Y-113.47
X154.63Y-128.17
X154.93Y-146.78
X155.17Y-136.03
X155.26Y-138.46
X155.301Y-113.099
X155.36Y-129.5
X155.78Y-94.3
X156.59Y-130.61
X156.64Y-146.78
X156.65Y-96.42
X156.742Y-110.18
X156.865Y-97.505
X157.29Y-100.89
X157.35Y-124.65
X157.442Y-111.334
X157.74Y-108.44
X157.91Y-140.27
X158.02Y-110.19
X158.109Y-95.321
X158.32Y-97.45
X158.35Y-101.52
X158.76Y-141.45
X159.11Y-107.41
X159.18Y-137.47
X160.25Y-104.12
X162.58Y-144.55
X162.68Y-146.8
X162.96Y-104.46
X163.209Y-139.136
X163.22Y-102.54
X163.424Y-100.636
X163.77Y-146.81
X163.92Y-138.77
X163.93Y-143.78
X164.39Y-103.75
X164.465Y-141.305
X165.19Y-130.67
X165.4Y-104.256
X165.69Y-144.86
X166.16Y-142.14
X166.4Y-141.29
X166.71Y-106.44
X167.06Y-133.82
X168.06Y-105.63
X168.09Y-107.12
X168.82Y-129.79
X168.92Y-137.51
X168.94Y-132.71
X168.97Y-110.11
T2
X134.4Y-139.65
X138.169Y-136.988
X138.225Y-133.811
X144.37Y-136.87
X146.64Y-140.08
X153.46Y-128.46
T3
X132.914Y-108.649
X133.11Y-110.89
X135.444Y-108.427
X135.64Y-110.669
X164.381Y-110.671
X164.577Y-108.429
X166.911Y-110.892
X167.107Y-108.651
X132.2Y-145.75
X133.45Y-145.75
X151.484Y-97.821
X153.117Y-99.767
X153.208Y-96.375
X154.84Y-98.321
X144.936Y-98.314
X146.569Y-96.368
X146.66Y-99.76
X148.293Y-97.814
T0
M30
