G04 #@! TF.GenerationSoftware,KiCad,Pcbnew,(5.1.4)-1*
G04 #@! TF.CreationDate,2019-11-08T17:49:40+09:00*
G04 #@! TF.ProjectId,gekko,67656b6b-6f2e-46b6-9963-61645f706362,rev?*
G04 #@! TF.SameCoordinates,Original*
G04 #@! TF.FileFunction,Copper,L2,Bot*
G04 #@! TF.FilePolarity,Positive*
%FSLAX46Y46*%
G04 Gerber Fmt 4.6, Leading zero omitted, Abs format (unit mm)*
G04 Created by KiCad (PCBNEW (5.1.4)-1) date 2019-11-08 17:49:40*
%MOMM*%
%LPD*%
G04 APERTURE LIST*
%ADD10C,1.800000*%
%ADD11C,0.100000*%
%ADD12C,1.000000*%
%ADD13C,0.600000*%
%ADD14C,0.800000*%
%ADD15C,0.200000*%
%ADD16C,0.250000*%
%ADD17C,0.500000*%
%ADD18C,0.254000*%
G04 APERTURE END LIST*
D10*
X166911168Y-110892285D03*
X164576934Y-108429472D03*
D11*
G36*
X163601919Y-109247607D02*
G01*
X163758799Y-107454457D01*
X165551949Y-107611337D01*
X165395069Y-109404487D01*
X163601919Y-109247607D01*
X163601919Y-109247607D01*
G37*
D10*
X167107268Y-108650847D03*
X164380834Y-110670910D03*
D11*
G36*
X163405819Y-111489045D02*
G01*
X163562699Y-109695895D01*
X165355849Y-109852775D01*
X165198969Y-111645925D01*
X163405819Y-111489045D01*
X163405819Y-111489045D01*
G37*
D10*
X153116769Y-99766985D03*
X153207688Y-96374960D03*
D11*
G36*
X151939739Y-96264029D02*
G01*
X153318619Y-95107011D01*
X154475637Y-96485891D01*
X153096757Y-97642909D01*
X151939739Y-96264029D01*
X151939739Y-96264029D01*
G37*
D10*
X154840369Y-98320713D03*
X151484088Y-97821233D03*
D11*
G36*
X150216139Y-97710302D02*
G01*
X151595019Y-96553284D01*
X152752037Y-97932164D01*
X151373157Y-99089182D01*
X150216139Y-97710302D01*
X150216139Y-97710302D01*
G37*
D10*
X144936400Y-98313728D03*
X146569081Y-96367975D03*
D11*
G36*
X146680012Y-97635924D02*
G01*
X145301132Y-96478906D01*
X146458150Y-95100026D01*
X147837030Y-96257044D01*
X146680012Y-97635924D01*
X146680012Y-97635924D01*
G37*
D10*
X146660000Y-99760000D03*
X148292681Y-97814247D03*
D11*
G36*
X148403612Y-99082196D02*
G01*
X147024732Y-97925178D01*
X148181750Y-96546298D01*
X149560630Y-97703316D01*
X148403612Y-99082196D01*
X148403612Y-99082196D01*
G37*
D10*
X132913900Y-108648562D03*
X135444234Y-108427186D03*
D11*
G36*
X134626099Y-109402201D02*
G01*
X134469219Y-107609051D01*
X136262369Y-107452171D01*
X136419249Y-109245321D01*
X134626099Y-109402201D01*
X134626099Y-109402201D01*
G37*
D10*
X133110000Y-110890000D03*
X135640335Y-110668624D03*
D11*
G36*
X134822200Y-111643639D02*
G01*
X134665320Y-109850489D01*
X136458470Y-109693609D01*
X136615350Y-111486759D01*
X134822200Y-111643639D01*
X134822200Y-111643639D01*
G37*
D12*
X132200000Y-145750000D03*
X133450000Y-145750000D03*
D13*
X157290000Y-100890000D03*
X163208559Y-139135884D03*
X142670000Y-109840000D03*
X157442412Y-111334336D03*
X156741602Y-110179990D03*
X145770000Y-133010000D03*
X145550000Y-124990000D03*
X146010000Y-126910000D03*
X148400000Y-127660000D03*
X152320000Y-125290000D03*
X158760000Y-141450000D03*
X152250000Y-142360000D03*
X149930000Y-136750000D03*
X142010000Y-132890000D03*
X143620000Y-132300000D03*
X144950000Y-131140000D03*
X140240000Y-137260000D03*
X146330000Y-109980000D03*
X154170000Y-111680000D03*
X151165762Y-108749988D03*
X140060000Y-139660000D03*
X144689990Y-109549424D03*
X148054247Y-108749998D03*
X151234662Y-140515338D03*
X167060000Y-133820000D03*
X148900000Y-124850000D03*
X133200000Y-128180000D03*
X160250000Y-104120000D03*
X158349990Y-101520000D03*
X154110000Y-102700000D03*
X148400000Y-129760000D03*
X152150000Y-110740000D03*
X153340000Y-116820000D03*
X153005715Y-122146689D03*
X152920000Y-119030000D03*
X168820000Y-129790000D03*
X165190000Y-130670000D03*
X157740000Y-108440000D03*
X158020000Y-110190062D03*
X149466790Y-126305330D03*
X155260000Y-138460000D03*
D14*
X138169480Y-136988347D03*
D13*
X150345684Y-100857252D03*
D14*
X138225046Y-133810710D03*
D13*
X147360000Y-106530000D03*
X144000000Y-105200000D03*
X141310000Y-106710000D03*
X140504928Y-108083206D03*
X163424272Y-100635728D03*
X153120000Y-140350000D03*
X163930000Y-143780000D03*
X166160000Y-142140000D03*
X133260000Y-146780000D03*
X134580000Y-146790000D03*
X136160000Y-146820000D03*
X137850000Y-146820000D03*
X152060000Y-146820000D03*
X153440000Y-146780000D03*
X154930000Y-146780000D03*
X156640000Y-146780000D03*
X162680000Y-146800000D03*
X163770000Y-146810000D03*
X165690000Y-144860000D03*
X162580000Y-144550000D03*
X149980000Y-134260000D03*
X148100001Y-131691216D03*
X146770000Y-131370000D03*
X130900000Y-131670000D03*
X131030000Y-129110000D03*
X135300000Y-128270000D03*
X162960000Y-104460000D03*
X163220000Y-102540000D03*
X164390000Y-103750000D03*
X166710000Y-106440000D03*
X168060000Y-105630000D03*
X168090000Y-107120000D03*
X132850000Y-144490000D03*
X132820000Y-143100000D03*
X133990000Y-140830000D03*
X135330000Y-138720000D03*
X152035000Y-134885000D03*
X152150000Y-139330000D03*
X137460000Y-140870000D03*
X157910000Y-140270000D03*
X135610000Y-131950000D03*
X131960000Y-134540000D03*
X159109998Y-107410000D03*
X152600000Y-105910000D03*
X168940000Y-132710002D03*
X168919990Y-137510000D03*
D14*
X144370000Y-136870000D03*
X146640000Y-140080000D03*
D13*
X154560000Y-132010000D03*
D14*
X134400000Y-139650000D03*
D13*
X147660000Y-136010000D03*
X147920000Y-140210000D03*
X140760000Y-110274981D03*
X142480000Y-108970000D03*
X145010000Y-107000000D03*
X143760000Y-140800000D03*
X139312178Y-107692044D03*
X154630000Y-128170000D03*
X155360000Y-129500000D03*
X144520000Y-104540010D03*
X148830000Y-101640000D03*
X142235911Y-141304954D03*
X145153026Y-103159990D03*
X147820000Y-113510000D03*
X142890000Y-135450000D03*
X142445000Y-139165000D03*
X146550000Y-130440000D03*
X147032761Y-113142761D03*
X143510000Y-136130000D03*
X145749937Y-131129042D03*
X143510000Y-139160000D03*
X145170000Y-128890010D03*
X144430000Y-115395734D03*
D14*
X153460000Y-128460000D03*
D13*
X155170000Y-136030000D03*
X146390000Y-123940000D03*
X147158001Y-111778001D03*
X164465000Y-141305000D03*
X151184129Y-107950187D03*
X163920000Y-138770000D03*
X159180000Y-137470000D03*
X143780000Y-118970000D03*
X144725000Y-111005000D03*
X145300000Y-108290010D03*
X166400000Y-141290000D03*
X143480000Y-126030000D03*
X143181974Y-106719980D03*
X143130000Y-126870000D03*
X142436784Y-106428929D03*
X150483560Y-91242069D03*
X168970000Y-110110000D03*
X156865000Y-97505000D03*
X152050000Y-101090000D03*
X149640000Y-91270010D03*
X145740000Y-100970000D03*
X150071687Y-101608879D03*
X151490000Y-90680000D03*
X158109272Y-95320728D03*
X142580000Y-94410000D03*
X158320000Y-97450000D03*
X138690000Y-104410000D03*
X140410000Y-104410000D03*
X138620000Y-102800000D03*
X151000000Y-103760000D03*
X150630000Y-116830000D03*
X150820000Y-114850000D03*
X153350000Y-114860000D03*
X152770000Y-111870000D03*
X149920001Y-117230001D03*
X146020000Y-120630000D03*
X147970010Y-107310000D03*
X149932028Y-104541630D03*
X145130000Y-120490000D03*
X145110000Y-118360002D03*
X149310010Y-115899990D03*
X149136413Y-104457869D03*
X147767416Y-105592584D03*
X148350000Y-117400000D03*
X150430772Y-125502228D03*
X150520011Y-106690001D03*
X148110000Y-123079998D03*
X149650000Y-130030000D03*
X154592024Y-113470428D03*
X150260000Y-130620000D03*
X155300729Y-113099273D03*
X152450000Y-107230000D03*
X153520000Y-130440000D03*
X151130000Y-131750000D03*
X157349990Y-124650000D03*
X152422300Y-108108588D03*
X152410000Y-133030000D03*
X154170000Y-131270000D03*
X156590000Y-130610000D03*
X136950000Y-107990000D03*
X139930000Y-106390000D03*
X143050000Y-101160000D03*
X143050000Y-97650000D03*
X165400000Y-104255910D03*
X141910757Y-103159990D03*
X156650000Y-96420000D03*
X155780000Y-94300000D03*
D15*
X163208559Y-138711620D02*
X163208559Y-139135884D01*
X163208559Y-137671441D02*
X163208559Y-138711620D01*
X156741602Y-110633526D02*
X156741602Y-110604254D01*
X157442412Y-111334336D02*
X156741602Y-110633526D01*
X156741602Y-110604254D02*
X156741602Y-110179990D01*
X145550000Y-126450000D02*
X145550000Y-124990000D01*
X146010000Y-129100000D02*
X146010000Y-126910000D01*
X144950000Y-130160000D02*
X146010000Y-129100000D01*
X145770000Y-133010000D02*
X144950000Y-132190000D01*
X144950000Y-132190000D02*
X144950000Y-130160000D01*
X145820000Y-126720000D02*
X145550000Y-126450000D01*
X145820000Y-126720000D02*
X146010000Y-126910000D01*
X148699999Y-127360001D02*
X148699999Y-125650001D01*
X148400000Y-127660000D02*
X148699999Y-127360001D01*
X148699999Y-125650001D02*
X148930000Y-125420000D01*
X148930000Y-125420000D02*
X149500000Y-125420000D01*
X149500000Y-125420000D02*
X150250000Y-126170000D01*
X150250000Y-126170000D02*
X151440000Y-126170000D01*
X151440000Y-126170000D02*
X152320000Y-125290000D01*
X152600000Y-141450000D02*
X158335736Y-141450000D01*
X158335736Y-141450000D02*
X158760000Y-141450000D01*
X152600000Y-141450000D02*
X152600000Y-142010000D01*
X152600000Y-142010000D02*
X152250000Y-142360000D01*
X145770000Y-135020000D02*
X145770000Y-133010000D01*
X149930000Y-136750000D02*
X147500000Y-136750000D01*
X147500000Y-136750000D02*
X145770000Y-135020000D01*
X142010000Y-132890000D02*
X143030000Y-132890000D01*
X143030000Y-132890000D02*
X143620000Y-132300000D01*
X154170000Y-111680000D02*
X151239988Y-108749988D01*
X151239988Y-108749988D02*
X151165762Y-108749988D01*
X140240000Y-137260000D02*
X140240000Y-139480000D01*
X140240000Y-139480000D02*
X140060000Y-139660000D01*
X151829916Y-101780000D02*
X151320000Y-101270084D01*
X151320000Y-101270084D02*
X151320000Y-98810000D01*
X156400000Y-101780000D02*
X151829916Y-101780000D01*
X157290000Y-100890000D02*
X156400000Y-101780000D01*
X144399414Y-109840000D02*
X144689990Y-109549424D01*
X142670000Y-109840000D02*
X144399414Y-109840000D01*
X148048920Y-108749998D02*
X148054247Y-108749998D01*
X147560002Y-108749998D02*
X148048920Y-108749998D01*
X146330000Y-109980000D02*
X147560002Y-108749998D01*
X151665338Y-140515338D02*
X151658926Y-140515338D01*
X152600000Y-141450000D02*
X151665338Y-140515338D01*
X151658926Y-140515338D02*
X151234662Y-140515338D01*
X167060000Y-133820000D02*
X163208559Y-137671441D01*
D16*
X148930000Y-125420000D02*
X148930000Y-124880000D01*
X148930000Y-124880000D02*
X148900000Y-124850000D01*
D15*
X159160000Y-101520000D02*
X159410000Y-101520000D01*
X159160000Y-101520000D02*
X158349990Y-101520000D01*
X152150000Y-110740000D02*
X152150000Y-114610000D01*
X152150000Y-114610000D02*
X153430000Y-115890000D01*
X153430000Y-115890000D02*
X153430000Y-116730000D01*
X153430000Y-116730000D02*
X153340000Y-116820000D01*
X153429979Y-122146689D02*
X154140000Y-121436668D01*
X153005715Y-122146689D02*
X153429979Y-122146689D01*
X154140000Y-121436668D02*
X154140000Y-119970000D01*
X154140000Y-119970000D02*
X153200000Y-119030000D01*
X153200000Y-119030000D02*
X152920000Y-119030000D01*
X168820000Y-129790000D02*
X166070000Y-129790000D01*
X165489999Y-130370001D02*
X165190000Y-130670000D01*
X166070000Y-129790000D02*
X165489999Y-130370001D01*
X158370000Y-109840062D02*
X158020000Y-110190062D01*
X157740000Y-108440000D02*
X158370000Y-109070000D01*
X158370000Y-109070000D02*
X158370000Y-109840062D01*
X149466790Y-128693210D02*
X149466790Y-126729594D01*
X148400000Y-129760000D02*
X149466790Y-128693210D01*
X149466790Y-126729594D02*
X149466790Y-126305330D01*
X154110000Y-102700000D02*
X152184216Y-102700000D01*
X150645683Y-101157251D02*
X150345684Y-100857252D01*
X150645683Y-101161467D02*
X150645683Y-101157251D01*
X152184216Y-102700000D02*
X150645683Y-101161467D01*
D17*
X138169480Y-136988347D02*
X138169480Y-133866276D01*
X138169480Y-133866276D02*
X138225046Y-133810710D01*
D15*
X147060001Y-106230001D02*
X145030001Y-106230001D01*
X147360000Y-106530000D02*
X147060001Y-106230001D01*
X145030001Y-106230001D02*
X144110000Y-105310000D01*
X144110000Y-105310000D02*
X144000000Y-105200000D01*
X163124273Y-100935727D02*
X163424272Y-100635728D01*
X162540000Y-101520000D02*
X163124273Y-100935727D01*
X164520000Y-143780000D02*
X165860001Y-142439999D01*
X165860001Y-142439999D02*
X166160000Y-142140000D01*
X163930000Y-143780000D02*
X164520000Y-143780000D01*
D17*
X154110000Y-140350000D02*
X153120000Y-140350000D01*
X155260000Y-138460000D02*
X155260000Y-139200000D01*
X155260000Y-139200000D02*
X154110000Y-140350000D01*
D15*
X140504928Y-107515072D02*
X140504928Y-108083206D01*
X141310000Y-106710000D02*
X140504928Y-107515072D01*
X160250000Y-101580000D02*
X160310000Y-101520000D01*
X160250000Y-104120000D02*
X160250000Y-101580000D01*
X159160000Y-101520000D02*
X160310000Y-101520000D01*
X160310000Y-101520000D02*
X162540000Y-101520000D01*
X158390000Y-104120000D02*
X152390000Y-104120000D01*
X158880000Y-104610000D02*
X158390000Y-104120000D01*
X158870000Y-104620000D02*
X158880000Y-104610000D01*
X158870000Y-107200000D02*
X158870000Y-104620000D01*
X159080000Y-107410000D02*
X158870000Y-107200000D01*
X159109998Y-107410000D02*
X159080000Y-107410000D01*
X152390000Y-104120000D02*
X151910000Y-104600000D01*
X151910000Y-104600000D02*
X151910000Y-105500000D01*
X151910000Y-105500000D02*
X151910000Y-105540000D01*
X151910000Y-105540000D02*
X152280000Y-105910000D01*
X152280000Y-105910000D02*
X152600000Y-105910000D01*
X168940000Y-132710002D02*
X168940000Y-137489990D01*
X168940000Y-137489990D02*
X168919990Y-137510000D01*
D17*
X146640000Y-140080000D02*
X145540000Y-140080000D01*
X144370000Y-138910000D02*
X144370000Y-136870000D01*
X145540000Y-140080000D02*
X144370000Y-138910000D01*
D15*
X152190000Y-136010000D02*
X147660000Y-136010000D01*
X153130000Y-135070000D02*
X152190000Y-136010000D01*
X153130000Y-133015736D02*
X153130000Y-135070000D01*
X154560000Y-132010000D02*
X154135736Y-132010000D01*
X154135736Y-132010000D02*
X153130000Y-133015736D01*
D17*
X134400000Y-139650000D02*
X136804956Y-142054956D01*
X136804956Y-142054956D02*
X144665044Y-142054956D01*
X146240001Y-140479999D02*
X146640000Y-140080000D01*
X144665044Y-142054956D02*
X146240001Y-140479999D01*
D15*
X142480000Y-108970000D02*
X143040000Y-108970000D01*
X143040000Y-108970000D02*
X145010000Y-107000000D01*
X140224981Y-110810000D02*
X140760000Y-110274981D01*
X138460000Y-111211432D02*
X138861432Y-110810000D01*
X138460000Y-129300000D02*
X138460000Y-111211432D01*
X138880000Y-129720000D02*
X138460000Y-129300000D01*
X141070000Y-130874949D02*
X139915051Y-129720000D01*
X147920000Y-140210000D02*
X145150000Y-137440000D01*
X138861432Y-110810000D02*
X140224981Y-110810000D01*
X145150000Y-136520000D02*
X142400000Y-133770000D01*
X139915051Y-129720000D02*
X138880000Y-129720000D01*
X145150000Y-137440000D02*
X145150000Y-136520000D01*
X142400000Y-133770000D02*
X141560000Y-133770000D01*
X141560000Y-133770000D02*
X141070000Y-133280000D01*
X141070000Y-133280000D02*
X141070000Y-130874949D01*
X138047537Y-108532421D02*
X138887914Y-107692044D01*
X143760000Y-140800000D02*
X142560000Y-140800000D01*
X141250000Y-135280000D02*
X138047537Y-132077537D01*
X138047537Y-132077537D02*
X138047537Y-108532421D01*
X138887914Y-107692044D02*
X139312178Y-107692044D01*
X141250000Y-139490000D02*
X141250000Y-135280000D01*
X142560000Y-140800000D02*
X141250000Y-139490000D01*
X154630000Y-128170000D02*
X154630000Y-128770000D01*
X154630000Y-128770000D02*
X155360000Y-129500000D01*
X140849989Y-139919032D02*
X141935912Y-141004955D01*
X137647526Y-108246774D02*
X137647526Y-132243226D01*
X138894300Y-107000000D02*
X137647526Y-108246774D01*
X140170000Y-107000000D02*
X138894300Y-107000000D01*
X142629990Y-104540010D02*
X140170000Y-107000000D01*
X141935912Y-141004955D02*
X142235911Y-141304954D01*
X140849989Y-135445689D02*
X140849989Y-139919032D01*
X137647526Y-132243226D02*
X140849989Y-135445689D01*
X144520000Y-104540010D02*
X142629990Y-104540010D01*
X146673016Y-101640000D02*
X145453025Y-102859991D01*
X145453025Y-102859991D02*
X145153026Y-103159990D01*
X148830000Y-101640000D02*
X146673016Y-101640000D01*
X142890000Y-135450000D02*
X142890000Y-135874264D01*
X142890000Y-138720000D02*
X142445000Y-139165000D01*
X142890000Y-135874264D02*
X142890000Y-138720000D01*
X147509999Y-113820001D02*
X147509999Y-123378001D01*
X147820000Y-113510000D02*
X147509999Y-113820001D01*
X147509999Y-123378001D02*
X147520001Y-123388003D01*
X147520001Y-129469999D02*
X146849999Y-130140001D01*
X147520001Y-123388003D02*
X147520001Y-129469999D01*
X146849999Y-130140001D02*
X146550000Y-130440000D01*
X147032761Y-113142761D02*
X147050009Y-113125513D01*
X145749937Y-130704778D02*
X145749937Y-131129042D01*
X145749937Y-129975799D02*
X145749937Y-130704778D01*
X147040011Y-128685725D02*
X145749937Y-129975799D01*
X147032761Y-113142761D02*
X147032761Y-113567025D01*
X147040011Y-113574275D02*
X147040011Y-128685725D01*
X147032761Y-113567025D02*
X147040011Y-113574275D01*
X143510000Y-136130000D02*
X143510000Y-139160000D01*
X145170000Y-128890010D02*
X144680000Y-128400010D01*
X144680000Y-128400010D02*
X144680000Y-124500000D01*
X144680000Y-124500000D02*
X144430000Y-124250000D01*
X144430000Y-115819998D02*
X144430000Y-115395734D01*
X144430000Y-124250000D02*
X144430000Y-115819998D01*
X155170000Y-130170000D02*
X153859999Y-128859999D01*
X153859999Y-128859999D02*
X153460000Y-128460000D01*
X155170000Y-136030000D02*
X155170000Y-130170000D01*
X146280000Y-112656002D02*
X147158001Y-111778001D01*
X146280000Y-113320000D02*
X146280000Y-112656002D01*
X146640000Y-113680000D02*
X146280000Y-113320000D01*
X146640000Y-123265736D02*
X146640000Y-113680000D01*
X146390000Y-123940000D02*
X146390000Y-123515736D01*
X146390000Y-123515736D02*
X146640000Y-123265736D01*
X164480000Y-141320000D02*
X164465000Y-141305000D01*
X151360187Y-107950187D02*
X151184129Y-107950187D01*
X164465000Y-141305000D02*
X155989445Y-132829445D01*
X155989445Y-112579445D02*
X151360187Y-107950187D01*
X155989445Y-132829445D02*
X155989445Y-112579445D01*
X143780000Y-124570000D02*
X143780000Y-119394264D01*
X143780000Y-119394264D02*
X143780000Y-118970000D01*
X144279999Y-125069999D02*
X143780000Y-124570000D01*
X144279999Y-135084299D02*
X144279999Y-125069999D01*
X146665700Y-137470000D02*
X144279999Y-135084299D01*
X159180000Y-137470000D02*
X146665700Y-137470000D01*
X145300000Y-108714274D02*
X145300000Y-108290010D01*
X144725000Y-111005000D02*
X145300000Y-110430000D01*
X145300000Y-110430000D02*
X145300000Y-108714274D01*
X163920000Y-138810000D02*
X163920000Y-138770000D01*
X166400000Y-141290000D02*
X163920000Y-138810000D01*
X143181974Y-107144244D02*
X143181974Y-106719980D01*
X141490000Y-108974790D02*
X143181974Y-107282816D01*
X143050020Y-111100020D02*
X141490000Y-109540000D01*
X143050020Y-125600020D02*
X143050020Y-111100020D01*
X141490000Y-109540000D02*
X141490000Y-108974790D01*
X143181974Y-107282816D02*
X143181974Y-107144244D01*
X143480000Y-126030000D02*
X143050020Y-125600020D01*
X143130000Y-126870000D02*
X143140000Y-126880000D01*
X141089991Y-109705691D02*
X141089991Y-108386147D01*
X143130000Y-126870000D02*
X142350010Y-126090010D01*
X142350010Y-126090010D02*
X142350010Y-110965710D01*
X142436784Y-107039354D02*
X142436784Y-106853193D01*
X142436784Y-106853193D02*
X142436784Y-106428929D01*
X141089991Y-108386147D02*
X142436784Y-107039354D01*
X142350010Y-110965710D02*
X141089991Y-109705691D01*
X150610000Y-91250000D02*
X156865000Y-97505000D01*
X168970000Y-109685736D02*
X168970000Y-110110000D01*
X156865000Y-97505000D02*
X159395727Y-100035727D01*
X159395727Y-100035727D02*
X163883731Y-100035727D01*
X168970000Y-105121996D02*
X168970000Y-109685736D01*
X163883731Y-100035727D02*
X168970000Y-105121996D01*
X152920000Y-94560000D02*
X149640000Y-91280000D01*
X153220000Y-94560000D02*
X152920000Y-94560000D01*
X153467001Y-94807001D02*
X153220000Y-94560000D01*
X149640000Y-91280000D02*
X149640000Y-91270010D01*
X153834264Y-101090000D02*
X156160000Y-98764264D01*
X152050000Y-101090000D02*
X153834264Y-101090000D01*
X156160000Y-98764264D02*
X156160000Y-97490000D01*
X156160000Y-97490000D02*
X154809759Y-96139759D01*
X153472889Y-94807001D02*
X153467001Y-94807001D01*
X154809759Y-96139759D02*
X154805647Y-96139759D01*
X154805647Y-96139759D02*
X153472889Y-94807001D01*
X149771688Y-101308880D02*
X150071687Y-101608879D01*
X149432808Y-100970000D02*
X149771688Y-101308880D01*
X145740000Y-100970000D02*
X149432808Y-100970000D01*
X151190001Y-90380001D02*
X146609999Y-90380001D01*
X146609999Y-90380001D02*
X142879999Y-94110001D01*
X151490000Y-90680000D02*
X151190001Y-90380001D01*
X142879999Y-94110001D02*
X142580000Y-94410000D01*
X158810000Y-96960000D02*
X158320000Y-97450000D01*
X158109272Y-95320728D02*
X158810000Y-96021456D01*
X158810000Y-96021456D02*
X158810000Y-96960000D01*
X138690000Y-104410000D02*
X140410000Y-104410000D01*
X150575736Y-103760000D02*
X151000000Y-103760000D01*
X141430000Y-103760000D02*
X150575736Y-103760000D01*
X138620000Y-102800000D02*
X140470000Y-102800000D01*
X140470000Y-102800000D02*
X141430000Y-103760000D01*
X150330001Y-116530001D02*
X150330001Y-115329999D01*
X150630000Y-116830000D02*
X150330001Y-116530001D01*
X150330001Y-115329999D02*
X150690000Y-114970000D01*
X150690000Y-114970000D02*
X150810000Y-114850000D01*
X150810000Y-114850000D02*
X150820000Y-114850000D01*
X153940000Y-113040000D02*
X152770000Y-111870000D01*
X153940000Y-114280000D02*
X153940000Y-113040000D01*
X153350000Y-114860000D02*
X153930000Y-114280000D01*
X153930000Y-114280000D02*
X153940000Y-114280000D01*
X149920001Y-104553657D02*
X149932028Y-104541630D01*
X149920001Y-117230001D02*
X149920001Y-104553657D01*
X147670011Y-107609999D02*
X147970010Y-107310000D01*
X145720001Y-109560009D02*
X147670011Y-107609999D01*
X145720001Y-119539999D02*
X145720001Y-109560009D01*
X146020000Y-120630000D02*
X146020000Y-119840000D01*
X146020000Y-119840000D02*
X145720001Y-119539999D01*
X145110000Y-118784266D02*
X145110000Y-118360002D01*
X145110000Y-119740022D02*
X145110000Y-118784266D01*
X145110000Y-119740022D02*
X145110000Y-120470000D01*
X145110000Y-120470000D02*
X145130000Y-120490000D01*
X145110000Y-118360002D02*
X145110000Y-118360002D01*
X149300000Y-115910000D02*
X149310010Y-115899990D01*
X149160010Y-115910000D02*
X149300000Y-115910000D01*
X149310010Y-115899990D02*
X149310010Y-104631466D01*
X149310010Y-104631466D02*
X149136413Y-104457869D01*
X147767416Y-105592584D02*
X147755101Y-105580269D01*
X148155100Y-105980268D02*
X147767416Y-105592584D01*
X148710000Y-106535168D02*
X148155100Y-105980268D01*
X148710000Y-116615736D02*
X148710000Y-116340000D01*
X148350000Y-116975736D02*
X148710000Y-116615736D01*
X148350000Y-117400000D02*
X148350000Y-116975736D01*
X148710000Y-116340000D02*
X148710000Y-106535168D01*
X148260000Y-123331456D02*
X150130773Y-125202229D01*
X150130773Y-125202229D02*
X150430772Y-125502228D01*
X150520011Y-107114265D02*
X150520011Y-106690001D01*
X150520011Y-113670011D02*
X150520011Y-107114265D01*
X152290000Y-115440000D02*
X150520011Y-113670011D01*
X152290000Y-124350000D02*
X152290000Y-115440000D01*
X150430772Y-125502228D02*
X151137772Y-125502228D01*
X151137772Y-125502228D02*
X152290000Y-124350000D01*
X149650000Y-130030000D02*
X154592024Y-125087976D01*
X154592024Y-113894692D02*
X154592024Y-113470428D01*
X154592024Y-125087976D02*
X154592024Y-113894692D01*
X155300729Y-113523537D02*
X155300729Y-113099273D01*
X155300729Y-125579271D02*
X155300729Y-113523537D01*
X150260000Y-130620000D02*
X155300729Y-125579271D01*
X152440000Y-130440000D02*
X151429999Y-131450001D01*
X151429999Y-131450001D02*
X151130000Y-131750000D01*
X153520000Y-130440000D02*
X152440000Y-130440000D01*
X157349990Y-112129990D02*
X157349990Y-124225736D01*
X157349990Y-124225736D02*
X157349990Y-124650000D01*
X152450000Y-107230000D02*
X157349990Y-112129990D01*
X152410000Y-133030000D02*
X154170000Y-131270000D01*
X156590000Y-112276288D02*
X156516856Y-112203144D01*
X152722299Y-108408587D02*
X152422300Y-108108588D01*
X156590000Y-130610000D02*
X156590000Y-112276288D01*
X156516856Y-112203144D02*
X152722299Y-108408587D01*
X136950000Y-107990000D02*
X138550000Y-106390000D01*
X138550000Y-106390000D02*
X139930000Y-106390000D01*
X143050000Y-97650000D02*
X144090000Y-96610000D01*
X144090000Y-96610000D02*
X145850000Y-96610000D01*
X165400000Y-107530000D02*
X165400000Y-104255910D01*
X164469665Y-108778624D02*
X165400000Y-107848289D01*
X165400000Y-107848289D02*
X165400000Y-107530000D01*
X152030000Y-94530000D02*
X153410000Y-95910000D01*
X148050000Y-94530000D02*
X152030000Y-94530000D01*
X146640000Y-96490000D02*
X146640000Y-95940000D01*
X146640000Y-95940000D02*
X148050000Y-94530000D01*
X143050000Y-102020747D02*
X142210756Y-102859991D01*
X143050000Y-101160000D02*
X143050000Y-102020747D01*
X142210756Y-102859991D02*
X141910757Y-103159990D01*
X156650000Y-95170000D02*
X156079999Y-94599999D01*
X156079999Y-94599999D02*
X155780000Y-94300000D01*
X156650000Y-96420000D02*
X156650000Y-95170000D01*
D18*
G36*
X168235000Y-105426443D02*
G01*
X168235001Y-107607763D01*
X168085773Y-107458535D01*
X167834363Y-107290548D01*
X167555011Y-107174836D01*
X167258452Y-107115847D01*
X166956084Y-107115847D01*
X166793490Y-107148189D01*
X166135000Y-106467251D01*
X166135000Y-104838861D01*
X166228586Y-104698799D01*
X166299068Y-104528639D01*
X166335000Y-104347999D01*
X166335000Y-104163821D01*
X166299068Y-103983181D01*
X166228586Y-103813021D01*
X166126262Y-103659882D01*
X165996028Y-103529648D01*
X165842889Y-103427324D01*
X165672729Y-103356842D01*
X165492089Y-103320910D01*
X165307911Y-103320910D01*
X165127271Y-103356842D01*
X164957111Y-103427324D01*
X164803972Y-103529648D01*
X164673738Y-103659882D01*
X164571414Y-103813021D01*
X164500932Y-103983181D01*
X164465000Y-104163821D01*
X164465000Y-104347999D01*
X164500932Y-104528639D01*
X164571414Y-104698799D01*
X164665001Y-104838862D01*
X164665000Y-106893230D01*
X163814411Y-106818813D01*
X163689334Y-106820177D01*
X163566927Y-106845917D01*
X163451893Y-106895042D01*
X163348654Y-106965666D01*
X163261176Y-107055073D01*
X163192822Y-107159828D01*
X163146218Y-107275906D01*
X163123155Y-107398845D01*
X162966275Y-109191995D01*
X162967639Y-109317072D01*
X162989255Y-109419865D01*
X162950118Y-109517344D01*
X162927055Y-109640283D01*
X162770175Y-111433433D01*
X162771539Y-111558510D01*
X162797279Y-111680917D01*
X162846404Y-111795951D01*
X162917028Y-111899190D01*
X162934498Y-111916283D01*
X162663884Y-113779353D01*
X162640073Y-113814128D01*
X162635192Y-113823155D01*
X162451942Y-114167797D01*
X162426546Y-114229413D01*
X162400313Y-114290618D01*
X162397278Y-114300421D01*
X162284460Y-114674093D01*
X162271512Y-114739485D01*
X162257671Y-114804601D01*
X162256598Y-114814807D01*
X162218508Y-115203276D01*
X162218508Y-115203288D01*
X162215001Y-115238896D01*
X162215000Y-125311105D01*
X162218161Y-125343195D01*
X162218074Y-125355580D01*
X162219075Y-125365793D01*
X162259876Y-125753986D01*
X162273277Y-125819268D01*
X162285755Y-125884678D01*
X162288720Y-125894502D01*
X162404144Y-126267377D01*
X162429988Y-126328857D01*
X162454915Y-126390554D01*
X162459732Y-126399615D01*
X162645383Y-126742970D01*
X162682653Y-126798225D01*
X162719113Y-126853942D01*
X162725599Y-126861895D01*
X162974405Y-127162649D01*
X163021712Y-127209627D01*
X163068283Y-127257184D01*
X163076190Y-127263726D01*
X163378675Y-127510427D01*
X163434183Y-127547306D01*
X163489128Y-127584928D01*
X163498155Y-127589809D01*
X163842796Y-127773059D01*
X163904426Y-127798461D01*
X163965618Y-127824688D01*
X163975421Y-127827723D01*
X164349093Y-127940541D01*
X164414460Y-127953484D01*
X164479601Y-127967330D01*
X164489807Y-127968403D01*
X164878276Y-128006493D01*
X164878277Y-128006493D01*
X164913895Y-128010001D01*
X167914053Y-128010001D01*
X168195021Y-128037550D01*
X168430712Y-128108709D01*
X168648089Y-128224292D01*
X168838879Y-128379896D01*
X168995811Y-128569594D01*
X169112906Y-128786158D01*
X169185709Y-129021345D01*
X169215001Y-129300038D01*
X169215001Y-131811875D01*
X169212729Y-131810934D01*
X169032089Y-131775002D01*
X168847911Y-131775002D01*
X168667271Y-131810934D01*
X168497111Y-131881416D01*
X168343972Y-131983740D01*
X168213738Y-132113974D01*
X168111414Y-132267113D01*
X168040932Y-132437273D01*
X168005000Y-132617913D01*
X168005000Y-132802091D01*
X168040932Y-132982731D01*
X168111414Y-133152891D01*
X168205000Y-133292953D01*
X168205001Y-136902699D01*
X168193728Y-136913972D01*
X168091404Y-137067111D01*
X168020922Y-137237271D01*
X167984990Y-137417911D01*
X167984990Y-137602089D01*
X168020922Y-137782729D01*
X168091404Y-137952889D01*
X168193728Y-138106028D01*
X168323962Y-138236262D01*
X168477101Y-138338586D01*
X168647261Y-138409068D01*
X168827901Y-138445000D01*
X169012079Y-138445000D01*
X169192719Y-138409068D01*
X169215000Y-138399839D01*
X169215000Y-147040001D01*
X130685000Y-147040001D01*
X130685000Y-145638212D01*
X131065000Y-145638212D01*
X131065000Y-145861788D01*
X131108617Y-146081067D01*
X131194176Y-146287624D01*
X131318388Y-146473520D01*
X131476480Y-146631612D01*
X131662376Y-146755824D01*
X131868933Y-146841383D01*
X132088212Y-146885000D01*
X132311788Y-146885000D01*
X132531067Y-146841383D01*
X132737624Y-146755824D01*
X132923520Y-146631612D01*
X133081612Y-146473520D01*
X133205824Y-146287624D01*
X133291383Y-146081067D01*
X133335000Y-145861788D01*
X133335000Y-145638212D01*
X133291383Y-145418933D01*
X133205824Y-145212376D01*
X133081612Y-145026480D01*
X132923520Y-144868388D01*
X132737624Y-144744176D01*
X132531067Y-144658617D01*
X132311788Y-144615000D01*
X132088212Y-144615000D01*
X131868933Y-144658617D01*
X131662376Y-144744176D01*
X131476480Y-144868388D01*
X131318388Y-145026480D01*
X131194176Y-145212376D01*
X131108617Y-145418933D01*
X131065000Y-145638212D01*
X130685000Y-145638212D01*
X130685000Y-129310948D01*
X130712549Y-129029980D01*
X130783708Y-128794289D01*
X130899291Y-128576912D01*
X131054895Y-128386122D01*
X131244593Y-128229190D01*
X131461157Y-128112095D01*
X131696344Y-128039292D01*
X131975028Y-128010001D01*
X134986105Y-128010001D01*
X135018194Y-128006840D01*
X135030579Y-128006927D01*
X135040792Y-128005926D01*
X135428985Y-127965125D01*
X135494267Y-127951724D01*
X135559677Y-127939246D01*
X135569501Y-127936281D01*
X135942376Y-127820857D01*
X136003856Y-127795013D01*
X136065553Y-127770086D01*
X136074614Y-127765269D01*
X136417969Y-127579618D01*
X136473224Y-127542348D01*
X136528941Y-127505888D01*
X136536894Y-127499402D01*
X136837648Y-127250596D01*
X136884626Y-127203289D01*
X136912527Y-127175967D01*
X136912527Y-132207111D01*
X136908970Y-132243226D01*
X136923161Y-132387311D01*
X136958618Y-132504194D01*
X136965190Y-132525859D01*
X137033440Y-132653546D01*
X137125289Y-132765464D01*
X137153334Y-132788480D01*
X138814096Y-134449242D01*
X138842045Y-141054533D01*
X138771171Y-141169956D01*
X137171535Y-141169956D01*
X135406535Y-139404957D01*
X135395226Y-139348102D01*
X135317205Y-139159744D01*
X135203937Y-138990226D01*
X135059774Y-138846063D01*
X134890256Y-138732795D01*
X134701898Y-138654774D01*
X134501939Y-138615000D01*
X134298061Y-138615000D01*
X134098102Y-138654774D01*
X133909744Y-138732795D01*
X133740226Y-138846063D01*
X133596063Y-138990226D01*
X133482795Y-139159744D01*
X133404774Y-139348102D01*
X133365000Y-139548061D01*
X133365000Y-139751939D01*
X133404774Y-139951898D01*
X133482795Y-140140256D01*
X133596063Y-140309774D01*
X133740226Y-140453937D01*
X133909744Y-140567205D01*
X134098102Y-140645226D01*
X134154957Y-140656535D01*
X136148426Y-142650005D01*
X136176139Y-142683773D01*
X136209907Y-142711486D01*
X136209909Y-142711488D01*
X136281408Y-142770166D01*
X136310897Y-142794367D01*
X136464643Y-142876545D01*
X136631466Y-142927151D01*
X136761479Y-142939956D01*
X136761489Y-142939956D01*
X136804955Y-142944237D01*
X136848421Y-142939956D01*
X144621575Y-142939956D01*
X144665044Y-142944237D01*
X144708513Y-142939956D01*
X144708521Y-142939956D01*
X144838534Y-142927151D01*
X145005357Y-142876545D01*
X145159103Y-142794367D01*
X145293861Y-142683773D01*
X145321578Y-142650000D01*
X146885044Y-141086535D01*
X146941898Y-141075226D01*
X147130256Y-140997205D01*
X147282913Y-140895203D01*
X147323972Y-140936262D01*
X147477111Y-141038586D01*
X147647271Y-141109068D01*
X147827911Y-141145000D01*
X148012089Y-141145000D01*
X148192729Y-141109068D01*
X148362889Y-141038586D01*
X148516028Y-140936262D01*
X148646262Y-140806028D01*
X148748586Y-140652889D01*
X148819068Y-140482729D01*
X148830899Y-140423249D01*
X150299662Y-140423249D01*
X150299662Y-140607427D01*
X150335594Y-140788067D01*
X150406076Y-140958227D01*
X150508400Y-141111366D01*
X150638634Y-141241600D01*
X150791773Y-141343924D01*
X150961933Y-141414406D01*
X151142573Y-141450338D01*
X151326751Y-141450338D01*
X151507391Y-141414406D01*
X151519814Y-141409260D01*
X151708115Y-141597561D01*
X151653972Y-141633738D01*
X151523738Y-141763972D01*
X151421414Y-141917111D01*
X151350932Y-142087271D01*
X151315000Y-142267911D01*
X151315000Y-142452089D01*
X151350932Y-142632729D01*
X151421414Y-142802889D01*
X151523738Y-142956028D01*
X151653972Y-143086262D01*
X151807111Y-143188586D01*
X151977271Y-143259068D01*
X152157911Y-143295000D01*
X152342089Y-143295000D01*
X152522729Y-143259068D01*
X152692889Y-143188586D01*
X152846028Y-143086262D01*
X152976262Y-142956028D01*
X153078586Y-142802889D01*
X153149068Y-142632729D01*
X153184036Y-142456938D01*
X153214087Y-142420320D01*
X153252172Y-142349068D01*
X153282337Y-142292634D01*
X153314987Y-142185000D01*
X158177049Y-142185000D01*
X158317111Y-142278586D01*
X158487271Y-142349068D01*
X158667911Y-142385000D01*
X158852089Y-142385000D01*
X159032729Y-142349068D01*
X159202889Y-142278586D01*
X159356028Y-142176262D01*
X159486262Y-142046028D01*
X159588586Y-141892889D01*
X159659068Y-141722729D01*
X159695000Y-141542089D01*
X159695000Y-141357911D01*
X159659068Y-141177271D01*
X159588586Y-141007111D01*
X159486262Y-140853972D01*
X159356028Y-140723738D01*
X159202889Y-140621414D01*
X159032729Y-140550932D01*
X158852089Y-140515000D01*
X158667911Y-140515000D01*
X158487271Y-140550932D01*
X158317111Y-140621414D01*
X158177049Y-140715000D01*
X152904447Y-140715000D01*
X152210596Y-140021150D01*
X152187576Y-139993100D01*
X152075658Y-139901251D01*
X151947971Y-139833001D01*
X151842673Y-139801059D01*
X151830690Y-139789076D01*
X151677551Y-139686752D01*
X151507391Y-139616270D01*
X151326751Y-139580338D01*
X151142573Y-139580338D01*
X150961933Y-139616270D01*
X150791773Y-139686752D01*
X150638634Y-139789076D01*
X150508400Y-139919310D01*
X150406076Y-140072449D01*
X150335594Y-140242609D01*
X150299662Y-140423249D01*
X148830899Y-140423249D01*
X148855000Y-140302089D01*
X148855000Y-140117911D01*
X148819068Y-139937271D01*
X148748586Y-139767111D01*
X148646262Y-139613972D01*
X148608106Y-139575816D01*
X151082065Y-138205000D01*
X158597049Y-138205000D01*
X158737111Y-138298586D01*
X158907271Y-138369068D01*
X159087911Y-138405000D01*
X159272089Y-138405000D01*
X159452729Y-138369068D01*
X159622889Y-138298586D01*
X159776028Y-138196262D01*
X159906262Y-138066028D01*
X160008586Y-137912889D01*
X160015866Y-137895313D01*
X163533069Y-141412516D01*
X163565932Y-141577729D01*
X163636414Y-141747889D01*
X163738738Y-141901028D01*
X163868972Y-142031262D01*
X164022111Y-142133586D01*
X164192271Y-142204068D01*
X164372911Y-142240000D01*
X164557089Y-142240000D01*
X164737729Y-142204068D01*
X164907889Y-142133586D01*
X165061028Y-142031262D01*
X165191262Y-141901028D01*
X165293586Y-141747889D01*
X165364068Y-141577729D01*
X165400000Y-141397089D01*
X165400000Y-141329447D01*
X165468069Y-141397515D01*
X165500932Y-141562729D01*
X165571414Y-141732889D01*
X165673738Y-141886028D01*
X165803972Y-142016262D01*
X165957111Y-142118586D01*
X166127271Y-142189068D01*
X166307911Y-142225000D01*
X166492089Y-142225000D01*
X166672729Y-142189068D01*
X166842889Y-142118586D01*
X166996028Y-142016262D01*
X167126262Y-141886028D01*
X167228586Y-141732889D01*
X167299068Y-141562729D01*
X167335000Y-141382089D01*
X167335000Y-141197911D01*
X167299068Y-141017271D01*
X167228586Y-140847111D01*
X167126262Y-140693972D01*
X166996028Y-140563738D01*
X166842889Y-140461414D01*
X166672729Y-140390932D01*
X166507515Y-140358069D01*
X164855000Y-138705554D01*
X164855000Y-138677911D01*
X164819068Y-138497271D01*
X164748586Y-138327111D01*
X164646262Y-138173972D01*
X164516028Y-138043738D01*
X164362889Y-137941414D01*
X164192729Y-137870932D01*
X164072441Y-137847005D01*
X167167515Y-134751931D01*
X167332729Y-134719068D01*
X167502889Y-134648586D01*
X167656028Y-134546262D01*
X167786262Y-134416028D01*
X167888586Y-134262889D01*
X167959068Y-134092729D01*
X167995000Y-133912089D01*
X167995000Y-133727911D01*
X167959068Y-133547271D01*
X167888586Y-133377111D01*
X167786262Y-133223972D01*
X167656028Y-133093738D01*
X167502889Y-132991414D01*
X167332729Y-132920932D01*
X167152089Y-132885000D01*
X166967911Y-132885000D01*
X166787271Y-132920932D01*
X166617111Y-132991414D01*
X166463972Y-133093738D01*
X166360635Y-133197075D01*
X165887342Y-132933916D01*
X161685000Y-128620537D01*
X161685000Y-111738895D01*
X161681942Y-111707850D01*
X161681963Y-111704895D01*
X161680962Y-111694682D01*
X161675930Y-111646807D01*
X161674365Y-111630915D01*
X161674204Y-111630385D01*
X161670762Y-111597634D01*
X161657356Y-111532326D01*
X161644881Y-111466933D01*
X161641916Y-111457109D01*
X161613059Y-111363890D01*
X161587219Y-111302420D01*
X161562293Y-111240725D01*
X161557476Y-111231664D01*
X161511064Y-111145825D01*
X161473798Y-111090576D01*
X161437331Y-111034848D01*
X161430845Y-111026895D01*
X161368643Y-110951706D01*
X161321351Y-110904743D01*
X161274762Y-110857168D01*
X161266860Y-110850631D01*
X161266858Y-110850629D01*
X161266855Y-110850627D01*
X161256669Y-110842319D01*
X161277301Y-110833773D01*
X161563360Y-110642634D01*
X161806633Y-110399361D01*
X161997772Y-110113302D01*
X162129430Y-109795451D01*
X162196549Y-109458021D01*
X162196549Y-109113981D01*
X162129430Y-108776551D01*
X161997772Y-108458700D01*
X161806633Y-108172641D01*
X161563360Y-107929368D01*
X161277301Y-107738229D01*
X160959450Y-107606571D01*
X160622020Y-107539452D01*
X160277980Y-107539452D01*
X160027662Y-107589243D01*
X160044998Y-107502089D01*
X160044998Y-107317911D01*
X160009066Y-107137271D01*
X159938584Y-106967111D01*
X159836260Y-106813972D01*
X159706026Y-106683738D01*
X159605000Y-106616235D01*
X159605000Y-104747638D01*
X159618556Y-104610000D01*
X159604365Y-104465915D01*
X159602950Y-104461250D01*
X159865840Y-102007608D01*
X160901888Y-100770727D01*
X163579285Y-100770727D01*
X168235000Y-105426443D01*
X168235000Y-105426443D01*
G37*
X168235000Y-105426443D02*
X168235001Y-107607763D01*
X168085773Y-107458535D01*
X167834363Y-107290548D01*
X167555011Y-107174836D01*
X167258452Y-107115847D01*
X166956084Y-107115847D01*
X166793490Y-107148189D01*
X166135000Y-106467251D01*
X166135000Y-104838861D01*
X166228586Y-104698799D01*
X166299068Y-104528639D01*
X166335000Y-104347999D01*
X166335000Y-104163821D01*
X166299068Y-103983181D01*
X166228586Y-103813021D01*
X166126262Y-103659882D01*
X165996028Y-103529648D01*
X165842889Y-103427324D01*
X165672729Y-103356842D01*
X165492089Y-103320910D01*
X165307911Y-103320910D01*
X165127271Y-103356842D01*
X164957111Y-103427324D01*
X164803972Y-103529648D01*
X164673738Y-103659882D01*
X164571414Y-103813021D01*
X164500932Y-103983181D01*
X164465000Y-104163821D01*
X164465000Y-104347999D01*
X164500932Y-104528639D01*
X164571414Y-104698799D01*
X164665001Y-104838862D01*
X164665000Y-106893230D01*
X163814411Y-106818813D01*
X163689334Y-106820177D01*
X163566927Y-106845917D01*
X163451893Y-106895042D01*
X163348654Y-106965666D01*
X163261176Y-107055073D01*
X163192822Y-107159828D01*
X163146218Y-107275906D01*
X163123155Y-107398845D01*
X162966275Y-109191995D01*
X162967639Y-109317072D01*
X162989255Y-109419865D01*
X162950118Y-109517344D01*
X162927055Y-109640283D01*
X162770175Y-111433433D01*
X162771539Y-111558510D01*
X162797279Y-111680917D01*
X162846404Y-111795951D01*
X162917028Y-111899190D01*
X162934498Y-111916283D01*
X162663884Y-113779353D01*
X162640073Y-113814128D01*
X162635192Y-113823155D01*
X162451942Y-114167797D01*
X162426546Y-114229413D01*
X162400313Y-114290618D01*
X162397278Y-114300421D01*
X162284460Y-114674093D01*
X162271512Y-114739485D01*
X162257671Y-114804601D01*
X162256598Y-114814807D01*
X162218508Y-115203276D01*
X162218508Y-115203288D01*
X162215001Y-115238896D01*
X162215000Y-125311105D01*
X162218161Y-125343195D01*
X162218074Y-125355580D01*
X162219075Y-125365793D01*
X162259876Y-125753986D01*
X162273277Y-125819268D01*
X162285755Y-125884678D01*
X162288720Y-125894502D01*
X162404144Y-126267377D01*
X162429988Y-126328857D01*
X162454915Y-126390554D01*
X162459732Y-126399615D01*
X162645383Y-126742970D01*
X162682653Y-126798225D01*
X162719113Y-126853942D01*
X162725599Y-126861895D01*
X162974405Y-127162649D01*
X163021712Y-127209627D01*
X163068283Y-127257184D01*
X163076190Y-127263726D01*
X163378675Y-127510427D01*
X163434183Y-127547306D01*
X163489128Y-127584928D01*
X163498155Y-127589809D01*
X163842796Y-127773059D01*
X163904426Y-127798461D01*
X163965618Y-127824688D01*
X163975421Y-127827723D01*
X164349093Y-127940541D01*
X164414460Y-127953484D01*
X164479601Y-127967330D01*
X164489807Y-127968403D01*
X164878276Y-128006493D01*
X164878277Y-128006493D01*
X164913895Y-128010001D01*
X167914053Y-128010001D01*
X168195021Y-128037550D01*
X168430712Y-128108709D01*
X168648089Y-128224292D01*
X168838879Y-128379896D01*
X168995811Y-128569594D01*
X169112906Y-128786158D01*
X169185709Y-129021345D01*
X169215001Y-129300038D01*
X169215001Y-131811875D01*
X169212729Y-131810934D01*
X169032089Y-131775002D01*
X168847911Y-131775002D01*
X168667271Y-131810934D01*
X168497111Y-131881416D01*
X168343972Y-131983740D01*
X168213738Y-132113974D01*
X168111414Y-132267113D01*
X168040932Y-132437273D01*
X168005000Y-132617913D01*
X168005000Y-132802091D01*
X168040932Y-132982731D01*
X168111414Y-133152891D01*
X168205000Y-133292953D01*
X168205001Y-136902699D01*
X168193728Y-136913972D01*
X168091404Y-137067111D01*
X168020922Y-137237271D01*
X167984990Y-137417911D01*
X167984990Y-137602089D01*
X168020922Y-137782729D01*
X168091404Y-137952889D01*
X168193728Y-138106028D01*
X168323962Y-138236262D01*
X168477101Y-138338586D01*
X168647261Y-138409068D01*
X168827901Y-138445000D01*
X169012079Y-138445000D01*
X169192719Y-138409068D01*
X169215000Y-138399839D01*
X169215000Y-147040001D01*
X130685000Y-147040001D01*
X130685000Y-145638212D01*
X131065000Y-145638212D01*
X131065000Y-145861788D01*
X131108617Y-146081067D01*
X131194176Y-146287624D01*
X131318388Y-146473520D01*
X131476480Y-146631612D01*
X131662376Y-146755824D01*
X131868933Y-146841383D01*
X132088212Y-146885000D01*
X132311788Y-146885000D01*
X132531067Y-146841383D01*
X132737624Y-146755824D01*
X132923520Y-146631612D01*
X133081612Y-146473520D01*
X133205824Y-146287624D01*
X133291383Y-146081067D01*
X133335000Y-145861788D01*
X133335000Y-145638212D01*
X133291383Y-145418933D01*
X133205824Y-145212376D01*
X133081612Y-145026480D01*
X132923520Y-144868388D01*
X132737624Y-144744176D01*
X132531067Y-144658617D01*
X132311788Y-144615000D01*
X132088212Y-144615000D01*
X131868933Y-144658617D01*
X131662376Y-144744176D01*
X131476480Y-144868388D01*
X131318388Y-145026480D01*
X131194176Y-145212376D01*
X131108617Y-145418933D01*
X131065000Y-145638212D01*
X130685000Y-145638212D01*
X130685000Y-129310948D01*
X130712549Y-129029980D01*
X130783708Y-128794289D01*
X130899291Y-128576912D01*
X131054895Y-128386122D01*
X131244593Y-128229190D01*
X131461157Y-128112095D01*
X131696344Y-128039292D01*
X131975028Y-128010001D01*
X134986105Y-128010001D01*
X135018194Y-128006840D01*
X135030579Y-128006927D01*
X135040792Y-128005926D01*
X135428985Y-127965125D01*
X135494267Y-127951724D01*
X135559677Y-127939246D01*
X135569501Y-127936281D01*
X135942376Y-127820857D01*
X136003856Y-127795013D01*
X136065553Y-127770086D01*
X136074614Y-127765269D01*
X136417969Y-127579618D01*
X136473224Y-127542348D01*
X136528941Y-127505888D01*
X136536894Y-127499402D01*
X136837648Y-127250596D01*
X136884626Y-127203289D01*
X136912527Y-127175967D01*
X136912527Y-132207111D01*
X136908970Y-132243226D01*
X136923161Y-132387311D01*
X136958618Y-132504194D01*
X136965190Y-132525859D01*
X137033440Y-132653546D01*
X137125289Y-132765464D01*
X137153334Y-132788480D01*
X138814096Y-134449242D01*
X138842045Y-141054533D01*
X138771171Y-141169956D01*
X137171535Y-141169956D01*
X135406535Y-139404957D01*
X135395226Y-139348102D01*
X135317205Y-139159744D01*
X135203937Y-138990226D01*
X135059774Y-138846063D01*
X134890256Y-138732795D01*
X134701898Y-138654774D01*
X134501939Y-138615000D01*
X134298061Y-138615000D01*
X134098102Y-138654774D01*
X133909744Y-138732795D01*
X133740226Y-138846063D01*
X133596063Y-138990226D01*
X133482795Y-139159744D01*
X133404774Y-139348102D01*
X133365000Y-139548061D01*
X133365000Y-139751939D01*
X133404774Y-139951898D01*
X133482795Y-140140256D01*
X133596063Y-140309774D01*
X133740226Y-140453937D01*
X133909744Y-140567205D01*
X134098102Y-140645226D01*
X134154957Y-140656535D01*
X136148426Y-142650005D01*
X136176139Y-142683773D01*
X136209907Y-142711486D01*
X136209909Y-142711488D01*
X136281408Y-142770166D01*
X136310897Y-142794367D01*
X136464643Y-142876545D01*
X136631466Y-142927151D01*
X136761479Y-142939956D01*
X136761489Y-142939956D01*
X136804955Y-142944237D01*
X136848421Y-142939956D01*
X144621575Y-142939956D01*
X144665044Y-142944237D01*
X144708513Y-142939956D01*
X144708521Y-142939956D01*
X144838534Y-142927151D01*
X145005357Y-142876545D01*
X145159103Y-142794367D01*
X145293861Y-142683773D01*
X145321578Y-142650000D01*
X146885044Y-141086535D01*
X146941898Y-141075226D01*
X147130256Y-140997205D01*
X147282913Y-140895203D01*
X147323972Y-140936262D01*
X147477111Y-141038586D01*
X147647271Y-141109068D01*
X147827911Y-141145000D01*
X148012089Y-141145000D01*
X148192729Y-141109068D01*
X148362889Y-141038586D01*
X148516028Y-140936262D01*
X148646262Y-140806028D01*
X148748586Y-140652889D01*
X148819068Y-140482729D01*
X148830899Y-140423249D01*
X150299662Y-140423249D01*
X150299662Y-140607427D01*
X150335594Y-140788067D01*
X150406076Y-140958227D01*
X150508400Y-141111366D01*
X150638634Y-141241600D01*
X150791773Y-141343924D01*
X150961933Y-141414406D01*
X151142573Y-141450338D01*
X151326751Y-141450338D01*
X151507391Y-141414406D01*
X151519814Y-141409260D01*
X151708115Y-141597561D01*
X151653972Y-141633738D01*
X151523738Y-141763972D01*
X151421414Y-141917111D01*
X151350932Y-142087271D01*
X151315000Y-142267911D01*
X151315000Y-142452089D01*
X151350932Y-142632729D01*
X151421414Y-142802889D01*
X151523738Y-142956028D01*
X151653972Y-143086262D01*
X151807111Y-143188586D01*
X151977271Y-143259068D01*
X152157911Y-143295000D01*
X152342089Y-143295000D01*
X152522729Y-143259068D01*
X152692889Y-143188586D01*
X152846028Y-143086262D01*
X152976262Y-142956028D01*
X153078586Y-142802889D01*
X153149068Y-142632729D01*
X153184036Y-142456938D01*
X153214087Y-142420320D01*
X153252172Y-142349068D01*
X153282337Y-142292634D01*
X153314987Y-142185000D01*
X158177049Y-142185000D01*
X158317111Y-142278586D01*
X158487271Y-142349068D01*
X158667911Y-142385000D01*
X158852089Y-142385000D01*
X159032729Y-142349068D01*
X159202889Y-142278586D01*
X159356028Y-142176262D01*
X159486262Y-142046028D01*
X159588586Y-141892889D01*
X159659068Y-141722729D01*
X159695000Y-141542089D01*
X159695000Y-141357911D01*
X159659068Y-141177271D01*
X159588586Y-141007111D01*
X159486262Y-140853972D01*
X159356028Y-140723738D01*
X159202889Y-140621414D01*
X159032729Y-140550932D01*
X158852089Y-140515000D01*
X158667911Y-140515000D01*
X158487271Y-140550932D01*
X158317111Y-140621414D01*
X158177049Y-140715000D01*
X152904447Y-140715000D01*
X152210596Y-140021150D01*
X152187576Y-139993100D01*
X152075658Y-139901251D01*
X151947971Y-139833001D01*
X151842673Y-139801059D01*
X151830690Y-139789076D01*
X151677551Y-139686752D01*
X151507391Y-139616270D01*
X151326751Y-139580338D01*
X151142573Y-139580338D01*
X150961933Y-139616270D01*
X150791773Y-139686752D01*
X150638634Y-139789076D01*
X150508400Y-139919310D01*
X150406076Y-140072449D01*
X150335594Y-140242609D01*
X150299662Y-140423249D01*
X148830899Y-140423249D01*
X148855000Y-140302089D01*
X148855000Y-140117911D01*
X148819068Y-139937271D01*
X148748586Y-139767111D01*
X148646262Y-139613972D01*
X148608106Y-139575816D01*
X151082065Y-138205000D01*
X158597049Y-138205000D01*
X158737111Y-138298586D01*
X158907271Y-138369068D01*
X159087911Y-138405000D01*
X159272089Y-138405000D01*
X159452729Y-138369068D01*
X159622889Y-138298586D01*
X159776028Y-138196262D01*
X159906262Y-138066028D01*
X160008586Y-137912889D01*
X160015866Y-137895313D01*
X163533069Y-141412516D01*
X163565932Y-141577729D01*
X163636414Y-141747889D01*
X163738738Y-141901028D01*
X163868972Y-142031262D01*
X164022111Y-142133586D01*
X164192271Y-142204068D01*
X164372911Y-142240000D01*
X164557089Y-142240000D01*
X164737729Y-142204068D01*
X164907889Y-142133586D01*
X165061028Y-142031262D01*
X165191262Y-141901028D01*
X165293586Y-141747889D01*
X165364068Y-141577729D01*
X165400000Y-141397089D01*
X165400000Y-141329447D01*
X165468069Y-141397515D01*
X165500932Y-141562729D01*
X165571414Y-141732889D01*
X165673738Y-141886028D01*
X165803972Y-142016262D01*
X165957111Y-142118586D01*
X166127271Y-142189068D01*
X166307911Y-142225000D01*
X166492089Y-142225000D01*
X166672729Y-142189068D01*
X166842889Y-142118586D01*
X166996028Y-142016262D01*
X167126262Y-141886028D01*
X167228586Y-141732889D01*
X167299068Y-141562729D01*
X167335000Y-141382089D01*
X167335000Y-141197911D01*
X167299068Y-141017271D01*
X167228586Y-140847111D01*
X167126262Y-140693972D01*
X166996028Y-140563738D01*
X166842889Y-140461414D01*
X166672729Y-140390932D01*
X166507515Y-140358069D01*
X164855000Y-138705554D01*
X164855000Y-138677911D01*
X164819068Y-138497271D01*
X164748586Y-138327111D01*
X164646262Y-138173972D01*
X164516028Y-138043738D01*
X164362889Y-137941414D01*
X164192729Y-137870932D01*
X164072441Y-137847005D01*
X167167515Y-134751931D01*
X167332729Y-134719068D01*
X167502889Y-134648586D01*
X167656028Y-134546262D01*
X167786262Y-134416028D01*
X167888586Y-134262889D01*
X167959068Y-134092729D01*
X167995000Y-133912089D01*
X167995000Y-133727911D01*
X167959068Y-133547271D01*
X167888586Y-133377111D01*
X167786262Y-133223972D01*
X167656028Y-133093738D01*
X167502889Y-132991414D01*
X167332729Y-132920932D01*
X167152089Y-132885000D01*
X166967911Y-132885000D01*
X166787271Y-132920932D01*
X166617111Y-132991414D01*
X166463972Y-133093738D01*
X166360635Y-133197075D01*
X165887342Y-132933916D01*
X161685000Y-128620537D01*
X161685000Y-111738895D01*
X161681942Y-111707850D01*
X161681963Y-111704895D01*
X161680962Y-111694682D01*
X161675930Y-111646807D01*
X161674365Y-111630915D01*
X161674204Y-111630385D01*
X161670762Y-111597634D01*
X161657356Y-111532326D01*
X161644881Y-111466933D01*
X161641916Y-111457109D01*
X161613059Y-111363890D01*
X161587219Y-111302420D01*
X161562293Y-111240725D01*
X161557476Y-111231664D01*
X161511064Y-111145825D01*
X161473798Y-111090576D01*
X161437331Y-111034848D01*
X161430845Y-111026895D01*
X161368643Y-110951706D01*
X161321351Y-110904743D01*
X161274762Y-110857168D01*
X161266860Y-110850631D01*
X161266858Y-110850629D01*
X161266855Y-110850627D01*
X161256669Y-110842319D01*
X161277301Y-110833773D01*
X161563360Y-110642634D01*
X161806633Y-110399361D01*
X161997772Y-110113302D01*
X162129430Y-109795451D01*
X162196549Y-109458021D01*
X162196549Y-109113981D01*
X162129430Y-108776551D01*
X161997772Y-108458700D01*
X161806633Y-108172641D01*
X161563360Y-107929368D01*
X161277301Y-107738229D01*
X160959450Y-107606571D01*
X160622020Y-107539452D01*
X160277980Y-107539452D01*
X160027662Y-107589243D01*
X160044998Y-107502089D01*
X160044998Y-107317911D01*
X160009066Y-107137271D01*
X159938584Y-106967111D01*
X159836260Y-106813972D01*
X159706026Y-106683738D01*
X159605000Y-106616235D01*
X159605000Y-104747638D01*
X159618556Y-104610000D01*
X159604365Y-104465915D01*
X159602950Y-104461250D01*
X159865840Y-102007608D01*
X160901888Y-100770727D01*
X163579285Y-100770727D01*
X168235000Y-105426443D01*
G36*
X148747867Y-129772679D02*
G01*
X148715000Y-129937911D01*
X148715000Y-130122089D01*
X148750932Y-130302729D01*
X148821414Y-130472889D01*
X148923738Y-130626028D01*
X149053972Y-130756262D01*
X149207111Y-130858586D01*
X149375717Y-130928424D01*
X149431414Y-131062889D01*
X149533738Y-131216028D01*
X149663972Y-131346262D01*
X149817111Y-131448586D01*
X149987271Y-131519068D01*
X150167911Y-131555000D01*
X150215471Y-131555000D01*
X150195000Y-131657911D01*
X150195000Y-131842089D01*
X150230932Y-132022729D01*
X150301414Y-132192889D01*
X150403738Y-132346028D01*
X150533972Y-132476262D01*
X150687111Y-132578586D01*
X150857271Y-132649068D01*
X151037911Y-132685000D01*
X151222089Y-132685000D01*
X151402729Y-132649068D01*
X151572889Y-132578586D01*
X151598580Y-132561420D01*
X151581414Y-132587111D01*
X151510932Y-132757271D01*
X151475000Y-132937911D01*
X151475000Y-133122089D01*
X151510932Y-133302729D01*
X151581414Y-133472889D01*
X151683738Y-133626028D01*
X151813972Y-133756262D01*
X151967111Y-133858586D01*
X152137271Y-133929068D01*
X152317911Y-133965000D01*
X152395000Y-133965000D01*
X152395001Y-134765552D01*
X151885554Y-135275000D01*
X148242951Y-135275000D01*
X148102889Y-135181414D01*
X147932729Y-135110932D01*
X147752089Y-135075000D01*
X147567911Y-135075000D01*
X147387271Y-135110932D01*
X147217111Y-135181414D01*
X147069494Y-135280048D01*
X146505000Y-134715554D01*
X146505000Y-133592951D01*
X146598586Y-133452889D01*
X146669068Y-133282729D01*
X146705000Y-133102089D01*
X146705000Y-132917911D01*
X146669068Y-132737271D01*
X146598586Y-132567111D01*
X146496262Y-132413972D01*
X146366028Y-132283738D01*
X146212889Y-132181414D01*
X146042729Y-132110932D01*
X145877515Y-132078068D01*
X145859928Y-132060481D01*
X146022666Y-132028110D01*
X146192826Y-131957628D01*
X146345965Y-131855304D01*
X146476199Y-131725070D01*
X146578523Y-131571931D01*
X146649005Y-131401771D01*
X146654834Y-131372465D01*
X146822729Y-131339068D01*
X146992889Y-131268586D01*
X147146028Y-131166262D01*
X147276262Y-131036028D01*
X147378586Y-130882889D01*
X147449068Y-130712729D01*
X147481932Y-130547515D01*
X148014194Y-130015253D01*
X148042239Y-129992237D01*
X148134088Y-129880319D01*
X148202338Y-129752632D01*
X148238279Y-129634150D01*
X148747867Y-129772679D01*
X148747867Y-129772679D01*
G37*
X148747867Y-129772679D02*
X148715000Y-129937911D01*
X148715000Y-130122089D01*
X148750932Y-130302729D01*
X148821414Y-130472889D01*
X148923738Y-130626028D01*
X149053972Y-130756262D01*
X149207111Y-130858586D01*
X149375717Y-130928424D01*
X149431414Y-131062889D01*
X149533738Y-131216028D01*
X149663972Y-131346262D01*
X149817111Y-131448586D01*
X149987271Y-131519068D01*
X150167911Y-131555000D01*
X150215471Y-131555000D01*
X150195000Y-131657911D01*
X150195000Y-131842089D01*
X150230932Y-132022729D01*
X150301414Y-132192889D01*
X150403738Y-132346028D01*
X150533972Y-132476262D01*
X150687111Y-132578586D01*
X150857271Y-132649068D01*
X151037911Y-132685000D01*
X151222089Y-132685000D01*
X151402729Y-132649068D01*
X151572889Y-132578586D01*
X151598580Y-132561420D01*
X151581414Y-132587111D01*
X151510932Y-132757271D01*
X151475000Y-132937911D01*
X151475000Y-133122089D01*
X151510932Y-133302729D01*
X151581414Y-133472889D01*
X151683738Y-133626028D01*
X151813972Y-133756262D01*
X151967111Y-133858586D01*
X152137271Y-133929068D01*
X152317911Y-133965000D01*
X152395000Y-133965000D01*
X152395001Y-134765552D01*
X151885554Y-135275000D01*
X148242951Y-135275000D01*
X148102889Y-135181414D01*
X147932729Y-135110932D01*
X147752089Y-135075000D01*
X147567911Y-135075000D01*
X147387271Y-135110932D01*
X147217111Y-135181414D01*
X147069494Y-135280048D01*
X146505000Y-134715554D01*
X146505000Y-133592951D01*
X146598586Y-133452889D01*
X146669068Y-133282729D01*
X146705000Y-133102089D01*
X146705000Y-132917911D01*
X146669068Y-132737271D01*
X146598586Y-132567111D01*
X146496262Y-132413972D01*
X146366028Y-132283738D01*
X146212889Y-132181414D01*
X146042729Y-132110932D01*
X145877515Y-132078068D01*
X145859928Y-132060481D01*
X146022666Y-132028110D01*
X146192826Y-131957628D01*
X146345965Y-131855304D01*
X146476199Y-131725070D01*
X146578523Y-131571931D01*
X146649005Y-131401771D01*
X146654834Y-131372465D01*
X146822729Y-131339068D01*
X146992889Y-131268586D01*
X147146028Y-131166262D01*
X147276262Y-131036028D01*
X147378586Y-130882889D01*
X147449068Y-130712729D01*
X147481932Y-130547515D01*
X148014194Y-130015253D01*
X148042239Y-129992237D01*
X148134088Y-129880319D01*
X148202338Y-129752632D01*
X148238279Y-129634150D01*
X148747867Y-129772679D01*
G36*
X141537716Y-106701658D02*
G01*
X141595509Y-106841183D01*
X140595799Y-107840893D01*
X140567754Y-107863909D01*
X140531503Y-107908081D01*
X140277301Y-107738229D01*
X140257326Y-107729955D01*
X140314085Y-107724365D01*
X140452633Y-107682337D01*
X140580320Y-107614087D01*
X140692238Y-107522238D01*
X140715259Y-107494188D01*
X141532751Y-106676696D01*
X141537716Y-106701658D01*
X141537716Y-106701658D01*
G37*
X141537716Y-106701658D02*
X141595509Y-106841183D01*
X140595799Y-107840893D01*
X140567754Y-107863909D01*
X140531503Y-107908081D01*
X140277301Y-107738229D01*
X140257326Y-107729955D01*
X140314085Y-107724365D01*
X140452633Y-107682337D01*
X140580320Y-107614087D01*
X140692238Y-107522238D01*
X140715259Y-107494188D01*
X141532751Y-106676696D01*
X141537716Y-106701658D01*
M02*
