%FSLAX45Y45*%
G04 Gerber Fmt 4.5, Leading zero omitted, Abs format (unit mm)*
G04 Created by KiCad (PCBNEW (5.1.4)-1) date 2019-11-07 15:05:30*
%MOMM*%
%LPD*%
G04 APERTURE LIST*
%ADD10C,0.200000*%
%ADD11C,0.300000*%
G04 APERTURE END LIST*
D10*
X15029276Y-8730152D02*
G75*
G02X15933385Y-9036579I-171379J-1992644D01*
G01*
X16995000Y-14727500D02*
G75*
G02X16945000Y-14777500I-50000J0D01*
G01*
X13045000Y-14777500D02*
X16945000Y-14777500D01*
X13954663Y-9129938D02*
X13036475Y-10323582D01*
X12995000Y-12927500D02*
X12995000Y-14727500D01*
X16995000Y-14727500D02*
X16995000Y-12927500D01*
X16953525Y-10323582D02*
G75*
G02X16995000Y-10445524I-158525J-121942D01*
G01*
X16995000Y-11127500D02*
G75*
G02X16795000Y-11327500I-200000J0D01*
G01*
X13895000Y-12877500D02*
X13895000Y-11177500D01*
X16295000Y-12527500D02*
X16295000Y-11527500D01*
X14960724Y-8730151D02*
G75*
G02X15029276Y-8730152I34276J-398529D01*
G01*
X13045000Y-14777500D02*
G75*
G02X12995000Y-14727500I0J50000D01*
G01*
X12995000Y-10445524D02*
X12995000Y-11127500D01*
X15795000Y-12877500D02*
X15795000Y-11177500D01*
X16145000Y-13126400D02*
G75*
G03X16145000Y-13126400I-100000J0D01*
G01*
X15933385Y-9036579D02*
G75*
G02X16035337Y-9129938I-215098J-337243D01*
G01*
X14045000Y-10928600D02*
G75*
G03X14045000Y-10928600I-100000J0D01*
G01*
X16145000Y-10928600D02*
G75*
G03X16145000Y-10928600I-100000J0D01*
G01*
X16953525Y-10323582D02*
X16035337Y-9129938D01*
X16795000Y-12727500D02*
G75*
G02X16995000Y-12927500I0J-200000D01*
G01*
X12995000Y-12927500D02*
G75*
G02X13195000Y-12727500I200000J0D01*
G01*
X13495000Y-11327500D02*
G75*
G02X13695000Y-11527500I0J-200000D01*
G01*
X15845000Y-12927500D02*
G75*
G02X15795000Y-12877500I0J50000D01*
G01*
X16045000Y-12927500D02*
X15845000Y-12927500D01*
X16095000Y-11177500D02*
X16095000Y-12877500D01*
X13945000Y-11127500D02*
X14145000Y-11127500D01*
X14195000Y-12877500D02*
G75*
G02X14145000Y-12927500I-50000J0D01*
G01*
X16295000Y-11527500D02*
G75*
G02X16495000Y-11327500I200000J0D01*
G01*
X13195000Y-11327500D02*
X13495000Y-11327500D01*
X13195000Y-11327500D02*
G75*
G02X12995000Y-11127500I0J200000D01*
G01*
X16495000Y-12727500D02*
G75*
G02X16295000Y-12527500I0J200000D01*
G01*
X13495000Y-12727500D02*
X13195000Y-12727500D01*
X12995000Y-10445524D02*
G75*
G02X13036475Y-10323582I200000J0D01*
G01*
X13954663Y-9129938D02*
G75*
G02X14056615Y-9036579I317050J-243884D01*
G01*
X16795000Y-12727500D02*
X16495000Y-12727500D01*
X15845000Y-11127500D02*
X16045000Y-11127500D01*
X13895000Y-11177500D02*
G75*
G02X13945000Y-11127500I50000J0D01*
G01*
X16495000Y-11327500D02*
X16795000Y-11327500D01*
X13695000Y-12527500D02*
G75*
G02X13495000Y-12727500I-200000J0D01*
G01*
X13695000Y-11527500D02*
X13695000Y-12527500D01*
X14045000Y-13126400D02*
G75*
G03X14045000Y-13126400I-100000J0D01*
G01*
X14145000Y-11127500D02*
G75*
G02X14195000Y-11177500I0J-50000D01*
G01*
X14145000Y-12927500D02*
X13945000Y-12927500D01*
X16095000Y-12877500D02*
G75*
G02X16045000Y-12927500I-50000J0D01*
G01*
X14056615Y-9036579D02*
G75*
G02X14960724Y-8730152I1075488J-1686216D01*
G01*
X14195000Y-11177500D02*
X14195000Y-12877500D01*
X16045000Y-11127500D02*
G75*
G02X16095000Y-11177500I0J-50000D01*
G01*
X15795000Y-11177500D02*
G75*
G02X15845000Y-11127500I50000J0D01*
G01*
X13945000Y-12927500D02*
G75*
G02X13895000Y-12877500I0J50000D01*
G01*
X16995000Y-11127500D02*
X16995000Y-10445524D01*
D10*
X13075000Y-13152000D02*
X13105000Y-13182000D01*
X13105000Y-13152000D02*
X13075000Y-13182000D01*
X13088000Y-12896000D02*
X13118000Y-12926000D01*
X13118000Y-12896000D02*
X13088000Y-12926000D01*
X13267000Y-14295000D02*
X13297000Y-14325000D01*
X13297000Y-14295000D02*
X13267000Y-14325000D01*
X13270000Y-14434000D02*
X13300000Y-14464000D01*
X13300000Y-14434000D02*
X13270000Y-14464000D01*
X13305000Y-12803000D02*
X13335000Y-12833000D01*
X13335000Y-12803000D02*
X13305000Y-12833000D01*
X13311000Y-14663000D02*
X13341000Y-14693000D01*
X13341000Y-14663000D02*
X13311000Y-14693000D01*
X13384000Y-14068000D02*
X13414000Y-14098000D01*
X13414000Y-14068000D02*
X13384000Y-14098000D01*
X13443000Y-14664000D02*
X13473000Y-14694000D01*
X13473000Y-14664000D02*
X13443000Y-14694000D01*
X13515000Y-12812000D02*
X13545000Y-12842000D01*
X13545000Y-12812000D02*
X13515000Y-12842000D01*
X13518000Y-13857000D02*
X13548000Y-13887000D01*
X13548000Y-13857000D02*
X13518000Y-13887000D01*
X13601000Y-14667000D02*
X13631000Y-14697000D01*
X13631000Y-14667000D02*
X13601000Y-14697000D01*
X13680000Y-10784000D02*
X13710000Y-10814000D01*
X13710000Y-10784000D02*
X13680000Y-10814000D01*
X13731000Y-14072000D02*
X13761000Y-14102000D01*
X13761000Y-14072000D02*
X13731000Y-14102000D01*
X13770000Y-14667000D02*
X13800000Y-14697000D01*
X13800000Y-14667000D02*
X13770000Y-14697000D01*
X13847000Y-10265000D02*
X13877000Y-10295000D01*
X13877000Y-10265000D02*
X13847000Y-10295000D01*
X13854000Y-10426000D02*
X13884000Y-10456000D01*
X13884000Y-10426000D02*
X13854000Y-10456000D01*
X13916218Y-10754204D02*
X13946218Y-10784204D01*
X13946218Y-10754204D02*
X13916218Y-10784204D01*
X13978000Y-10624000D02*
X14008000Y-10654000D01*
X14008000Y-10624000D02*
X13978000Y-10654000D01*
X13991000Y-13951000D02*
X14021000Y-13981000D01*
X14021000Y-13951000D02*
X13991000Y-13981000D01*
X14009000Y-13711000D02*
X14039000Y-13741000D01*
X14039000Y-13711000D02*
X14009000Y-13741000D01*
X14026000Y-10426000D02*
X14056000Y-10456000D01*
X14056000Y-10426000D02*
X14026000Y-10456000D01*
X14035493Y-10793321D02*
X14065493Y-10823321D01*
X14065493Y-10793321D02*
X14035493Y-10823321D01*
X14061000Y-11012498D02*
X14091000Y-11042498D01*
X14091000Y-11012498D02*
X14061000Y-11042498D01*
X14116000Y-10656000D02*
X14146000Y-10686000D01*
X14146000Y-10656000D02*
X14116000Y-10686000D01*
X14176076Y-10300999D02*
X14206076Y-10330999D01*
X14206076Y-10300999D02*
X14176076Y-10330999D01*
X14186000Y-13274000D02*
X14216000Y-13304000D01*
X14216000Y-13274000D02*
X14186000Y-13304000D01*
X14208591Y-14115495D02*
X14238591Y-14145495D01*
X14238591Y-14115495D02*
X14208591Y-14145495D01*
X14228678Y-10627893D02*
X14258678Y-10657893D01*
X14258678Y-10627893D02*
X14228678Y-10657893D01*
X14229500Y-13901500D02*
X14259500Y-13931500D01*
X14259500Y-13901500D02*
X14229500Y-13931500D01*
X14233000Y-10882000D02*
X14263000Y-10912000D01*
X14263000Y-10882000D02*
X14233000Y-10912000D01*
X14243000Y-9426000D02*
X14273000Y-9456000D01*
X14273000Y-9426000D02*
X14243000Y-9456000D01*
X14252000Y-10969000D02*
X14282000Y-10999000D01*
X14282000Y-10969000D02*
X14252000Y-10999000D01*
X14274000Y-13530000D02*
X14304000Y-13560000D01*
X14304000Y-13530000D02*
X14274000Y-13560000D01*
X14290000Y-9750000D02*
X14320000Y-9780000D01*
X14320000Y-9750000D02*
X14290000Y-9780000D01*
X14290000Y-10101000D02*
X14320000Y-10131000D01*
X14320000Y-10101000D02*
X14290000Y-10131000D01*
X14298000Y-12672000D02*
X14328000Y-12702000D01*
X14328000Y-12672000D02*
X14298000Y-12702000D01*
X14303197Y-10656998D02*
X14333197Y-10686998D01*
X14333197Y-10656998D02*
X14303197Y-10686998D01*
X14333000Y-12588000D02*
X14363000Y-12618000D01*
X14363000Y-12588000D02*
X14333000Y-12618000D01*
X14336000Y-13598000D02*
X14366000Y-13628000D01*
X14366000Y-13598000D02*
X14336000Y-13628000D01*
X14336000Y-13901000D02*
X14366000Y-13931000D01*
X14366000Y-13901000D02*
X14336000Y-13931000D01*
X14347000Y-13215000D02*
X14377000Y-13245000D01*
X14377000Y-13215000D02*
X14347000Y-13245000D01*
X14361000Y-14065000D02*
X14391000Y-14095000D01*
X14391000Y-14065000D02*
X14361000Y-14095000D01*
X14363000Y-11882000D02*
X14393000Y-11912000D01*
X14393000Y-11882000D02*
X14363000Y-11912000D01*
X14385000Y-10505000D02*
X14415000Y-10535000D01*
X14415000Y-10505000D02*
X14385000Y-10535000D01*
X14428000Y-11524573D02*
X14458000Y-11554573D01*
X14458000Y-11524573D02*
X14428000Y-11554573D01*
X14437000Y-10439001D02*
X14467000Y-10469001D01*
X14467000Y-10439001D02*
X14437000Y-10469001D01*
X14453999Y-10939942D02*
X14483999Y-10969942D01*
X14483999Y-10939942D02*
X14453999Y-10969942D01*
X14457500Y-11085500D02*
X14487500Y-11115500D01*
X14487500Y-11085500D02*
X14457500Y-11115500D01*
X14480000Y-13099000D02*
X14510000Y-13129000D01*
X14510000Y-13099000D02*
X14480000Y-13129000D01*
X14486000Y-10685000D02*
X14516000Y-10715000D01*
X14516000Y-10685000D02*
X14486000Y-10715000D01*
X14496000Y-11821000D02*
X14526000Y-11851000D01*
X14526000Y-11821000D02*
X14496000Y-11851000D01*
X14498000Y-12034000D02*
X14528000Y-12064000D01*
X14528000Y-12034000D02*
X14498000Y-12064000D01*
X14500303Y-10300999D02*
X14530303Y-10330999D01*
X14530303Y-10300999D02*
X14500303Y-10330999D01*
X14502000Y-12874001D02*
X14532000Y-12904001D01*
X14532000Y-12874001D02*
X14502000Y-12904001D01*
X14515000Y-10814001D02*
X14545000Y-10844001D01*
X14545000Y-10814001D02*
X14515000Y-10844001D01*
X14540000Y-12484000D02*
X14570000Y-12514000D01*
X14570000Y-12484000D02*
X14540000Y-12514000D01*
X14559000Y-10082000D02*
X14589000Y-10112000D01*
X14589000Y-10082000D02*
X14559000Y-10112000D01*
X14559994Y-13097904D02*
X14589994Y-13127904D01*
X14589994Y-13097904D02*
X14559994Y-13127904D01*
X14562000Y-13286000D02*
X14592000Y-13316000D01*
X14592000Y-13286000D02*
X14562000Y-13316000D01*
X14586000Y-12676000D02*
X14616000Y-12706000D01*
X14616000Y-12676000D02*
X14586000Y-12706000D01*
X14587000Y-12048000D02*
X14617000Y-12078000D01*
X14617000Y-12048000D02*
X14587000Y-12078000D01*
X14618000Y-10983000D02*
X14648000Y-11013000D01*
X14648000Y-10983000D02*
X14618000Y-11013000D01*
X14624000Y-12379000D02*
X14654000Y-12409000D01*
X14654000Y-12379000D02*
X14624000Y-12409000D01*
X14640000Y-13029000D02*
X14670000Y-13059000D01*
X14670000Y-13029000D02*
X14640000Y-13059000D01*
X14662000Y-13122000D02*
X14692000Y-13152000D01*
X14692000Y-13122000D02*
X14662000Y-13152000D01*
X14688276Y-11299276D02*
X14718276Y-11329276D01*
X14718276Y-11299276D02*
X14688276Y-11329276D01*
X14700800Y-11162800D02*
X14730800Y-11192800D01*
X14730800Y-11162800D02*
X14700800Y-11192800D01*
X14721000Y-10638000D02*
X14751000Y-10668000D01*
X14751000Y-10638000D02*
X14721000Y-10668000D01*
X14751000Y-13586000D02*
X14781000Y-13616000D01*
X14781000Y-13586000D02*
X14751000Y-13616000D01*
X14761742Y-10544258D02*
X14791742Y-10574258D01*
X14791742Y-10544258D02*
X14761742Y-10574258D01*
X14767000Y-11336000D02*
X14797000Y-11366000D01*
X14797000Y-11336000D02*
X14767000Y-11366000D01*
X14777000Y-14006000D02*
X14807000Y-14036000D01*
X14807000Y-14006000D02*
X14777000Y-14036000D01*
X14782001Y-10716000D02*
X14812001Y-10746000D01*
X14812001Y-10716000D02*
X14782001Y-10746000D01*
X14790425Y-10860000D02*
X14820425Y-10890000D01*
X14820425Y-10860000D02*
X14790425Y-10890000D01*
X14795000Y-13154122D02*
X14825000Y-13184122D01*
X14825000Y-13154122D02*
X14795000Y-13184122D01*
X14796000Y-12293000D02*
X14826000Y-12323000D01*
X14826000Y-12293000D02*
X14796000Y-12323000D01*
X14820000Y-11725000D02*
X14850000Y-11755000D01*
X14850000Y-11725000D02*
X14820000Y-11755000D01*
X14825000Y-12751000D02*
X14855000Y-12781000D01*
X14855000Y-12751000D02*
X14825000Y-12781000D01*
X14825000Y-12961000D02*
X14855000Y-12991000D01*
X14855000Y-12961000D02*
X14825000Y-12991000D01*
X14868000Y-10149000D02*
X14898000Y-10179000D01*
X14898000Y-10149000D02*
X14868000Y-10179000D01*
X14898641Y-10430787D02*
X14928641Y-10460787D01*
X14928641Y-10430787D02*
X14898641Y-10460787D01*
X14916001Y-11574999D02*
X14946001Y-11604999D01*
X14946001Y-11574999D02*
X14916001Y-11604999D01*
X14931679Y-12615533D02*
X14961679Y-12645533D01*
X14961679Y-12615533D02*
X14931679Y-12645533D01*
X14949000Y-9112001D02*
X14979000Y-9142001D01*
X14979000Y-9112001D02*
X14949000Y-9142001D01*
X14950000Y-12988000D02*
X14980000Y-13018000D01*
X14980000Y-12988000D02*
X14950000Y-13018000D01*
X14977000Y-11708000D02*
X15007000Y-11738000D01*
X15007000Y-11708000D02*
X14977000Y-11738000D01*
X14978000Y-13660000D02*
X15008000Y-13690000D01*
X15008000Y-13660000D02*
X14978000Y-13690000D01*
X14978203Y-10439163D02*
X15008203Y-10469163D01*
X15008203Y-10439163D02*
X14978203Y-10469163D01*
X14983000Y-13411000D02*
X15013000Y-13441000D01*
X15013000Y-13411000D02*
X14983000Y-13441000D01*
X14992169Y-10145888D02*
X15022169Y-10175888D01*
X15022169Y-10145888D02*
X14992169Y-10175888D01*
X15011000Y-13047000D02*
X15041000Y-13077000D01*
X15041000Y-13047000D02*
X15011000Y-13077000D01*
X15019568Y-10070725D02*
X15049568Y-10100725D01*
X15049568Y-10070725D02*
X15019568Y-10100725D01*
X15028077Y-12535223D02*
X15058077Y-12565223D01*
X15058077Y-12535223D02*
X15028077Y-12565223D01*
X15033356Y-9109207D02*
X15063356Y-9139207D01*
X15063356Y-9109207D02*
X15033356Y-9139207D01*
X15037001Y-10654000D02*
X15067001Y-10684000D01*
X15067001Y-10654000D02*
X15037001Y-10684000D01*
X15048000Y-11668000D02*
X15078000Y-11698000D01*
X15078000Y-11668000D02*
X15048000Y-11698000D01*
X15067000Y-11470000D02*
X15097000Y-11500000D01*
X15097000Y-11470000D02*
X15067000Y-11500000D01*
X15085000Y-10361000D02*
X15115000Y-10391000D01*
X15115000Y-10361000D02*
X15085000Y-10391000D01*
X15098000Y-13160000D02*
X15128000Y-13190000D01*
X15128000Y-13160000D02*
X15098000Y-13190000D01*
X15101576Y-10859999D02*
X15131576Y-10889999D01*
X15131576Y-10859999D02*
X15101576Y-10889999D01*
X15103413Y-10780019D02*
X15133413Y-10810019D01*
X15133413Y-10780019D02*
X15103413Y-10810019D01*
X15108466Y-14036534D02*
X15138466Y-14066534D01*
X15138466Y-14036534D02*
X15108466Y-14066534D01*
X15134000Y-9053000D02*
X15164000Y-9083000D01*
X15164000Y-9053000D02*
X15134000Y-9083000D01*
X15188500Y-13473500D02*
X15218500Y-13503500D01*
X15218500Y-13473500D02*
X15188500Y-13503500D01*
X15190000Y-10094000D02*
X15220000Y-10124000D01*
X15220000Y-10094000D02*
X15190000Y-10124000D01*
X15191000Y-14667000D02*
X15221000Y-14697000D01*
X15221000Y-14667000D02*
X15191000Y-14697000D01*
X15200000Y-11059000D02*
X15230000Y-11089000D01*
X15230000Y-11059000D02*
X15200000Y-11089000D01*
X15200000Y-13918000D02*
X15230000Y-13948000D01*
X15230000Y-13918000D02*
X15200000Y-13948000D01*
X15210000Y-14221000D02*
X15240000Y-14251000D01*
X15240000Y-14221000D02*
X15210000Y-14251000D01*
X15217000Y-12514000D02*
X15247000Y-12544000D01*
X15247000Y-12514000D02*
X15217000Y-12544000D01*
X15226000Y-13288000D02*
X15256000Y-13318000D01*
X15256000Y-13288000D02*
X15226000Y-13318000D01*
X15227230Y-10795859D02*
X15257230Y-10825859D01*
X15257230Y-10795859D02*
X15227230Y-10825859D01*
X15230000Y-10708000D02*
X15260000Y-10738000D01*
X15260000Y-10708000D02*
X15230000Y-10738000D01*
X15245000Y-10576000D02*
X15275000Y-10606000D01*
X15275000Y-10576000D02*
X15245000Y-10606000D01*
X15262000Y-11172000D02*
X15292000Y-11202000D01*
X15292000Y-11172000D02*
X15262000Y-11202000D01*
X15277000Y-11888000D02*
X15307000Y-11918000D01*
X15307000Y-11888000D02*
X15277000Y-11918000D01*
X15285571Y-12199669D02*
X15315571Y-12229669D01*
X15315571Y-12199669D02*
X15285571Y-12229669D01*
X15297000Y-14020000D02*
X15327000Y-14050000D01*
X15327000Y-14020000D02*
X15297000Y-14050000D01*
X15319000Y-11667000D02*
X15349000Y-11697000D01*
X15349000Y-11667000D02*
X15319000Y-11697000D01*
X15320000Y-11471000D02*
X15350000Y-11501000D01*
X15350000Y-11471000D02*
X15320000Y-11501000D01*
X15329000Y-14663000D02*
X15359000Y-14693000D01*
X15359000Y-14663000D02*
X15329000Y-14693000D01*
X15337000Y-13029000D02*
X15367000Y-13059000D01*
X15367000Y-13029000D02*
X15337000Y-13059000D01*
X15396000Y-10255000D02*
X15426000Y-10285000D01*
X15426000Y-10255000D02*
X15396000Y-10285000D01*
X15402000Y-11153000D02*
X15432000Y-11183000D01*
X15432000Y-11153000D02*
X15402000Y-11183000D01*
X15402000Y-13112000D02*
X15432000Y-13142000D01*
X15432000Y-13112000D02*
X15402000Y-13142000D01*
X15441000Y-13186000D02*
X15471000Y-13216000D01*
X15471000Y-13186000D02*
X15441000Y-13216000D01*
X15444202Y-11332043D02*
X15474202Y-11362043D01*
X15474202Y-11332043D02*
X15444202Y-11362043D01*
X15448000Y-12802000D02*
X15478000Y-12832000D01*
X15478000Y-12802000D02*
X15448000Y-12832000D01*
X15478000Y-14663000D02*
X15508000Y-14693000D01*
X15508000Y-14663000D02*
X15478000Y-14693000D01*
X15502000Y-13588000D02*
X15532000Y-13618000D01*
X15532000Y-13588000D02*
X15502000Y-13618000D01*
X15511000Y-13831000D02*
X15541000Y-13861000D01*
X15541000Y-13831000D02*
X15511000Y-13861000D01*
X15515073Y-11294927D02*
X15545073Y-11324927D01*
X15545073Y-11294927D02*
X15515073Y-11324927D01*
X15521000Y-12935000D02*
X15551000Y-12965000D01*
X15551000Y-12935000D02*
X15521000Y-12965000D01*
X15563000Y-9415000D02*
X15593000Y-9445000D01*
X15593000Y-9415000D02*
X15563000Y-9445000D01*
X15644000Y-13046000D02*
X15674000Y-13076000D01*
X15674000Y-13046000D02*
X15644000Y-13076000D01*
X15649000Y-14663000D02*
X15679000Y-14693000D01*
X15679000Y-14663000D02*
X15649000Y-14693000D01*
X15650000Y-9627000D02*
X15680000Y-9657000D01*
X15680000Y-9627000D02*
X15650000Y-9657000D01*
X15659160Y-11002999D02*
X15689160Y-11032999D01*
X15689160Y-11002999D02*
X15659160Y-11032999D01*
X15671500Y-9735500D02*
X15701500Y-9765500D01*
X15701500Y-9735500D02*
X15671500Y-9765500D01*
X15714000Y-10074000D02*
X15744000Y-10104000D01*
X15744000Y-10074000D02*
X15714000Y-10104000D01*
X15719999Y-12450000D02*
X15749999Y-12480000D01*
X15749999Y-12450000D02*
X15719999Y-12480000D01*
X15729241Y-11118434D02*
X15759241Y-11148434D01*
X15759241Y-11118434D02*
X15729241Y-11148434D01*
X15759000Y-10829000D02*
X15789000Y-10859000D01*
X15789000Y-10829000D02*
X15759000Y-10859000D01*
X15776000Y-14012000D02*
X15806000Y-14042000D01*
X15806000Y-14012000D02*
X15776000Y-14042000D01*
X15787000Y-11004006D02*
X15817000Y-11034006D01*
X15817000Y-11004006D02*
X15787000Y-11034006D01*
X15795927Y-9517073D02*
X15825927Y-9547073D01*
X15825927Y-9517073D02*
X15795927Y-9547073D01*
X15817000Y-9730000D02*
X15847000Y-9760000D01*
X15847000Y-9730000D02*
X15817000Y-9760000D01*
X15819999Y-10137000D02*
X15849999Y-10167000D01*
X15849999Y-10137000D02*
X15819999Y-10167000D01*
X15861000Y-14130000D02*
X15891000Y-14160000D01*
X15891000Y-14130000D02*
X15861000Y-14160000D01*
X15896000Y-10726000D02*
X15926000Y-10756000D01*
X15926000Y-10726000D02*
X15896000Y-10756000D01*
X15903000Y-13732000D02*
X15933000Y-13762000D01*
X15933000Y-13732000D02*
X15903000Y-13762000D01*
X16010000Y-10397000D02*
X16040000Y-10427000D01*
X16040000Y-10397000D02*
X16010000Y-10427000D01*
X16243000Y-14440000D02*
X16273000Y-14470000D01*
X16273000Y-14440000D02*
X16243000Y-14470000D01*
X16253000Y-14665000D02*
X16283000Y-14695000D01*
X16283000Y-14665000D02*
X16253000Y-14695000D01*
X16281000Y-10431000D02*
X16311000Y-10461000D01*
X16311000Y-10431000D02*
X16281000Y-10461000D01*
X16305856Y-13898588D02*
X16335856Y-13928588D01*
X16335856Y-13898588D02*
X16305856Y-13928588D01*
X16307000Y-10239000D02*
X16337000Y-10269000D01*
X16337000Y-10239000D02*
X16307000Y-10269000D01*
X16327427Y-10048573D02*
X16357427Y-10078573D01*
X16357427Y-10048573D02*
X16327427Y-10078573D01*
X16362000Y-14666000D02*
X16392000Y-14696000D01*
X16392000Y-14666000D02*
X16362000Y-14696000D01*
X16377000Y-13862000D02*
X16407000Y-13892000D01*
X16407000Y-13862000D02*
X16377000Y-13892000D01*
X16378000Y-14363000D02*
X16408000Y-14393000D01*
X16408000Y-14363000D02*
X16378000Y-14393000D01*
X16424000Y-10360000D02*
X16454000Y-10390000D01*
X16454000Y-10360000D02*
X16424000Y-10390000D01*
X16431500Y-14115500D02*
X16461500Y-14145500D01*
X16461500Y-14115500D02*
X16431500Y-14145500D01*
X16504000Y-13052000D02*
X16534000Y-13082000D01*
X16534000Y-13052000D02*
X16504000Y-13082000D01*
X16525000Y-10410591D02*
X16555000Y-10440591D01*
X16555000Y-10410591D02*
X16525000Y-10440591D01*
X16554000Y-14471000D02*
X16584000Y-14501000D01*
X16584000Y-14471000D02*
X16554000Y-14501000D01*
X16601000Y-14199000D02*
X16631000Y-14229000D01*
X16631000Y-14199000D02*
X16601000Y-14229000D01*
X16625000Y-14114000D02*
X16655000Y-14144000D01*
X16655000Y-14114000D02*
X16625000Y-14144000D01*
X16656000Y-10629000D02*
X16686000Y-10659000D01*
X16686000Y-10629000D02*
X16656000Y-10659000D01*
X16691000Y-13367000D02*
X16721000Y-13397000D01*
X16721000Y-13367000D02*
X16691000Y-13397000D01*
X16791000Y-10548000D02*
X16821000Y-10578000D01*
X16821000Y-10548000D02*
X16791000Y-10578000D01*
X16794000Y-10697000D02*
X16824000Y-10727000D01*
X16824000Y-10697000D02*
X16794000Y-10727000D01*
X16867000Y-12964000D02*
X16897000Y-12994000D01*
X16897000Y-12964000D02*
X16867000Y-12994000D01*
X16876999Y-13736000D02*
X16906999Y-13766000D01*
X16906999Y-13736000D02*
X16876999Y-13766000D01*
X16879000Y-13256000D02*
X16909000Y-13286000D01*
X16909000Y-13256000D02*
X16879000Y-13286000D01*
X16882000Y-10996000D02*
X16912000Y-11026000D01*
X16912000Y-10996000D02*
X16882000Y-11026000D01*
X13460000Y-13965000D02*
G75*
G03X13460000Y-13965000I-20000J0D01*
G01*
X13836948Y-13698835D02*
G75*
G03X13836948Y-13698835I-20000J0D01*
G01*
X13842505Y-13381071D02*
G75*
G03X13842505Y-13381071I-20000J0D01*
G01*
X14457000Y-13687000D02*
G75*
G03X14457000Y-13687000I-20000J0D01*
G01*
X14684000Y-14008000D02*
G75*
G03X14684000Y-14008000I-20000J0D01*
G01*
X15366000Y-12846000D02*
G75*
G03X15366000Y-12846000I-20000J0D01*
G01*
X13291390Y-10826756D02*
X13291390Y-10902956D01*
X13253290Y-10864856D02*
X13329490Y-10864856D01*
X13311000Y-11050900D02*
X13311000Y-11127100D01*
X13272900Y-11089000D02*
X13349100Y-11089000D01*
X13544423Y-10804619D02*
X13544423Y-10880819D01*
X13506323Y-10842719D02*
X13582523Y-10842719D01*
X13564033Y-11028762D02*
X13564033Y-11104962D01*
X13525933Y-11066862D02*
X13602133Y-11066862D01*
X16438083Y-11028991D02*
X16438083Y-11105191D01*
X16399983Y-11067091D02*
X16476183Y-11067091D01*
X16457693Y-10804847D02*
X16457693Y-10881047D01*
X16419593Y-10842947D02*
X16495793Y-10842947D01*
X16691117Y-11051129D02*
X16691117Y-11127329D01*
X16653017Y-11089229D02*
X16729217Y-11089229D01*
X16710727Y-10826985D02*
X16710727Y-10903185D01*
X16672627Y-10865085D02*
X16748827Y-10865085D01*
X13220000Y-14536900D02*
X13220000Y-14613100D01*
X13181900Y-14575000D02*
X13258100Y-14575000D01*
X13345000Y-14536900D02*
X13345000Y-14613100D01*
X13306900Y-14575000D02*
X13383100Y-14575000D01*
X15148409Y-9744023D02*
X15148409Y-9820223D01*
X15110309Y-9782123D02*
X15186509Y-9782123D01*
X15311677Y-9938599D02*
X15311677Y-10014799D01*
X15273577Y-9976699D02*
X15349777Y-9976699D01*
X15320769Y-9599396D02*
X15320769Y-9675596D01*
X15282669Y-9637496D02*
X15358869Y-9637496D01*
X15484037Y-9793971D02*
X15484037Y-9870171D01*
X15445937Y-9832071D02*
X15522137Y-9832071D01*
X14493640Y-9793273D02*
X14493640Y-9869473D01*
X14455540Y-9831373D02*
X14531740Y-9831373D01*
X14656908Y-9598698D02*
X14656908Y-9674898D01*
X14618808Y-9636798D02*
X14695008Y-9636798D01*
X14666000Y-9937900D02*
X14666000Y-10014100D01*
X14627900Y-9976000D02*
X14704100Y-9976000D01*
X14829268Y-9743325D02*
X14829268Y-9819525D01*
X14791168Y-9781425D02*
X14867368Y-9781425D01*
D11*
X13271428Y-15253214D02*
X13271428Y-14953214D01*
X13342857Y-14953214D01*
X13385714Y-14967500D01*
X13414286Y-14996072D01*
X13428571Y-15024643D01*
X13442857Y-15081786D01*
X13442857Y-15124643D01*
X13428571Y-15181786D01*
X13414286Y-15210357D01*
X13385714Y-15238929D01*
X13342857Y-15253214D01*
X13271428Y-15253214D01*
X13571428Y-15253214D02*
X13571428Y-15053214D01*
X13571428Y-15110357D02*
X13585714Y-15081786D01*
X13600000Y-15067500D01*
X13628571Y-15053214D01*
X13657143Y-15053214D01*
X13757143Y-15253214D02*
X13757143Y-15053214D01*
X13757143Y-14953214D02*
X13742857Y-14967500D01*
X13757143Y-14981786D01*
X13771428Y-14967500D01*
X13757143Y-14953214D01*
X13757143Y-14981786D01*
X13942857Y-15253214D02*
X13914286Y-15238929D01*
X13900000Y-15210357D01*
X13900000Y-14953214D01*
X14100000Y-15253214D02*
X14071428Y-15238929D01*
X14057143Y-15210357D01*
X14057143Y-14953214D01*
X14442857Y-15253214D02*
X14442857Y-14953214D01*
X14542857Y-15167500D01*
X14642857Y-14953214D01*
X14642857Y-15253214D01*
X14914286Y-15253214D02*
X14914286Y-15096072D01*
X14900000Y-15067500D01*
X14871428Y-15053214D01*
X14814286Y-15053214D01*
X14785714Y-15067500D01*
X14914286Y-15238929D02*
X14885714Y-15253214D01*
X14814286Y-15253214D01*
X14785714Y-15238929D01*
X14771428Y-15210357D01*
X14771428Y-15181786D01*
X14785714Y-15153214D01*
X14814286Y-15138929D01*
X14885714Y-15138929D01*
X14914286Y-15124643D01*
X15057143Y-15053214D02*
X15057143Y-15353214D01*
X15057143Y-15067500D02*
X15085714Y-15053214D01*
X15142857Y-15053214D01*
X15171428Y-15067500D01*
X15185714Y-15081786D01*
X15200000Y-15110357D01*
X15200000Y-15196072D01*
X15185714Y-15224643D01*
X15171428Y-15238929D01*
X15142857Y-15253214D01*
X15085714Y-15253214D01*
X15057143Y-15238929D01*
X15328571Y-15224643D02*
X15342857Y-15238929D01*
X15328571Y-15253214D01*
X15314286Y-15238929D01*
X15328571Y-15224643D01*
X15328571Y-15253214D01*
X15328571Y-15067500D02*
X15342857Y-15081786D01*
X15328571Y-15096072D01*
X15314286Y-15081786D01*
X15328571Y-15067500D01*
X15328571Y-15096072D01*
X12955000Y-15732500D02*
X12985000Y-15762500D01*
X12985000Y-15732500D02*
X12955000Y-15762500D01*
X13328571Y-15583214D02*
X13357143Y-15583214D01*
X13385714Y-15597500D01*
X13400000Y-15611786D01*
X13414286Y-15640357D01*
X13428571Y-15697500D01*
X13428571Y-15768929D01*
X13414286Y-15826072D01*
X13400000Y-15854643D01*
X13385714Y-15868929D01*
X13357143Y-15883214D01*
X13328571Y-15883214D01*
X13300000Y-15868929D01*
X13285714Y-15854643D01*
X13271428Y-15826072D01*
X13257143Y-15768929D01*
X13257143Y-15697500D01*
X13271428Y-15640357D01*
X13285714Y-15611786D01*
X13300000Y-15597500D01*
X13328571Y-15583214D01*
X13557143Y-15854643D02*
X13571428Y-15868929D01*
X13557143Y-15883214D01*
X13542857Y-15868929D01*
X13557143Y-15854643D01*
X13557143Y-15883214D01*
X13671428Y-15583214D02*
X13857143Y-15583214D01*
X13757143Y-15697500D01*
X13800000Y-15697500D01*
X13828571Y-15711786D01*
X13842857Y-15726072D01*
X13857143Y-15754643D01*
X13857143Y-15826072D01*
X13842857Y-15854643D01*
X13828571Y-15868929D01*
X13800000Y-15883214D01*
X13714286Y-15883214D01*
X13685714Y-15868929D01*
X13671428Y-15854643D01*
X14042857Y-15583214D02*
X14071428Y-15583214D01*
X14100000Y-15597500D01*
X14114286Y-15611786D01*
X14128571Y-15640357D01*
X14142857Y-15697500D01*
X14142857Y-15768929D01*
X14128571Y-15826072D01*
X14114286Y-15854643D01*
X14100000Y-15868929D01*
X14071428Y-15883214D01*
X14042857Y-15883214D01*
X14014286Y-15868929D01*
X14000000Y-15854643D01*
X13985714Y-15826072D01*
X13971428Y-15768929D01*
X13971428Y-15697500D01*
X13985714Y-15640357D01*
X14000000Y-15611786D01*
X14014286Y-15597500D01*
X14042857Y-15583214D01*
X14271428Y-15883214D02*
X14271428Y-15683214D01*
X14271428Y-15711786D02*
X14285714Y-15697500D01*
X14314286Y-15683214D01*
X14357143Y-15683214D01*
X14385714Y-15697500D01*
X14400000Y-15726072D01*
X14400000Y-15883214D01*
X14400000Y-15726072D02*
X14414286Y-15697500D01*
X14442857Y-15683214D01*
X14485714Y-15683214D01*
X14514286Y-15697500D01*
X14528571Y-15726072D01*
X14528571Y-15883214D01*
X14671428Y-15883214D02*
X14671428Y-15683214D01*
X14671428Y-15711786D02*
X14685714Y-15697500D01*
X14714286Y-15683214D01*
X14757143Y-15683214D01*
X14785714Y-15697500D01*
X14800000Y-15726072D01*
X14800000Y-15883214D01*
X14800000Y-15726072D02*
X14814286Y-15697500D01*
X14842857Y-15683214D01*
X14885714Y-15683214D01*
X14914286Y-15697500D01*
X14928571Y-15726072D01*
X14928571Y-15883214D01*
X15514286Y-15568929D02*
X15257143Y-15954643D01*
X15900000Y-15583214D02*
X15928571Y-15583214D01*
X15957143Y-15597500D01*
X15971428Y-15611786D01*
X15985714Y-15640357D01*
X16000000Y-15697500D01*
X16000000Y-15768929D01*
X15985714Y-15826072D01*
X15971428Y-15854643D01*
X15957143Y-15868929D01*
X15928571Y-15883214D01*
X15900000Y-15883214D01*
X15871428Y-15868929D01*
X15857143Y-15854643D01*
X15842857Y-15826072D01*
X15828571Y-15768929D01*
X15828571Y-15697500D01*
X15842857Y-15640357D01*
X15857143Y-15611786D01*
X15871428Y-15597500D01*
X15900000Y-15583214D01*
X16128571Y-15854643D02*
X16142857Y-15868929D01*
X16128571Y-15883214D01*
X16114286Y-15868929D01*
X16128571Y-15854643D01*
X16128571Y-15883214D01*
X16328571Y-15583214D02*
X16357143Y-15583214D01*
X16385714Y-15597500D01*
X16400000Y-15611786D01*
X16414286Y-15640357D01*
X16428571Y-15697500D01*
X16428571Y-15768929D01*
X16414286Y-15826072D01*
X16400000Y-15854643D01*
X16385714Y-15868929D01*
X16357143Y-15883214D01*
X16328571Y-15883214D01*
X16300000Y-15868929D01*
X16285714Y-15854643D01*
X16271428Y-15826072D01*
X16257143Y-15768929D01*
X16257143Y-15697500D01*
X16271428Y-15640357D01*
X16285714Y-15611786D01*
X16300000Y-15597500D01*
X16328571Y-15583214D01*
X16714286Y-15883214D02*
X16542857Y-15883214D01*
X16628571Y-15883214D02*
X16628571Y-15583214D01*
X16600000Y-15626072D01*
X16571428Y-15654643D01*
X16542857Y-15668929D01*
X16828571Y-15611786D02*
X16842857Y-15597500D01*
X16871428Y-15583214D01*
X16942857Y-15583214D01*
X16971428Y-15597500D01*
X16985714Y-15611786D01*
X17000000Y-15640357D01*
X17000000Y-15668929D01*
X16985714Y-15711786D01*
X16814286Y-15883214D01*
X17000000Y-15883214D01*
X17114286Y-15583214D02*
X17114286Y-15640357D01*
X17228571Y-15583214D02*
X17228571Y-15640357D01*
X17671428Y-15997500D02*
X17657143Y-15983214D01*
X17628571Y-15940357D01*
X17614286Y-15911786D01*
X17600000Y-15868929D01*
X17585714Y-15797500D01*
X17585714Y-15740357D01*
X17600000Y-15668929D01*
X17614286Y-15626072D01*
X17628571Y-15597500D01*
X17657143Y-15554643D01*
X17671428Y-15540357D01*
X17942857Y-15883214D02*
X17771428Y-15883214D01*
X17857143Y-15883214D02*
X17857143Y-15583214D01*
X17828571Y-15626072D01*
X17800000Y-15654643D01*
X17771428Y-15668929D01*
X18042857Y-15583214D02*
X18242857Y-15583214D01*
X18114286Y-15883214D01*
X18485714Y-15583214D02*
X18428571Y-15583214D01*
X18400000Y-15597500D01*
X18385714Y-15611786D01*
X18357143Y-15654643D01*
X18342857Y-15711786D01*
X18342857Y-15826072D01*
X18357143Y-15854643D01*
X18371428Y-15868929D01*
X18400000Y-15883214D01*
X18457143Y-15883214D01*
X18485714Y-15868929D01*
X18500000Y-15854643D01*
X18514286Y-15826072D01*
X18514286Y-15754643D01*
X18500000Y-15726072D01*
X18485714Y-15711786D01*
X18457143Y-15697500D01*
X18400000Y-15697500D01*
X18371428Y-15711786D01*
X18357143Y-15726072D01*
X18342857Y-15754643D01*
X18871428Y-15883214D02*
X18871428Y-15583214D01*
X19000000Y-15883214D02*
X19000000Y-15726072D01*
X18985714Y-15697500D01*
X18957143Y-15683214D01*
X18914286Y-15683214D01*
X18885714Y-15697500D01*
X18871428Y-15711786D01*
X19185714Y-15883214D02*
X19157143Y-15868929D01*
X19142857Y-15854643D01*
X19128571Y-15826072D01*
X19128571Y-15740357D01*
X19142857Y-15711786D01*
X19157143Y-15697500D01*
X19185714Y-15683214D01*
X19228571Y-15683214D01*
X19257143Y-15697500D01*
X19271428Y-15711786D01*
X19285714Y-15740357D01*
X19285714Y-15826072D01*
X19271428Y-15854643D01*
X19257143Y-15868929D01*
X19228571Y-15883214D01*
X19185714Y-15883214D01*
X19457143Y-15883214D02*
X19428571Y-15868929D01*
X19414286Y-15840357D01*
X19414286Y-15583214D01*
X19685714Y-15868929D02*
X19657143Y-15883214D01*
X19600000Y-15883214D01*
X19571428Y-15868929D01*
X19557143Y-15840357D01*
X19557143Y-15726072D01*
X19571428Y-15697500D01*
X19600000Y-15683214D01*
X19657143Y-15683214D01*
X19685714Y-15697500D01*
X19700000Y-15726072D01*
X19700000Y-15754643D01*
X19557143Y-15783214D01*
X19814286Y-15868929D02*
X19842857Y-15883214D01*
X19900000Y-15883214D01*
X19928571Y-15868929D01*
X19942857Y-15840357D01*
X19942857Y-15826072D01*
X19928571Y-15797500D01*
X19900000Y-15783214D01*
X19857143Y-15783214D01*
X19828571Y-15768929D01*
X19814286Y-15740357D01*
X19814286Y-15726072D01*
X19828571Y-15697500D01*
X19857143Y-15683214D01*
X19900000Y-15683214D01*
X19928571Y-15697500D01*
X20042857Y-15997500D02*
X20057143Y-15983214D01*
X20085714Y-15940357D01*
X20100000Y-15911786D01*
X20114286Y-15868929D01*
X20128571Y-15797500D01*
X20128571Y-15740357D01*
X20114286Y-15668929D01*
X20100000Y-15626072D01*
X20085714Y-15597500D01*
X20057143Y-15554643D01*
X20042857Y-15540357D01*
X12985000Y-16143500D02*
G75*
G03X12985000Y-16143500I-20000J0D01*
G01*
X13328571Y-15979214D02*
X13357143Y-15979214D01*
X13385714Y-15993500D01*
X13400000Y-16007786D01*
X13414286Y-16036357D01*
X13428571Y-16093500D01*
X13428571Y-16164929D01*
X13414286Y-16222072D01*
X13400000Y-16250643D01*
X13385714Y-16264929D01*
X13357143Y-16279214D01*
X13328571Y-16279214D01*
X13300000Y-16264929D01*
X13285714Y-16250643D01*
X13271428Y-16222072D01*
X13257143Y-16164929D01*
X13257143Y-16093500D01*
X13271428Y-16036357D01*
X13285714Y-16007786D01*
X13300000Y-15993500D01*
X13328571Y-15979214D01*
X13557143Y-16250643D02*
X13571428Y-16264929D01*
X13557143Y-16279214D01*
X13542857Y-16264929D01*
X13557143Y-16250643D01*
X13557143Y-16279214D01*
X13828571Y-16079214D02*
X13828571Y-16279214D01*
X13757143Y-15964929D02*
X13685714Y-16179214D01*
X13871428Y-16179214D01*
X14042857Y-15979214D02*
X14071428Y-15979214D01*
X14100000Y-15993500D01*
X14114286Y-16007786D01*
X14128571Y-16036357D01*
X14142857Y-16093500D01*
X14142857Y-16164929D01*
X14128571Y-16222072D01*
X14114286Y-16250643D01*
X14100000Y-16264929D01*
X14071428Y-16279214D01*
X14042857Y-16279214D01*
X14014286Y-16264929D01*
X14000000Y-16250643D01*
X13985714Y-16222072D01*
X13971428Y-16164929D01*
X13971428Y-16093500D01*
X13985714Y-16036357D01*
X14000000Y-16007786D01*
X14014286Y-15993500D01*
X14042857Y-15979214D01*
X14271428Y-16279214D02*
X14271428Y-16079214D01*
X14271428Y-16107786D02*
X14285714Y-16093500D01*
X14314286Y-16079214D01*
X14357143Y-16079214D01*
X14385714Y-16093500D01*
X14400000Y-16122072D01*
X14400000Y-16279214D01*
X14400000Y-16122072D02*
X14414286Y-16093500D01*
X14442857Y-16079214D01*
X14485714Y-16079214D01*
X14514286Y-16093500D01*
X14528571Y-16122072D01*
X14528571Y-16279214D01*
X14671428Y-16279214D02*
X14671428Y-16079214D01*
X14671428Y-16107786D02*
X14685714Y-16093500D01*
X14714286Y-16079214D01*
X14757143Y-16079214D01*
X14785714Y-16093500D01*
X14800000Y-16122072D01*
X14800000Y-16279214D01*
X14800000Y-16122072D02*
X14814286Y-16093500D01*
X14842857Y-16079214D01*
X14885714Y-16079214D01*
X14914286Y-16093500D01*
X14928571Y-16122072D01*
X14928571Y-16279214D01*
X15514286Y-15964929D02*
X15257143Y-16350643D01*
X15900000Y-15979214D02*
X15928571Y-15979214D01*
X15957143Y-15993500D01*
X15971428Y-16007786D01*
X15985714Y-16036357D01*
X16000000Y-16093500D01*
X16000000Y-16164929D01*
X15985714Y-16222072D01*
X15971428Y-16250643D01*
X15957143Y-16264929D01*
X15928571Y-16279214D01*
X15900000Y-16279214D01*
X15871428Y-16264929D01*
X15857143Y-16250643D01*
X15842857Y-16222072D01*
X15828571Y-16164929D01*
X15828571Y-16093500D01*
X15842857Y-16036357D01*
X15857143Y-16007786D01*
X15871428Y-15993500D01*
X15900000Y-15979214D01*
X16128571Y-16250643D02*
X16142857Y-16264929D01*
X16128571Y-16279214D01*
X16114286Y-16264929D01*
X16128571Y-16250643D01*
X16128571Y-16279214D01*
X16328571Y-15979214D02*
X16357143Y-15979214D01*
X16385714Y-15993500D01*
X16400000Y-16007786D01*
X16414286Y-16036357D01*
X16428571Y-16093500D01*
X16428571Y-16164929D01*
X16414286Y-16222072D01*
X16400000Y-16250643D01*
X16385714Y-16264929D01*
X16357143Y-16279214D01*
X16328571Y-16279214D01*
X16300000Y-16264929D01*
X16285714Y-16250643D01*
X16271428Y-16222072D01*
X16257143Y-16164929D01*
X16257143Y-16093500D01*
X16271428Y-16036357D01*
X16285714Y-16007786D01*
X16300000Y-15993500D01*
X16328571Y-15979214D01*
X16714286Y-16279214D02*
X16542857Y-16279214D01*
X16628571Y-16279214D02*
X16628571Y-15979214D01*
X16600000Y-16022072D01*
X16571428Y-16050643D01*
X16542857Y-16064929D01*
X16971428Y-15979214D02*
X16914286Y-15979214D01*
X16885714Y-15993500D01*
X16871428Y-16007786D01*
X16842857Y-16050643D01*
X16828571Y-16107786D01*
X16828571Y-16222072D01*
X16842857Y-16250643D01*
X16857143Y-16264929D01*
X16885714Y-16279214D01*
X16942857Y-16279214D01*
X16971428Y-16264929D01*
X16985714Y-16250643D01*
X17000000Y-16222072D01*
X17000000Y-16150643D01*
X16985714Y-16122072D01*
X16971428Y-16107786D01*
X16942857Y-16093500D01*
X16885714Y-16093500D01*
X16857143Y-16107786D01*
X16842857Y-16122072D01*
X16828571Y-16150643D01*
X17114286Y-15979214D02*
X17114286Y-16036357D01*
X17228571Y-15979214D02*
X17228571Y-16036357D01*
X17671428Y-16393500D02*
X17657143Y-16379214D01*
X17628571Y-16336357D01*
X17614286Y-16307786D01*
X17600000Y-16264929D01*
X17585714Y-16193500D01*
X17585714Y-16136357D01*
X17600000Y-16064929D01*
X17614286Y-16022072D01*
X17628571Y-15993500D01*
X17657143Y-15950643D01*
X17671428Y-15936357D01*
X17914286Y-15979214D02*
X17857143Y-15979214D01*
X17828571Y-15993500D01*
X17814286Y-16007786D01*
X17785714Y-16050643D01*
X17771428Y-16107786D01*
X17771428Y-16222072D01*
X17785714Y-16250643D01*
X17800000Y-16264929D01*
X17828571Y-16279214D01*
X17885714Y-16279214D01*
X17914286Y-16264929D01*
X17928571Y-16250643D01*
X17942857Y-16222072D01*
X17942857Y-16150643D01*
X17928571Y-16122072D01*
X17914286Y-16107786D01*
X17885714Y-16093500D01*
X17828571Y-16093500D01*
X17800000Y-16107786D01*
X17785714Y-16122072D01*
X17771428Y-16150643D01*
X18300000Y-16279214D02*
X18300000Y-15979214D01*
X18428571Y-16279214D02*
X18428571Y-16122072D01*
X18414286Y-16093500D01*
X18385714Y-16079214D01*
X18342857Y-16079214D01*
X18314286Y-16093500D01*
X18300000Y-16107786D01*
X18614286Y-16279214D02*
X18585714Y-16264929D01*
X18571428Y-16250643D01*
X18557143Y-16222072D01*
X18557143Y-16136357D01*
X18571428Y-16107786D01*
X18585714Y-16093500D01*
X18614286Y-16079214D01*
X18657143Y-16079214D01*
X18685714Y-16093500D01*
X18700000Y-16107786D01*
X18714286Y-16136357D01*
X18714286Y-16222072D01*
X18700000Y-16250643D01*
X18685714Y-16264929D01*
X18657143Y-16279214D01*
X18614286Y-16279214D01*
X18885714Y-16279214D02*
X18857143Y-16264929D01*
X18842857Y-16236357D01*
X18842857Y-15979214D01*
X19114286Y-16264929D02*
X19085714Y-16279214D01*
X19028571Y-16279214D01*
X19000000Y-16264929D01*
X18985714Y-16236357D01*
X18985714Y-16122072D01*
X19000000Y-16093500D01*
X19028571Y-16079214D01*
X19085714Y-16079214D01*
X19114286Y-16093500D01*
X19128571Y-16122072D01*
X19128571Y-16150643D01*
X18985714Y-16179214D01*
X19242857Y-16264929D02*
X19271428Y-16279214D01*
X19328571Y-16279214D01*
X19357143Y-16264929D01*
X19371428Y-16236357D01*
X19371428Y-16222072D01*
X19357143Y-16193500D01*
X19328571Y-16179214D01*
X19285714Y-16179214D01*
X19257143Y-16164929D01*
X19242857Y-16136357D01*
X19242857Y-16122072D01*
X19257143Y-16093500D01*
X19285714Y-16079214D01*
X19328571Y-16079214D01*
X19357143Y-16093500D01*
X19471428Y-16393500D02*
X19485714Y-16379214D01*
X19514286Y-16336357D01*
X19528571Y-16307786D01*
X19542857Y-16264929D01*
X19557143Y-16193500D01*
X19557143Y-16136357D01*
X19542857Y-16064929D01*
X19528571Y-16022072D01*
X19514286Y-15993500D01*
X19485714Y-15950643D01*
X19471428Y-15936357D01*
X12946900Y-16501400D02*
X12946900Y-16577600D01*
X12908800Y-16539500D02*
X12985000Y-16539500D01*
X13328571Y-16375214D02*
X13357143Y-16375214D01*
X13385714Y-16389500D01*
X13400000Y-16403786D01*
X13414286Y-16432357D01*
X13428571Y-16489500D01*
X13428571Y-16560929D01*
X13414286Y-16618072D01*
X13400000Y-16646643D01*
X13385714Y-16660929D01*
X13357143Y-16675214D01*
X13328571Y-16675214D01*
X13300000Y-16660929D01*
X13285714Y-16646643D01*
X13271428Y-16618072D01*
X13257143Y-16560929D01*
X13257143Y-16489500D01*
X13271428Y-16432357D01*
X13285714Y-16403786D01*
X13300000Y-16389500D01*
X13328571Y-16375214D01*
X13557143Y-16646643D02*
X13571428Y-16660929D01*
X13557143Y-16675214D01*
X13542857Y-16660929D01*
X13557143Y-16646643D01*
X13557143Y-16675214D01*
X13671428Y-16375214D02*
X13871428Y-16375214D01*
X13742857Y-16675214D01*
X14114286Y-16375214D02*
X14057143Y-16375214D01*
X14028571Y-16389500D01*
X14014286Y-16403786D01*
X13985714Y-16446643D01*
X13971428Y-16503786D01*
X13971428Y-16618072D01*
X13985714Y-16646643D01*
X14000000Y-16660929D01*
X14028571Y-16675214D01*
X14085714Y-16675214D01*
X14114286Y-16660929D01*
X14128571Y-16646643D01*
X14142857Y-16618072D01*
X14142857Y-16546643D01*
X14128571Y-16518072D01*
X14114286Y-16503786D01*
X14085714Y-16489500D01*
X14028571Y-16489500D01*
X14000000Y-16503786D01*
X13985714Y-16518072D01*
X13971428Y-16546643D01*
X14271428Y-16675214D02*
X14271428Y-16475214D01*
X14271428Y-16503786D02*
X14285714Y-16489500D01*
X14314286Y-16475214D01*
X14357143Y-16475214D01*
X14385714Y-16489500D01*
X14400000Y-16518072D01*
X14400000Y-16675214D01*
X14400000Y-16518072D02*
X14414286Y-16489500D01*
X14442857Y-16475214D01*
X14485714Y-16475214D01*
X14514286Y-16489500D01*
X14528571Y-16518072D01*
X14528571Y-16675214D01*
X14671428Y-16675214D02*
X14671428Y-16475214D01*
X14671428Y-16503786D02*
X14685714Y-16489500D01*
X14714286Y-16475214D01*
X14757143Y-16475214D01*
X14785714Y-16489500D01*
X14800000Y-16518072D01*
X14800000Y-16675214D01*
X14800000Y-16518072D02*
X14814286Y-16489500D01*
X14842857Y-16475214D01*
X14885714Y-16475214D01*
X14914286Y-16489500D01*
X14928571Y-16518072D01*
X14928571Y-16675214D01*
X15514286Y-16360929D02*
X15257143Y-16746643D01*
X15900000Y-16375214D02*
X15928571Y-16375214D01*
X15957143Y-16389500D01*
X15971428Y-16403786D01*
X15985714Y-16432357D01*
X16000000Y-16489500D01*
X16000000Y-16560929D01*
X15985714Y-16618072D01*
X15971428Y-16646643D01*
X15957143Y-16660929D01*
X15928571Y-16675214D01*
X15900000Y-16675214D01*
X15871428Y-16660929D01*
X15857143Y-16646643D01*
X15842857Y-16618072D01*
X15828571Y-16560929D01*
X15828571Y-16489500D01*
X15842857Y-16432357D01*
X15857143Y-16403786D01*
X15871428Y-16389500D01*
X15900000Y-16375214D01*
X16128571Y-16646643D02*
X16142857Y-16660929D01*
X16128571Y-16675214D01*
X16114286Y-16660929D01*
X16128571Y-16646643D01*
X16128571Y-16675214D01*
X16328571Y-16375214D02*
X16357143Y-16375214D01*
X16385714Y-16389500D01*
X16400000Y-16403786D01*
X16414286Y-16432357D01*
X16428571Y-16489500D01*
X16428571Y-16560929D01*
X16414286Y-16618072D01*
X16400000Y-16646643D01*
X16385714Y-16660929D01*
X16357143Y-16675214D01*
X16328571Y-16675214D01*
X16300000Y-16660929D01*
X16285714Y-16646643D01*
X16271428Y-16618072D01*
X16257143Y-16560929D01*
X16257143Y-16489500D01*
X16271428Y-16432357D01*
X16285714Y-16403786D01*
X16300000Y-16389500D01*
X16328571Y-16375214D01*
X16528571Y-16375214D02*
X16714286Y-16375214D01*
X16614286Y-16489500D01*
X16657143Y-16489500D01*
X16685714Y-16503786D01*
X16700000Y-16518072D01*
X16714286Y-16546643D01*
X16714286Y-16618072D01*
X16700000Y-16646643D01*
X16685714Y-16660929D01*
X16657143Y-16675214D01*
X16571428Y-16675214D01*
X16542857Y-16660929D01*
X16528571Y-16646643D01*
X16900000Y-16375214D02*
X16928571Y-16375214D01*
X16957143Y-16389500D01*
X16971428Y-16403786D01*
X16985714Y-16432357D01*
X17000000Y-16489500D01*
X17000000Y-16560929D01*
X16985714Y-16618072D01*
X16971428Y-16646643D01*
X16957143Y-16660929D01*
X16928571Y-16675214D01*
X16900000Y-16675214D01*
X16871428Y-16660929D01*
X16857143Y-16646643D01*
X16842857Y-16618072D01*
X16828571Y-16560929D01*
X16828571Y-16489500D01*
X16842857Y-16432357D01*
X16857143Y-16403786D01*
X16871428Y-16389500D01*
X16900000Y-16375214D01*
X17114286Y-16375214D02*
X17114286Y-16432357D01*
X17228571Y-16375214D02*
X17228571Y-16432357D01*
X17671428Y-16789500D02*
X17657143Y-16775214D01*
X17628571Y-16732357D01*
X17614286Y-16703786D01*
X17600000Y-16660929D01*
X17585714Y-16589500D01*
X17585714Y-16532357D01*
X17600000Y-16460929D01*
X17614286Y-16418072D01*
X17628571Y-16389500D01*
X17657143Y-16346643D01*
X17671428Y-16332357D01*
X17942857Y-16675214D02*
X17771428Y-16675214D01*
X17857143Y-16675214D02*
X17857143Y-16375214D01*
X17828571Y-16418072D01*
X17800000Y-16446643D01*
X17771428Y-16460929D01*
X18114286Y-16503786D02*
X18085714Y-16489500D01*
X18071428Y-16475214D01*
X18057143Y-16446643D01*
X18057143Y-16432357D01*
X18071428Y-16403786D01*
X18085714Y-16389500D01*
X18114286Y-16375214D01*
X18171428Y-16375214D01*
X18200000Y-16389500D01*
X18214286Y-16403786D01*
X18228571Y-16432357D01*
X18228571Y-16446643D01*
X18214286Y-16475214D01*
X18200000Y-16489500D01*
X18171428Y-16503786D01*
X18114286Y-16503786D01*
X18085714Y-16518072D01*
X18071428Y-16532357D01*
X18057143Y-16560929D01*
X18057143Y-16618072D01*
X18071428Y-16646643D01*
X18085714Y-16660929D01*
X18114286Y-16675214D01*
X18171428Y-16675214D01*
X18200000Y-16660929D01*
X18214286Y-16646643D01*
X18228571Y-16618072D01*
X18228571Y-16560929D01*
X18214286Y-16532357D01*
X18200000Y-16518072D01*
X18171428Y-16503786D01*
X18585714Y-16675214D02*
X18585714Y-16375214D01*
X18714286Y-16675214D02*
X18714286Y-16518072D01*
X18700000Y-16489500D01*
X18671428Y-16475214D01*
X18628571Y-16475214D01*
X18600000Y-16489500D01*
X18585714Y-16503786D01*
X18900000Y-16675214D02*
X18871428Y-16660929D01*
X18857143Y-16646643D01*
X18842857Y-16618072D01*
X18842857Y-16532357D01*
X18857143Y-16503786D01*
X18871428Y-16489500D01*
X18900000Y-16475214D01*
X18942857Y-16475214D01*
X18971428Y-16489500D01*
X18985714Y-16503786D01*
X19000000Y-16532357D01*
X19000000Y-16618072D01*
X18985714Y-16646643D01*
X18971428Y-16660929D01*
X18942857Y-16675214D01*
X18900000Y-16675214D01*
X19171428Y-16675214D02*
X19142857Y-16660929D01*
X19128571Y-16632357D01*
X19128571Y-16375214D01*
X19400000Y-16660929D02*
X19371428Y-16675214D01*
X19314286Y-16675214D01*
X19285714Y-16660929D01*
X19271428Y-16632357D01*
X19271428Y-16518072D01*
X19285714Y-16489500D01*
X19314286Y-16475214D01*
X19371428Y-16475214D01*
X19400000Y-16489500D01*
X19414286Y-16518072D01*
X19414286Y-16546643D01*
X19271428Y-16575214D01*
X19528571Y-16660929D02*
X19557143Y-16675214D01*
X19614286Y-16675214D01*
X19642857Y-16660929D01*
X19657143Y-16632357D01*
X19657143Y-16618072D01*
X19642857Y-16589500D01*
X19614286Y-16575214D01*
X19571428Y-16575214D01*
X19542857Y-16560929D01*
X19528571Y-16532357D01*
X19528571Y-16518072D01*
X19542857Y-16489500D01*
X19571428Y-16475214D01*
X19614286Y-16475214D01*
X19642857Y-16489500D01*
X19757143Y-16789500D02*
X19771428Y-16775214D01*
X19800000Y-16732357D01*
X19814286Y-16703786D01*
X19828571Y-16660929D01*
X19842857Y-16589500D01*
X19842857Y-16532357D01*
X19828571Y-16460929D01*
X19814286Y-16418072D01*
X19800000Y-16389500D01*
X19771428Y-16346643D01*
X19757143Y-16332357D01*
M02*
