G04 #@! TF.GenerationSoftware,KiCad,Pcbnew,(5.1.4)-1*
G04 #@! TF.CreationDate,2019-11-08T17:49:40+09:00*
G04 #@! TF.ProjectId,gekko,67656b6b-6f2e-46b6-9963-61645f706362,rev?*
G04 #@! TF.SameCoordinates,Original*
G04 #@! TF.FileFunction,Other,User*
%FSLAX46Y46*%
G04 Gerber Fmt 4.6, Leading zero omitted, Abs format (unit mm)*
G04 Created by KiCad (PCBNEW (5.1.4)-1) date 2019-11-08 17:49:40*
%MOMM*%
%LPD*%
G04 APERTURE LIST*
%ADD10C,0.050000*%
%ADD11C,0.152400*%
G04 APERTURE END LIST*
D10*
X164250000Y-138650000D02*
X164250000Y-147450000D01*
X169450000Y-138650000D02*
X164250000Y-138650000D01*
X169450000Y-147450000D02*
X169450000Y-138650000D01*
X164250000Y-147450000D02*
X169450000Y-147450000D01*
D11*
X142570200Y-121170700D02*
X145973800Y-121170700D01*
X145973800Y-121170700D02*
X145973800Y-121627900D01*
X145973800Y-121627900D02*
X146126200Y-121627900D01*
X146126200Y-121627900D02*
X146126200Y-123736100D01*
X146126200Y-123736100D02*
X145973800Y-123736100D01*
X145973800Y-123736100D02*
X145973800Y-124193300D01*
X145973800Y-124193300D02*
X142570200Y-124193300D01*
X142570200Y-124193300D02*
X142570200Y-123736100D01*
X142570200Y-123736100D02*
X142417800Y-123736100D01*
X142417800Y-123736100D02*
X142417800Y-121627900D01*
X142417800Y-121627900D02*
X142570200Y-121627900D01*
X142570200Y-121627900D02*
X142570200Y-121170700D01*
D10*
X164403267Y-97727563D02*
X159883605Y-101520010D01*
X161896395Y-94739990D02*
X164403267Y-97727563D01*
X157376733Y-98532437D02*
X161896395Y-94739990D01*
X159883605Y-101520010D02*
X157376733Y-98532437D01*
X142783267Y-99202437D02*
X140276395Y-102190010D01*
X140276395Y-102190010D02*
X135756733Y-98397563D01*
X135756733Y-98397563D02*
X138263605Y-95409990D01*
X138263605Y-95409990D02*
X142783267Y-99202437D01*
X152413605Y-95040010D02*
X149906733Y-92052437D01*
X149906733Y-92052437D02*
X154426395Y-88259990D01*
X154426395Y-88259990D02*
X156933267Y-91247563D01*
X156933267Y-91247563D02*
X152413605Y-95040010D01*
X149888267Y-92052437D02*
X147381395Y-95040010D01*
X147381395Y-95040010D02*
X142861733Y-91247563D01*
X142861733Y-91247563D02*
X145368605Y-88259990D01*
X145368605Y-88259990D02*
X149888267Y-92052437D01*
X163150000Y-133320000D02*
X163150000Y-138520000D01*
X163150000Y-138520000D02*
X169950000Y-138520000D01*
X169950000Y-138520000D02*
X169950000Y-133320000D01*
X169950000Y-133320000D02*
X163150000Y-133320000D01*
X156695000Y-103880000D02*
X156695000Y-102420000D01*
X156695000Y-102420000D02*
X159655000Y-102420000D01*
X159655000Y-102420000D02*
X159655000Y-103880000D01*
X159655000Y-103880000D02*
X156695000Y-103880000D01*
D11*
X151553954Y-135564000D02*
X151553954Y-135722786D01*
X151864000Y-135564000D02*
X151553954Y-135564000D01*
X151864000Y-132956000D02*
X151864000Y-135564000D01*
X151553954Y-132956000D02*
X151864000Y-132956000D01*
X151553954Y-132797214D02*
X151553954Y-132956000D01*
X148266046Y-132797214D02*
X151553954Y-132797214D01*
X148266046Y-132956000D02*
X148266046Y-132797214D01*
X147956000Y-132956000D02*
X148266046Y-132956000D01*
X147956000Y-135564000D02*
X147956000Y-132956000D01*
X148266046Y-135564000D02*
X147956000Y-135564000D01*
X148266046Y-135722786D02*
X148266046Y-135564000D01*
X151553954Y-135722786D02*
X148266046Y-135722786D01*
D10*
X147815000Y-118375000D02*
X151865000Y-118375000D01*
X147815000Y-122425000D02*
X147815000Y-118375000D01*
X151865000Y-118375000D02*
X151865000Y-122425000D01*
X151865000Y-122425000D02*
X147815000Y-122425000D01*
X137770000Y-137555000D02*
X137770000Y-139415000D01*
X136830000Y-137555000D02*
X137770000Y-137555000D01*
X136830000Y-139415000D02*
X136830000Y-137555000D01*
X137770000Y-139415000D02*
X136830000Y-139415000D01*
X165605000Y-128670000D02*
X166545000Y-128670000D01*
X166545000Y-128670000D02*
X166545000Y-130530000D01*
X166545000Y-130530000D02*
X165605000Y-130530000D01*
X165605000Y-130530000D02*
X165605000Y-128670000D01*
X147490000Y-133710000D02*
X146550000Y-133710000D01*
X146550000Y-133710000D02*
X146550000Y-131850000D01*
X146550000Y-131850000D02*
X147490000Y-131850000D01*
X147490000Y-131850000D02*
X147490000Y-133710000D01*
X146560000Y-135730000D02*
X146560000Y-133870000D01*
X147500000Y-135730000D02*
X146560000Y-135730000D01*
X147500000Y-133870000D02*
X147500000Y-135730000D01*
X146560000Y-133870000D02*
X147500000Y-133870000D01*
X162980000Y-143025000D02*
X162980000Y-141165000D01*
X163920000Y-143025000D02*
X162980000Y-143025000D01*
X163920000Y-141165000D02*
X163920000Y-143025000D01*
X162980000Y-141165000D02*
X163920000Y-141165000D01*
X155280000Y-101970000D02*
X156220000Y-101970000D01*
X156220000Y-101970000D02*
X156220000Y-103830000D01*
X156220000Y-103830000D02*
X155280000Y-103830000D01*
X155280000Y-103830000D02*
X155280000Y-101970000D01*
X157470000Y-108010000D02*
X157470000Y-109870000D01*
X156530000Y-108010000D02*
X157470000Y-108010000D01*
X156530000Y-109870000D02*
X156530000Y-108010000D01*
X157470000Y-109870000D02*
X156530000Y-109870000D01*
X156320000Y-108020000D02*
X156320000Y-109880000D01*
X155380000Y-108020000D02*
X156320000Y-108020000D01*
X155380000Y-109880000D02*
X155380000Y-108020000D01*
X156320000Y-109880000D02*
X155380000Y-109880000D01*
X150830000Y-100470000D02*
X148970000Y-100470000D01*
X150830000Y-99530000D02*
X150830000Y-100470000D01*
X148970000Y-99530000D02*
X150830000Y-99530000D01*
X148970000Y-100470000D02*
X148970000Y-99530000D01*
X144470000Y-103030000D02*
X143530000Y-103030000D01*
X143530000Y-103030000D02*
X143530000Y-101170000D01*
X143530000Y-101170000D02*
X144470000Y-101170000D01*
X144470000Y-101170000D02*
X144470000Y-103030000D01*
X144395000Y-107470000D02*
X144395000Y-109330000D01*
X143455000Y-107470000D02*
X144395000Y-107470000D01*
X143455000Y-109330000D02*
X143455000Y-107470000D01*
X144395000Y-109330000D02*
X143455000Y-109330000D01*
X160170000Y-105220000D02*
X160170000Y-107080000D01*
X159230000Y-105220000D02*
X160170000Y-105220000D01*
X159230000Y-107080000D02*
X159230000Y-105220000D01*
X160170000Y-107080000D02*
X159230000Y-107080000D01*
X153000000Y-119980000D02*
X153940000Y-119980000D01*
X153940000Y-119980000D02*
X153940000Y-121840000D01*
X153940000Y-121840000D02*
X153000000Y-121840000D01*
X153000000Y-121840000D02*
X153000000Y-119980000D01*
X149830000Y-123430000D02*
X151690000Y-123430000D01*
X149830000Y-124370000D02*
X149830000Y-123430000D01*
X151690000Y-124370000D02*
X149830000Y-124370000D01*
X151690000Y-123430000D02*
X151690000Y-124370000D01*
X146965000Y-124380000D02*
X146965000Y-123440000D01*
X146965000Y-123440000D02*
X148825000Y-123440000D01*
X148825000Y-123440000D02*
X148825000Y-124380000D01*
X148825000Y-124380000D02*
X146965000Y-124380000D01*
X131370000Y-138295000D02*
X130430000Y-138295000D01*
X130430000Y-138295000D02*
X130430000Y-136435000D01*
X130430000Y-136435000D02*
X131370000Y-136435000D01*
X131370000Y-136435000D02*
X131370000Y-138295000D01*
X137770000Y-136130000D02*
X136830000Y-136130000D01*
X136830000Y-136130000D02*
X136830000Y-134270000D01*
X136830000Y-134270000D02*
X137770000Y-134270000D01*
X137770000Y-134270000D02*
X137770000Y-136130000D01*
X166480000Y-130935000D02*
X166480000Y-132795000D01*
X165540000Y-130935000D02*
X166480000Y-130935000D01*
X165540000Y-132795000D02*
X165540000Y-130935000D01*
X166480000Y-132795000D02*
X165540000Y-132795000D01*
X138030000Y-102350000D02*
X138030000Y-104210000D01*
X137090000Y-102350000D02*
X138030000Y-102350000D01*
X137090000Y-104210000D02*
X137090000Y-102350000D01*
X138030000Y-104210000D02*
X137090000Y-104210000D01*
X142980000Y-101470000D02*
X142980000Y-102410000D01*
X142980000Y-102410000D02*
X141120000Y-102410000D01*
X141120000Y-102410000D02*
X141120000Y-101470000D01*
X141120000Y-101470000D02*
X142980000Y-101470000D01*
X160880000Y-101100000D02*
X161820000Y-101100000D01*
X161820000Y-101100000D02*
X161820000Y-102960000D01*
X161820000Y-102960000D02*
X160880000Y-102960000D01*
X160880000Y-102960000D02*
X160880000Y-101100000D01*
X161100000Y-105850000D02*
X161100000Y-103990000D01*
X162040000Y-105850000D02*
X161100000Y-105850000D01*
X162040000Y-103990000D02*
X162040000Y-105850000D01*
X161100000Y-103990000D02*
X162040000Y-103990000D01*
X152014731Y-116210051D02*
X153329949Y-117525269D01*
X151350051Y-116874731D02*
X152014731Y-116210051D01*
X152665269Y-118189949D02*
X151350051Y-116874731D01*
X153329949Y-117525269D02*
X152665269Y-118189949D01*
X151010000Y-89870000D02*
X150070000Y-89870000D01*
X150070000Y-89870000D02*
X150070000Y-88010000D01*
X150070000Y-88010000D02*
X151010000Y-88010000D01*
X151010000Y-88010000D02*
X151010000Y-89870000D01*
X148540000Y-89890000D02*
X147600000Y-89890000D01*
X147600000Y-89890000D02*
X147600000Y-88030000D01*
X147600000Y-88030000D02*
X148540000Y-88030000D01*
X148540000Y-88030000D02*
X148540000Y-89890000D01*
X148930000Y-139738000D02*
X150790000Y-139738000D01*
X148930000Y-140678000D02*
X148930000Y-139738000D01*
X150790000Y-140678000D02*
X148930000Y-140678000D01*
X150790000Y-139738000D02*
X150790000Y-140678000D01*
X148930000Y-144488000D02*
X148930000Y-143548000D01*
X148930000Y-143548000D02*
X150790000Y-143548000D01*
X150790000Y-143548000D02*
X150790000Y-144488000D01*
X150790000Y-144488000D02*
X148930000Y-144488000D01*
X157670000Y-131070000D02*
X157670000Y-132930000D01*
X156730000Y-131070000D02*
X157670000Y-131070000D01*
X156730000Y-132930000D02*
X156730000Y-131070000D01*
X157670000Y-132930000D02*
X156730000Y-132930000D01*
X148953000Y-145758000D02*
X148953000Y-144818000D01*
X148953000Y-144818000D02*
X150813000Y-144818000D01*
X150813000Y-144818000D02*
X150813000Y-145758000D01*
X150813000Y-145758000D02*
X148953000Y-145758000D01*
X152946000Y-122514000D02*
X153886000Y-122514000D01*
X153886000Y-122514000D02*
X153886000Y-124374000D01*
X153886000Y-124374000D02*
X152946000Y-124374000D01*
X152946000Y-124374000D02*
X152946000Y-122514000D01*
X137400000Y-104860000D02*
X139260000Y-104860000D01*
X137400000Y-105800000D02*
X137400000Y-104860000D01*
X139260000Y-105800000D02*
X137400000Y-105800000D01*
X139260000Y-104860000D02*
X139260000Y-105800000D01*
X152199949Y-95334731D02*
X150884731Y-96649949D01*
X151535269Y-94670051D02*
X152199949Y-95334731D01*
X150220051Y-95985269D02*
X151535269Y-94670051D01*
X150884731Y-96649949D02*
X150220051Y-95985269D01*
X147740051Y-94984731D02*
X148404731Y-94320051D01*
X148404731Y-94320051D02*
X149719949Y-95635269D01*
X149719949Y-95635269D02*
X149055269Y-96299949D01*
X149055269Y-96299949D02*
X147740051Y-94984731D01*
X149720000Y-89890000D02*
X148780000Y-89890000D01*
X148780000Y-89890000D02*
X148780000Y-88030000D01*
X148780000Y-88030000D02*
X149720000Y-88030000D01*
X149720000Y-88030000D02*
X149720000Y-89890000D01*
X152130000Y-88020000D02*
X152130000Y-89880000D01*
X151190000Y-88020000D02*
X152130000Y-88020000D01*
X151190000Y-89880000D02*
X151190000Y-88020000D01*
X152130000Y-89880000D02*
X151190000Y-89880000D01*
X137400000Y-106020000D02*
X139260000Y-106020000D01*
X137400000Y-106960000D02*
X137400000Y-106020000D01*
X139260000Y-106960000D02*
X137400000Y-106960000D01*
X139260000Y-106020000D02*
X139260000Y-106960000D01*
X150625269Y-93700051D02*
X151289949Y-94364731D01*
X151289949Y-94364731D02*
X149974731Y-95679949D01*
X149974731Y-95679949D02*
X149310051Y-95015269D01*
X149310051Y-95015269D02*
X150625269Y-93700051D01*
X148390051Y-94065269D02*
X149705269Y-92750051D01*
X149054731Y-94729949D02*
X148390051Y-94065269D01*
X150369949Y-93414731D02*
X149054731Y-94729949D01*
X149705269Y-92750051D02*
X150369949Y-93414731D01*
X148930000Y-141948000D02*
X148930000Y-141008000D01*
X148930000Y-141008000D02*
X150790000Y-141008000D01*
X150790000Y-141008000D02*
X150790000Y-141948000D01*
X150790000Y-141948000D02*
X148930000Y-141948000D01*
X163930000Y-130945000D02*
X164870000Y-130945000D01*
X164870000Y-130945000D02*
X164870000Y-132805000D01*
X164870000Y-132805000D02*
X163930000Y-132805000D01*
X163930000Y-132805000D02*
X163930000Y-130945000D01*
X150790000Y-143218000D02*
X148930000Y-143218000D01*
X150790000Y-142278000D02*
X150790000Y-143218000D01*
X148930000Y-142278000D02*
X150790000Y-142278000D01*
X148930000Y-143218000D02*
X148930000Y-142278000D01*
X163930000Y-128670000D02*
X164870000Y-128670000D01*
X164870000Y-128670000D02*
X164870000Y-130530000D01*
X164870000Y-130530000D02*
X163930000Y-130530000D01*
X163930000Y-130530000D02*
X163930000Y-128670000D01*
X150790000Y-147028000D02*
X148930000Y-147028000D01*
X150790000Y-146088000D02*
X150790000Y-147028000D01*
X148930000Y-146088000D02*
X150790000Y-146088000D01*
X148930000Y-147028000D02*
X148930000Y-146088000D01*
D11*
X131298100Y-142460399D02*
X130442501Y-142460399D01*
X131298100Y-143901900D02*
X131298100Y-142460399D01*
X136301900Y-143901900D02*
X131298100Y-143901900D01*
X136301900Y-142460399D02*
X136301900Y-143901900D01*
X137157499Y-142460399D02*
X136301900Y-142460399D01*
X137157499Y-140339601D02*
X137157499Y-142460399D01*
X136301900Y-140339601D02*
X137157499Y-140339601D01*
X136301900Y-138898100D02*
X136301900Y-140339601D01*
X131298100Y-138898100D02*
X136301900Y-138898100D01*
X131298100Y-140339601D02*
X131298100Y-138898100D01*
X130442501Y-140339601D02*
X131298100Y-140339601D01*
X130442501Y-142460399D02*
X130442501Y-140339601D01*
X134660399Y-134507499D02*
X132539601Y-134507499D01*
X132539601Y-134507499D02*
X132539601Y-133651900D01*
X132539601Y-133651900D02*
X131098100Y-133651900D01*
X131098100Y-133651900D02*
X131098100Y-128648100D01*
X131098100Y-128648100D02*
X132539601Y-128648100D01*
X132539601Y-128648100D02*
X132539601Y-127792501D01*
X132539601Y-127792501D02*
X134660399Y-127792501D01*
X134660399Y-127792501D02*
X134660399Y-128648100D01*
X134660399Y-128648100D02*
X136101900Y-128648100D01*
X136101900Y-128648100D02*
X136101900Y-133651900D01*
X136101900Y-133651900D02*
X134660399Y-133651900D01*
X134660399Y-133651900D02*
X134660399Y-134507499D01*
X133069700Y-138428000D02*
X133069700Y-138138000D01*
X133069700Y-138138000D02*
X132097401Y-138138000D01*
X132097401Y-138138000D02*
X132097401Y-135162000D01*
X132097401Y-135162000D02*
X133069700Y-135162000D01*
X133069700Y-135162000D02*
X133069700Y-134872000D01*
X133069700Y-134872000D02*
X135330300Y-134872000D01*
X135330300Y-134872000D02*
X135330300Y-135162000D01*
X135330300Y-135162000D02*
X136302599Y-135162000D01*
X136302599Y-135162000D02*
X136302599Y-138138000D01*
X136302599Y-138138000D02*
X135330300Y-138138000D01*
X135330300Y-138138000D02*
X135330300Y-138428000D01*
X135330300Y-138428000D02*
X133069700Y-138428000D01*
X153778200Y-117015900D02*
X153778200Y-116558700D01*
X153625800Y-117015900D02*
X153778200Y-117015900D01*
X153625800Y-119124100D02*
X153625800Y-117015900D01*
X153778200Y-119124100D02*
X153625800Y-119124100D01*
X153778200Y-119581300D02*
X153778200Y-119124100D01*
X157181800Y-119581300D02*
X153778200Y-119581300D01*
X157181800Y-119124100D02*
X157181800Y-119581300D01*
X157334200Y-119124100D02*
X157181800Y-119124100D01*
X157334200Y-117015900D02*
X157334200Y-119124100D01*
X157181800Y-117015900D02*
X157334200Y-117015900D01*
X157181800Y-116558700D02*
X157181800Y-117015900D01*
X153778200Y-116558700D02*
X157181800Y-116558700D01*
M02*
