G04 #@! TF.GenerationSoftware,KiCad,Pcbnew,(5.1.4)-1*
G04 #@! TF.CreationDate,2019-11-08T17:49:40+09:00*
G04 #@! TF.ProjectId,gekko,67656b6b-6f2e-46b6-9963-61645f706362,rev?*
G04 #@! TF.SameCoordinates,Original*
G04 #@! TF.FileFunction,Profile,NP*
%FSLAX46Y46*%
G04 Gerber Fmt 4.6, Leading zero omitted, Abs format (unit mm)*
G04 Created by KiCad (PCBNEW (5.1.4)-1) date 2019-11-08 17:49:40*
%MOMM*%
%LPD*%
G04 APERTURE LIST*
%ADD10C,0.200000*%
G04 APERTURE END LIST*
D10*
X150292758Y-87301515D02*
G75*
G02X159333847Y-90365790I-1713791J-19926437D01*
G01*
X169950000Y-147275001D02*
G75*
G02X169450000Y-147775001I-500000J0D01*
G01*
X130450000Y-147775001D02*
X169450000Y-147775001D01*
X139546632Y-91299380D02*
X130364752Y-103235823D01*
X129950000Y-129275001D02*
X129950000Y-147275001D01*
X169950000Y-147275001D02*
X169950000Y-129275001D01*
X169535248Y-103235822D02*
G75*
G02X169950000Y-104455244I-1585248J-1219422D01*
G01*
X169950000Y-111275001D02*
G75*
G02X167949999Y-113275000I-2000000J1D01*
G01*
X138950000Y-128775001D02*
X138950000Y-111775001D01*
X162950000Y-125275001D02*
X162950000Y-115275001D01*
X149607241Y-87301514D02*
G75*
G02X150292758Y-87301515I342758J-3985289D01*
G01*
X130450000Y-147775001D02*
G75*
G02X129950000Y-147275001I0J500000D01*
G01*
X129950000Y-104455244D02*
X129950000Y-111275001D01*
X157950000Y-128775001D02*
X157950000Y-111775001D01*
X161450000Y-131264001D02*
G75*
G03X161450000Y-131264001I-1000000J0D01*
G01*
X159333847Y-90365791D02*
G75*
G02X160353367Y-91299380I-2150976J-3372431D01*
G01*
X140450000Y-109286001D02*
G75*
G03X140450000Y-109286001I-1000000J0D01*
G01*
X161450000Y-109286001D02*
G75*
G03X161450000Y-109286001I-1000000J0D01*
G01*
X169535247Y-103235823D02*
X160353367Y-91299380D01*
X167950000Y-127275001D02*
G75*
G02X169950000Y-129275001I0J-2000000D01*
G01*
X129950000Y-129275001D02*
G75*
G02X131950000Y-127275001I2000000J0D01*
G01*
X134950000Y-113275001D02*
G75*
G02X136950000Y-115275001I0J-2000000D01*
G01*
X158449999Y-129275000D02*
G75*
G02X157950000Y-128775001I0J499999D01*
G01*
X160449999Y-129275000D02*
X158450000Y-129275000D01*
X160950000Y-111775000D02*
X160950000Y-128775001D01*
X139450000Y-111275001D02*
X141450000Y-111275001D01*
X141949999Y-128775001D02*
G75*
G02X141450000Y-129275000I-499999J0D01*
G01*
X162950000Y-115275000D02*
G75*
G02X164950000Y-113275000I2000000J0D01*
G01*
X131950000Y-113275001D02*
X134950000Y-113275001D01*
X131950000Y-113275001D02*
G75*
G02X129950000Y-111275001I0J2000000D01*
G01*
X164950000Y-127275001D02*
G75*
G02X162950000Y-125275001I0J2000000D01*
G01*
X134950000Y-127275001D02*
X131950000Y-127275001D01*
X129950000Y-104455244D02*
G75*
G02X130364752Y-103235823I1999999J0D01*
G01*
X139546633Y-91299380D02*
G75*
G02X140566152Y-90365790I3170495J-2438842D01*
G01*
X167950000Y-127275001D02*
X164950000Y-127275001D01*
X158450000Y-111275000D02*
X160449999Y-111275000D01*
X138950000Y-111775001D02*
G75*
G02X139450000Y-111275001I500000J0D01*
G01*
X164950000Y-113275000D02*
X167949999Y-113275000D01*
X136950000Y-125275001D02*
G75*
G02X134950000Y-127275001I-2000000J0D01*
G01*
X136950000Y-115275001D02*
X136950000Y-125275001D01*
X140450000Y-131264001D02*
G75*
G03X140450000Y-131264001I-1000000J0D01*
G01*
X141450000Y-111275001D02*
G75*
G02X141950000Y-111775001I0J-500000D01*
G01*
X141450000Y-129275000D02*
X139450000Y-129275000D01*
X160949999Y-128775000D02*
G75*
G02X160449999Y-129275000I-500000J0D01*
G01*
X140566152Y-90365790D02*
G75*
G02X149607241Y-87301515I10754880J-16862162D01*
G01*
X141950000Y-111775001D02*
X141950000Y-128775001D01*
X160449999Y-111274999D02*
G75*
G02X160950000Y-111775000I0J-500001D01*
G01*
X157950000Y-111775000D02*
G75*
G02X158450000Y-111275000I500000J0D01*
G01*
X139450000Y-129275001D02*
G75*
G02X138950000Y-128775001I0J500000D01*
G01*
X169950000Y-111275000D02*
X169950000Y-104455244D01*
M02*
